<?xml version="1.0" encoding="UTF-8"?>
<svg xmlns="http://www.w3.org/2000/svg" viewBox="0 0 400 400" width="400" height="400">
  <rect width="100%" height="100%" fill="rgb(186,107,112)"/>
  <g transform="translate(-12.710815900971362,-17.823243477862363)">
    <path d="M 200.0,370 L 208.97612898374177,356.4249538773888 L 231.23120812235314,338.2263073152576 L 238.952368274838,327.67994603278754 L 222.49766312433286,313.90943130383255 L 208.47512794929338,300.0965716275305 L 217.15169595456413,293.3609345235525 L 204.74525494251532,283.21667077118127 L 212.9802296895161,269.6301293259812 L 219.79288446693457,257.4897877390918 L 212.4790916242054,245.85825009960308 L 221.39084116303144,229.42104902704105 L 212.66960027861296,212.66662966835915" fill="none" stroke="rgb(153,59,34)" stroke-width="2.3030117046526364" opacity="0.5524324304144574"/><path d="M 200.0,370 L 196.34592063653443,362.64473144873057 L 210.7504703589041,346.4435009898507 L 214.41925795943894,338.67143833935376 L 222.60484601849336,326.1178793853415 L 231.17316736435515,314.46268197027445 L 239.87920775082654,306.4769031019144 L 256.0052414275395,295.83822591232484 L 242.96746751572192,283.2834357730189 L 263.1378136808199,267.9343012134983 L 271.02109662906736,260.61572242396653 L 264.2789066010654,255.21311779719744 L 258.69371134877247,242.0796805974531 L 244.6848475785698,230.0719268322302 L 250.8334071330452,222.73452307431535" fill="none" stroke="rgb(153,59,34)" stroke-width="1.8629337924041693" opacity="0.7312711361065863"/><path d="M 200.0,370 L 215.89975830253886,361.4084715873555 L 228.2324112580364,344.5753685011959 L 212.03002553053102,331.04989588772844 L 199.99333417780102,316.4849833150077 L 210.28429419587647,305.91396208805236 L 218.97753956202095,291.72358900565104 L 224.79406773299502,277.9808808769631 L 215.45536741713275,258.8018827337885" fill="none" stroke="rgb(153,59,34)" stroke-width="1.3073613144133236" opacity="0.7373029611693436"/><path d="M 200.0,370 L 208.94450971579644,361.59125163626345 L 218.0692958456729,348.8104477195239 L 225.8206653661758,341.31764209359153 L 229.37293981209442,333.4339793655263 L 236.41304481524242,318.27750069016116 L 223.11690629095148,302.4262653641781 L 234.89654695253014,291.38254712241167 L 240.14164113690043,282.342034430249 L 250.3142785352963,274.6810880611378 L 258.09974829212945,260.4028777356011 L 270.649136145455,250.90963679254173 L 262.12767677819016,232.69403393414206" fill="none" stroke="rgb(153,59,34)" stroke-width="2.090774108892888" opacity="0.681638715540946"/><path d="M 200.0,370 L 209.5654631596983,353.5341963722387 L 198.76202832728933,338.697209863781 L 217.02885028681197,324.8181127262267 L 211.6350481506285,317.5198699231747 L 207.96305181938914,312.18601739703365 L 217.81331790816307,304.8125843088131 L 204.10865672598962,293.56311747783604 L 210.14952723238298,279.99558912163917 L 223.41846518723477,266.0538922037714" fill="none" stroke="rgb(153,59,34)" stroke-width="1.0603068460352203" opacity="0.7274741048176412"/><path d="M 200.0,370 L 196.08980904800927,361.4746632275683 L 186.23622118255668,346.92487977594305 L 179.36731155139088,342.2015172960995 L 199.97379090005305,326.1605586596425 L 204.81576994064838,318.97812084043346 L 213.4830980738283,309.26774684280497 L 208.2210220118292,303.99960630724183 L 214.6282243421038,295.6158457286449 L 226.37500944956292,286.1555431669017 L 240.8238026220037,266.2257441586603 L 244.86698754564608,256.09821721168345 L 235.76922096548083,248.9662467924455 L 226.44037094191486,229.6090886861178 L 247.7257743279886,211.70397846615577 L 254.30892467279926,202.7336577708001" fill="none" stroke="rgb(153,59,34)" stroke-width="2.0658261495617825" opacity="0.668082849853776"/><path d="M 200.0,370 L 212.01665091147225,359.80726477870934 L 197.19051799532446,340.4918850525129 L 180.70393062120826,325.9343290765238 L 167.11282695320568,311.67212371075533 L 172.92786940395968,297.59381288083665 L 163.14491196195422,283.83736640952276 L 167.09192883450206,276.9184202610009 L 170.8926065030797,269.91333553021644 L 175.7558974346257,259.3075208544649 L 172.1885174364008,253.58747409558404 L 192.90568726444602,232.83897575079848 L 212.65940843033985,212.601759927477" fill="none" stroke="rgb(153,59,34)" stroke-width="2.9940731749963234" opacity="0.8881791408999287"/><path d="M 200.0,370 L 191.61001435507885,364.9105622158304 L 200.45941088366658,354.3680601171281 L 206.28238143963677,344.7333177393267 L 193.01469919955156,333.26322578487355 L 179.57439658048807,319.18136363299976 L 183.7834380308058,313.7859584827247 L 187.74036253363192,308.7305125641843 L 205.62387008686972,296.0034621671806 L 214.30323317159989,288.598117852585 L 209.46503355235214,274.1795107295124 L 203.40245209439388,269.7592550878516" fill="none" stroke="rgb(153,59,34)" stroke-width="0.8224169366338692" opacity="0.5067999918967006"/>
  </g>
</svg>