<?xml version="1.0" encoding="UTF-8"?>
<svg xmlns="http://www.w3.org/2000/svg" viewBox="0 0 400 400" width="400" height="400">
  <rect width="100%" height="100%" fill="rgb(70,205,125)"/>
  <g transform="translate(2.737397576246469,2.6529916338177237)">
    <path d="M 0,44.44444444444444 L 0,-35.11194538724303 L 15,43.94515908755284 L 30,45.06480518582954 L 45,2.3788583098669207 L 60,103.90908850795495 L 75,92.9178543108804 L 90,50.73475430079149 L 105,17.793594949676397 L 120,-28.404564816711215 L 135,21.214542746509167 L 150,67.48389364137998 L 165,63.60145604136884 L 180,48.17062897370995 L 195,98.90338261454993 L 210,27.811907924820026 L 225,23.06026241576793 L 240,2.4433642881708124 L 255,115.35463870543198 L 270,70.15364380183674 L 285,96.55268993302492 L 300,49.39464999795396 L 315,-9.202782520918252 L 330,47.60082630808486 L 345,19.73433016898914 L 360,103.1155335638644 L 375,70.21429447087169 L 390,25.46760650150094 L 400,44.44444444444444" fill="none" stroke="rgb(133,124,218)" stroke-width="2.008883135880456" opacity="0.35164889803461924"/><path d="M 0,66.66666666666667 L 0,36.009225163334094 L 15,60.93186182650919 L 30,78.22516609732699 L 45,38.92296907581495 L 60,111.60262661555075 L 75,96.15850499709353 L 90,73.02475090731865 L 105,44.84393684546646 L 120,43.83399752337043 L 135,74.07501369808085 L 150,65.65466369055017 L 165,104.55185077111928 L 180,141.4107756998448 L 195,100.42964864557027 L 210,33.314883517589536 L 225,43.21072587400889 L 240,42.2936352940808 L 255,138.9712300319805 L 270,78.79253570543175 L 285,102.63331879102759 L 300,2.8267399063530476 L 315,73.2644183028801 L 330,17.995627621797908 L 345,81.77767450757584 L 360,107.01974019240127 L 375,99.82774447271426 L 390,108.64170492957489 L 400,66.66666666666667" fill="none" stroke="rgb(133,124,218)" stroke-width="2.21119591922957" opacity="0.7911389470619627"/><path d="M 0,120.0 L 0,48.73521913996913 L 15,61.618001423922365 L 30,92.52642456879353 L 45,24.82865982178282 L 60,135.69199535062165 L 75,124.28062223473783 L 90,121.22399587612102 L 105,113.32890155762075 L 120,93.35702389670165 L 135,131.91930442200913 L 150,137.63274591881284 L 165,134.29363565350428 L 180,122.7411757253289 L 195,126.89329288999312 L 210,80.00223613822362 L 225,69.5568333991178 L 240,81.42172092133552 L 255,138.45176805566956 L 270,130.62804860955154 L 285,144.41861936939642 L 300,103.51459899750003 L 315,101.84902733311964 L 330,94.72257584766271 L 345,117.16050244867253 L 360,193.36987836970354 L 375,161.30254968263827 L 390,139.0995559523745 L 400,120.0" fill="none" stroke="rgb(133,124,218)" stroke-width="2.5320147171537375" opacity="0.3731075922304744"/><path d="M 0,133.33333333333334 L 0,68.85221325410205 L 15,82.37537293674993 L 30,72.07557128960495 L 45,96.37771342581394 L 60,150.12924855263353 L 75,209.43991093262935 L 90,172.53803525033152 L 105,94.49101198565674 L 120,75.06186036382563 L 135,138.88656933895484 L 150,165.9690337601584 L 165,98.14697628557164 L 180,157.91420739871643 L 195,217.54076029529512 L 210,86.79113082921128 L 225,88.71302660545405 L 240,106.02759500767758 L 255,211.7603172164482 L 270,181.41450151404496 L 285,169.33608383561193 L 300,142.58535532393262 L 315,120.89535439034555 L 330,69.9078124582478 L 345,116.06774812135484 L 360,173.38499388919408 L 375,167.60823795453823 L 390,175.12968370387352 L 400,133.33333333333334" fill="none" stroke="rgb(133,124,218)" stroke-width="0.5537186956232558" opacity="0.6384241132061117"/><path d="M 0,222.22222222222223 L 0,205.99493328282898 L 15,119.99787159297239 L 30,148.816613851876 L 45,195.4680930538941 L 60,283.004781514657 L 75,263.66866776711106 L 90,228.4607200407593 L 105,182.25369154450138 L 120,179.81194545029152 L 135,174.852760056934 L 150,262.9439414985691 L 165,262.1620325866753 L 180,259.11229900026797 L 195,209.4107270022655 L 210,227.06035541923524 L 225,186.289403623401 L 240,228.5761511214693 L 255,231.98342079356658 L 270,228.98466489807916 L 285,266.2837164811625 L 300,195.24977630893272 L 315,193.5942577766419 L 330,205.81224083053388 L 345,196.1951442424311 L 360,231.83341194980716 L 375,261.8354989994103 L 390,252.73468177736865 L 400,222.22222222222223" fill="none" stroke="rgb(133,124,218)" stroke-width="0.7948557797650562" opacity="0.5701172355672366"/><path d="M 0,218.1818181818182 L 0,215.09944316445382 L 15,198.2024131039176 L 30,217.42784682153967 L 45,195.26286675718453 L 60,260.8315163374325 L 75,280.9763866432724 L 90,252.51022703909635 L 105,264.8631884460036 L 120,238.2518045435255 L 135,177.9311940363481 L 150,227.26533922940442 L 165,260.87202865858455 L 180,275.13568593798027 L 195,261.07219439101334 L 210,204.7964465249593 L 225,148.3497544381571 L 240,147.05330446163092 L 255,288.1491314226417 L 270,272.0140676580395 L 285,246.1458826409648 L 300,225.2699657913345 L 315,217.640550764691 L 330,187.55025254094897 L 345,180.38994174212914 L 360,262.0416859916745 L 375,261.3873768253479 L 390,262.633506576371 L 400,218.1818181818182" fill="none" stroke="rgb(133,124,218)" stroke-width="1.6910697636715726" opacity="0.39237816640574863"/><path d="M 0,400.0 L 0,416.77024575544715 L 15,387.0862171259172 L 30,358.340751864541 L 45,330.9181760059869 L 60,422.41119991336427 L 75,403.66475756945346 L 90,428.73485838086617 L 105,366.540863987938 L 120,393.2397191079533 L 135,357.0972753789802 L 150,425.9577557225035 L 165,434.24326813343436 L 180,460.9736817684222 L 195,392.4078269474799 L 210,332.7044095309382 L 225,359.19936502281814 L 240,378.4126042108233 L 255,438.7163860711689 L 270,472.02591420241924 L 285,448.8978259562447 L 300,417.38911932983456 L 315,372.3323444979608 L 330,378.9515107349405 L 345,338.42484664272973 L 360,408.21596784341216 L 375,430.0143214543138 L 390,439.4892967567874 L 400,400.0" fill="none" stroke="rgb(133,124,218)" stroke-width="2.6140585267359215" opacity="0.34833634796958657"/><path d="M 0,457.14285714285717 L 0,467.4745442092712 L 15,421.7363472521456 L 30,422.4999490911114 L 45,445.57563759603596 L 60,478.838337912692 L 75,506.4075533656128 L 90,457.872066198092 L 105,405.2482812994176 L 120,455.5744695590399 L 135,410.91726924894255 L 150,475.47613531493414 L 165,493.3132835123109 L 180,453.1109936381312 L 195,490.95035080823413 L 210,442.9243795492495 L 225,445.72265797682616 L 240,396.1019928648778 L 255,490.37570714848835 L 270,491.01268732650016 L 285,439.9072483679176 L 300,422.135280724103 L 315,483.7655679841513 L 330,445.46904798339796 L 345,427.94754731539433 L 360,504.6333959398502 L 375,490.3916384955186 L 390,514.9697001227003 L 400,457.14285714285717" fill="none" stroke="rgb(133,124,218)" stroke-width="1.784084662081229" opacity="0.3095406645271002"/><path d="M 0,400.0 L 0,389.9323661351175 L 15,347.6648500168691 L 30,365.04872175636103 L 45,373.9373275037743 L 60,415.7402111758029 L 75,439.2551009192962 L 90,425.3707208254173 L 105,358.0140927536787 L 120,356.3680038979484 L 135,375.0688407624457 L 150,471.2113631330372 L 165,403.2575884587657 L 180,406.27224630840965 L 195,439.84021610138353 L 210,402.66251477791286 L 225,341.96358440140455 L 240,401.3837500779741 L 255,431.09826631731414 L 270,472.0453142116717 L 285,458.22855564189075 L 300,335.3244941865276 L 315,378.80697818343083 L 330,331.4192476951483 L 345,404.90711538098714 L 360,430.0462343229629 L 375,456.09383891102254 L 390,443.319767740471 L 400,400.0" fill="none" stroke="rgb(133,124,218)" stroke-width="2.5136230768767653" opacity="0.5036830366673314"/>
  </g>
</svg>