<?xml version="1.0" encoding="UTF-8"?>
<svg xmlns="http://www.w3.org/2000/svg" viewBox="0 0 400 400" width="400" height="400">
  <rect width="100%" height="100%" fill="rgb(202,187,79)"/>
  <g transform="translate(13.519764077952829,-0.31686582902948146)">
    <path d="M 200.0,370 L 188.49237350245022,361.7182905407381 L 198.43608263582428,350.8929791620386 L 179.804275817007,340.0928407768142 L 163.19471163308833,331.0806893881591 L 153.87421865046664,314.78347072755525 L 163.34527528066326,307.8844846695634 L 157.2451798869102,291.5447437060288 L 162.3614720653642,286.35495361162975 L 177.04617153033752,273.1938961982618 L 172.14811980413594,268.5907705744329" fill="none" stroke="rgb(219,206,76)" stroke-width="1.534209502794103" opacity="0.3879801824852787"/><path d="M 200.0,370 L 205.8389572986117,360.30191277021663 L 190.84974396258758,339.55167647855114 L 195.85575211182865,334.14679376947515 L 207.45913273080848,315.75776113747526 L 197.73454457962325,304.432526870369 L 211.90591243085876,293.9994493352202 L 226.48341347272992,281.4386012129601 L 219.39551372010936,270.5623372786744 L 225.4295776540561,263.3926404886951 L 228.91667727541804,255.72447783909192 L 236.08468957702055,245.48343563414412 L 253.46872474606474,233.42195205000644 L 264.53607442458997,224.85299144242796 L 254.018196174169,211.94682001166657 L 260.85010315209183,205.2795319032921 L 274.79518352397656,191.1684804603306 L 288.42700383051914,176.08755981197888" fill="none" stroke="rgb(219,206,76)" stroke-width="2.4216693645193343" opacity="0.6540152517525921"/><path d="M 200.0,370 L 220.09164991401377,349.048424353482 L 230.42356188576093,341.7007684279548 L 242.16209647740388,324.8922458338802 L 249.1432372309664,305.8343478215224 L 241.50657985572275,301.08101480592546 L 248.25869289362583,285.4458289215415 L 265.5030129799927,274.3581432100715 L 270.800863242302,265.7030566821943 L 263.8014882177889,260.29595342011555 L 248.66607128621007,241.42226986982632 L 264.59773568310777,229.60005218251902" fill="none" stroke="rgb(219,206,76)" stroke-width="2.2623602178549302" opacity="0.7381391759563509"/><path d="M 200.0,370 L 205.58696923306056,361.2936793735782 L 220.2377790981353,344.30712746719547 L 203.61580272849767,329.39169384410104 L 209.54512627560126,320.94172822630225 L 219.33518900454993,302.4692238577046 L 223.27485893906,292.8283166602951 L 230.76715889769977,284.28814615414944 L 242.01380062770934,278.01188290716607 L 252.11766422499116,264.0435423156449 L 260.2580527894893,250.92958440965145 L 271.60481945333635,238.74035969143276" fill="none" stroke="rgb(219,206,76)" stroke-width="2.6280967748996273" opacity="0.8788595265652308"/><path d="M 200.0,370 L 206.26751896191672,362.2661223399802 L 211.86846266424988,353.1824619000606 L 231.05539064155641,339.3095386088258 L 240.74807983107692,333.2674174942311 L 230.73611545077304,318.8899399416876 L 240.2071767711782,311.9706536388815 L 254.10054153400387,300.5229464071976 L 262.23345200799395,288.7168435390065 L 271.1492828114704,266.97435258075126 L 281.74229970501983,254.76269369455414 L 267.88641302940755,236.86252019258777 L 271.83622478013496,231.02675384103244 L 279.62330102573037,219.78123738671405" fill="none" stroke="rgb(219,206,76)" stroke-width="1.008172286253696" opacity="0.8345713499913103"/><path d="M 200.0,370 L 208.9792864157808,362.86453374880847 L 215.70945932414125,358.4191517805528 L 204.86127749525832,346.67835524865865 L 186.2364249295091,327.0283241562032 L 182.66427066381644,316.389318496369 L 194.00674198606288,305.368174377643 L 210.9218295990433,288.33410600864204 L 214.85767774116275,281.94547714664685 L 228.14686691588298,266.08800619316446 L 232.56093110966762,254.2073211614075" fill="none" stroke="rgb(219,206,76)" stroke-width="1.249809251839556" opacity="0.30002684505197363"/>
  </g>
</svg>