<?xml version="1.0" encoding="UTF-8"?>
<svg xmlns="http://www.w3.org/2000/svg" viewBox="0 0 400 400" width="400" height="400">
  <rect width="100%" height="100%" fill="rgb(47,181,22)"/>
  <g transform="translate(-9.880752396669713,-0.48673221651550946)">
    <path d="M 200.0,200.0 L 81.01768696230097,233.37861832756315 L 193.7144893524881,269.151329820048 L 200.83779399200685,168.2027018390263 L 178.30755054133382,253.3131041518217 Z" fill="none" stroke="rgb(168,52,72)" stroke-width="2.3493846231077704" opacity="0.5614593970383149"/><path d="M 200.0,200.0 L 197.29196751074238,174.40953424877713 L 201.97908356194685,124.18293911284306 L 88.16300188972545,188.04526506489046 L 111.45147988982568,138.59330367520468 L 125.58472820115719,201.17916567865146 Z" fill="none" stroke="rgb(168,52,72)" stroke-width="1.3516969357078956" opacity="0.8857031763204322"/><path d="M 200.0,200.0 L 197.31465903490113,211.52317424753548 L 164.00394531462658,147.52193023915504 L 281.5861244773559,179.4982417019773 L 159.3752667019378,238.53513774424553 Z" fill="none" stroke="rgb(168,52,72)" stroke-width="0.7319139291218539" opacity="0.5071483210777983"/><path d="M 200.0,200.0 L 110.71490649493305,198.43217700571307 L 86.68099578237883,232.8111087736702 L 141.3091458860293,192.3403747089662 Z" fill="none" stroke="rgb(168,52,72)" stroke-width="1.5423295355251447" opacity="0.654816970688648"/><path d="M 200.0,200.0 L 199.85222490403166,258.75942561287127 L 276.979467384369,143.92735412105316 L 162.5858243138981,261.86072265837106 L 278.2721337880547,227.99603077713311 Z" fill="none" stroke="rgb(168,52,72)" stroke-width="0.5607348553381901" opacity="0.35319410121794687"/><path d="M 200.0,200.0 L 135.4228468220238,95.11891458556501 L 111.8465036630222,93.92421610452604 L 132.58772090040412,214.83175631143482 L 145.92693085957507,141.63103419595765 L 116.05530072142352,168.1757425959869 L 211.8789498349329,177.78904807139796 Z" fill="none" stroke="rgb(168,52,72)" stroke-width="2.247986790861284" opacity="0.6709578932756473"/><path d="M 200.0,200.0 L 174.3728693942685,166.69402219477072 L 176.2679281572418,206.9418954219619 L 165.76116656908584,242.58435384002848 L 165.80854308240134,209.16186203334857 L 163.29009391147812,207.99440271024645 L 178.1930800001406,192.74203185833915 Z" fill="none" stroke="rgb(168,52,72)" stroke-width="2.723261120869553" opacity="0.434227471803064"/><path d="M 200.0,200.0 L 187.8497504623553,123.6553538810126 L 204.12977869746385,225.05824474953008 L 205.42725007938785,184.39007095424543 Z" fill="none" stroke="rgb(168,52,72)" stroke-width="0.662533493411747" opacity="0.5212176189779605"/><path d="M 200.0,200.0 L 244.0932152253199,226.16919705514212 L 115.24054197882168,226.26410578328597 L 220.52028265217768,171.55281939357198 L 108.01702562620277,159.28774801983317 L 208.06791170830627,254.9795180327257 Z" fill="none" stroke="rgb(168,52,72)" stroke-width="0.7180045354874485" opacity="0.6052713070133777"/><path d="M 200.0,200.0 L 234.79651652906543,297.5859680340898 L 227.08665119073464,217.72718335618745 L 96.7061073022821,186.57352097571643 L 244.71525215769208,235.0021154361536 L 109.23611711611532,243.9767330896239 Z" fill="none" stroke="rgb(168,52,72)" stroke-width="1.5360845323413395" opacity="0.8660926521629644"/><path d="M 200.0,200.0 L 212.23636038538046,228.92125115767809 L 186.40562732093315,227.9559189887552 L 74.40455140437678,217.5214606158365 Z" fill="none" stroke="rgb(168,52,72)" stroke-width="1.3941489399770846" opacity="0.3288505532893537"/>
  </g>
</svg>