<?xml version="1.0" encoding="UTF-8"?>
<svg xmlns="http://www.w3.org/2000/svg" viewBox="0 0 400 400" width="400" height="400">
  <rect width="100%" height="100%" fill="rgb(229,192,135)"/>
  <g transform="translate(15.803157939759437,12.409717536607147)">
    <path d="M 192.01915374745192,288.98979953465306 L 185.62895338704527,294.8430264094612 L 191.5639243868285,283.5815576838441 L 199.14651377271352,275.4314521643666 L 187.7911087033565,278.8581234507097 L 178.15063654788563,274.07044785366656 L 189.9414322820712,271.5793256129754 L 200.19635711114842,273.0008334096765 L 208.4710925433208,280.5243390144968 L 202.89473225383304,270.3276566649109 L 211.67865347389207,262.57174565373896 L 221.35829292539802,254.12843312755672 L 210.55847238392033,251.1311428310055 L 222.28098301740664,248.59360234832974 L 215.99578277745906,243.6861229669344 L 219.20785467799988,237.95095455885024 L 223.6920875501332,243.42650237201852 L 230.83147670914897,243.73075458151598 L 241.20902443079694,248.80261508108006 L 236.29855439534592,259.31574907137724 L 226.32068316574268,259.9586426309668 L 236.5918613707086,261.1136622657417 L 243.03419226102682,260.16266549658206 L 251.32927015610642,258.76203476829085 L 243.72302390289508,259.5838094887247 L 231.07200442783267,262.9700881972503 L 243.97701166357402,260.8315379373163" fill="none" stroke="rgb(96,155,193)" stroke-width="1.1470822304418218" opacity="0.5504795332333541"/><path d="M 174.39726756553938,84.62889068632073 L 174.497619581568,95.62467603102412 L 163.90586732474918,89.65791094840017 L 165.80148370393363,79.20885450979453 L 165.2555096883567,87.04972241427384 L 168.06693032238863,73.89726868636681 L 166.93993432380913,85.8444834212332 L 172.76163642555062,88.59564469082198 L 183.5914297161456,83.24432583297099 L 184.8068000604018,96.60276624677572 L 180.23729427398857,104.50429817060797 L 192.03126026372192,110.51680488142992 L 190.49957131964908,122.80494957244596 L 191.61244699281113,135.11833239099929 L 194.44013547528488,143.3188433347421 L 193.3450505027908,152.9962739920645 L 201.42148813252524,153.40337210271247 L 208.52387366557775,153.77431517940641 L 215.16065917998674,154.78693713121217 L 206.2890960046612,156.8353197201324 L 213.19908403293533,155.5109155186217 L 224.7743326440889,150.71246422764185" fill="none" stroke="rgb(96,155,193)" stroke-width="2.5390445050712085" opacity="0.6233851629161291"/><path d="M 103.80991834028964,158.65228922469174 L 111.84182747593523,161.30110243115243 L 120.67968583150123,157.36289925714945 L 132.99739904963474,162.31267812700872 L 139.4800171222665,165.97287010977678 L 152.4415847470211,163.04083745491923 L 161.4043876580078,154.94406517339226 L 165.9815038516584,159.16322741519858 L 157.90242630491937,167.78916627626072 L 162.735395652493,160.32880939089353 L 169.11491343387894,152.67625792600762 L 181.3436724409776,146.8981245627899 L 169.03760848842563,140.98358899434137 L 158.74459667669018,138.3274057213164 L 171.18732763800432,135.77250864821642 L 181.4973738704391,144.16990466322736 L 190.57197926142047,136.4264652086804 L 193.55286531218175,145.6003596476116 L 195.86577058716273,152.26151945525854 L 200.39974973316527,144.9361623715112 L 194.20800248628402,156.36405644100694 L 200.65635463281637,146.9605035792512 L 207.52434921541348,156.01272919294857 L 193.80618527157355,155.45004263719585 L 200.06613208962955,150.0082724988046 L 192.69425014476357,159.84526768997563 L 188.7982522363588,151.64365787307366" fill="none" stroke="rgb(96,155,193)" stroke-width="1.1124288550505719" opacity="0.432414704623238"/><path d="M 116.8961593277944,223.70393607385392 L 126.13641574246934,219.37716942698137 L 132.2853232708409,219.7855557966562 L 140.28955415035537,215.4937762593292 L 146.4378137927227,213.18698429301455 L 142.30642330462967,205.31751927086563 L 143.89671599674801,193.02221458694717 L 135.94610476695416,183.17373443066091 L 141.94035648505374,184.95702436061572 L 150.49225560322463,183.74318790176005 L 159.8198981534701,180.88753649222213 L 166.15432779847038,193.36817004903767 L 157.97965644540756,204.50325923960497 L 158.59012069694987,196.1008086301728 L 153.5461693201222,205.90386951466212" fill="none" stroke="rgb(96,155,193)" stroke-width="0.5165686147577643" opacity="0.3780124231731838"/><path d="M 110.16627020854233,71.39731126491377 L 112.4506244985227,80.6962108990032 L 123.32493109032674,75.96394185551408 L 126.08863294923944,83.646462482135 L 133.69988397838696,93.39871961207452 L 126.370657489744,95.27895017464266 L 130.2275384382304,101.62337892572131 L 134.56600880929614,106.16876883481585 L 131.38173561963137,111.58410982788705 L 120.656483334,118.4058539352537 L 128.18607097856577,128.56135310462432 L 139.57106492868468,134.25445199090035 L 132.60260964402508,130.14766752243116 L 140.61974878419517,135.15072751897054" fill="none" stroke="rgb(96,155,193)" stroke-width="1.8587509276439924" opacity="0.8465653972717151"/><path d="M 259.4573978074135,355.6921030660348 L 252.1551179117167,362.6717620380464 L 254.07394474817804,356.2732491055627 L 255.25958001613023,344.33689093152697 L 247.0690643351694,350.1668574582391 L 242.81631780204555,358.5401672064576 L 237.80719489948652,353.91125063664066 L 233.41149797342197,341.70319303047074 L 235.0826399423112,328.1309812891411 L 235.07396444400834,321.66738730883174 L 235.12266509433908,312.159516764412 L 234.73625987686643,304.1782429267429 L 236.08467030300272,292.741410833832 L 231.70282800692013,297.71250256175165 L 219.73476937541156,303.7057021404922 L 222.7868419853438,294.72311443744877" fill="none" stroke="rgb(96,155,193)" stroke-width="1.9063634700815202" opacity="0.6030845655096997"/><path d="M 51.689856002103696,57.44048594720333 L 60.30023000435552,57.750611701592696 L 70.19426784960608,66.52662705013124 L 67.82853980745725,56.01687355437136 L 76.29871889903116,59.16889170148068 L 79.22572296819851,64.54629060700611 L 71.04845996051453,72.45145439362673 L 72.83659569596077,83.11506445273932 L 59.69671946365345,84.41361695182452 L 67.4304169122917,86.83649103245864 L 70.19447941007448,93.50806577526993 L 73.55269757128994,102.28780969380745 L 84.53869390269008,107.9946620619599 L 77.51063448838521,106.44132128334536 L 85.43034034592134,116.26868203320724 L 86.88200899512144,110.07696861408871 L 85.73329852349949,117.08588509259403 L 97.20345620242092,120.64920476555986 L 101.25886172120187,130.53767792264566 L 95.77025129532471,127.5120822377761 L 101.37632687321224,129.88645957544037 L 105.52454437325183,138.85365296661152 L 106.68752630981211,127.60070992599437 L 100.8876983883111,140.0927663705056 L 109.17689486484254,144.34017266524324 L 109.58730294094599,156.38750738619487 L 107.76675090915397,165.26238781511148 L 100.25916494989403,160.2038025849118 L 113.95894281744907,161.88652950732157" fill="none" stroke="rgb(96,155,193)" stroke-width="2.5590679318072778" opacity="0.5215869151446754"/><path d="M 235.5159336100113,340.1449170327749 L 235.32358422713355,330.706644804449 L 235.22174297362452,318.85033481455264 L 235.3538438221767,325.01545534833235 L 247.42168154800194,320.30312138360244 L 241.63054908580568,327.8810093324061 L 242.0687694627214,317.87908918576795 L 242.31352840038232,307.91786603432115 L 241.71318942434783,301.7474689268094 L 230.32928076350703,306.54261509668066 L 232.22372435268176,299.30704261267806 L 230.52614478275612,289.45792350952695 L 228.6404888620957,282.1509047634843 L 234.65142085486428,273.4481639026295 L 238.36874547393677,285.39795258435345 L 239.22923992065859,277.2565613434541 L 237.16007155627952,265.9656501902411 L 231.90550924792103,260.31110972676004 L 218.47967103681592,259.72964004791135 L 205.33150873697602,255.69716506807282 L 193.63907996644008,257.8276412852088 L 204.18357696078806,261.565336003768 L 211.1916634135392,257.41802071271087 L 225.02219699384548,255.2906946049596 L 212.91261054950527,259.6190733875212 L 218.8459251705831,258.6648115695046" fill="none" stroke="rgb(96,155,193)" stroke-width="0.6017780405626373" opacity="0.5010496606768091"/><path d="M 173.74252313117108,205.1906525958625 L 165.14124381112262,200.96709543847894 L 163.2078685026244,188.5492398974749 L 173.15774628005693,183.6939027128378 L 165.6259376509006,187.02326969351824 L 160.35676443300252,184.08391989152273 L 157.21333114111596,190.67131300731285 L 164.0156137548538,194.37593670035048 L 163.9575558875471,200.49355808370476 L 165.26023693355077,193.0477935606198 L 171.20945362286204,184.945847343944 L 182.42255197960466,187.0059442988775 L 173.4994451319438,191.18385071173955 L 165.15350269722123,185.61307148473983" fill="none" stroke="rgb(96,155,193)" stroke-width="2.9603896594384844" opacity="0.8056038404942067"/><path d="M 308.4554208111193,160.6056435069773 L 305.0047347227834,173.23444671206445 L 298.1793844632292,183.87352421174938 L 296.0045803075072,191.84897885813612 L 298.0754379208951,181.55485486488345 L 297.4198658028784,191.8766256870444 L 295.9189349261791,180.0786477377128 L 295.29165307777157,186.88714824236163 L 303.02063357237523,194.78730787902967 L 297.94019683544377,191.0992679481101 L 295.9645130684869,184.1719712231736 L 297.04806597439136,193.64842239743936 L 296.7835550343056,200.36301349888407 L 295.56411470783274,192.73760642488895 L 289.98546531726953,183.43788888975027 L 296.1536918527791,189.36966165629806 L 302.18864138011776,184.95559216356276 L 312.6507913978172,193.63874271204324 L 325.4985057456589,188.47181627992418 L 333.31373981589036,189.1984900999553 L 323.54275262769534,189.8413128617504 L 314.141679035957,190.6066230654829 L 304.7391019591834,190.35971267640903 L 294.42900902377727,188.8653843494719 L 287.6892190899869,189.87359208949266 L 295.69697343400395,186.66609425513158" fill="none" stroke="rgb(96,155,193)" stroke-width="0.7160379182550978" opacity="0.44469177653079783"/><path d="M 246.28770950306134,145.5173799278218 L 250.97880133926023,151.41451893206172 L 257.904965942867,152.90705633526824 L 271.0541489889236,157.56006627887987 L 258.8038208085061,161.42263566074016 L 264.11827774054416,174.19972573093762 L 256.1768337058372,173.1983626117026 L 268.6867298150738,169.64301751522206 L 256.7827190369921,175.61461413201738 L 248.0835562130492,170.73496835329595 L 254.75249602709584,173.5054354362886 L 253.12540275550725,183.72493545019384 L 242.05321684457573,189.07074904923164" fill="none" stroke="rgb(96,155,193)" stroke-width="1.7522800739542705" opacity="0.6741158587095588"/><path d="M 332.26016790082855,125.12537056464083 L 323.4164270802695,123.77833974982049 L 318.37473482089996,132.80513882403002 L 318.3394788191037,140.70169036389842 L 317.8281423134678,149.36679409140075 L 312.6769491000648,160.8117209762008 L 305.94833895209274,169.86741076580805 L 300.95507679659164,177.86845097775208 L 302.9180645173051,184.62045227264562 L 295.48324430461565,188.54609690521414 L 306.22287579080796,189.4880006949879 L 295.3703630959957,189.6734758988164 L 283.78341811068924,196.98299569265038 L 275.7017178889671,206.49217925410733 L 283.4110051601229,212.3317247724077 L 278.01461138397855,203.40229245046837 L 281.72821783046777,210.4503765235894 L 284.2245780617646,220.8506200438598 L 277.9675103675339,233.28906826081123 L 272.41831143743593,229.79502813514767 L 268.72862677738783,217.40615656344482 L 265.6794408840986,224.81909621578225 L 260.2639422382663,235.70221487342562 L 256.1712977564518,243.1234860471836 L 262.5188960187435,245.55275287028678 L 253.25079379582095,253.69813817175503 L 260.6618822427182,257.2666359431568 L 255.19964298056615,254.74454001521144" fill="none" stroke="rgb(96,155,193)" stroke-width="0.7976182779672774" opacity="0.33003843666480515"/><path d="M 335.2078706614848,355.1862518278314 L 327.31860732871985,360.6067125085601 L 317.81132617997815,364.8179837497257 L 315.96133545184244,375.9712545224456 L 305.60745406755154,370.52708491519337 L 302.32049134951177,362.74300661115166 L 296.8526532167078,350.1514945767274 L 294.49712425719014,336.9157868535817 L 290.4101527477183,342.81566310458925 L 289.3343588171307,336.27023122380683 L 283.89939213297424,333.4854520794577 L 277.86185184499215,327.39502025270536 L 272.1146457632672,325.65278980384187 L 272.69504596618253,316.82026632689247" fill="none" stroke="rgb(96,155,193)" stroke-width="2.5368772192966396" opacity="0.47346265503926965"/><path d="M 82.43705101218559,119.62201004870664 L 94.86599580143977,115.30104075664745 L 105.51074252830752,123.07724035170318 L 115.5788976048943,129.27276627808916 L 122.86380684551825,134.21062062659823 L 131.6149233035335,131.00922943932437 L 139.0962598607701,137.87282103751295 L 146.36574349117464,135.1712030170147 L 155.49272453973703,140.12080068907582 L 149.5511250995213,132.17860776046135 L 161.70359825891128,131.43475701020444 L 170.87965499727227,135.39096229909202 L 176.97346614118558,144.02445674663466 L 189.65186018235596,144.51642242494117 L 196.13708868337594,136.93469834561344" fill="none" stroke="rgb(96,155,193)" stroke-width="1.005730288135583" opacity="0.45193869707904843"/><path d="M 164.2816924048551,234.70751832676797 L 171.43654514672784,225.87988347453697 L 175.8129041713322,217.42545044735343 L 172.82576718260023,228.12878431838314 L 176.71452286677348,220.90307799719753 L 182.9087398869385,231.2071150044211 L 188.31495102751342,239.03527006498462 L 187.74575815244214,230.53371093427162 L 193.31552361907123,219.9832119015205 L 202.40974118717924,225.42326086471888 L 196.47107982193373,217.1076107965154 L 198.87739006991765,209.7172667564638 L 210.4650374122163,203.9928301100114 L 215.01662953686582,192.9199673974697 L 223.36123778913725,190.28422425205167 L 225.87464621004128,177.93213312805887" fill="none" stroke="rgb(96,155,193)" stroke-width="2.1981091093433944" opacity="0.8719138863593583"/><path d="M 235.988657082294,123.34785714840297 L 227.82478819190214,113.14255371084155 L 218.19007973493208,104.03478604574272 L 216.04928019528415,111.75235723361068 L 209.72634345806756,120.2044208154182 L 199.91239516566648,116.78245445070867 L 208.03323893332717,108.58889004826125 L 203.61872058605556,120.46304997596731 L 202.57310108482866,134.02742108707017 L 200.0708486951201,144.38992466113223 L 197.4913724933353,151.73479368738222 L 190.41641284209172,143.67366567940883 L 185.60161528376952,152.78455509839952 L 192.40087986127133,154.82582592249403 L 201.0050296452546,151.25717545222176 L 188.8940685783534,145.62031624575897 L 179.76779096347826,154.38315979585883" fill="none" stroke="rgb(96,155,193)" stroke-width="0.7289925925905617" opacity="0.8014302811635174"/><path d="M 115.54938544137023,97.59466402376032 L 122.19733737893291,98.6315440290398 L 127.41235456152413,92.61455887163663 L 133.8113490893616,91.39458646900523 L 128.76270204638337,101.06554556086313 L 134.0461706222408,109.51836844233766 L 147.52476556441545,110.51497216972027 L 154.8822491289351,120.41872692865635 L 153.57176075108936,131.5201905941553 L 149.22005509350933,139.72194552638737 L 143.29019897915788,148.47166935550527 L 146.2527165193245,139.4050485828486 L 147.26922416001193,152.08482337771716" fill="none" stroke="rgb(96,155,193)" stroke-width="2.735005554116454" opacity="0.6644813431967889"/><path d="M 144.9852097633035,272.6514890604518 L 141.8804275904958,265.52250930784 L 146.26797597652813,258.93493727310346 L 143.12811411691462,245.61927990738198 L 149.7481803742126,240.44687663429056 L 161.07015006965042,247.98226478341655 L 169.6089314981828,244.8276499107444 L 175.05856245730797,241.41805900518656 L 178.83616878796076,251.19112259526034 L 180.87471025811683,239.02693315629676 L 186.47540276947186,229.4247300161966 L 185.5556271982271,242.17858178223355 L 188.74665427933613,235.955828097119" fill="none" stroke="rgb(96,155,193)" stroke-width="2.604494963329488" opacity="0.3293339877148068"/><path d="M 197.45187035561491,245.77552784566035 L 190.9046981866789,241.79635038822138 L 186.8794960777052,234.9780562521051 L 190.92701844770656,224.83389214372198 L 201.59527930523132,216.31711673668315 L 192.92983734706507,213.22519954199834 L 187.7188838106748,207.97080395580522 L 185.3806943498568,220.7598700260783 L 189.4629546053505,209.2495403057678 L 189.14250354147512,198.62134266182406 L 181.45350037196948,206.32392669123192 L 180.58019683237225,217.90588214692605 L 175.50025039040005,205.87689011859254 L 186.35283561098862,214.04902253826447 L 177.7899612854346,224.00234131563172 L 181.76331737568114,233.57995062482894 L 193.42957052168467,230.2632522854366 L 198.84096206236768,225.00251659869585 L 201.39779976652187,212.97849121315426 L 203.9408429845948,200.3114297600213" fill="none" stroke="rgb(96,155,193)" stroke-width="1.4550811273796131" opacity="0.3423905241207824"/><path d="M 302.76599103343904,244.70419390262379 L 297.622213020054,238.70455515481305 L 300.4103401225229,244.73565865352873 L 306.6722474077522,256.9896484472273 L 294.4167188597825,251.83184870769225 L 300.9932579550062,262.6181356571276 L 293.62755610209376,264.5430267564299 L 280.84340134068856,258.84994052637177 L 275.9240777365009,252.44564209235523 L 266.3263076983797,257.4189144861101 L 261.62898284193136,253.44562385908696 L 254.1424264475836,255.6751343748467 L 244.4266064965496,255.57311942108822 L 237.60385732113744,243.62588561567517" fill="none" stroke="rgb(96,155,193)" stroke-width="1.8518877564345047" opacity="0.7207107232743577"/><path d="M 283.10532140642266,122.47942516893556 L 282.3545335042275,130.06929210978177 L 275.8313966831204,138.03619482303068 L 269.86142894898944,147.45535949111166 L 266.7561710577908,157.99992863081079 L 275.0018004596978,168.20390911361798 L 274.7053092920311,158.86771443077896 L 280.43687187652387,169.31289144068654 L 283.97427599953124,176.30391426442554 L 290.9713930975334,169.54010249751818 L 292.2317367906669,178.5136972566759 L 283.8561258027568,189.59393015891447 L 291.8964915321774,190.73333752192107 L 299.5433278012002,193.28966184446458 L 296.15168182259,187.73260171900677 L 288.75536789158923,181.48953173998697 L 298.36615555875665,171.3911086628855 L 294.12498028653977,182.3912337142546 L 299.9898409660489,191.73126268730007" fill="none" stroke="rgb(96,155,193)" stroke-width="1.66147313851285" opacity="0.40335241464564986"/><path d="M 278.47866223604046,90.04487994282084 L 280.17587278169736,103.4383932905348 L 278.44535162570725,115.06690406801751 L 277.8402436608832,122.57718255689952 L 273.6897733611792,116.95810404952981 L 265.85468288533934,127.88040118551865 L 265.8085629434809,134.7239038054681 L 276.7035540484011,136.09072498204233 L 269.1754114274486,146.3609746067848 L 260.4353613519654,149.1848972698801 L 261.60271117133124,156.25695367317476 L 254.49431516584823,165.56848708324372 L 243.69327248402595,171.73106488375387" fill="none" stroke="rgb(96,155,193)" stroke-width="2.7465478125727714" opacity="0.34422698084050307"/><path d="M 264.68835771951234,85.19518495316535 L 258.95480092228144,91.16614854623404 L 250.25048680287446,100.86402773802618 L 245.67630023108833,94.32656111680689 L 234.0096984722006,90.46757364412912 L 229.61141712177607,101.90094885626812 L 223.90435870513096,103.8983768525198 L 214.64246245156394,113.51788091456274 L 218.1520606439965,118.82214436810052 L 215.14695621270823,126.16871008853803 L 215.25260351789228,137.90068444965135 L 212.5378989890882,150.72921669786425 L 204.9409939362277,154.881641613823 L 211.0762112678466,156.04727614612318 L 200.86967189862904,160.11635716241454 L 194.50327835653403,153.41195778351008 L 200.7437561931582,152.8941618759855 L 210.81769414660553,154.9184287243 L 223.04156396760075,156.24791759549834 L 227.17143565565195,161.72933519628674 L 215.10781518650725,162.2294288112471 L 203.2013145187536,162.0590305201624 L 198.08111191489903,156.51831054134195 L 192.6907478432267,148.37547420933404 L 198.7643016313266,142.75361285058244 L 197.65955648398077,150.12997424979665 L 195.0742909447221,156.82310481773848 L 199.27532546822636,168.7074430192591 L 193.07787173904063,179.43015371289033" fill="none" stroke="rgb(96,155,193)" stroke-width="2.2645203183189944" opacity="0.3786824817566161"/><path d="M 321.06057371641714,287.60456847388264 L 334.42594197521584,283.5899638836055 L 323.3108431414239,277.10949614940915 L 312.7620551894088,270.7986253185277 L 307.28367201250006,263.1603882832467 L 297.9838308540698,256.344320809001 L 307.63146583593834,261.00130894013125 L 299.43784023850264,259.2243901943237 L 308.44706843917623,266.80240812447744 L 299.32703391232695,259.5735943808718 L 292.85540722814306,252.0262042041663 L 285.40876231337967,246.68225148164194 L 291.70063271837,236.60809568277972 L 296.8876299258387,242.67233023847558" fill="none" stroke="rgb(96,155,193)" stroke-width="1.2465566958698893" opacity="0.6079381268088546"/><path d="M 210.0828871276007,350.7902324377038 L 211.72323664014186,357.2524600240684 L 214.77472576472394,345.8102703144769 L 215.6901126126299,339.002319440173 L 214.2369177986681,348.9829931305809 L 213.6755176019639,340.30690781961636 L 212.65944763943315,328.00985206915254 L 214.6092223631029,317.8108397684281 L 220.52271815607241,307.49951989528546 L 220.82181445164156,300.51363355919625 L 223.6924946230637,288.5175166900617 L 227.02526119316008,276.8877372124722 L 231.78143353280856,268.30395279359976 L 236.28916294241722,264.1264480724511 L 240.7559929300811,259.54025128137863 L 229.70309264881024,264.40259076700187" fill="none" stroke="rgb(96,155,193)" stroke-width="1.270860655571609" opacity="0.42889997899529203"/><path d="M 245.51649711773297,140.60875788258184 L 239.2573470062525,144.6457410310034 L 248.5185238626323,142.60030517022463 L 240.53432693886754,145.80415311850035 L 228.20380141451903,144.8944279041705 L 216.59675166736943,148.8186472579008 L 211.61847300933073,152.345428439459 L 204.71418201266417,150.23147308928392 L 196.0260785431477,154.68284486313226 L 197.4632140364574,166.70159684270166 L 191.73393713762766,159.0145512547754 L 198.84711736954142,152.47223851296616 L 192.15358758092734,154.93394786484598 L 183.1916102036126,152.50359073513096 L 175.8619956168882,154.000584739491 L 186.72534809762553,161.56553454196796 L 180.19042937741287,157.97619413137187 L 168.37430859996678,157.42357225692393 L 164.63266487060332,165.3923409507959 L 167.05912670383123,171.4486250411248 L 172.72338659080782,166.77270495094442 L 175.5295759898493,173.91640012645445 L 171.07681853090475,181.90248961158989 L 160.75672436795907,189.58810615533113 L 152.22910470086498,182.40985686356078 L 165.14898298079203,179.63325778571465 L 165.75706170442982,188.12232399474743 L 152.11840171927153,186.91891178309044 L 163.03261286876221,187.4214855853645" fill="none" stroke="rgb(96,155,193)" stroke-width="2.016579368067296" opacity="0.7915319694860223"/><path d="M 155.35852653308143,130.90280525501026 L 152.14649107664462,138.9630722583919 L 160.0445119212467,148.87627835157977 L 155.8849760141598,159.7073094518048 L 150.24368560840762,148.33866859281892 L 160.37364899637865,155.48159052152465 L 166.24038225073883,165.79185363993184 L 169.8830906367965,175.80339505188755 L 162.3784331747572,184.18967612054732 L 165.34888394423197,195.25979186075458 L 170.36132033779026,187.0682005001612 L 179.3837454818678,191.33855232070394 L 193.03202774189535,192.14865647137887 L 188.97476217153115,186.1696737721343 L 178.3010664312172,177.46845013615464 L 171.68511893074296,176.78161516280875 L 170.403788832562,188.57779864042558 L 177.2517083570567,187.1602549214906" fill="none" stroke="rgb(96,155,193)" stroke-width="0.8044467865433298" opacity="0.8879029195291355"/><path d="M 202.73919670377424,247.7323883306459 L 196.5496397213057,242.54570813156897 L 188.47481465662256,245.75406861677314 L 198.4567201421038,242.955512981573 L 203.7888962091254,246.00847457610195 L 214.20712566193987,242.35607319538747 L 206.35162794967505,239.27315291489484 L 214.88039927166756,231.95932066668584 L 224.04928094205604,237.09323072018933 L 223.44440065643474,229.93126165037944 L 231.70955319783684,221.1817616322011 L 229.50320451373724,214.65472603728355 L 218.27898240924972,221.7513090540654 L 225.5938040800143,211.37715696489187 L 222.18225677367286,219.30641865440558 L 212.82744451128934,215.63140527093552 L 209.8687912886791,208.89337817447472 L 207.17312722178832,219.89649033407883 L 210.88965927164446,209.96268160059262 L 212.19556232175506,202.28019550504635 L 223.2291712668081,201.9748585358118 L 220.84333477734629,211.91018707720437 L 223.61008341360323,206.29963983118336 L 215.1786851592337,207.17935452408443 L 213.9962649212952,217.6551534547164 L 215.73897683399534,228.43413877138528 L 223.40025691949302,229.79981290961746 L 220.32191452593918,220.81023622786998" fill="none" stroke="rgb(96,155,193)" stroke-width="0.6789391906533155" opacity="0.7277895220848272"/><path d="M 350.51725119640923,91.60390814463472 L 346.9167065717724,96.736798172058 L 339.3769026024557,105.96660538632685 L 347.19766634160095,116.43884096296047 L 335.8646887648326,110.72915720487087 L 334.012799963784,121.5057981393523 L 328.8524298777667,130.5270448069753 L 316.5044684137414,124.02562876713756 L 314.60287540207344,131.3502389782286 L 322.58362783151057,122.98479359673436 L 316.6112354825784,128.86996942111764 L 322.9805980645196,141.0998919108762 L 319.2749577147757,145.9741878601289 L 319.6386355916912,132.01459126525543 L 312.9816207592162,127.87697816101459 L 313.7189031636431,139.07447204699068 L 304.11005872006035,148.2610248936073 L 302.6814725024756,157.25968958418648 L 299.6472819283297,167.86309663301972 L 295.9344730363917,179.0698473142714 L 294.6381235781877,186.18252510145868 L 299.53513445838206,191.78869148461075 L 307.1205693962078,181.59499311252915 L 297.06246867200036,186.1367304075446 L 296.0398567940888,199.67622189591296 L 296.07505185721095,190.35835456340013 L 290.2479534671556,198.4936461668837 L 294.3089134560531,192.59699673579308 L 300.1664818328416,182.48435805015103" fill="none" stroke="rgb(96,155,193)" stroke-width="2.0383193383184914" opacity="0.41565078393743693"/><path d="M 293.0570492933804,61.625593679400055 L 295.3582503779782,70.3521362847581 L 288.94342617227187,69.08250872111982 L 278.6596937061465,64.5432819743693 L 283.40206852624465,58.56441675271938 L 270.2897962949842,60.372789972718586 L 260.7566812981527,69.0895372004521 L 249.35153337775785,64.68843896847487 L 239.66280862757566,72.02235378172038 L 246.7886206411324,73.1634413145473 L 245.56604525428762,85.62996517040443 L 239.55063518284325,92.29964873618341 L 230.57083216186203,101.99472959404412 L 236.39680165129735,106.62143996424068 L 229.52875716842485,116.93955833756573 L 224.53513363216285,123.72945257690688 L 223.94075940880518,134.8140182588853 L 212.05231821596436,128.35832586882907 L 208.08668083073664,140.68494000993624 L 217.8767506061207,131.43802398932655 L 209.2990310984406,131.5564779664879 L 205.37917030498664,143.51550484951352 L 214.3024294387479,153.71207553494816" fill="none" stroke="rgb(96,155,193)" stroke-width="1.4094271563751124" opacity="0.7514228318553462"/>
  </g>
</svg>