<?xml version="1.0" encoding="UTF-8"?>
<svg xmlns="http://www.w3.org/2000/svg" viewBox="0 0 400 400" width="400" height="400">
  <rect width="100%" height="100%" fill="rgb(187,219,113)"/>
  <g transform="translate(-5.980307527337981,1.2284278063757306)">
    <path d="M 0,121.32800468795335 L 8,196.56913536706608 L 16,166.3319751116689 L 24,120.06969175441196 L 32,160.8146483567043 L 40,107.05753525953367 L 48,174.06089160140763 L 56,120.29268782913437 L 64,168.3560139088795 L 72,164.44851560764394 L 80,121.14030686928221 L 88,55.67661845685771 L 96,124.33573591285445 L 104,140.44467182525437 L 112,74.98327514388896 L 120,99.79035969279326 L 128,57.122375404296534 L 136,79.99984221071993 L 144,90.75379140571194 L 152,145.78075327599015 L 160,143.00577478143003 L 168,100.11007885923948 L 176,168.16781583759115 L 184,111.51519827214696 L 192,180.39484064841574 L 200,134.90400823152245 L 208,108.9055105777816 L 216,175.2584228509707 L 224,125.00983127436425 L 232,75.48770238846656 L 240,81.97509681268726 L 248,114.36598140932759 L 256,96.500955935515 L 264,85.32840390326162 L 272,171.6235087174651 L 280,90.14105924201041 L 288,152.98182073492387 L 296,176.09609333423157 L 304,171.2728921702815 L 312,125.30942549039503 L 320,96.9666370136077 L 328,125.08694566994706 L 336,130.26307285371942 L 344,128.15635530276995 L 352,138.59177446214596 L 360,61.04436773526864 L 368,132.32888205793012 L 376,117.58414706720708 L 384,92.79251172603047 L 392,140.21978320963166 L 400,190.3578536393491" fill="none" stroke="rgb(96,223,204)" stroke-width="2.893368380886059" opacity="0.39692487212525124"/><path d="M 0,104.12962510360569 L 8,195.453738375081 L 16,221.22339485645273 L 24,222.73766069728597 L 32,144.86983358952696 L 40,127.16595077054396 L 48,196.63958078312365 L 56,171.53717636485334 L 64,164.56138946043816 L 72,162.76248448879304 L 80,131.89179003633674 L 88,94.69556810607897 L 96,167.6389787977309 L 104,124.78453230763702 L 112,108.00261988444521 L 120,143.3080429164664 L 128,121.60328230165746 L 136,152.8658998410902 L 144,173.61843621835 L 152,170.51307365685076 L 160,132.14896078437545 L 168,124.1727705841248 L 176,120.35051077564535 L 184,186.51623007900707 L 192,188.81985414616696 L 200,115.94374174862386 L 208,153.28665520621945 L 216,142.4691296547928 L 224,103.17672007011129 L 232,119.67339880903782 L 240,123.04402040165633 L 248,85.50314842891912 L 256,115.10215230665904 L 264,108.12952429751863 L 272,178.26518624622994 L 280,111.25152737274735 L 288,122.37407838225116 L 296,155.03647488320576 L 304,118.37533424132448 L 312,111.21550108687873 L 320,151.26292809463894 L 328,107.80147121808193 L 336,160.42423662234913 L 344,94.53505397344288 L 352,99.17235420875394 L 360,152.21516874168276 L 368,171.55196598596518 L 376,163.0182444904098 L 384,141.38460918675844 L 392,164.46957723753965 L 400,172.43438779437346" fill="none" stroke="rgb(96,223,204)" stroke-width="2.019250179597395" opacity="0.8932019169063221"/><path d="M 0,105.12199529694863 L 8,115.67490642191865 L 16,115.94798821994186 L 24,173.54173864954927 L 32,149.37515147358863 L 40,177.99604927881623 L 48,125.03164807021497 L 56,121.41759127899186 L 64,163.67346611683826 L 72,107.59929332045692 L 80,86.48975420302514 L 88,89.11817732951805 L 96,78.66049905389117 L 104,157.62171704025764 L 112,127.11197502471583 L 120,162.85401859494849 L 128,82.48382367027196 L 136,153.7078377275734 L 144,81.96704082726606 L 152,147.11127641045368 L 160,146.31028786766052 L 168,178.37362309444768 L 176,79.26631573911686 L 184,162.4555255279937 L 192,89.51420440783727 L 200,155.71870171926105 L 208,109.34120654442239 L 216,67.4301583687728 L 224,148.6689562000268 L 232,145.9461534090449 L 240,104.04253990380093 L 248,149.57987294282603 L 256,168.5015085200328 L 264,123.43120477540393 L 272,95.78265855784993 L 280,97.27173832716143 L 288,150.36419458614665 L 296,153.5958681661922 L 304,161.8768431893825 L 312,102.64615383364921 L 320,83.88632661577998 L 328,127.16878330473364 L 336,130.7962795010244 L 344,75.08518429470708 L 352,130.1577516041914 L 360,68.72882356734601 L 368,44.442557686425715 L 376,61.70700279661523 L 384,84.65044192493659 L 392,124.09284358678018 L 400,190.3669235693374" fill="none" stroke="rgb(96,223,204)" stroke-width="2.305438434180644" opacity="0.4795848884924821"/><path d="M 0,87.06290265611503 L 8,44.048357509796176 L 16,114.98205826532386 L 24,80.44622081375391 L 32,111.906593226629 L 40,33.45901496670578 L 48,129.6300099863143 L 56,108.62075962155467 L 64,102.37979639335316 L 72,26.716473136638555 L 80,72.96947994371544 L 88,84.69723101033726 L 96,40.512262257616456 L 104,88.48212536696253 L 112,54.51610208209279 L 120,87.02630338047419 L 128,22.921554872049747 L 136,65.59380789108869 L 144,59.46908137681493 L 152,96.5092429137878 L 160,33.23439471668781 L 168,51.14929811194345 L 176,67.11843458931403 L 184,98.63258201643833 L 192,75.02555083070092 L 200,90.45312855048223 L 208,39.22452937980651 L 216,71.33759406489239 L 224,3.4273537304979484 L 232,77.09940487570532 L 240,36.3735211480154 L 248,108.65198147166032 L 256,91.67887015187793 L 264,45.73878674991599 L 272,74.08066155021858 L 280,33.95557624678605 L 288,91.06285280754831 L 296,106.27068864668468 L 304,96.21002553767832 L 312,116.66582669977996 L 320,121.14509033148049 L 328,6.771723366906997 L 336,51.358655763743485 L 344,-2.7871825510712824 L 352,-1.2983061229978787 L 360,1.549657387179252 L 368,1.7679936165847074 L 376,54.04013013011829 L 384,-16.559198327235993 L 392,6.152629685534976 L 400,55.03956597541179" fill="none" stroke="rgb(96,223,204)" stroke-width="1.5252057728980497" opacity="0.8218804102910917"/><path d="M 0,175.86401672588693 L 8,236.73200387195268 L 16,172.27467919757996 L 24,177.66025825140602 L 32,239.83533870148605 L 40,231.06028295507002 L 48,248.3252508328682 L 56,154.07744113921783 L 64,205.64468850225705 L 72,161.83479135208654 L 80,176.49371418466 L 88,190.77799609652538 L 96,195.26349111929935 L 104,145.50014066396855 L 112,159.05925214912554 L 120,138.9163990254543 L 128,188.31159233109616 L 136,221.5163124332745 L 144,212.0543819965501 L 152,166.73813912009376 L 160,217.09029329909896 L 168,216.13266544718996 L 176,214.53037864041627 L 184,170.84117337062764 L 192,147.84222414215955 L 200,164.81058959672524 L 208,184.33068925893258 L 216,150.47928395737668 L 224,201.9438618424699 L 232,172.2727840363193 L 240,128.82399040444233 L 248,220.06936160147964 L 256,214.3507085040676 L 264,229.70465842920436 L 272,144.3737169963516 L 280,139.12297332755918 L 288,184.98141157060738 L 296,157.33569013823598 L 304,200.8816619544078 L 312,212.80338895052827 L 320,131.6418239685165 L 328,132.24554891450754 L 336,164.32353463437516 L 344,122.60342583828333 L 352,126.7417349241916 L 360,185.61856542517302 L 368,188.83625472555627 L 376,195.80532689358466 L 384,180.82307020848566 L 392,185.3540833035349 L 400,222.03236246178398" fill="none" stroke="rgb(96,223,204)" stroke-width="1.006876942930161" opacity="0.3872142476539496"/>
  </g>
</svg>