<?xml version="1.0" encoding="UTF-8"?>
<svg xmlns="http://www.w3.org/2000/svg" viewBox="0 0 400 400" width="400" height="400">
  <rect width="100%" height="100%" fill="rgb(22,144,190)"/>
  <g transform="translate(3.575238127691783,14.61258729695352)">
    <path d="M 0,57.142857142857146 L 0,-2.0642859745731066 L 15,27.76824043417996 L 30,46.472290855464735 L 45,-22.457503128148744 L 60,74.92895651673314 L 75,94.33225700068598 L 90,76.14605641799261 L 105,43.700736521414726 L 120,71.03125815717439 L 135,29.474549220342446 L 150,85.32073983664202 L 165,68.90298228298994 L 180,108.2382988436151 L 195,89.34038224347734 L 210,4.338403434933468 L 225,16.647357510713356 L 240,46.05441997881172 L 255,78.69021682717789 L 270,101.50625014130885 L 285,74.49550892892995 L 300,23.16052353509224 L 315,37.079598808592806 L 330,25.802690653257017 L 345,18.861223242655548 L 360,159.3700277112386 L 375,57.013544759517465 L 390,139.57567708999534 L 400,57.142857142857146" fill="none" stroke="rgb(112,34,155)" stroke-width="1.1194850472487037" opacity="0.7609814781457438"/><path d="M 0,66.66666666666667 L 0,30.247246343672266 L 15,40.06439884685251 L 30,38.124715001243686 L 45,30.037819236900674 L 60,98.48110813703128 L 75,51.44928892417575 L 90,113.6684948999217 L 105,46.302400095636074 L 120,17.57156615874088 L 135,75.07488832923957 L 150,90.19427871537158 L 165,122.33643708719202 L 180,118.80844587690326 L 195,121.64688398479912 L 210,6.969103941707395 L 225,21.583975105643773 L 240,76.22918241890869 L 255,73.1679647288992 L 270,112.73741129174768 L 285,83.84844868671115 L 300,21.74644073595988 L 315,42.54632830906162 L 330,7.962267666755324 L 345,42.94573686690677 L 360,90.5340741450026 L 375,99.39664382133257 L 390,105.24302441826867 L 400,66.66666666666667" fill="none" stroke="rgb(112,34,155)" stroke-width="2.107432624490645" opacity="0.6718932267327911"/><path d="M 0,200.0 L 0,198.71979082015767 L 15,166.04724939767135 L 30,188.4440578272486 L 45,155.71815735009113 L 60,230.6619593638337 L 75,216.66229680112426 L 90,226.80151448952284 L 105,152.4029847483484 L 120,148.43772332030133 L 135,181.15563187077132 L 150,221.8005870857259 L 165,199.02362098381877 L 180,199.08671057023525 L 195,234.12993614178055 L 210,165.84412897847514 L 225,126.05125285116208 L 240,133.27438307709997 L 255,284.7528226350997 L 270,239.64405514439372 L 285,213.63129346159505 L 300,152.4866899740761 L 315,121.60204054512371 L 330,135.89279631051127 L 345,148.58457808780773 L 360,211.85500099839157 L 375,234.18956722886568 L 390,238.71919808203324 L 400,200.0" fill="none" stroke="rgb(112,34,155)" stroke-width="0.5995809970180153" opacity="0.7122624169225784"/><path d="M 0,145.45454545454547 L 0,87.96571331515257 L 15,109.78593104581256 L 30,102.16514064110845 L 45,95.935582774521 L 60,208.14641999994961 L 75,191.57193417351894 L 90,132.93069986235912 L 105,167.7802880144652 L 120,122.5638535680298 L 135,144.89957049830602 L 150,205.77488058114005 L 165,144.02590267893314 L 180,228.24913286903455 L 195,195.70525293033356 L 210,145.09898583484775 L 225,132.4950657325971 L 240,134.68769248509278 L 255,226.04085885646438 L 270,178.9970075661717 L 285,154.33947843948516 L 300,133.19429591402428 L 315,122.61033530095432 L 330,97.77629193785145 L 345,137.2599236046523 L 360,180.97177523174273 L 375,218.31921924086222 L 390,142.25331611602633 L 400,145.45454545454547" fill="none" stroke="rgb(112,34,155)" stroke-width="0.9272729245605578" opacity="0.3681393537200431"/><path d="M 0,250.0 L 0,234.8995799946394 L 15,241.1660471326506 L 30,182.14561617607785 L 45,207.3626622698062 L 60,286.3376004245672 L 75,308.3711406403013 L 90,271.95166923348256 L 105,254.9381920050733 L 120,212.63339252231927 L 135,200.19799492109092 L 150,261.7447835361483 L 165,286.96434973679607 L 180,282.2686763081405 L 195,309.4347360794441 L 210,202.51199222499972 L 225,251.90054804643455 L 240,228.5530987349739 L 255,270.8285434153827 L 270,262.25805888418455 L 285,318.3434586309402 L 300,233.05690381349694 L 315,227.83402871147933 L 330,231.31621289270663 L 345,210.89216884853403 L 360,301.0469571594059 L 375,273.280015013808 L 390,293.5177079056998 L 400,250.0" fill="none" stroke="rgb(112,34,155)" stroke-width="2.3632425312690772" opacity="0.7695296725613923"/><path d="M 0,400.0 L 0,365.28329862519104 L 15,369.33054193986305 L 30,341.63626976161993 L 45,349.71510136149925 L 60,496.7601207338275 L 75,414.9580301892279 L 90,470.0127217113297 L 105,366.8594225337323 L 120,393.41906096145675 L 135,348.83567217127336 L 150,412.45550804203504 L 165,435.42468939088496 L 180,405.41433646908877 L 195,426.0703285442847 L 210,391.8901484354039 L 225,372.31691642293333 L 240,348.5210373471821 L 255,396.85895868959545 L 270,409.6550108490622 L 285,452.75037692979464 L 300,346.5848204813138 L 315,341.17714764793584 L 330,368.1553618833722 L 345,370.8354261599899 L 360,457.6505176177477 L 375,444.19206064051866 L 390,399.2649561719262 L 400,400.0" fill="none" stroke="rgb(112,34,155)" stroke-width="1.5190188876057973" opacity="0.7294310959799117"/><path d="M 0,311.1111111111111 L 0,286.43923904558085 L 15,242.1220694420665 L 30,287.6905314708071 L 45,228.04607013852728 L 60,315.7392842169128 L 75,356.2643696743942 L 90,319.33505246548583 L 105,270.0110914030082 L 120,304.7122012250828 L 135,266.6177043734006 L 150,321.3339242277378 L 165,356.70510026966423 L 180,309.0939784337095 L 195,382.99894209272014 L 210,253.1311230080014 L 225,259.52072023075726 L 240,295.39226586175874 L 255,324.07460516812847 L 270,380.50352212547006 L 285,335.8931007363831 L 300,262.51914992910963 L 315,315.1989865183815 L 330,253.48222347156786 L 345,276.533198379202 L 360,356.8802126088921 L 375,363.39280325705784 L 390,365.4132227438824 L 400,311.1111111111111" fill="none" stroke="rgb(112,34,155)" stroke-width="2.1558984829737957" opacity="0.6822907341737235"/><path d="M 0,266.6666666666667 L 0,232.45272424300668 L 15,210.19626516293957 L 30,240.7571831083842 L 45,185.61725597584416 L 60,267.0953335959973 L 75,255.199154151999 L 90,323.2697284757909 L 105,198.79299035743495 L 120,240.71499426004118 L 135,243.96797892142808 L 150,282.74801893577165 L 165,300.88852617146665 L 180,276.77225293627873 L 195,284.14466058767164 L 210,249.30325474834711 L 225,264.8292972832543 L 240,266.25700107542997 L 255,339.5566707382023 L 270,293.5500122503979 L 285,307.1771187969602 L 300,268.1599865693058 L 315,262.15772965928096 L 330,217.06388127302725 L 345,230.41469104167152 L 360,293.0041341835007 L 375,303.843816446968 L 390,308.79457770432697 L 400,266.6666666666667" fill="none" stroke="rgb(112,34,155)" stroke-width="1.335758811148887" opacity="0.6303803596547899"/><path d="M 0,600.0 L 0,572.509380737061 L 15,623.5364889289194 L 30,566.2056355155668 L 45,566.9395294886914 L 60,604.0746218801696 L 75,641.7767770089248 L 90,601.0729401671499 L 105,611.619864808594 L 120,544.1706505462868 L 135,596.2168331921945 L 150,651.8767521079384 L 165,640.6032334931209 L 180,651.3395762670091 L 195,611.3421321481821 L 210,578.1102223304983 L 225,514.129206229316 L 240,521.1097292354765 L 255,641.5364524979825 L 270,630.2833339657586 L 285,613.8094573522608 L 300,550.9492710891977 L 315,563.9548514685567 L 330,627.3958334870508 L 345,560.8330509060617 L 360,622.5962178158645 L 375,625.3716876711227 L 390,596.4534564403046 L 400,600.0" fill="none" stroke="rgb(112,34,155)" stroke-width="0.8032309992535875" opacity="0.37382093226610397"/><path d="M 0,500.0 L 0,459.3146572426631 L 15,477.07842554569964 L 30,445.86065914945425 L 45,461.30439391096303 L 60,559.2135712980225 L 75,535.84187305724 L 90,567.1319879234455 L 105,475.90394165373436 L 120,469.6866972685396 L 135,532.4425709427144 L 150,552.2495925983144 L 165,529.5305309826931 L 180,511.3033681735986 L 195,553.503531954163 L 210,455.05286871409686 L 225,483.85947752092443 L 240,472.1306077565906 L 255,546.5676383738918 L 270,556.8304067130634 L 285,545.1130819634998 L 300,457.09004112048507 L 315,440.1232993333141 L 330,467.34608963732757 L 345,489.31664975040906 L 360,507.29410283414126 L 375,548.4043053405608 L 390,518.0348447918342 L 400,500.0" fill="none" stroke="rgb(112,34,155)" stroke-width="1.683275641221799" opacity="0.5591250632812619"/>
  </g>
</svg>