<?xml version="1.0" encoding="UTF-8"?>
<svg xmlns="http://www.w3.org/2000/svg" viewBox="0 0 400 400" width="400" height="400">
  <rect width="100%" height="100%" fill="rgb(185,106,144)"/>
  <g transform="translate(-7.05449825915203,14.08176799275887)">
    <path d="M 0,44.44444444444444 L 0,25.80962400361298 L 15,-40.946971993136586 L 30,-14.247665652963015 L 45,47.914888233469725 L 60,103.06935206095795 L 75,101.02790851526902 L 90,102.79295857920778 L 105,-8.47243631380493 L 120,40.257799787020375 L 135,-2.021227993985388 L 150,70.63218145032451 L 165,64.6958146661803 L 180,74.14534927803284 L 195,74.12340649856125 L 210,36.98574499824235 L 225,11.038894372801316 L 240,42.73265072566896 L 255,39.358701547157594 L 270,83.42749195893637 L 285,40.54055740637924 L 300,14.64145472725351 L 315,7.715559375562826 L 330,17.88774167065231 L 345,23.44674986684104 L 360,39.14965388328354 L 375,82.45687780267619 L 390,75.03912196467007 L 400,44.44444444444444" fill="none" stroke="rgb(36,160,66)" stroke-width="2.916039412970588" opacity="0.6715221796953381"/><path d="M 0,72.72727272727273 L 0,7.184917214422171 L 15,27.20597783819162 L 30,15.108472704247234 L 45,25.54110077993559 L 60,91.04400888490824 L 75,102.90623807012334 L 90,122.95716069894405 L 105,56.577063032471656 L 120,74.99376718699853 L 135,39.627496613520336 L 150,83.49530963178933 L 165,78.30303976577596 L 180,98.76193980725347 L 195,111.93895158862813 L 210,42.18501528032132 L 225,41.870350250820394 L 240,60.65291968874541 L 255,66.87866519414854 L 270,117.55314044791761 L 285,85.90449644266933 L 300,55.52125830854405 L 315,59.162586775182305 L 330,49.61087856381418 L 345,43.83642634656299 L 360,76.59777190381271 L 375,59.93194575901287 L 390,69.95564807287734 L 400,72.72727272727273" fill="none" stroke="rgb(36,160,66)" stroke-width="2.514927563410358" opacity="0.6584729732106875"/><path d="M 0,109.0909090909091 L 0,41.33864050237955 L 15,83.50605339465504 L 30,36.779330351825394 L 45,48.664061682727095 L 60,148.20320956031287 L 75,81.92473032876892 L 90,130.99666555772365 L 105,110.40355252494504 L 120,114.30706050066755 L 135,54.66107125938129 L 150,149.00774189854192 L 165,144.1389972954003 L 180,154.9091257823226 L 195,110.8570426320108 L 210,56.2146870886112 L 225,64.5100238741543 L 240,58.87137527115448 L 255,159.0349296476279 L 270,154.05497444937288 L 285,166.26404641752396 L 300,109.33440911122733 L 315,64.09250716279179 L 330,103.28467859056525 L 345,69.57458824186479 L 360,84.15117238123597 L 375,128.86067206935434 L 390,92.1020164499366 L 400,109.0909090909091" fill="none" stroke="rgb(36,160,66)" stroke-width="2.096493958118355" opacity="0.38768500128890493"/><path d="M 0,133.33333333333334 L 0,89.52388526839668 L 15,120.26812105079952 L 30,170.5673850774345 L 45,106.12710996358581 L 60,208.99019856385578 L 75,136.6168771444437 L 90,168.78438573152684 L 105,69.23621904965856 L 120,121.63609122602341 L 135,118.37435821902596 L 150,113.85492125925055 L 165,129.85957207226275 L 180,155.0917975212693 L 195,155.42483121167803 L 210,47.83804619009453 L 225,70.46077080044836 L 240,66.0487343499409 L 255,181.0827309140093 L 270,148.15141135413575 L 285,149.11327456159424 L 300,106.4272385827804 L 315,66.97622531933821 L 330,80.33458601753827 L 345,143.42699294674964 L 360,208.20719173876978 L 375,150.11060108346874 L 390,166.54198027864615 L 400,133.33333333333334" fill="none" stroke="rgb(36,160,66)" stroke-width="1.5155448568930168" opacity="0.3945024457077735"/><path d="M 0,200.0 L 0,129.23359325348332 L 15,160.92369571802448 L 30,152.01902949157417 L 45,143.36399349543245 L 60,287.9277850548625 L 75,215.56794458891716 L 90,245.86462272190454 L 105,194.80606381865113 L 120,194.3711645940614 L 135,202.06280441694346 L 150,226.94174062983276 L 165,205.4279454716023 L 180,270.04192032626855 L 195,201.51091941525772 L 210,197.89388420943493 L 225,180.0763739611873 L 240,146.16711537483545 L 255,246.32303510712552 L 270,233.0264835807473 L 285,221.1399259051195 L 300,150.03225665511468 L 315,161.12455022014208 L 330,171.0056202889481 L 345,154.51898341460947 L 360,193.7467073789423 L 375,234.05168528434328 L 390,202.60290211582472 L 400,200.0" fill="none" stroke="rgb(36,160,66)" stroke-width="0.5551375360478876" opacity="0.7471433874196847"/><path d="M 0,400.0 L 0,366.79824737287305 L 15,339.84294550424755 L 30,347.63844478830435 L 45,340.04162476444765 L 60,428.27741561022503 L 75,421.0528047341075 L 90,391.29349200264966 L 105,374.0346003396655 L 120,385.86099784348716 L 135,383.3592859811545 L 150,425.24986495685084 L 165,424.9167279843781 L 180,436.24686892603614 L 195,403.90132378283187 L 210,395.1421915413035 L 225,382.3657133008111 L 240,395.20229857920765 L 255,428.6165923317366 L 270,421.23282871355184 L 285,438.4681823796776 L 300,391.6429768202727 L 315,363.29042824117903 L 330,335.526828265217 L 345,388.28831038464534 L 360,428.2547622621897 L 375,422.8334797454271 L 390,416.10991905126434 L 400,400.0" fill="none" stroke="rgb(36,160,66)" stroke-width="2.2513382728322724" opacity="0.3688888109155929"/><path d="M 0,466.6666666666667 L 0,468.2987671073286 L 15,426.4205300248576 L 30,434.8931418870091 L 45,457.8427265785239 L 60,492.33120245609643 L 75,566.8104636495705 L 90,460.1387248671391 L 105,436.02056405261413 L 120,434.75836722130555 L 135,447.09955755220244 L 150,491.56190814586955 L 165,483.12817968508705 L 180,471.1355966784964 L 195,477.6320566271882 L 210,395.63503817064213 L 225,455.05159513997285 L 240,460.3216454985687 L 255,480.7990762058398 L 270,472.74113110239705 L 285,481.4401005199774 L 300,420.1087783067767 L 315,453.7423488755517 L 330,461.8775441288853 L 345,467.30585484059964 L 360,499.9405693460939 L 375,534.5600073678165 L 390,485.28328921963583 L 400,466.6666666666667" fill="none" stroke="rgb(36,160,66)" stroke-width="1.1362219597408463" opacity="0.44482342675700337"/><path d="M 0,290.90909090909093 L 0,285.0360662450532 L 15,289.44506431175284 L 30,268.3305562953746 L 45,240.13038821858845 L 60,285.47297213769184 L 75,352.1864740100065 L 90,342.66679766667465 L 105,278.46230105964463 L 120,285.96790195729244 L 135,250.79676686804584 L 150,373.7487534684872 L 165,306.6110357225927 L 180,342.31948453776386 L 195,329.0491972530552 L 210,204.1634943566676 L 225,247.43367669928466 L 240,261.30695501765564 L 255,388.60951345522903 L 270,319.7115622261018 L 285,336.08221149522603 L 300,282.0857196082812 L 315,295.06353438406353 L 330,239.46636197176485 L 345,265.30118288299593 L 360,297.8322323054255 L 375,320.05190066214976 L 390,326.850661148259 L 400,290.90909090909093" fill="none" stroke="rgb(36,160,66)" stroke-width="1.4669375440535808" opacity="0.42697644319576467"/><path d="M 0,327.27272727272725 L 0,274.5838469232647 L 15,283.74091753606587 L 30,256.42991225687547 L 45,286.3516575431372 L 60,321.2170509839972 L 75,364.4736700992 L 90,405.1665548116101 L 105,297.5717560814461 L 120,312.55915179182114 L 135,269.77684785322975 L 150,403.8310978965789 L 165,323.49983243408633 L 180,360.60406004819237 L 195,318.3052765362117 L 210,311.52131609818485 L 225,332.64881280196624 L 240,251.4657630976434 L 255,353.75847469726375 L 270,301.81814633727384 L 285,329.58818874465953 L 300,282.36005886205623 L 315,351.3036083584078 L 330,290.5405158067081 L 345,292.81571141930743 L 360,326.34404215279943 L 375,360.6197364818049 L 390,360.9442149769324 L 400,327.27272727272725" fill="none" stroke="rgb(36,160,66)" stroke-width="1.1393181342944891" opacity="0.5877130037521312"/>
  </g>
</svg>