<?xml version="1.0" encoding="UTF-8"?>
<svg xmlns="http://www.w3.org/2000/svg" viewBox="0 0 400 400" width="400" height="400">
  <rect width="100%" height="100%" fill="rgb(204,95,61)"/>
  <g transform="translate(6.5250798903553395,-6.641732174177687)">
    <path d="M 200.0,370 L 191.96991150041205,359.64031162035144 L 204.77033309007552,340.8414109273405 L 192.73957787716267,328.78295364641457 L 176.8903670488343,311.17152268601836 L 187.721203886429,301.8704587472947 L 179.31870174762793,295.4988382036214 L 184.04792101912693,286.61502309360634 L 195.35038287734815,276.4362754918362" fill="none" stroke="rgb(160,107,196)" stroke-width="0.6340070846502567" opacity="0.37990226972320545"/><path d="M 200.0,370 L 206.62408358049012,359.965997171603 L 198.47816576273556,350.78941381428115 L 207.90596079915355,343.01352796614015 L 214.05240460778128,337.7185664848145 L 224.53259449124704,326.7869679052156 L 217.18541750845648,319.9003718071112 L 226.7069485160555,306.20867373840645 L 240.1912075828953,292.05461693136255 L 231.5022455640945,282.60267035521247 L 247.45610509834773,270.1650304020407 L 257.40340767020064,257.4573893405864 L 249.943268558902,245.4699553798342 L 242.1159909623984,238.5911830278704 L 236.2784218732227,230.10284817902703 L 227.0596651558076,223.13714584398983 L 212.28567608559672,214.7919933965803" fill="none" stroke="rgb(160,107,196)" stroke-width="2.6739574964540815" opacity="0.7682707604520088"/><path d="M 200.0,370 L 195.65519320045772,360.45878299526197 L 213.46686236192284,347.2733476971195 L 226.54473136460803,336.4329874172742 L 229.36906851919835,330.75713619693005 L 240.32349410336138,318.8369551830663 L 226.10215730610187,302.96917476614584 L 240.28884029967733,286.5582513094234 L 250.11651069141672,278.61047565421495 L 241.93390526213244,266.02589174837584 L 234.4574459102905,261.9768527031151" fill="none" stroke="rgb(160,107,196)" stroke-width="1.2858210786502962" opacity="0.3518624380420721"/><path d="M 200.0,370 L 208.46023585137908,364.1165114053008 L 199.0590329357807,358.30502978836745 L 209.4260698282591,345.53987785424147 L 216.37202518585977,335.83710882644436 L 224.51115882256192,322.9195905294248 L 228.29095509216086,316.69398529848934 L 245.67933435199245,302.79406405108193 L 251.55067813995282,290.4319839362756" fill="none" stroke="rgb(160,107,196)" stroke-width="1.9947210321814042" opacity="0.6483161432146766"/>
  </g>
</svg>