<?xml version="1.0" encoding="UTF-8"?>
<svg xmlns="http://www.w3.org/2000/svg" viewBox="0 0 400 400" width="400" height="400">
  <rect width="100%" height="100%" fill="rgb(156,51,71)"/>
  <g transform="translate(6.909059450131139,-3.339035370493871)">
    <path d="M 145.3110679278588,221.9582553078043 L 350.01955695406764,236.20756554839707 L 175.4915024570079,198.18260977388732 L 328.55043994802276,182.93047615166995 L 117.63086804652845,160.62375794415172 L 241.5209357811184,212.16664799684702 L 129.63162897546488,175.80243572155408 L 87.98321117389234,259.67679703060037 L 290.48233413726075,193.2382172395411 L 215.60485747941743,206.6122550664069 L 35.45975647500214,105.44077863539357 L 51.37443385432144,216.77300000904367 L 110.39689251215944,163.70483795030503 L 289.6031074878406,163.70483795030503 L 348.6255661456786,216.77300000904367 L 364.5402435249979,105.44077863539357 L 184.39514252058257,206.6122550664069 L 109.51766586273925,193.2382172395411 L 312.01678882610764,259.67679703060037 L 270.3683710245351,175.80243572155408 L 158.4790642188816,212.16664799684702 L 282.36913195347154,160.62375794415172 L 71.44956005197724,182.93047615166995 L 224.5084975429921,198.18260977388732 L 49.98044304593236,236.20756554839707 L 254.6889320721412,221.9582553078043 Z" fill="none" stroke="rgb(60,156,149)" stroke-width="1.1219472112114133" opacity="0.5505988328529059"/><path d="M 93.09862940394486,142.0697056844245 L 355.194519455064,175.38501607029352 L 273.3062716294991,203.58773097539256 L 36.75026619525357,165.61685685487137 L 110.7592925325685,231.77116228232308 L 105.85331214020022,158.765963843544 L 147.2598330367455,173.0997454541951 L 387.63318877309024,298.16747889357686 L 290.9238730708173,166.01122863844785 L 96.76285539113987,141.60945747199645 L 303.23714460886015,141.60945747199645 L 109.07612692918269,166.01122863844785 L 12.36681122690976,298.16747889357686 L 252.7401669632545,173.0997454541951 L 294.1466878597998,158.765963843544 L 289.2407074674315,231.77116228232308 L 363.2497338047464,165.61685685487137 L 126.69372837050088,203.58773097539256 L 44.80548054493602,175.38501607029352 L 306.90137059605513,142.0697056844245 Z" fill="none" stroke="rgb(60,156,149)" stroke-width="1.4295495777026708" opacity="0.6945796426431136"/><path d="M 117.3117413923834,165.89091254648164 L 317.84910144502294,228.61880069442225 L 141.18064841188016,193.0983488525577 L 275.3453225630985,241.18888100935249 L 94.39553561000405,138.34802675365822 L 85.57367140770812,241.20753716494676 L 121.82697401844844,218.986886752787 L 13.491492789754489,176.96754866658358 L 96.90896730604283,206.1199022639005 L 335.65001856636513,223.56199443355942 L 344.0930978492199,203.71922381877692 L 173.7335762466715,214.16101833953144 L 322.8303414298451,175.8739411144918 L 59.72326740736159,282.57325582825155 L 123.01615988193801,208.1029076660457 L 337.45485448518275,169.86467747601722 L 91.54739519567097,260.51698825242244 L 98.7683911752907,151.24985937192483 L 301.23160882470927,151.24985937192483 L 308.45260480432904,260.51698825242244 L 62.54514551481725,169.86467747601722 L 276.983840118062,208.1029076660457 L 340.2767325926384,282.57325582825155 L 77.16965857015492,175.8739411144918 L 226.2664237533285,214.16101833953144 L 55.90690215078013,203.71922381877692 L 64.34998143363487,223.56199443355942 L 303.0910326939572,206.1199022639005 L 386.5085072102455,176.96754866658358 L 278.1730259815516,218.986886752787 L 314.4263285922919,241.20753716494676 L 305.60446438999594,138.34802675365822 L 124.65467743690152,241.18888100935249 L 258.81935158811984,193.0983488525577 L 82.15089855497706,228.61880069442225 L 282.6882586076166,165.89091254648164 Z" fill="none" stroke="rgb(60,156,149)" stroke-width="0.6174804861421452" opacity="0.3507017931949704"/><path d="M 334.3395291981449,235.1423314621311 L 367.3935218265899,149.0255646575951 L 160.6764356642274,196.3500150333107 L 98.56445359598642,195.65405358712673 L 294.1240511385066,222.9187559653475 L 288.29159993098654,209.46508941699673 L 283.67912792908106,244.12827728326417 L 301.06343125236424,213.55381875476425 L 148.508415412661,207.5081004731449 L 156.56621736188777,211.63600969438204 L 127.78623799908593,223.53921495278917 L 272.2137620009141,223.53921495278917 L 243.43378263811223,211.63600969438204 L 251.491584587339,207.5081004731449 L 98.93656874763576,213.55381875476425 L 116.32087207091894,244.12827728326417 L 111.70840006901346,209.46508941699673 L 105.87594886149338,222.9187559653475 L 301.43554640401356,195.65405358712673 L 239.3235643357726,196.3500150333107 L 32.606478173410096,149.0255646575951 L 65.66047080185513,235.1423314621311 Z" fill="none" stroke="rgb(60,156,149)" stroke-width="2.3662592650554872" opacity="0.4472013380474269"/><path d="M 119.5674741631332,195.74476298466396 L 105.18440180596427,245.75693583950755 L 173.26957401608624,194.5362408754341 L 338.17098444092323,190.46180662287523 L 84.35083501894255,158.7168549426363 L 273.7578331614145,224.3397458500608 L 137.5845663904703,188.90866438688403 L 69.57323739405462,153.3420715053357 L 144.1070557157925,176.1831959572482 L 105.80559318726162,164.31026676487298 L 294.1944068127384,164.31026676487298 L 255.8929442842075,176.1831959572482 L 330.4267626059454,153.3420715053357 L 262.4154336095297,188.90866438688403 L 126.24216683858549,224.3397458500608 L 315.6491649810574,158.7168549426363 L 61.829015559076765,190.46180662287523 L 226.73042598391376,194.5362408754341 L 294.8155981940357,245.75693583950755 L 280.43252583686683,195.74476298466396 Z" fill="none" stroke="rgb(60,156,149)" stroke-width="1.1699053807352797" opacity="0.45005312168473166"/><path d="M 119.42420680017413,202.43590862592757 L 222.85288667171696,210.7843039810921 L 77.03006595262937,204.11525879164498 L 30.13046665551616,266.8072019668322 L 103.91233348116376,204.37740942386802 L 56.30589658513276,184.41015075641766 L 310.85687994578205,183.74703277723958 L 269.2266875217068,188.05651854783218 L 130.77331247829318,188.05651854783218 L 89.14312005421795,183.74703277723958 L 343.69410341486724,184.41015075641766 L 296.0876665188363,204.37740942386802 L 369.86953334448384,266.8072019668322 L 322.96993404737066,204.11525879164498 L 177.14711332828304,210.7843039810921 L 280.57579319982585,202.43590862592757 Z" fill="none" stroke="rgb(60,156,149)" stroke-width="2.048975760199336" opacity="0.4543598019071428"/>
  </g>
</svg>