<?xml version="1.0" encoding="UTF-8"?>
<svg xmlns="http://www.w3.org/2000/svg" viewBox="0 0 400 400" width="400" height="400">
  <rect width="100%" height="100%" fill="rgb(27,93,157)"/>
  <g transform="translate(-0.9319061434295541,-4.337040632391208)">
    <path d="M 272.9645918173258,75.89815541868049 L 254.3629717979949,99.98169305272009" fill="none" stroke="rgb(61,134,213)" stroke-width="0.8846506862683019" opacity="0.5733266770143444"/><path d="M 272.9645918173258,75.89815541868049 L 252.78115217995185,130.21926002659052" fill="none" stroke="rgb(61,134,213)" stroke-width="0.522622993976823" opacity="0.8823669093265207"/><path d="M 54.52700608853461,72.70603405731205 L 107.7097281370217,74.7365035273146" fill="none" stroke="rgb(61,134,213)" stroke-width="2.2104550456080285" opacity="0.734730755856499"/><path d="M 54.52700608853461,72.70603405731205 L 63.14545165318697,66.61885230482505" fill="none" stroke="rgb(61,134,213)" stroke-width="0.7437696950006168" opacity="0.6353512418316947"/><path d="M 56.42414665055439,146.21846698613768 L 97.4900996857862,164.41502223635894" fill="none" stroke="rgb(61,134,213)" stroke-width="1.5598488838192186" opacity="0.3636016025635991"/><path d="M 123.75743394034917,63.349702692151844 L 63.411754146433566,76.05476242731828" fill="none" stroke="rgb(61,134,213)" stroke-width="1.8923816869172168" opacity="0.5002760852149025"/><path d="M 123.75743394034917,63.349702692151844 L 107.7097281370217,74.7365035273146" fill="none" stroke="rgb(61,134,213)" stroke-width="1.7255547080692963" opacity="0.8527996206798469"/><path d="M 123.75743394034917,63.349702692151844 L 63.14545165318697,66.61885230482505" fill="none" stroke="rgb(61,134,213)" stroke-width="0.5800206231576439" opacity="0.7565301419005874"/><path d="M 275.58047508810864,359.5640090940129 L 282.6951905121363,320.9296690641748" fill="none" stroke="rgb(61,134,213)" stroke-width="0.9522126578765151" opacity="0.6232239536230306"/><path d="M 275.58047508810864,359.5640090940129 L 302.577205895422,300.2630628950555" fill="none" stroke="rgb(61,134,213)" stroke-width="2.4058034247309488" opacity="0.4417251072874645"/><path d="M 154.20306041509053,350.1178896734068 L 174.351959468029,325.11515444188615" fill="none" stroke="rgb(61,134,213)" stroke-width="2.860360659080201" opacity="0.3273727465425818"/><path d="M 107.7097281370217,74.7365035273146 L 63.14545165318697,66.61885230482505" fill="none" stroke="rgb(61,134,213)" stroke-width="0.9348738976996591" opacity="0.7950592021032926"/><path d="M 282.6951905121363,320.9296690641748 L 302.577205895422,300.2630628950555" fill="none" stroke="rgb(61,134,213)" stroke-width="1.4484572153520323" opacity="0.7786292941256421"/><path d="M 276.85958360624846,75.89815541868049 m -3.8949917889226793,0 a 3.8949917889226793,3.8949917889226793 0 1,1 7.7899835778453586,0 a 3.8949917889226793,3.8949917889226793 0 1,1 -7.7899835778453586,0" fill="none" stroke="rgb(61,134,213)" stroke-width="2.3510005556692404" opacity="0.6290269757626938"/><path d="M 55.889770341704036,72.70603405731205 m -1.3627642531694235,0 a 1.3627642531694235,1.3627642531694235 0 1,1 2.725528506338847,0 a 1.3627642531694235,1.3627642531694235 0 1,1 -2.725528506338847,0" fill="none" stroke="rgb(61,134,213)" stroke-width="2.129652446508229" opacity="0.49339463790200644"/><path d="M 57.90879838217756,146.21846698613768 m -1.4846517316231682,0 a 1.4846517316231682,1.4846517316231682 0 1,1 2.9693034632463364,0 a 1.4846517316231682,1.4846517316231682 0 1,1 -2.9693034632463364,0" fill="none" stroke="rgb(61,134,213)" stroke-width="1.6390706044439631" opacity="0.8933985021454356"/><path d="M 125.5909374797955,63.349702692151844 m -1.8335035394463262,0 a 1.8335035394463262,1.8335035394463262 0 1,1 3.6670070788926523,0 a 1.8335035394463262,1.8335035394463262 0 1,1 -3.6670070788926523,0" fill="none" stroke="rgb(61,134,213)" stroke-width="2.216812048174464" opacity="0.3964442929648322"/><path d="M 256.7651459928814,99.98169305272009 m -2.4021741948865243,0 a 2.4021741948865243,2.4021741948865243 0 1,1 4.804348389773049,0 a 2.4021741948865243,2.4021741948865243 0 1,1 -4.804348389773049,0" fill="none" stroke="rgb(61,134,213)" stroke-width="2.4046544113084103" opacity="0.4490949766648725"/><path d="M 278.0472940745085,359.5640090940129 m -2.4668189863998355,0 a 2.4668189863998355,2.4668189863998355 0 1,1 4.933637972799671,0 a 2.4668189863998355,2.4668189863998355 0 1,1 -4.933637972799671,0" fill="none" stroke="rgb(61,134,213)" stroke-width="1.3478703539939856" opacity="0.8464025891674312"/><path d="M 256.6638226265438,130.21926002659052 m -3.8826704465919173,0 a 3.8826704465919173,3.8826704465919173 0 1,1 7.765340893183835,0 a 3.8826704465919173,3.8826704465919173 0 1,1 -7.765340893183835,0" fill="none" stroke="rgb(61,134,213)" stroke-width="2.253077315359168" opacity="0.5097459410762379"/><path d="M 157.8488760888765,350.1178896734068 m -3.6458156737859495,0 a 3.6458156737859495,3.6458156737859495 0 1,1 7.291631347571899,0 a 3.6458156737859495,3.6458156737859495 0 1,1 -7.291631347571899,0" fill="none" stroke="rgb(61,134,213)" stroke-width="1.804913160014289" opacity="0.6677138656459032"/><path d="M 37.89251672629081,311.29341642242633 m -2.369138528086282,0 a 2.369138528086282,2.369138528086282 0 1,1 4.738277056172564,0 a 2.369138528086282,2.369138528086282 0 1,1 -4.738277056172564,0" fill="none" stroke="rgb(61,134,213)" stroke-width="0.7795154915069842" opacity="0.7940377486605166"/><path d="M 47.03372210604387,188.6475334415723 m -2.424125689614282,0 a 2.424125689614282,2.424125689614282 0 1,1 4.848251379228564,0 a 2.424125689614282,2.424125689614282 0 1,1 -4.848251379228564,0" fill="none" stroke="rgb(61,134,213)" stroke-width="2.4270481262739922" opacity="0.48190749433858254"/><path d="M 178.03537211899152,325.11515444188615 m -3.683412650962521,0 a 3.683412650962521,3.683412650962521 0 1,1 7.366825301925042,0 a 3.683412650962521,3.683412650962521 0 1,1 -7.366825301925042,0" fill="none" stroke="rgb(61,134,213)" stroke-width="1.860288735275018" opacity="0.6061390507554233"/><path d="M 294.8364484888465,172.71270107323355 m -2.6080633865782032,0 a 2.6080633865782032,2.6080633865782032 0 1,1 5.2161267731564065,0 a 2.6080633865782032,2.6080633865782032 0 1,1 -5.2161267731564065,0" fill="none" stroke="rgb(61,134,213)" stroke-width="2.6540808600608212" opacity="0.44742241775368796"/><path d="M 66.16535105204325,76.05476242731828 m -2.7535969056096863,0 a 2.7535969056096863,2.7535969056096863 0 1,1 5.507193811219373,0 a 2.7535969056096863,2.7535969056096863 0 1,1 -5.507193811219373,0" fill="none" stroke="rgb(61,134,213)" stroke-width="2.770790410579334" opacity="0.5880624821019688"/><path d="M 110.92078815913138,74.7365035273146 m -3.211060022109683,0 a 3.211060022109683,3.211060022109683 0 1,1 6.422120044219366,0 a 3.211060022109683,3.211060022109683 0 1,1 -6.422120044219366,0" fill="none" stroke="rgb(61,134,213)" stroke-width="2.687714942494053" opacity="0.7312259493193891"/><path d="M 283.90133595045063,320.9296690641748 m -1.2061454383143193,0 a 1.2061454383143193,1.2061454383143193 0 1,1 2.4122908766286386,0 a 1.2061454383143193,1.2061454383143193 0 1,1 -2.4122908766286386,0" fill="none" stroke="rgb(61,134,213)" stroke-width="2.0446874380608557" opacity="0.3632330117249935"/><path d="M 42.57039720867911,294.61585110978075 m -3.132481763218956,0 a 3.132481763218956,3.132481763218956 0 1,1 6.264963526437912,0 a 3.132481763218956,3.132481763218956 0 1,1 -6.264963526437912,0" fill="none" stroke="rgb(61,134,213)" stroke-width="2.3927101824002346" opacity="0.8294224816180129"/><path d="M 306.51746625022747,300.2630628950555 m -3.940260354805422,0 a 3.940260354805422,3.940260354805422 0 1,1 7.880520709610844,0 a 3.940260354805422,3.940260354805422 0 1,1 -7.880520709610844,0" fill="none" stroke="rgb(61,134,213)" stroke-width="0.9849413381354167" opacity="0.8678195581155965"/><path d="M 100.41008765145246,164.41502223635894 m -2.9199879656662464,0 a 2.9199879656662464,2.9199879656662464 0 1,1 5.839975931332493,0 a 2.9199879656662464,2.9199879656662464 0 1,1 -5.839975931332493,0" fill="none" stroke="rgb(61,134,213)" stroke-width="2.2523009440919255" opacity="0.33869196432431814"/><path d="M 66.49381235484896,66.61885230482505 m -3.3483607016619907,0 a 3.3483607016619907,3.3483607016619907 0 1,1 6.6967214033239815,0 a 3.3483607016619907,3.3483607016619907 0 1,1 -6.6967214033239815,0" fill="none" stroke="rgb(61,134,213)" stroke-width="0.7354012402544661" opacity="0.31524265561359827"/>
  </g>
</svg>