<?xml version="1.0" encoding="UTF-8"?>
<svg xmlns="http://www.w3.org/2000/svg" viewBox="0 0 400 400" width="400" height="400">
  <rect width="100%" height="100%" fill="rgb(226,64,113)"/>
  <g transform="translate(-4.9114790103312735,-6.28908794431335)">
    <path d="M 200.0,370 L 208.1515001402491,357.51228301156743 L 215.17710973750107,341.22431411438464 L 207.9478168719169,333.7230773300513 L 204.44328506928883,326.0233190891232 L 215.7783065378802,314.42125176038326 L 232.66413520602285,297.4147960132087 L 240.25631100650793,283.61152320808935 L 259.37424042853996,269.3713758684603 L 271.6975169314994,252.7365462857185 L 267.77291716083784,245.2708967979765" fill="none" stroke="rgb(189,65,90)" stroke-width="1.1747109324804468" opacity="0.34609575291985495"/><path d="M 200.0,370 L 205.017554559035,359.78809767873406 L 193.2943010184243,350.93129142828064 L 199.08947644418205,338.6182968852687 L 213.23884038770967,325.69404067030456 L 225.71212063205806,306.12030309236775 L 221.37651241188834,298.7988878370206 L 240.92434645969288,285.1684794264354 L 254.01063321297949,270.8380188715771 L 235.50014572184273,253.0860975102672 L 248.0793887342252,234.08370041210614 L 267.61311026888836,212.69272528114286 L 260.7779433074069,201.79322367366007" fill="none" stroke="rgb(189,65,90)" stroke-width="1.0450607677621921" opacity="0.3321751904713124"/><path d="M 200.0,370 L 216.93327924064977,348.4105524383875 L 212.3144158809705,339.5773890486753 L 216.1725825170327,332.5599402451326 L 221.34944104591793,326.6427245352519 L 228.97966505764248,318.80359892808144 L 238.68464708438196,304.5933167936072 L 247.76465758108208,297.41205299340044 L 231.82296632065933,286.4267793828109 L 247.33775065897248,268.5848530761809 L 232.03213090864537,252.87477056985503 L 244.42207266364616,239.6366602063168 L 258.14584662505774,223.08491746229186 L 266.4756804335935,210.1801433614804 L 259.6663426436619,196.92829458585993 L 273.4301604495935,182.2917684263662" fill="none" stroke="rgb(189,65,90)" stroke-width="1.6506303439233423" opacity="0.6145592631036241"/><path d="M 200.0,370 L 208.6637668418175,360.3803086797628 L 219.48802494664332,350.84146028076003 L 231.92590116282025,339.40036071291775 L 239.44505397632233,329.31222563127426 L 233.82670540163465,324.94333138336344 L 240.76191076396304,318.2463218942548 L 252.45323192566264,308.40477256606357 L 268.6369148240535,294.730819494009 L 274.7519467597428,287.33275434026007 L 279.9889611554433,270.6125979615621 L 264.4536074490855,258.78013961540205 L 250.61959681632186,247.59641535023312 L 258.1611953467368,239.93815871622576 L 273.42937898417284,227.66446918021592 L 277.33123649601,218.8703599484658 L 271.0206371762209,213.56954823858916" fill="none" stroke="rgb(189,65,90)" stroke-width="0.9217879348289238" opacity="0.5197869996930222"/><path d="M 200.0,370 L 204.29010959194977,360.8849209808241 L 208.9038019234156,351.6029219052456 L 220.47141998044066,335.4888597121744 L 205.09007254314255,322.36855117511294 L 211.07216436671035,313.1272778440836 L 203.45879528249682,295.98096067964013 L 214.5771496735806,284.8115673063705 L 223.9509637036734,277.71113152743845 L 216.20512567357954,269.0788176891244 L 209.21735947054148,260.09859900601214 L 197.23180184254082,249.21289909183565 L 185.9186223086945,241.24658971111614 L 180.28578790469538,235.30807471541473 L 188.1864706564733,218.59968008967311 L 201.86553197641382,207.6262610251461" fill="none" stroke="rgb(189,65,90)" stroke-width="2.6941384087479125" opacity="0.5252593433912337"/><path d="M 200.0,370 L 214.34463170168382,355.3890687443253 L 225.81756956338432,338.6957988830972 L 232.0959371400399,326.2552285152857 L 214.8427133408686,310.92037788078375 L 220.57433668574677,303.43496864105157 L 215.15401629672002,296.0426375304204 L 223.88655506714028,286.87338856939476 L 233.680287364706,274.9254603506037 L 222.1366820562065,252.8070331344654 L 229.77698221381308,244.16199461099896 L 242.58945805844678,232.92357928667644 L 233.32565659263574,215.65129188930547 L 224.87183619586267,200.47889440060507 L 211.86436266385735,189.97451250379893 L 194.436218051271,174.3079318588358" fill="none" stroke="rgb(189,65,90)" stroke-width="1.563204643402931" opacity="0.3744017655397381"/><path d="M 200.0,370 L 209.60320397098508,355.76363551776774 L 225.63860170968354,343.93646019833403 L 231.3655585033395,335.2721885260707 L 240.882431968822,324.0059876983526 L 234.01021827772308,312.4688434657756 L 245.61792396189242,299.5226146450792 L 256.2389916143962,290.72832219495615 L 264.7903691326682,268.66655780156464 L 259.5950175907744,260.9416614898946 L 271.8380980150224,251.65060488440142 L 266.06416751368624,241.11517078097117 L 278.4528508277957,227.3167755004517 L 284.1079023701406,218.61779530249655 L 294.634215376836,209.02234503595986 L 315.78954634804444,189.0487602204267 L 319.51818774475186,183.8193791220853 L 309.1253016104497,169.35328342237577" fill="none" stroke="rgb(189,65,90)" stroke-width="1.8769019452827822" opacity="0.47570536706484334"/>
  </g>
</svg>