<?xml version="1.0" encoding="UTF-8"?>
<svg xmlns="http://www.w3.org/2000/svg" viewBox="0 0 400 400" width="400" height="400">
  <rect width="100%" height="100%" fill="rgb(187,219,113)"/>
  <g transform="translate(-8.910015030005297,-16.995294365858427)">
    <path d="M 0,-2.3095204199772006 L 8,-20.932544978697763 L 16,32.66369690297429 L 24,2.072117910490369 L 32,17.964514960045427 L 40,15.582111990872429 L 48,35.943886301703486 L 56,-2.746203607641357 L 64,6.135991093805178 L 72,60.66016400779976 L 80,38.34294473540855 L 88,49.88122953963505 L 96,8.03913811199428 L 104,-7.065404362219542 L 112,62.91025185008431 L 120,39.754320216734236 L 128,68.77877924979919 L 136,42.246683317945 L 144,2.667492205624839 L 152,40.788630949219126 L 160,40.998616367119595 L 168,-10.042532529603006 L 176,35.8600009586814 L 184,16.131300073548886 L 192,-27.887112400629704 L 200,10.46885432155694 L 208,-7.624818647450397 L 216,-11.770486365104574 L 224,51.76168605324433 L 232,27.62206661418083 L 240,62.51258144493862 L 248,50.83511285354109 L 256,11.635854876062652 L 264,25.482127728966233 L 272,18.52411143964637 L 280,39.482533534946484 L 288,67.05938339361833 L 296,-21.608015393595345 L 304,65.49221672305256 L 312,39.09411476087844 L 320,63.436747653877184 L 328,-14.065932331899916 L 336,-9.12265773691096 L 344,-7.902533660867665 L 352,70.92182425303221 L 360,-12.611520737154951 L 368,-5.4736068946732495 L 376,-9.868425846085726 L 384,31.301097416152132 L 392,48.620134355742906 L 400,7.016455405105553" fill="none" stroke="rgb(96,223,204)" stroke-width="1.0310994647819658" opacity="0.8382316336394766"/><path d="M 0,56.9728547129485 L 8,62.81944602943059 L 16,102.2403886965845 L 24,51.50827852847058 L 32,96.80825458161948 L 40,87.34047030816848 L 48,60.983328479070416 L 56,72.35891061878513 L 64,44.49450914518678 L 72,56.18989927773738 L 80,184.24896132321464 L 88,141.40116956011963 L 96,129.92814732579262 L 104,122.52025090962421 L 112,131.6066282772582 L 120,122.31828657331063 L 128,162.5635567833546 L 136,117.78036219446459 L 144,163.29029711766177 L 152,132.81900475833092 L 160,71.95086735838251 L 168,58.40726434110303 L 176,98.07526640162877 L 184,53.13469979347316 L 192,107.69835586382803 L 200,116.2573292166657 L 208,56.17358897057908 L 216,126.28535931675023 L 224,55.15419828444328 L 232,86.28545229245859 L 240,120.15035996291408 L 248,110.5897715997227 L 256,138.66769054992267 L 264,145.77241169824455 L 272,128.7022598869119 L 280,146.47536802006087 L 288,113.41115271348986 L 296,115.30024290230678 L 304,143.84598110626635 L 312,122.3677383629519 L 320,82.12362596826708 L 328,52.15885634013859 L 336,83.33382228285785 L 344,64.13774700515685 L 352,33.8682043527406 L 360,50.21413680857151 L 368,89.34640959008709 L 376,98.69239470386417 L 384,50.0125987192 L 392,145.23622545126577 L 400,157.3676428193395" fill="none" stroke="rgb(96,223,204)" stroke-width="1.2029580243955995" opacity="0.48016870307422943"/><path d="M 0,91.58851625286894 L 8,82.14493944661514 L 16,101.27742204801086 L 24,57.142292575122525 L 32,65.75624329335942 L 40,48.319732961097756 L 48,55.56654017055941 L 56,88.03445779197735 L 64,72.60152248049147 L 72,96.16675857763214 L 80,201.263220794291 L 88,169.73081539364136 L 96,192.98918559341786 L 104,186.1983638181158 L 112,173.2003171500628 L 120,219.79852674666705 L 128,158.46724340886254 L 136,147.70753074290116 L 144,201.03263899022514 L 152,204.79730027535774 L 160,71.94728084474373 L 168,110.16018163201268 L 176,45.23677858483006 L 184,108.20785995405618 L 192,98.00293005133699 L 200,71.25040456130112 L 208,57.48482899014954 L 216,109.79296559930565 L 224,46.8647046930925 L 232,59.49467839482751 L 240,217.42253428499333 L 248,148.91123484849786 L 256,179.60882518619283 L 264,144.53986342342367 L 272,127.56725389898156 L 280,153.93614841785288 L 288,152.93374939832364 L 296,131.75838899204524 L 304,179.91297190790604 L 312,173.23919866971545 L 320,71.34591210649072 L 328,49.632262763548965 L 336,70.51478336322546 L 344,85.78445033764993 L 352,122.33408930804963 L 360,100.46893475573063 L 368,67.48729118105551 L 376,75.70702017561052 L 384,45.63889002573687 L 392,49.728930959749434 L 400,209.25510037000697" fill="none" stroke="rgb(96,223,204)" stroke-width="2.3391418056519555" opacity="0.6222014290189017"/><path d="M 0,80.98343052260118 L 8,98.45526100194053 L 16,114.3063195938561 L 24,101.03398973597547 L 32,142.96529217826918 L 40,105.79712661829147 L 48,82.08352584791334 L 56,139.18028483679407 L 64,125.65593640466915 L 72,113.79973282114153 L 80,217.37589998136252 L 88,225.3583099309091 L 96,263.37699147894625 L 104,271.529757244454 L 112,256.94709004581506 L 120,230.31929589788047 L 128,234.47662363536708 L 136,211.95353495107966 L 144,288.9276026389405 L 152,231.4348705897007 L 160,142.65955849457353 L 168,104.92222645034781 L 176,171.2869699113035 L 184,146.07655709173594 L 192,134.12612478419973 L 200,102.94683912020989 L 208,118.0739590276653 L 216,70.01455356258407 L 224,148.31167128437585 L 232,129.80029273972988 L 240,248.44295150176836 L 248,257.10482117026606 L 256,273.9304859194815 L 264,269.8867408370377 L 272,234.96257372095107 L 280,254.31862954290997 L 288,229.47351759642277 L 296,248.6259167618652 L 304,237.19955690196466 L 312,207.11472206159846 L 320,80.57823865336579 L 328,152.97014298770742 L 336,115.7642228874029 L 344,123.87344850207825 L 352,82.02778541470093 L 360,113.26261962553345 L 368,119.5781231713571 L 376,99.17531163710137 L 384,114.10525849631975 L 392,116.91438499361712 L 400,221.76542177345883" fill="none" stroke="rgb(96,223,204)" stroke-width="0.6903433266328186" opacity="0.6549723538218841"/><path d="M 0,137.80432473636756 L 8,94.80332725485383 L 16,114.32093209500778 L 24,130.37123473564503 L 32,165.71776483949935 L 40,131.23255315075662 L 48,101.45626570780071 L 56,123.21478330877565 L 64,89.9893220411947 L 72,107.00926294707943 L 80,287.5567767629722 L 88,229.88107578581528 L 96,252.1597505630212 L 104,314.5717760615083 L 112,281.05966674210777 L 120,297.6263136766597 L 128,263.9586939914101 L 136,308.6993730022102 L 144,246.4939305933314 L 152,252.66316204982533 L 160,90.73167005877396 L 168,125.7986037866251 L 176,160.12081863822732 L 184,181.5221386976561 L 192,115.44477719177716 L 200,111.78790783685093 L 208,154.12350017767184 L 216,143.62789042665162 L 224,97.20117320459877 L 232,106.10197182043919 L 240,229.15747779582387 L 248,253.94448778915626 L 256,283.6087295188185 L 264,323.48638119566544 L 272,273.5383993619934 L 280,276.65090154316215 L 288,314.20931189297323 L 296,259.7176800895315 L 304,236.4622172155675 L 312,254.24288049476237 L 320,155.4984649740913 L 328,126.40678566057842 L 336,157.9560813267545 L 344,153.44946157909965 L 352,94.45329695215955 L 360,102.873729587691 L 368,130.30388410882674 L 376,189.16208956475032 L 384,145.05672436336602 L 392,118.05871089771641 L 400,277.2581182586679" fill="none" stroke="rgb(96,223,204)" stroke-width="2.46004232129336" opacity="0.7954086998105823"/><path d="M 0,189.87700117719663 L 8,149.42789268139006 L 16,108.40419679057061 L 24,147.44918970556336 L 32,141.42646628530048 L 40,127.84363258799021 L 48,156.3105216885008 L 56,124.95749966524681 L 64,191.46062254060487 L 72,148.92375275287665 L 80,310.9515066251578 L 88,330.75661923347377 L 96,319.70579555520726 L 104,335.2931501104458 L 112,325.3639028737089 L 120,363.7806571063726 L 128,338.03576741417044 L 136,348.10453546107806 L 144,322.58203339598606 L 152,340.58828849311806 L 160,146.71809923368323 L 168,117.56096910433533 L 176,149.2268069909324 L 184,172.8138409048489 L 192,146.10933676436957 L 200,155.65432659752585 L 208,214.64722654821523 L 216,163.18603260058097 L 224,170.71936700711086 L 232,226.22974727192076 L 240,359.3982392669218 L 248,285.4349437224193 L 256,315.690454947257 L 264,326.5359143723329 L 272,356.7922909066867 L 280,333.8747655926198 L 288,342.9287098266812 L 296,370.0597709604267 L 304,341.7985901262489 L 312,326.6147016252835 L 320,149.1756980245889 L 328,153.9131407406731 L 336,191.84405091723985 L 344,169.1621290622014 L 352,147.95075065715577 L 360,157.0089348813325 L 368,157.65213686019888 L 376,166.64374194747697 L 384,137.22611076451145 L 392,168.91321723981798 L 400,321.49061316656264" fill="none" stroke="rgb(96,223,204)" stroke-width="1.1656212747022123" opacity="0.4536283415558381"/><path d="M 0,224.84238852019357 L 8,181.72209216704488 L 16,256.62205891278614 L 24,221.48836565974463 L 32,233.7918157875618 L 40,188.63339282858738 L 48,189.00226974804713 L 56,196.633191442275 L 64,272.3543035296414 L 72,280.13409529932454 L 80,428.08049698712176 L 88,482.94594482348407 L 96,408.08172356419965 L 104,414.0437141345948 L 112,479.87754274778524 L 120,440.63105309272225 L 128,439.35130671165507 L 136,411.9021075857413 L 144,411.78737397760847 L 152,481.7471301681774 L 160,206.08802124989037 L 168,191.37108576077839 L 176,177.21916418394585 L 184,202.41023913576294 L 192,197.4668953531287 L 200,197.61974141667145 L 208,222.88385343485896 L 216,256.8600301336459 L 224,179.94184200529438 L 232,232.5845119103625 L 240,398.6529734276372 L 248,440.9648525015006 L 256,423.54728784817246 L 264,420.30802475981733 L 272,431.3078203493155 L 280,449.3320779038763 L 288,431.92122864774035 L 296,439.4384400096848 L 304,375.8546073009068 L 312,423.59777320368875 L 320,195.11474969702078 L 328,221.22140370163254 L 336,211.07863809255502 L 344,206.7613863797241 L 352,224.01999401588503 L 360,246.39413432501792 L 368,199.10890073420427 L 376,179.658259917722 L 384,282.0018970651619 L 392,204.32768617762306 L 400,452.5201927873611" fill="none" stroke="rgb(96,223,204)" stroke-width="0.6240503731997489" opacity="0.36120474932110197"/><path d="M 0,245.38088695744744 L 8,264.25786429224667 L 16,240.61879024024762 L 24,251.8523395014777 L 32,220.64095660210606 L 40,240.5900669876654 L 48,258.61541484534536 L 56,213.32921836448105 L 64,247.30992724427597 L 72,250.70687677970574 L 80,469.35440046682345 L 88,472.5365057767595 L 96,482.66598733674317 L 104,445.73033211448484 L 112,483.7565563024176 L 120,491.8501108716696 L 128,513.1686066262474 L 136,533.4224116706158 L 144,460.6816074385445 L 152,523.1565919704142 L 160,282.87454732783374 L 168,286.6107218525696 L 176,248.94699900585 L 184,262.9059839105941 L 192,302.79497572214615 L 200,238.66391027984602 L 208,234.44287680951393 L 216,303.2822200043776 L 224,253.42994221717134 L 232,272.7052536917104 L 240,481.4027379905357 L 248,515.3713583154239 L 256,498.3391022569134 L 264,460.36826409476714 L 272,494.4030840861342 L 280,533.7123506949422 L 288,479.84876162548704 L 296,452.40973142080225 L 304,485.6907690854958 L 312,483.6669223458481 L 320,245.3481003340535 L 328,235.43359436665563 L 336,250.57672307236524 L 344,249.2586265330786 L 352,213.1714209795953 L 360,257.59867780234873 L 368,247.7842331725104 L 376,274.7276286752706 L 384,250.81556131083022 L 392,258.93848548978974 L 400,475.844659923824" fill="none" stroke="rgb(96,223,204)" stroke-width="2.4396825802327493" opacity="0.8924185279107146"/>
  </g>
</svg>