<?xml version="1.0" encoding="UTF-8"?>
<svg xmlns="http://www.w3.org/2000/svg" viewBox="0 0 400 400" width="400" height="400">
  <rect width="100%" height="100%" fill="rgb(229,192,135)"/>
  <g transform="translate(5.818042435141962,18.56784235084136)">
    <path d="M 307.4851125746118,196.17584517799958 L 413.6595007995463,168.88762497437037 L 421.2863196163055,198.66178603402437 L 419.53448853575213,196.2846828867511 L 298.4744512105436,200.053840885954 L 317.47762833119117,199.34968745340484 L 320.0005611488568,193.74330415625724 L 425.6104659028573,197.21729391524846 L 298.06994658831053,193.42439311341377 Z" fill="rgb(96,155,193)" fill-opacity="0.10218545243193142" stroke="none"/><path d="M 375.5339216185804,108.03211706721973 L 377.03435739159096,107.58634219081203 L 244.96236563601667,107.74178885512927 L 387.3989364911529,90.72966613945958 L 392.81127169346024,111.09373242939688 L 376.508576611807,90.6551541233815 L 235.6881646795482,110.00448959439426 L 384.0843372504746,110.60101503550868 L 368.7682321604939,90.79352993229566 L 251.23757526447602,111.04577227498721 L 251.3815798006001,93.78332895691412 L 370.4970853036641,94.02069664014218 L 238.08865947281305,92.38487895845529 L 368.7592143093046,91.16975777265533 L 382.2063424333699,108.27033352040024 Z" fill="rgb(96,155,193)" fill-opacity="0.14097341287254883" stroke="none"/><path d="M -51.16960692578722,173.88872780565345 L 119.87462461278196,130.96487551100518 L 117.67949948007755,128.90194277757197 L 133.7217268080987,127.70124307792753 L 120.06115962471812,166.4475232708865 L -30.408662391503853,168.68955324475527 L 118.90366358408448,169.40653067254823 L 144.3497116629393,169.34743115906906 L 125.24292695105764,126.530776752219 L -20.52903741841442,169.07738248656173 L -19.087291732685458,129.42300749334393 L -10.651076500604546,168.61527881571604 L 126.3858504147621,166.48800314352232 L 154.64416014478695,166.42285958448295 L -28.481946869814138,166.72827682172328 L -27.038150123242815,169.5586886526254 Z" fill="rgb(96,155,193)" fill-opacity="0.11202868092506307" stroke="none"/><path d="M -44.40151157226004,246.96900195854 L -58.26477271660627,299.39622736795053 L 94.89048890158753,253.10826452929012 L -33.666378781310776,297.54739996792557 L 94.26853923339078,241.5291087153134 L 106.85708769388648,294.6688855848221 L 127.32916031113834,252.48893783684971 L -29.158568063911034,301.8228310967684 L -58.52681119793436,303.56574329600284 Z" fill="rgb(96,155,193)" fill-opacity="0.2030689959035002" stroke="none"/><path d="M -8.791031259460098,409.20637524018866 L 41.399500201306424,410.13994478650307 L 37.001587589547896,359.80110309788665 L -11.960283413691464,407.92520491936085 L -14.993722685641732,416.6417635614206 L 36.81406064744633,358.61344399871143 L -14.78475275225193,408.4442236555458 L 43.31431019528575,408.74985499169577 L 47.49034021503168,414.294949120395 L 46.97683430029728,358.59297582964354 L 49.10069882025971,353.9617444507607 Z" fill="rgb(96,155,193)" fill-opacity="0.17913762265866287" stroke="none"/><path d="M 266.3274898233863,222.50961407314884 L 256.36067027902936,268.2792878455505 L 322.9519617697232,220.50310022831061 L 321.4156524356591,220.00262886539826 L 255.2295863053002,277.8540800817225 L 323.73718159558257,272.4979108742007 L 328.4229499898377,219.97343578427365 L 319.651636697254,214.53597332586224 Z" fill="rgb(96,155,193)" fill-opacity="0.09146802559651329" stroke="none"/><path d="M 272.39112901557615,191.78517778643337 L 282.1962445307569,195.91254686141775 L 354.53971992334056,188.2639895887661 L 276.0938302054512,188.6514179569086 L 272.97374507147396,246.10570259959448 L 271.66294394704977,252.3211478902944 L 277.62451541740916,249.91252400984865 L 341.9986923139507,190.92958381578086 Z" fill="rgb(96,155,193)" fill-opacity="0.20070163187177467" stroke="none"/><path d="M 341.3059990196276,180.4596517218129 L 346.83778916613966,178.0737185093097 L 168.265369678621,206.94787337054237 L 325.212657199575,177.91370692625384 L 186.0974135204146,211.55984561183226 L 176.76462635423496,179.80924346244103 L 166.02234562488513,181.9919999133726 L 340.41866201689,177.08366975153785 L 196.4135657627055,180.96729526565034 L 336.27462375938353,212.1345945725554 Z" fill="rgb(96,155,193)" fill-opacity="0.1659849933039658" stroke="none"/><path d="M 350.57068194756647,96.4511156766762 L 380.0763082603708,112.68333513869337 L 218.5550451464414,112.03097495451443 L 350.08261216188157,114.70386143789368 L 371.76100878383636,95.09735646478158 L 366.4146180200362,97.04284906300242 L 218.13809513055222,96.33823282928877 L 217.70552243867257,97.19869675092929 L 355.62284741579475,112.57263432575375 L 241.36049747527971,115.69564027475775 L 371.7026055400445,112.30185254834791 L 230.00219219692613,96.35683409202376 L 372.29242873545047,112.94844674233696 Z" fill="rgb(96,155,193)" fill-opacity="0.11299786416584798" stroke="none"/><path d="M 277.4379518676892,235.02976126800996 L 140.98468620175368,294.32810123339203 L 290.42931240488724,235.77550424909148 L 151.28259538471605,302.2977147268926 L 298.71886378508407,301.35319159698497 L 264.73482705769896,240.2004732306661 L 126.02184842950419,297.6670148523771 L 278.36590523614694,235.77884841176459 Z" fill="rgb(96,155,193)" fill-opacity="0.2061791321281063" stroke="none"/><path d="M 320.13537491555473,95.61778485592015 L 292.9548184251072,99.73002700161142 L 302.57860116583663,149.34410452858515 L 314.8836273733789,102.9283193938405 L 152.49431386935098,150.78672405740883 L 145.50015773153442,152.98964959763455 L 294.0288927322134,101.00252521197126 L 162.1019938560056,150.38298809500625 L 308.7955433970623,98.50497275342886 L 166.71031585407513,150.092060467355 L 149.68582781110211,97.88897825052022 L 319.9004645142803,102.95940871735657 L 180.2614473276804,145.6458494703785 Z" fill="rgb(96,155,193)" fill-opacity="0.20633514618376408" stroke="none"/><path d="M 104.75344160706034,259.51641146093385 L 111.08726172355418,299.9669936860429 L 301.10128314093845,306.5301335536708 L 116.18854461540577,300.42417862649455 L 111.92769628869706,253.47743662579444 L 302.45418549329816,300.487842373625 L 99.75600889643813,307.90164656823237 L 120.8937067196663,252.337325172383 L 96.24081758180155,304.7997760524776 Z" fill="rgb(96,155,193)" fill-opacity="0.1817944424157645" stroke="none"/><path d="M 290.8495909201548,38.37122176473723 L 285.6101399023792,34.83377953053012 L 402.81340993486305,35.62731959638031 L 400.6908024935513,63.23257460717848 L 280.52447103148853,32.73878460715807 L 287.75774884576686,34.54450072000513 L 401.1312331200405,36.67900303683318 L 396.3215991022526,63.47394185041428 L 283.2012826697461,38.41985210218457 L 390.0939897983881,34.57423006456551 L 405.8343256276419,65.13614361857522 L 390.6616021094221,71.17044404473114 L 415.71976067491823,34.23421837441599 Z" fill="rgb(96,155,193)" fill-opacity="0.18519284228537292" stroke="none"/><path d="M 319.10228635677464,217.24726789787212 L 332.67910576568715,216.068270635013 L 322.69736606957935,264.0952559904393 L 328.1689333658569,269.37696223139403 L 315.7017028400313,261.36843258233824 L 415.3410776352259,264.75893673895735 L 417.2598321878021,208.98716849241697 L 320.09333772955,273.00299404883503 L 325.30586385981877,264.98922408909436 L 321.35056340354464,209.14250870964545 L 326.48553390320944,269.53535112657164 L 404.61989451256676,272.73458951694704 L 423.77655058578256,269.41371612634555 Z" fill="rgb(96,155,193)" fill-opacity="0.2059738591123219" stroke="none"/><path d="M 139.07148721787786,348.04938835081947 L 147.88092475261794,331.3487400283131 L 25.053537273088963,329.1625772311214 L 37.813174733382105,350.37310803553714 L 140.91145810850344,328.99345070454115 L 136.55441618681618,330.10500984190344 L 139.22031705173237,348.77474935186217 L 142.75929879453724,328.2916637410133 L 40.495429869079864,330.3178836499194 Z" fill="rgb(96,155,193)" fill-opacity="0.21870149356451213" stroke="none"/><path d="M -10.669396824039353,259.3007911046026 L -11.444373650902833,271.5168602108791 L 154.83886052889926,214.70443513443243 L 140.56328147538665,212.18028988377586 L 132.0844980751315,271.4095651518142 L -3.4415937973634385,218.9189407979155 L 122.47226434355434,209.75468841892211 L 138.28598814916134,263.0445552692233 L 121.96455972397365,209.64474939162625 L 127.45672175131816,261.4780985205134 L 130.45271660604283,213.0569503527886 L 11.564921104164505,265.67888335405786 L 146.285810346677,264.2598898247095 Z" fill="rgb(96,155,193)" fill-opacity="0.10015920402876409" stroke="none"/><path d="M 395.1816848143102,96.10120199473552 L 326.9080337334812,36.180437984925575 L 330.26949222845195,91.85891047318732 L 331.4035697149719,33.46186432805885 L 323.5986701147017,87.8192100157896 L 398.92773551136264,88.76796965057642 L 395.3313393187618,92.32390685208874 L 322.93671897813516,35.43609131401737 L 388.65328856903585,42.48523048426868 L 330.30600241097017,42.4580845135089 L 398.93076098317925,96.7360882546808 L 330.66215068782606,93.39707415906072 L 406.6198220937218,35.39754824840935 Z" fill="rgb(96,155,193)" fill-opacity="0.0842566747657069" stroke="none"/><path d="M 296.59890701485887,133.6056049490987 L 306.33987927660064,136.09223334676014 L 286.535567164215,156.67880844068506 L 159.1813622167395,155.6830630763097 L 298.9381250492798,157.9354389412605 L 285.6641166000131,155.3323162183903 L 165.03873450566783,133.97190534313967 L 170.7341382709775,160.03761989944704 L 174.65261850827196,133.68028272302044 L 156.00265037269327,135.47245384331669 Z" fill="rgb(96,155,193)" fill-opacity="0.2109073772894891" stroke="none"/><path d="M 105.85867756662911,3.4070658699161545 L 105.97727166063811,4.861500590492378 L 11.955525252323717,22.012185440380584 L 6.823055429471189,3.6711536295294636 L 102.1963771580804,21.522564479561776 L 103.60373424551472,20.87526077691709 L 98.00756265268203,5.020975088876119 L 21.52596188413124,21.88977690059494 L 99.42131522409822,4.306845989602714 Z" fill="rgb(96,155,193)" fill-opacity="0.10566465041120648" stroke="none"/><path d="M 102.47822425376349,306.22593026155414 L 116.28889353424647,250.4680707725643 L 31.983801507311632,303.81421168814126 L 32.21297419166918,254.5952245412818 L 38.7687343366298,301.50595653538386 L 39.71573432737976,303.5794962947807 L 38.2906287622826,255.16098101924803 L 32.6506173425582,251.85439005528278 L 119.52918151572669,261.031387376773 L 119.27557170724106,295.97722890647407 L 25.40273793941399,304.6244895010701 L 29.67381532740272,260.8460174543619 L 42.89700952491006,253.3653626056227 Z" fill="rgb(96,155,193)" fill-opacity="0.21731852760930803" stroke="none"/><path d="M 344.66861976531425,310.78956252783115 L 277.70930599734356,310.4477590918737 L 352.4629090930106,248.7687058277692 L 276.8778048449332,313.3953468699529 L 345.5423218055495,311.41325167806997 L 279.70079676286275,253.9653779333076 L 343.5054772856514,321.2649990896179 L 272.08433246010344,324.0094774127581 L 353.9236845795306,313.7158682761062 L 277.42399878380166,323.4913338101261 L 354.55236765549245,314.13842535890217 L 271.74029070002257,323.20709904651335 L 359.38246246979253,261.1513373573752 L 345.1112991793891,262.32021572870184 Z" fill="rgb(96,155,193)" fill-opacity="0.16041729528314358" stroke="none"/>
  </g>
</svg>