<?xml version="1.0" encoding="UTF-8"?>
<svg xmlns="http://www.w3.org/2000/svg" viewBox="0 0 400 400" width="400" height="400">
  <rect width="100%" height="100%" fill="rgb(64,141,165)"/>
  <g transform="translate(3.97682122576839,18.926950403506225)">
    <path d="M 0,0 L 48,48" fill="none" stroke="rgb(198,107,146)" stroke-width="2.87931673246991" opacity="0.6670829411440269"/><path d="M 0,48 L 48,48 L 48,96 L 0,96 Z" fill="none" stroke="rgb(198,107,146)" stroke-width="2.276295782826214" opacity="0.7021095001954567"/><path d="M 0,96 L 48,144" fill="none" stroke="rgb(198,107,146)" stroke-width="1.6074706887896042" opacity="0.4002817754171666"/><path d="M 24.0,168.0 m -12.0,0 a 12.0,12.0 0 1,1 24.0,0 a 12.0,12.0 0 1,1 -24.0,0" fill="none" stroke="rgb(198,107,146)" stroke-width="1.0215409301413463" opacity="0.34429670649589433"/><path d="M 24.0,264.0 m -12.0,0 a 12.0,12.0 0 1,1 24.0,0 a 12.0,12.0 0 1,1 -24.0,0" fill="none" stroke="rgb(198,107,146)" stroke-width="1.1134962578735534" opacity="0.8461730770154454"/><path d="M 0,288 L 48,288 L 48,336 L 0,336 Z" fill="none" stroke="rgb(198,107,146)" stroke-width="1.5257055321618376" opacity="0.4984614931521899"/><path d="M 24.0,360.0 m -12.0,0 a 12.0,12.0 0 1,1 24.0,0 a 12.0,12.0 0 1,1 -24.0,0" fill="none" stroke="rgb(198,107,146)" stroke-width="2.5785335316689153" opacity="0.6632741408276633"/><path d="M 0,384 L 48,432" fill="none" stroke="rgb(198,107,146)" stroke-width="2.0895552779331386" opacity="0.8302806798888771"/><path d="M 48,0 L 96,0 L 96,48 L 48,48 Z" fill="none" stroke="rgb(198,107,146)" stroke-width="2.0910660092245736" opacity="0.7183000409029555"/><path d="M 48,48 L 96,96" fill="none" stroke="rgb(198,107,146)" stroke-width="1.086053257099237" opacity="0.32072137827269315"/><path d="M 48,96 L 96,144" fill="none" stroke="rgb(198,107,146)" stroke-width="1.513052605318321" opacity="0.6722593586665194"/><path d="M 48,144 L 96,144 L 96,192 L 48,192 Z" fill="none" stroke="rgb(198,107,146)" stroke-width="0.6843852524867164" opacity="0.42484252103029385"/><path d="M 72.0,216.0 m -12.0,0 a 12.0,12.0 0 1,1 24.0,0 a 12.0,12.0 0 1,1 -24.0,0" fill="none" stroke="rgb(198,107,146)" stroke-width="0.9477113561959387" opacity="0.8484303017939132"/><path d="M 48,240 L 96,240 L 96,288 L 48,288 Z" fill="none" stroke="rgb(198,107,146)" stroke-width="2.8839964665813214" opacity="0.6227522648386044"/><path d="M 48,288 L 96,288 L 96,336 L 48,336 Z" fill="none" stroke="rgb(198,107,146)" stroke-width="2.4030499105499867" opacity="0.8889504255314746"/><path d="M 72.0,408.0 m -12.0,0 a 12.0,12.0 0 1,1 24.0,0 a 12.0,12.0 0 1,1 -24.0,0" fill="none" stroke="rgb(198,107,146)" stroke-width="2.6395096291187827" opacity="0.4713102932025923"/><path d="M 120.0,24.0 m -12.0,0 a 12.0,12.0 0 1,1 24.0,0 a 12.0,12.0 0 1,1 -24.0,0" fill="none" stroke="rgb(198,107,146)" stroke-width="1.8770473460255266" opacity="0.7288201068890863"/><path d="M 96,48 L 144,96" fill="none" stroke="rgb(198,107,146)" stroke-width="0.9203617317501904" opacity="0.431311281302617"/><path d="M 96,96 L 144,96 L 144,144 L 96,144 Z" fill="none" stroke="rgb(198,107,146)" stroke-width="1.6523977950424582" opacity="0.3995050949293563"/><path d="M 96,144 L 144,192" fill="none" stroke="rgb(198,107,146)" stroke-width="2.26689480601497" opacity="0.8472694645596619"/><path d="M 96,192 L 144,192 L 144,240 L 96,240 Z" fill="none" stroke="rgb(198,107,146)" stroke-width="1.818488050805128" opacity="0.7191110042904273"/><path d="M 96,288 L 144,336" fill="none" stroke="rgb(198,107,146)" stroke-width="2.9247779016547573" opacity="0.3550655585000133"/><path d="M 144,0 L 192,48" fill="none" stroke="rgb(198,107,146)" stroke-width="1.9548968191120715" opacity="0.48852487685131385"/><path d="M 168.0,120.0 m -12.0,0 a 12.0,12.0 0 1,1 24.0,0 a 12.0,12.0 0 1,1 -24.0,0" fill="none" stroke="rgb(198,107,146)" stroke-width="0.7217957225043449" opacity="0.4463797765240035"/><path d="M 144,144 L 192,192" fill="none" stroke="rgb(198,107,146)" stroke-width="2.104775151810129" opacity="0.8625795897450899"/><path d="M 144,192 L 192,192 L 192,240 L 144,240 Z" fill="none" stroke="rgb(198,107,146)" stroke-width="1.319398732406742" opacity="0.4153741351175265"/><path d="M 144,240 L 192,240 L 192,288 L 144,288 Z" fill="none" stroke="rgb(198,107,146)" stroke-width="1.5294889271973289" opacity="0.4579737580690585"/><path d="M 144,288 L 192,336" fill="none" stroke="rgb(198,107,146)" stroke-width="1.6257575533356625" opacity="0.8601183902316525"/><path d="M 144,384 L 192,384 L 192,432 L 144,432 Z" fill="none" stroke="rgb(198,107,146)" stroke-width="1.567378508025264" opacity="0.7728059152705"/><path d="M 192,0 L 240,48" fill="none" stroke="rgb(198,107,146)" stroke-width="1.7678603793587861" opacity="0.4947597746648603"/><path d="M 192,48 L 240,96" fill="none" stroke="rgb(198,107,146)" stroke-width="2.6260949136696885" opacity="0.6388859456093636"/><path d="M 216.0,120.0 m -12.0,0 a 12.0,12.0 0 1,1 24.0,0 a 12.0,12.0 0 1,1 -24.0,0" fill="none" stroke="rgb(198,107,146)" stroke-width="2.0952413056652825" opacity="0.32518413759094666"/><path d="M 192,144 L 240,144 L 240,192 L 192,192 Z" fill="none" stroke="rgb(198,107,146)" stroke-width="0.5142054622668569" opacity="0.6046207598633557"/><path d="M 192,240 L 240,288" fill="none" stroke="rgb(198,107,146)" stroke-width="1.2626176367145403" opacity="0.4145969327164642"/><path d="M 192,288 L 240,288 L 240,336 L 192,336 Z" fill="none" stroke="rgb(198,107,146)" stroke-width="0.5114947213103228" opacity="0.32556563729408045"/><path d="M 216.0,408.0 m -12.0,0 a 12.0,12.0 0 1,1 24.0,0 a 12.0,12.0 0 1,1 -24.0,0" fill="none" stroke="rgb(198,107,146)" stroke-width="2.283021803981563" opacity="0.40132801590966327"/><path d="M 240,0 L 288,0 L 288,48 L 240,48 Z" fill="none" stroke="rgb(198,107,146)" stroke-width="0.7808044143619224" opacity="0.6146329162657199"/><path d="M 264.0,72.0 m -12.0,0 a 12.0,12.0 0 1,1 24.0,0 a 12.0,12.0 0 1,1 -24.0,0" fill="none" stroke="rgb(198,107,146)" stroke-width="2.2435471303655468" opacity="0.63486785745219"/><path d="M 264.0,168.0 m -12.0,0 a 12.0,12.0 0 1,1 24.0,0 a 12.0,12.0 0 1,1 -24.0,0" fill="none" stroke="rgb(198,107,146)" stroke-width="1.1618859451186976" opacity="0.6253716943545936"/><path d="M 240,384 L 288,432" fill="none" stroke="rgb(198,107,146)" stroke-width="2.496954010991882" opacity="0.6108885909623027"/><path d="M 288,0 L 336,48" fill="none" stroke="rgb(198,107,146)" stroke-width="2.5258993767772577" opacity="0.8037145345093855"/><path d="M 312.0,72.0 m -12.0,0 a 12.0,12.0 0 1,1 24.0,0 a 12.0,12.0 0 1,1 -24.0,0" fill="none" stroke="rgb(198,107,146)" stroke-width="1.0374283822448986" opacity="0.4946059547566739"/><path d="M 312.0,120.0 m -12.0,0 a 12.0,12.0 0 1,1 24.0,0 a 12.0,12.0 0 1,1 -24.0,0" fill="none" stroke="rgb(198,107,146)" stroke-width="2.347444442871155" opacity="0.5660624937485779"/><path d="M 312.0,168.0 m -12.0,0 a 12.0,12.0 0 1,1 24.0,0 a 12.0,12.0 0 1,1 -24.0,0" fill="none" stroke="rgb(198,107,146)" stroke-width="2.073162490701506" opacity="0.6953778998379767"/><path d="M 288,192 L 336,192 L 336,240 L 288,240 Z" fill="none" stroke="rgb(198,107,146)" stroke-width="2.543063505719415" opacity="0.39012602669119184"/><path d="M 312.0,312.0 m -12.0,0 a 12.0,12.0 0 1,1 24.0,0 a 12.0,12.0 0 1,1 -24.0,0" fill="none" stroke="rgb(198,107,146)" stroke-width="2.788264071797487" opacity="0.6906522627835658"/><path d="M 288,336 L 336,336 L 336,384 L 288,384 Z" fill="none" stroke="rgb(198,107,146)" stroke-width="1.6111115370787974" opacity="0.394853473885759"/><path d="M 288,384 L 336,384 L 336,432 L 288,432 Z" fill="none" stroke="rgb(198,107,146)" stroke-width="0.6884612567012189" opacity="0.7755411176206188"/><path d="M 336,96 L 384,144" fill="none" stroke="rgb(198,107,146)" stroke-width="2.8146326323054134" opacity="0.529230759272924"/><path d="M 336,192 L 384,192 L 384,240 L 336,240 Z" fill="none" stroke="rgb(198,107,146)" stroke-width="1.2907748115658104" opacity="0.38860730685920386"/><path d="M 384,0 L 432,48" fill="none" stroke="rgb(198,107,146)" stroke-width="1.619960671210001" opacity="0.38521545584744876"/><path d="M 408.0,120.0 m -12.0,0 a 12.0,12.0 0 1,1 24.0,0 a 12.0,12.0 0 1,1 -24.0,0" fill="none" stroke="rgb(198,107,146)" stroke-width="1.81148223180275" opacity="0.5712559172157723"/><path d="M 408.0,168.0 m -12.0,0 a 12.0,12.0 0 1,1 24.0,0 a 12.0,12.0 0 1,1 -24.0,0" fill="none" stroke="rgb(198,107,146)" stroke-width="2.891391757437649" opacity="0.6487292074000841"/><path d="M 384,192 L 432,192 L 432,240 L 384,240 Z" fill="none" stroke="rgb(198,107,146)" stroke-width="0.8146148506574303" opacity="0.4228731550277718"/><path d="M 384,240 L 432,240 L 432,288 L 384,288 Z" fill="none" stroke="rgb(198,107,146)" stroke-width="1.1690310913403865" opacity="0.6416377867483388"/><path d="M 384,288 L 432,288 L 432,336 L 384,336 Z" fill="none" stroke="rgb(198,107,146)" stroke-width="1.3028233064051793" opacity="0.8780193999465382"/><path d="M 384,384 L 432,384 L 432,432 L 384,432 Z" fill="none" stroke="rgb(198,107,146)" stroke-width="2.933495894348118" opacity="0.3801545511122874"/>
  </g>
</svg>