<?xml version="1.0" encoding="UTF-8"?>
<svg xmlns="http://www.w3.org/2000/svg" viewBox="0 0 400 400" width="400" height="400">
  <rect width="100%" height="100%" fill="rgb(33,212,192)"/>
  <g transform="translate(6.887884272667357,-0.27466582054254474)">
    <path d="M 222.60121148599347,189.94040444349343 L 175.10159454573704,210.907904147127 L 230.162668927475,212.47979538537018 L 165.77055776619352,185.04771322652226 L 259.726246044767,224.86936981462642 L 158.16339373268912,220.50613213163467 L 242.59334189642135,183.47234960188098 L 134.81147892539965,227.56479834920287 L 252.82143437309156,225.7493408818562 L 157.85605794719194,182.88558696570834 L 243.17094881108545,220.53903525415058 L 147.50441020652397,220.49910015964895 L 248.85788267291343,178.7502176649182 L 158.92495730391417,218.5439072970785 L 252.16248398756926,220.16397964709537 L 141.81290773772884,177.14649806908386 L 241.23473871486715,220.4121789073713 L 142.41570335291155,228.25119018593614 L 268.48126377952167,172.75563298605294 L 144.28671707432463,221.79102350752862 L 256.98264384575276,224.49347325271708 L 162.07125359322498,182.01050049187248 L 253.7063663109872,220.98545976493688 L 151.20994804818662,221.7493767937995 L 256.240104819097,175.60313310404308 L 120.26253265584425,230.9714312272925 L 271.50354506114996,229.97004444391325 L 142.71578097346352,172.13014800189757 L 264.548718517368,229.80392521441897 L 131.26226314779967,229.07864491059266 L 264.9556939917535,172.58873209793438 L 135.18414542744637,227.8400270784561 L 282.73179294506326,235.77774651394287 L 130.43221457051968,169.59477408087963 L 262.6350983038037,227.47947428799964 L 146.1589740815148,226.17907124923286 L 291.59542922657783,164.14329408649377 L 119.3674469311896,236.94017545368806 L 273.9490249949819,233.5012358078178 L 119.21737964689284,162.6745456367886 L 264.9362386321242,227.10951437290342 L 128.75316660101618,229.41467974415264 L 277.5299050880191,166.5207359103792 L 129.74018223900305,228.88243217030308 L 265.9327931448979,228.42535931719894 L 121.23670914605914,167.42190643235637 L 299.6186986347265,238.53662565861958 L 108.84146326049735,241.77562868957554 L 268.6922341661284,166.657545044296 L 117.08047592191885,234.7741120047712 L 271.10278329617284,235.28904275692253 L 100.46883065927796,158.2868376429431 L 283.21926719751116,240.80385359790253 L 100.56993232625736,241.38345230198104 L 295.2718988184347,160.0473055810114 L 132.16557560757943,231.384949303195 L 287.35261374718414,241.63313423518005 L 120.95303280944005,164.62010769607866 L 264.18418034670555,231.81542990815103 L 123.17037214374221,234.2493149607356 L 279.63179527539086,165.0150255591313 L 117.56501846375401,235.15964486007294 L 284.01617036566296,239.5355720847199 L 82.47227231892548,154.45556599221965 L 271.24832747690107,235.08731788600304 L 108.06008763947848,239.80328213720014 L 299.50551421331465,155.96650855416954 L 88.61660824820939,247.84786752688441 L 300.9612073767218,242.63501003461397 L 93.27031567423104,149.36866206225335 L 301.4770994968641,248.0074856148879 L 108.80539893056228,241.5126364652933 L 300.7180910575843,153.00488792834025 L 84.25080977819113,252.2911480323633 L 289.80649539512086,241.60885198719552 L 66.82006646743022,148.02751489517632 L 320.8193670981229,252.48381495119511 L 90.12414685947843,243.34099086486344 L 303.3943343852835,158.8702823927186 L 105.7628507890515,241.9547783049182 L 289.3548676454277,243.07351621705814 L 78.79431227160507,145.84209037788713 L 294.42945748106695,243.1534429091994 L 92.21583927126021,249.2853782163262 L 296.5383276559041,154.6384432230857 L 88.76300956386315,253.93182615483488 L 326.07695662587236,249.36465796240716 L 71.45565248143384,147.4542235601823 L 339.0446948631419,256.46845595192093 L 67.63604159738804,258.2504096582819 L 340.5217670813971,141.9531831248855 L 77.82547647276219,252.92677053364102 L 316.5642618746783,249.41844583554686 L 65.27004260774777,144.00643373032565 L 335.52868852725163,254.84968431594422 L 75.70372230520616,249.00523295643274 L 324.13525209950365,148.99097262110422 L 54.719764266138924,260.2936441338106 L 343.1649931765827,256.9226418043202 L 69.32370652959594,148.00363661845873 L 326.8796934737309,257.272707931887 L 79.13489325416748,256.82769310056676 L 338.3757199117249,143.24278308208886 L 91.49477072440075,252.02392829452197 L 348.3849737459131,257.62729065404244 L 66.94902494556956,146.82765115471796 L 329.788381019713,261.0598722473958 L 71.38754766020779,251.3874194682605 L 354.96285497612985,136.57052496616382 L 87.97393525641019,254.79553107254517 L 351.30629340851806,262.89071720506075 L 54.04119590862297,140.73546874313223 L 332.5089413427956,259.43834004683987 L 57.231976917772386,256.6057044864772 L 332.03280723457596,142.78266793234528 L 57.86727206943468,264.0294919532822 L 340.8072302393489,254.215323651346 L 40.76935790866881,131.6971690036478 L 339.8719286882441,263.29845456327564 L 27.086516361676956,268.0792639125972 L 340.3969788867606,142.3461581284425 L 39.751606005136296,262.320160504109 L 370.030288327869,270.0988701073506 L 61.31806199105168,140.27191614611036 L 358.9673104055257,267.8472614420452 L 79.62882176207917,259.3866440425709 L 346.8273922610123,140.60351965163096 L 27.6290788408605,266.5347099770656 L 351.8135937089542,262.8435625211462 L 65.8594302569783,139.51451644750284 L 359.8208867722162,269.1748802805125 L 64.6466025963245,260.7643002978675 L 337.0519836953292,134.64345156333866 L 62.46428040220752,264.58850311022564 L 341.01167703553426,269.29541290952574 L 33.89470576048316,127.25180046600164 L 360.7007281578519,268.4383706343697 L 54.06656201864979,266.5873288463701 L 350.64501962744544,134.1107451244425 L 60.53982992156958,263.47495478840926 L 348.77053213619035,270.8186950658677 L 35.52840455301683,122.4759593374923 L 347.1360906945315,268.0593376496781 L 33.81499173951923,275.8421497817203" fill="none" stroke="rgb(102,161,92)" stroke-width="1.9672876478829853" opacity="0.47559331269246313"/><path d="M 166.37124558603938,184.56913390682797 L 253.5388084726482,221.01521305618328 L 154.2009539768006,221.67488600193764 L 243.79694354359347,180.087727820567 L 141.27177012025055,226.15637800327062 L 256.02697475190035,224.38444293360797 L 155.3311409325804,178.31059388481535 L 258.6091725561057,224.84536839876404 L 150.52083267811278,222.5212119343331 L 267.84124654870755,173.25933586410386 L 152.77343677767792,221.78838846384883 L 238.45687976176742,216.88520096309415 L 145.13397612843178,175.78597862097334 L 240.63451604565782,216.07091038212755 L 142.38980528638996,228.5564818458998 L 265.5830972044042,169.8910903970263 L 142.75411855426142,223.36213311418558 L 243.64349975286376,217.89513981476455 L 133.62501002103733,172.21474311257882 L 273.0985216575339,228.25685769051034 L 151.9338875115053,220.51692908294476 L 260.7112947981768,169.81399124249964 L 128.03684268642985,227.69386773404187 L 249.86376229296044,220.71767678099113 L 146.8545216186615,178.13384512110397 L 260.77431667490947,229.8791420238393 L 144.1731843271812,227.6871754305732 L 261.8853236673539,172.75673942760358 L 126.97801428293033,233.54007427308042 L 275.1437697009419,230.06087624614068 L 120.16847639211997,168.75134171583997 L 249.8289942213223,221.6647835323949 L 148.6724518129841,223.3239901501284 L 275.1659830542435,165.75598241168416 L 106.33823642491826,236.13545897952613 L 255.6674852242926,226.37245742875427 L 123.57714563956488,169.77485887342172 L 268.1160311142009,234.03005825497476 L 125.60132063322574,229.21894202510478 L 285.5811330588741,162.3335245742117 L 142.16809688202542,226.64450906877488 L 261.79288553353626,230.27787923763708 L 116.88014189649479,163.39895578968932 L 285.8717253912502,234.21442238578652 L 115.73051229416589,235.24273634481648 L 294.60382695521014,159.03373440453944 L 132.24694603985319,232.48270745646212 L 298.580985196654,239.52656983422688 L 101.4282902717082,161.83347538303605 L 278.52003462474516,239.01089709747788 L 106.40924313608863,243.23424077481246 L 274.9479217536475,169.233837499872 L 137.64151727562304,229.7022999749063 L 276.2672600110559,230.26043764410656 L 107.15347160788019,157.37985662330294 L 275.33710266962197,236.92702026628092 L 97.66408790241321,245.38035832897253 L 286.1590425326707,157.57684763852467 L 101.63391562334189,238.82536017810014 L 302.3637334204128,240.5967820760814 L 101.61759166074648,162.10983828900845 L 300.145032290046,241.43473015049528 L 127.39646246960054,233.95638655261857 L 309.18342795391675,151.5725331626277 L 102.40190763579685,246.98143591828023 L 326.3993642030904,249.33613907803488 L 103.25461479570598,161.24588461565736 L 286.51166699962965,235.20653630592847 L 90.12423447238355,246.57293431530027 L 291.694684808441,161.4252545004278 L 106.01333312242754,243.6078038150282 L 296.532267388843,238.2027660232592 L 96.86722851926515,149.14927445958114 L 327.4027777878103,249.8209396188527 L 86.2132751434796,244.23571334554762 L 307.89043867296397,151.53458559082412 L 97.87745911470968,248.69230984740105 L 293.1720666051739,238.92423647110832 L 89.1757428136477,152.78905738993032 L 300.0846798965296,244.13968558131776 L 79.77622023149036,253.88490927596507 L 295.60355694895975,155.68813085274184 L 78.15166245005372,249.24048322798114 L 313.4335223532469,250.93166883928436 L 83.06683357830029,154.44323700871473 L 315.09960677271505,246.87124750619867 L 55.92183294373092,257.0014330495554 L 329.5069820246247,147.46908884208818 L 100.81407030537093,243.68766482417243 L 332.6866208215546,252.2611242607424 L 73.4942884619339,150.67167521418435 L 334.38831173642046,254.97866491491914 L 72.15293671374297,250.0719380828151 L 317.5901766598072,148.20807335481186 L 96.48773696176627,245.56994358797675 L 340.93681859821635,256.88685005212716 L 46.170352859051434,140.28893658606682 L 325.12367544190965,260.82446179376785 L 91.53762195032745,248.1749824730306 L 315.3196411573898,151.46404593343863 L 91.24059090100758,251.2788248375121 L 322.9940222331053,248.1271558482784 L 67.92760995640751,141.37395561666045 L 327.3704947859537,256.8115098138431 L 52.09138198616657,258.8562408563968 L 307.5083046777938,148.3276021430581 L 56.43273359832048,258.8750708546212 L 330.98864675487664,251.82789670271748 L 85.40177082451191,142.89583527730008 L 311.61544331047514,253.90904679096795 L 49.738189754106315,266.0467282163408 L 312.30119593537654,146.51996917036598 L 51.82370528754146,264.11676357467144 L 350.77481029591934,259.5748102902481 L 53.53331096194094,132.33563154062335 L 336.44164269829355,265.1927114674861 L 78.79688132595052,254.4849921189532 L 330.16441990354696,141.09167035413344 L 59.48352253241873,261.10749501143636 L 365.01184071416594,265.11830664197345 L 41.49796263445762,134.5687115866716 L 329.15168092018666,263.6714860764021 L 68.53372859793015,258.85887389002846 L 361.696194584158,137.0288786833881 L 74.6044026759937,260.79694376678583 L 354.5502826281886,262.7906990723201 L 70.0985078980014,140.00727236931553 L 357.5343877729387,263.2118121610621 L 33.83678610514974,268.2782888149354 L 340.5082231473989,137.73318097815462 L 41.68374071840327,267.33260788102297 L 358.0101426792239,272.215571508388 L 42.08230418594357,128.0309254923509 L 335.3803263680376,260.14682503970243 L 55.455673267324215,263.8962659044564 L 393.5185644230088,125.20187347764536 L 61.51796877335332,266.36902526054064 L 363.1269808771117,267.38168571342476 L 63.02896452084292,131.70572474239597 L 348.930867486338,263.4226391768467 L 59.325878405475635,265.94124216124555 L 357.0895690757338,126.26721672030737 L 69.52545806984568,264.6060018060863 L 351.6319189457612,267.9126836969222" fill="none" stroke="rgb(102,161,92)" stroke-width="2.799150625062913" opacity="0.39104896415014995"/><path d="M 250.81237325452074,178.27253451248686 L 157.57484347228316,221.05839332416738 L 224.85175941788088,210.88740805090825 L 152.88948672700323,181.06732052859124 L 239.14312165395245,215.5375284425026 L 163.35650823470468,215.9577450018651 L 243.88255505830108,182.30565154903007 L 141.8724580074569,225.4658844561293 L 256.3641387729138,222.20222421262434 L 154.56188462231984,181.1751595787385 L 249.78741664281995,221.38572550815516 L 162.73019179134707,217.3843007680489 L 234.6934387491062,183.78316324011598 L 154.61615281488702,221.72576484435513 L 277.3160342584435,229.98729988826778 L 145.7114985495575,179.06359632766902 L 252.33833626690537,223.89068558256852 L 123.74886775334804,229.88606686065052 L 269.82535510491175,172.990442147371 L 138.04500047738532,230.64899259066877 L 253.09502038064815,224.57331435456635 L 143.48667114640878,173.50165559813058 L 272.34066419897044,230.72124996901908 L 153.6680466491974,220.12900860222877 L 284.42791251002495,167.25113147241154 L 136.38658326881827,228.58957730331397 L 267.80634102780976,227.51691736847437 L 137.42635539658085,169.13556797321536 L 261.15389928196635,227.07656081454186 L 142.3359822631664,226.17826784114908 L 252.70711362347438,176.0118249121791 L 144.1137368089502,222.18115206245602 L 259.7517956745084,226.02846560136624 L 139.07069178180967,171.83877382252072 L 273.21523762276394,229.97835604995194 L 135.64178699965177,229.3065333191895 L 269.08064494523967,170.14734932759526 L 112.78112250278375,238.4182003910098 L 251.78202002742367,225.43057554878433 L 111.62113176872077,162.62625546787342 L 287.1899039965947,234.78347260683165 L 127.87466406767507,229.4490481367979 L 283.13841408906956,166.39193790680878 L 116.35078944142187,232.85450865119023 L 298.3169771256586,240.04765174274843 L 135.10691696313648,172.42818258931726 L 286.7669444214514,236.884278117275 L 120.06043364452553,238.1594740497948 L 290.39817216804795,161.42522396310815 L 114.50868171732604,234.98880431285104 L 264.47583931411054,230.4412079341355 L 116.422155146871,162.39721934931305 L 303.0752553988005,240.49757105456408 L 112.33217483339672,237.81191615189522 L 267.2128990483514,169.27798868761312 L 103.85710779669907,238.24614425827505 L 276.6601923350283,235.38996255822124 L 86.06461025129114,153.680507522091 L 279.753592464331,231.93328112113727 L 96.04255002143248,243.81699924698873 L 309.94697621130837,156.2315781687015 L 100.52854552868331,246.40736094688077 L 274.5816882388343,236.4510278779897 L 104.87176377948767,158.87277219890876 L 283.9582395588637,238.4954382041431 L 107.66410649560626,236.3776228684169 L 294.4444841286844,160.80704717258484 L 90.92901493215851,246.3762011651886 L 294.69502083005517,237.31494157633517 L 105.6930040031715,155.63509110774302 L 294.29104309256115,239.6026993594757 L 83.66169956607216,246.98378570115537 L 289.5685478126533,161.65197951003802 L 72.1802412983933,251.60360937523555 L 293.72884082229723,240.47627318150035 L 99.33662711974802,158.28490929844452 L 297.9818937671398,242.78213428553815 L 78.87264450463394,251.1218092831342 L 307.84737430183543,152.509738721082 L 97.77903055734328,240.23945399228683 L 309.4559160087009,246.8474159993826 L 86.36614757099464,148.77385474637398 L 315.8767273360298,245.73162971979107 L 82.80218059740726,255.46825210496763 L 302.3970963640055,157.43868771432386 L 87.5809035109797,255.51761002723381 L 296.8056954463551,246.6922773938482 L 72.15268391562421,143.96673960264252 L 326.0985676579454,248.64115609568233 L 68.29766728045314,254.48015654435872 L 308.3387944180785,146.9454789928464 L 60.49366828544473,257.03122229332314 L 316.86995020050824,257.14036559363853 L 74.26200023526657,151.59020394961055 L 309.9006972946289,250.3013049639839 L 55.396338920049885,257.70337200879175 L 325.49481085249624,141.3945594401309 L 73.7427575058664,257.0284434568032 L 341.69153352216085,257.6321650207763 L 97.42363995376049,150.4985388186057 L 313.402828288574,251.64666178924185 L 70.07285622569734,253.20893835681008 L 304.5768937788457,150.63275248835072 L 65.54627684953087,252.87577517396332 L 348.4026818282475,260.8471683800289 L 61.161107415689486,140.8712261433858 L 355.82704438076223,263.857192975775 L 53.359053630714214,258.2686468772327 L 343.2730976564754,143.60990647325093 L 46.509544976529526,263.66199949050207 L 329.3149986751682,256.6614347653413 L 89.73795780108995,147.16621042721516 L 340.219867493326,266.5417352667223 L 64.59599330114969,265.0266161700916 L 326.1672511468982,144.45611489951557 L 61.946836148803214,261.00622916647364 L 346.0830969398918,263.83750129786813 L 78.9441487096013,140.87738025458495 L 341.1676636353152,268.6917881414414 L 38.49126400920065,265.6371397141722 L 349.62957469988714,134.47082252825578 L 63.26927703374952,255.97615475532228 L 372.5813730831364,267.02837585720323 L 70.91198892048095,136.18926428278502 L 356.8093281299882,267.5408088055485 L 68.29718849702002,261.9256617846311 L 363.3866410981315,132.0174045129862 L 51.07791632557806,263.60898797541273 L 356.9695631104207,263.41619871398836 L 33.964507061148254,133.84696201464052 L 372.6786550466454,270.52594645558554 L 53.52998266222053,271.33493335853177 L 357.4087268435958,135.5638085545839 L 71.23318647975313,263.31978898080916 L 371.191037939624,266.89125192051176 L 47.24190884525186,131.55349570566506 L 343.6768614941841,263.24965475990274 L 58.931751840347516,269.7132610687107 L 373.917116849998,124.73212961976932 L 44.44851652742895,264.57662657155555 L 342.12426749301676,266.37158296216205 L 15.06350064545029,126.43363510179293 L 392.09932869584287,277.6520754884589 L 27.78338732626628,266.879027810433" fill="none" stroke="rgb(102,161,92)" stroke-width="1.4541361003266116" opacity="0.8847800345454573"/><path d="M 172.17081142588572,187.67880959231033 L 251.53451750037254,222.229066998638 L 168.29977316321413,214.9074994496616 L 256.6482988650604,175.3357345759797 L 161.44751712085076,218.17774862601465 L 254.07236082102827,225.28133536655577 L 166.11329907823458,184.11721343282963 L 227.20048428804716,213.1336783453714 L 155.9315785276761,219.7615678504759 L 234.09752912594635,183.59151669336856 L 150.8669710917879,222.24585699302105 L 244.80178098087953,221.19083781855954 L 153.44235353281215,181.2308564929742 L 258.2137732336754,222.67400074472758 L 133.81381025416215,226.05310823384013 L 251.9906311983905,175.98185390845143 L 157.56578237175898,218.93937813518986 L 247.61740673065975,222.03221541546938 L 150.91141872018346,179.78977231054347 L 249.52375984357786,219.39926556688172 L 156.69356823872602,221.15764728181512 L 244.53007691038363,178.31364163256853 L 155.0173325868687,221.68658684186022 L 262.4137697262208,227.31086491644479 L 142.4897462776768,177.78396467231573 L 276.4791615728576,233.21154612557282 L 154.13770578740116,220.21332717759043 L 274.848577936683,169.71916460111888 L 113.43716137491575,234.0718116963396 L 281.19151558752657,234.5190136623335 L 130.91161447669634,172.23022483400018 L 292.2115340256771,235.55973723555235 L 129.04075097398533,227.8265998384677 L 269.08047784706355,165.7490370964916 L 112.31216133373103,235.581107782154 L 274.64824018553725,234.62331554731156 L 107.83299603508495,161.99730356073292 L 295.1179615216134,238.1652215524183 L 145.75026237951073,225.15091830146667 L 275.8941422647872,170.09816548806185 L 133.0061109924444,230.4630472756613 L 271.7486698235062,227.72635361471617 L 129.1304095670276,171.35753003572182 L 271.5560058298681,235.27252498863038 L 131.21355056190737,229.6319274396484 L 280.0163213724194,163.08502591397652 L 113.25849581685573,240.06333391521483 L 288.9944387456461,235.15012622027865 L 112.15092955561806,161.82413593851214 L 290.4518652079565,240.53809636567874 L 123.72973885889847,231.06016045111784 L 268.1147467014717,166.97546005318063 L 109.71308873028575,239.59983289549058 L 297.7403375189157,238.8919365266114 L 106.01249043808191,162.20736288262742 L 295.02896511939144,242.61573843746456 L 129.1235486792519,231.15458113263938 L 311.56871949692163,155.56436396663275 L 107.31571851364674,236.43277494024593 L 311.50207791414886,243.0497492298937 L 110.32972126355517,156.20110466630229 L 293.5072947211712,240.21251136094153 L 117.93888998853501,236.84032633718152 L 288.2944355199254,156.79199964778564 L 80.57922911162467,248.88041497670525 L 312.08975030781903,248.91402233572848 L 93.2837394797765,152.31572421957054 L 302.17396169888207,241.6040638832509 L 105.90389234882223,240.6906792129678 L 300.32871155869583,161.23692438415094 L 101.11664790069875,244.28284592733831 L 292.16954144389,244.0555610907413 L 121.4130260018597,162.20514748898194 L 321.0579747482976,247.1159186762398 L 105.07068793101561,242.4450545164317 L 312.8983214548067,154.82223292500382 L 92.63418926914973,243.4544861800651 L 308.2431905130775,244.118634224727 L 114.96910062691119,159.63177396356284 L 307.9319778882536,253.18968455105932 L 92.9750748747725,241.84656408208377 L 303.74455745338986,159.31090051774495 L 86.99320745152369,251.39136244134522 L 316.1476947259303,251.46712853430265 L 86.33934440014939,152.5190096196578 L 301.5474102230636,246.2373258933858 L 91.68118518332773,244.36061314129884 L 302.20557364586335,151.8805841457277 L 109.34021050237637,243.8185064488625 L 307.6117790350337,244.46934305094663 L 83.21614556406307,150.98292931992015 L 326.52249032532325,252.1672840590982 L 54.04800036935549,258.5835719953294 L 337.4842769572274,140.574579712557 L 67.82856367246768,257.24906171221784 L 340.67090209853416,256.28480629227255 L 71.1250956442214,144.95294477912904 L 338.334665926546,254.00547622514068 L 66.21060766605322,252.77993267076903 L 330.7973440014707,140.9702722338624 L 60.086203611593135,259.7941001115961 L 323.43097959306476,258.10683848234964 L 82.90014119583049,149.36210647011325 L 319.1033795336125,252.06479914290833 L 76.86442131288364,254.15151885432823 L 331.6800068612963,139.90385910452443 L 72.15106509626837,255.30184034375776 L 329.772511126463,250.2403357855232 L 72.4243143066252,145.7785012659655 L 357.96111874484035,265.618690665647 L 66.11104917659193,260.0102495708106 L 315.58537393980953,143.20416797536183 L 60.15730591477072,260.70860305632164 L 346.55086030362577,256.6612924634569 L 69.46368777984858,144.309085825309 L 333.0012438178046,255.5166387693099 L 60.70837428957876,256.24081066028737 L 339.67133808954446,131.19817618688361 L 31.73355901660159,267.8037229556609 L 323.0628042502359,256.17848635306757 L 72.36549833381487,138.93467542411483 L 359.58292301277606,270.23069611652676 L 39.00158977837904,268.5739994557764 L 353.6649422332489,140.4266238303561 L 55.88524437308263,267.7742089165616 L 347.96961099698683,260.01324372822825 L 50.27169414816615,140.8382831065045 L 354.0292162980071,261.2946513119317 L 22.013039750073943,271.6130448875464 L 362.5438729105956,135.29360112022326 L 23.855633979048008,268.75243052483495 L 345.9861229711315,264.9565458720765 L 66.37643410757221,135.30335942204732 L 340.81240358059995,260.1951429946921 L 69.39942883121086,264.132390348825 L 335.60564348037826,137.5363493358879 L 49.004079016592215,266.8186434471692 L 350.55553141056055,266.6855105668026 L 39.28565811137227,136.69520796261037 L 378.7305801525403,269.07092642927404 L 60.95323547891829,267.7582911678761 L 401.29424092990814,122.27278388883893 L 41.70886772733701,263.2623466076818 L 359.6893316176759,266.1378810722833" fill="none" stroke="rgb(102,161,92)" stroke-width="1.8275177042063968" opacity="0.6623666981846114"/><path d="M 256.8956018736343,176.92461413987817 L 174.14646282231294,211.72513691176653 L 262.828579003674,224.58527169861657 L 170.12943660073094,185.48637189804316 L 229.26144422012388,212.52840078206333 L 137.66224858188733,224.739787515354 L 240.8917478398045,182.01111037895964 L 160.55890700357517,215.8068594599601 L 243.70133634303062,217.2145895929798 L 162.19246394800624,181.10790534254772 L 242.00651987316118,220.74983944288056 L 150.4102707529633,221.8232711223965 L 252.43038535716937,175.50410174868207 L 129.34682800075166,228.69357858678057 L 250.07488215768404,223.67635201378022 L 157.8169090800683,180.0903673787025 L 262.765072470774,224.86128406539103 L 145.16499837119378,222.76563584375992 L 274.0624371199383,170.62765584558073 L 162.5717745405747,218.46590572458516 L 263.1492405345635,231.34778746800043 L 138.96053048840227,174.54261854320455 L 254.48847097161286,225.94684100635678 L 127.36412364899458,230.80853231007737 L 271.9034316377811,169.0618641677749 L 151.66677949471696,222.84437099550516 L 268.9556960699063,227.71002666263408 L 135.3920113547182,172.45795095311763 L 287.6110087124568,233.78393735044693 L 126.57890469653755,234.10216794237215 L 255.37784784958407,172.98207874190393 L 127.79325070960545,235.7688566088981 L 252.00316542975915,224.5405000652665 L 124.9509340494865,164.22907683874297 L 260.92716853647056,227.80524059503892 L 152.4573903642074,223.29685511625536 L 272.1471911417039,169.33188260069713 L 115.35366364380896,238.2692073698781 L 278.2822004956202,232.39172136966798 L 104.71419866332892,163.15384159358658 L 285.6525694077661,238.5912055172303 L 111.7805838202834,235.84240048692865 L 277.6637637225206,170.01057124743284 L 122.56842668245115,229.98756466918357 L 286.64759543572814,235.19679012517378 L 128.33796345634607,167.63990084103537 L 278.71536009577926,235.85115960485555 L 102.2678410327697,241.91372892693934 L 280.4702681805586,167.09161017524198 L 107.11483699057005,240.35522011161004 L 282.1701133517433,237.11121344941495 L 104.77729492703747,162.9235395753443 L 270.48634718515086,233.2040367063683 L 107.57836273908141,242.78037366700693 L 301.61247252845624,156.91064295306643 L 104.72064831762188,241.48870705056845 L 280.0314508171567,234.64603449085845 L 116.81793809040356,160.9993201805906 L 279.497282551985,232.208516039006 L 109.39411580828421,244.39142119668685 L 296.8014612926884,156.22729938999407 L 114.16874262741767,240.57123511031185 L 293.57258001325044,244.99266088544198 L 122.25062572244957,164.07931323849922 L 288.8386058220509,239.98067243576162 L 111.35950958469418,234.6969197080881 L 281.00490816699704,162.96661957032427 L 88.15239398732278,249.12741840166058 L 283.17335650709083,237.4844932478336 L 85.12587291718432,153.93478299716224 L 309.1485231019658,243.04766158191444 L 105.58217051682541,246.13994275977765 L 301.57889362206674,157.15020883021754 L 98.78283974084715,248.9273314522926 L 307.46026428140635,244.63705363682743 L 87.15932398317331,147.11306741766677 L 313.3080131682795,249.14379969489596 L 114.45886231470094,242.06850459026782 L 315.58480765987815,155.49207688908336 L 95.33315883406858,243.9397154970435 L 287.8801766935414,240.97828519355693 L 70.07341444005564,146.10067681332941 L 307.6708031922655,248.34048335385873 L 87.7802690597559,255.96618377522893 L 318.1433562077169,152.42158403373801 L 79.02173178079437,246.8741840107994 L 345.5025201796277,256.3314435878126 L 94.90802258827024,156.05749113659323 L 309.8177116360109,250.32143343661772 L 76.09277181242861,250.95716201421266 L 338.10054478149715,146.76612225012795 L 77.58073984610934,249.19648838165168 L 308.84570693551495,250.76371792249773 L 61.591851496692186,141.700862327471 L 314.25344397525265,245.84239134552143 L 90.2185264976178,250.58158081832676 L 316.73421063145975,146.8829240993894 L 74.91178216934566,257.62735662346165 L 349.14176241796383,259.96289382937016 L 77.34296104393891,144.72920071221387 L 320.5870410350589,250.04057300354117 L 61.57142888890522,258.1297711549533 L 306.2744601160789,149.6027551074039 L 78.21038261345389,252.2660908525776 L 311.8551331707421,254.70770628714584 L 81.57832507803252,150.41940475722095 L 349.47497111916454,258.7301862669727 L 65.97956441405216,261.7119001091428 L 347.8044186964977,140.0998580299531 L 58.893490690214065,261.5604636517468 L 327.08458101838465,263.2311765222411 L 68.73888904922964,146.85734416353688 L 343.2949946887169,258.865204339675 L 82.52938449586095,258.3862326865055 L 337.2558747903265,133.73810745496507 L 56.157861449654405,261.1543201557559 L 333.65620397536077,256.1992069708201 L 72.86566998362461,142.94723758051728 L 335.07017627844635,260.79050830031065 L 85.98048942657414,256.67754181482485 L 333.68023267628234,135.80879282597525 L 58.64833935016307,259.48018840961674 L 346.459280920672,267.93975393017 L 32.112660413921844,135.047523134068 L 337.2015909106952,265.23211503548714 L 29.808223317276912,265.549663102278 L 375.42195116968855,131.50209277979258 L 78.07351810095916,258.090506547359 L 337.2850189168027,260.8816964304092 L 42.550711774550706,127.61020377001347 L 371.41823740084897,270.9621219662956 L 54.023503449207965,259.43097635951136 L 341.9470920465531,138.65432243262467 L 48.55180480262146,272.19352836251034 L 342.994400562942,261.3244654639423 L 22.66188538178548,128.87314069415592 L 370.3636075977614,271.64336351837676 L 65.69987621098073,263.4906441996888 L 359.59336648741566,134.14104104761498 L 45.181870787801245,262.1684285263126 L 386.9333538873128,276.782442213177 L 56.2873776794477,134.79393190767604 L 354.6853303783615,263.41785722163667 L 14.854415872840775,277.5570540928662" fill="none" stroke="rgb(102,161,92)" stroke-width="1.0305129944266995" opacity="0.48069833072953294"/><path d="M 145.43756125332567,178.31012766295677 L 256.06068521862124,221.6792443160085 L 141.89728472499257,222.89097106720016 L 248.8217758386611,180.70983830540015 L 165.19180569194685,213.68217844803564 L 250.36836079380768,221.88779202872664 L 164.44734050740456,183.512408979762 L 242.12467775280356,218.42124309691587 L 142.2134137146008,225.68815075487532 L 257.19703511757797,174.43018535166885 L 169.72172485474934,214.91011544794029 L 250.05864222168384,224.86153094670792 L 161.9485886405348,183.55192633179755 L 247.6952578279492,220.4320309703943 L 153.84591289691426,217.9467802689507 L 249.31008096974827,179.69557324393668 L 140.13417618103105,223.538162532543 L 249.55207955356173,223.61294465987038 L 130.08506195705755,168.7672762460599 L 249.53725678762848,222.65611595555333 L 124.1893757679211,229.67954881249904 L 261.9754173851567,174.50808989096308 L 123.21365833710557,232.92582750978661 L 268.1811694606273,226.55903950314752 L 148.53532261668866,174.48689134286195 L 277.41170451955884,231.41394566249826 L 126.71988473566346,229.2065077859802 L 277.5097508127401,169.46603038784326 L 155.55983339413228,221.14828947964867 L 261.40122448992986,226.37633548918885 L 119.28557227498045,164.24410059505124 L 268.3082738421413,229.94455268693008 L 144.46393685591286,223.09635784407584 L 253.8474838527811,177.34737434002938 L 108.1774309057334,237.33252633704814 L 284.9459730660584,234.3657505996835 L 131.66227955188975,172.4966875204346 L 262.6488510008405,227.04883150157517 L 132.56819511202568,228.48181971444393 L 255.25781478865974,174.0634859844807 L 126.33060118062603,231.26321900639084 L 282.8418046186973,235.68193029981012 L 105.78375471324435,160.8743853304651 L 295.1106180325797,239.3760353235944 L 133.2684307068534,231.13378971140156 L 284.8323633789141,164.10278136276224 L 104.95031235427442,238.02932200187342 L 278.31196074652814,232.07240768670852 L 116.98144983549271,159.81451618987919 L 304.36437719067163,241.29873519060533 L 117.59761501657945,236.6044015536096 L 264.36298709244784,168.20851317907855 L 117.38807286439337,238.27568045121194 L 291.7439608597914,242.0703736372757 L 125.97210148155128,165.7421834149464 L 281.1606003260148,234.0338120800556 L 120.66209571757769,232.8855511964172 L 285.4040059518902,160.33249800056797 L 125.05059902127583,231.8961721183662 L 286.30241985907537,241.1802687139043 L 119.06441677006602,160.43708374979093 L 300.3208356455433,241.25709732179166 L 99.78030500257647,244.18374188769008 L 277.1164607989774,165.8624307278912 L 91.27728580595453,242.5486832144511 L 303.24014270520365,242.86757580134088 L 91.53733919491634,155.90463295347251 L 290.14266839089186,237.45702004400417 L 112.94392473895233,236.47771517827803 L 306.15013455224096,158.86237297153798 L 99.057439908572,242.58164530234717 L 292.5084063290338,241.83759709494927 L 71.76079789535757,148.86200491834268 L 310.2723952547616,247.94666629734155 L 81.5788734215017,249.50270293661055 L 313.09239848520997,152.0446090599577 L 95.46380198596188,250.0837488943178 L 300.5984252079289,250.2762886095648 L 79.41738423839031,150.6757990650189 L 333.9830898927836,254.28493387983536 L 92.03262278303417,247.4017730089472 L 309.9012658280426,151.17414991922902 L 88.08890245865183,245.2413429961785 L 299.620480924749,246.20457933398336 L 77.7358465195408,147.88832925304663 L 334.14488907714133,252.08919053294534 L 97.35982549316492,245.90455016624952 L 340.9707377761707,144.574464953289 L 79.00273673443643,248.65186546788044 L 320.0318736424118,254.14428121047064 L 85.83311750032757,150.59451769206046 L 312.00120049667277,255.81098601592407 L 84.81989192445043,245.90713599946525 L 305.6199443359843,148.53647205447416 L 59.6100756123204,256.3397440087232 L 325.201691079772,249.72036178563823 L 89.5372587042664,150.50881080104182 L 352.56057488941394,259.0279554459323 L 81.5499334105368,254.2071969335771 L 344.4954204438605,141.05853909873167 L 81.20375706567428,250.70466021098028 L 314.61250520705664,255.75331401454247 L 77.21710819024273,141.10826328820679 L 321.4783629084749,256.5605830438331 L 69.15679244446949,251.62972193296198 L 355.13789905278605,137.84614383070607 L 85.65835959751365,255.4702365679966 L 341.0490671845614,255.20258056046052 L 53.46290833377569,140.34984276951485 L 347.24408025837965,256.7763012233455 L 88.01728732878975,255.01815742883232 L 313.8684743754839,146.55479100487995 L 64.91273406011646,262.1666649461021 L 316.54153938553765,255.65686645786354 L 49.039496585055645,134.7672550891901 L 342.6013900044985,257.6434887268702 L 69.04022462894261,265.3399832393279 L 346.793312087949,135.4318717165039 L 45.02824151210609,264.0777410325055 L 340.88770913883195,265.30493505204583 L 55.91815103649844,137.89586834358465 L 317.5365835508769,255.95628754829775 L 51.237649314218515,264.36732081072614 L 359.63406500994205,129.82752300244252 L 41.639000107958964,269.62887679191743 L 343.3255081089476,265.1938309404379 L 58.8560850141981,140.4488074284228 L 333.6534276857946,260.86490271287386 L 30.110824338010445,270.4750552386047 L 355.7255533100212,136.31020888607893 L 49.79935315304567,259.9606835609908 L 328.43933374350024,263.43718451791227 L 29.918505025808628,128.4480266382543 L 356.69081880945294,265.1176546861108 L 37.85777339418172,273.44901144246603 L 372.78612075632213,128.19089732702588 L 40.158640608292416,274.71939835017554 L 369.7791831138039,265.4390223631053 L 52.25296257639937,137.22831994749205 L 382.01488467414725,275.5071192587517 L 41.258301466468936,268.3239746991533 L 354.26538922411095,135.96830990441794 L 39.83045108113015,268.26725065502785 L 366.0426995458049,273.8876967097583 L 29.259513544210904,129.74328902324007 L 368.15067271420264,279.0940332654341 L 21.238233656762986,275.96460955433224 L 389.49415196795815,122.41788928605591 L 27.45970528049523,279.20442900056236 L 367.15701468714724,279.5988323027537 L 29.534091862073325,126.95363167029848 L 363.66547735641234,277.10963898800844 L 9.032015995785002,279.3779212136293 L 348.3326807040762,132.3510487103522 L 19.676198217781433,271.3862631412269 L 355.2042634302733,271.2024375658657 L 43.79174584114867,128.1776103188613 L 368.56827631270994,275.70406446461243 L 26.573801753151656,269.5657328184227 L 413.18742330739855,115.4837579172293 L 8.944162048897965,276.95431462603915 L 374.889224725113,283.28808570491435 L 50.80644021557788,129.14674062221206 L 401.36357139015854,279.97833925054357 L 26.920832862189997,272.1656633675514 L 360.54608840314984,124.82507295284252 L -10.858952837012225,283.8654454787526 L 385.15419840352445,276.4868778214028 L 16.831487304047215,121.05025003714063 L 401.25759633639893,288.16437808723396 L 49.12821267878826,275.32668922699645 L 412.9357975980199,115.00792461308096 L -2.7968717977517485,280.7632571392794 L 367.61563056947466,279.4824625546064 L 13.939947050927088,117.68171343250238 L 384.59395699478586,289.69357842311086 L 15.523860191063818,288.19185628234743 L 374.21724745662743,119.37721281594581 L -30.72967730724409,289.39612367605633 L 391.8936742755825,288.8429247437924 L 30.16433629913078,122.14898745298423 L 390.438948747171,289.14198038433136 L 16.987129832097395,289.1698368701432 L 380.07929776557876,121.01789959646386 L -6.754344806759974,283.145137169196 L 382.46571214442986,289.2050498702923 L 3.7918748351670217,109.65073856218092 L 423.09923630238325,286.5864853235246 L -1.1608991646923812,292.0931581215349 L 399.73250213199674,109.23083310168846 L -15.266025090834177,286.7302708862622 L 431.3923976484212,293.8103357895169 L -40.24524648161267,105.75421437682553 L 402.8967880506855,282.6233758336199 L 13.322844955239532,288.29984225627595 L 414.37531870967257,104.5680491256299 L 21.57099206099818,288.3313493015504 L 400.86965569703847,284.721270552273 L -1.2913116626479564,107.96429815457087 L 428.6932230802484,288.1968914016122 L -21.70071704466696,287.80841434555697 L 384.42889818256424,112.82752817623634 L -2.055467479815121,295.29961104915515 L 445.27557455368105,294.41458567168434 L -4.546914612844205,106.4105452869131 L 421.44189917859705,289.91778196876805 L -26.92025272699641,289.46022017504083 L 392.23588236279596,110.91346788620857 L -35.04753759683254,302.73498624894944 L 446.21471959555174,295.35083086144425 L 18.567076404833983,109.98544313762837 L 405.6202637656536,290.93583210568545 L -24.57313928460428,302.09037585934425 L 413.9266216184671,97.84207209295184 L -23.00271514399762,295.00113847626915 L 429.13289335292313,303.3395815594969 L -17.306910891386252,97.91677116137213 L 444.2180565085715,303.63234289890585 L -18.947491087132818,298.56619185822433 L 454.06910304233475,93.8336751104926 L -47.12450680326418,301.18638859521667 L 419.0937101711152,301.6001709855349 L -5.1605052383031875,102.4589897174438 L 435.46530846215103,303.9887769489009 L -65.60889996854701,307.2941015113146 L 453.9879416426267,99.28797714680215 L -11.39002987905539,303.79093608592694 L 456.48469164761065,309.5184349130595 L -59.57289281445799,96.01569722780691 L 418.58048606791385,308.52815719539944 L -28.67985597414443,308.760869274528 L 470.2245524503628,92.78530763461622 L -75.9458409470488,311.64080454796135 L 426.0833919610742,309.4535429885636 L -31.14627279398448,88.60785131383437 L 452.3955724992858,303.86851580718803 L -59.495796382089225,311.56214365306107 L 466.7381528837241,89.9035518133963 L -16.164534524610332,302.5306114069293 L 463.4544333482117,306.3252936465285 L -62.214914547528565,91.19779018190891 L 456.07250432884,301.37313234085457 L -51.59071468198928,303.8474164257262 L 430.27993790647986,98.18847663474894 L -56.94995929722279,308.8746130316483 L 486.57538839104086,313.0751451349046 L -44.05010900283054,91.82754521418359 L 436.43943947214404,305.0976662741615 L -18.70612479459706,303.19389361155004 L 462.9318080806722,83.4787960797067 L -39.370308066121765,311.8185128403458 L 483.62315859771024,315.3853115668544 L -66.38932256806305,95.46026671662457 L 432.81169136415565,313.69387719399987 L -22.567117657022777,310.1598585827355 L 427.5449586762518,92.04080584457344 L -59.623211213372485,320.53919927877746 L 481.9763809454017,309.38476739300376 L -21.36395904465357,91.14825300266938 L 467.754615607137,313.31784827973996 L -50.84909023774236,312.21256581923785 L 491.1149128133851,77.49531391166849 L -71.39548678884285,315.23240341071363 L 445.6380175542623,316.2650161339745 L -63.10102035110316,83.8760050354642 L 441.6847073718419,316.76684288050114 L -73.19194900070147,320.2643293751887 L 451.8322705773377,80.91231366330743 L -40.37682826763262,318.7606016925612 L 491.0317996714506,322.85038499146094 L -71.11988738716423,84.19045623069037 L 458.60319591236714,313.83800212457015 L -67.51971786569482,315.05811450558303 L 448.0580590462203,84.54967001390634 L -61.18988007412071,326.88838584815346 L 472.09361997470876,325.52885168938144 L -112.22708974508379,74.57305091926662 L 475.9515856308744,320.4106170985677 L -87.07514903571263,328.44726710210114 L 485.7301159198127,75.14756053638912 L -50.10568452219974,319.34242262194635 L 488.47406782661346,329.96742868119105 L -68.22595891048053,83.67021771265918 L 451.2499418539352,318.6150778838854 L -93.88301303169084,318.87018662160386 L 515.8989131684184,77.57552579915769 L -44.762810376591176,321.0968187957541 L 516.307524445157,325.2877623342186" fill="none" stroke="rgb(102,161,92)" stroke-width="2.705277649380182" opacity="0.4583351633335274"/><path d="M 243.3744905185643,178.70289898975147 L 161.49406470236596,215.1544301476853 L 262.55287019469654,225.42156479026912 L 154.87326246974834,179.65603192114574 L 230.2895226190592,212.60166497817528 L 156.471650180978,219.58177498516056 L 231.65123148920108,184.8370616895099 L 157.47847022615247,219.65621876881792 L 254.98138665033434,225.1013695408378 L 145.87630987344232,174.05475664150939 L 261.24618409626623,224.20421380935633 L 169.66726142483162,214.53115967736704 L 234.15465836966982,185.0733131224511 L 156.23419253560274,221.75112806522964 L 252.28861364714163,222.83800030936217 L 137.77306052217773,171.55182333676916 L 265.1677059394473,226.66905276878953 L 132.70483099421827,228.79915287579078 L 236.32842398251438,182.1954099968462 L 144.5986294216979,222.2372840339731 L 263.59712577467195,225.5999592045131 L 140.95435175404864,176.09357726478657 L 257.114549489511,225.55324433961434 L 134.46285832625392,226.46511130694864 L 267.58285104948027,166.98453116599282 L 147.30004568060696,225.77888662679618 L 249.11205325459838,223.02217206590373 L 113.37256019832826,165.58979992057306 L 243.5275365617211,220.952973994243 L 151.49409185064843,223.6281660842717 L 262.2524390972269,171.18656055174614 L 125.10800589505013,234.58501155179374 L 251.31520061155004,222.9679343233448 L 132.7274482058575,169.4761189520294 L 291.0127859051983,236.313824732839 L 128.3834989690497,234.7359629474591 L 276.9336139539564,165.82968340559466 L 103.21238022730117,237.39234887689057 L 268.70411005874575,227.01739411577182 L 118.64480594496982,165.04125799355273 L 251.55321211431996,225.10104426265028 L 125.74113214655326,230.49024604102988 L 264.47005939159953,168.17996571852058 L 134.9360372053012,229.38976810169842 L 274.01158683830243,236.08542182911245 L 140.06640439293298,171.724591006258 L 282.04282770207635,231.73813123235533 L 120.24537190400852,233.43155303395696 L 277.17156138300993,166.47832891536154 L 126.10935400036402,231.53631450294117 L 294.2238610204095,237.80705203968554 L 124.83580777198387,168.3910557078441 L 298.6121275198576,240.89725445137682 L 95.19603106064416,241.06874505450094 L 292.5827626934796,160.9926730052657 L 108.69702435447418,236.31647603684624 L 279.61581744722616,235.54159318158645 L 114.90566794573927,160.65626549545888 L 283.2505706021501,237.47107092013556 L 104.99768182584701,243.77190212245984 L 285.4795977841201,165.7974712652679 L 89.19537011790547,247.03646830546774 L 273.8367695759537,236.52178440337445 L 99.10653691951569,155.0279922368631 L 288.49119361698115,242.27501636589173 L 109.25440825749051,238.41073080733725 L 310.8417756606642,153.12099461790845 L 112.76327656746938,237.41549232664903 L 309.8364384265611,242.35624033830416 L 89.07461700034757,152.76121436696215 L 297.4859121426437,239.2224949195288 L 108.05551331595255,238.8846396027715 L 307.3760511115124,157.09316315683944 L 122.78239829772642,238.3575069161061 L 287.145721075737,241.19817044037717 L 63.94474683474945,147.5241204509432 L 290.7683519983524,239.9715852956583 L 112.69726863451308,242.96948025898428 L 308.04611533283384,156.23825207767035 L 81.11486599060264,251.57220045095238 L 299.13447431468614,241.95457412272668 L 78.86117851342384,150.65694701404053 L 341.39217099833195,255.73837498253977 L 81.09916234456865,249.10498382878694 L 315.6346823875897,146.12162710389796 L 80.27675940247137,252.23594256484856 L 300.20397728299145,249.95960247562206 L 97.92822051686655,155.82227332285308 L 312.7838811551728,245.33788690805773 L 73.16325961512966,256.1185009772836 L 305.1103781385338,150.2283228438433 L 94.93382455646028,250.34556310026016 L 304.99555821710584,247.17758920778135 L 76.99937658297844,146.49059827642822 L 299.4135986531965,248.11065887258985 L 94.94115202962644,248.0938042691339 L 343.12707984434826,139.2240388298068 L 53.76616512469272,258.700392703911 L 323.8333222499215,255.59846904328052 L 85.81872151926613,147.18077034391723 L 337.81494339841345,255.4437837669336 L 66.32301533057651,260.0643544128926 L 304.7997186688203,148.3032427327047 L 82.01045283267055,257.8621448413714 L 350.26034827631986,259.63982761912774 L 91.04601155788093,149.81475835301785 L 312.4592836410326,250.5074843109577 L 64.13365380609764,261.69764679550997 L 336.7569788227354,147.38374395946818 L 62.420354013615025,257.15453850341027 L 332.7546482420105,259.96100546611865 L 67.99763934659578,140.62128996643008 L 331.0673172167196,264.47941332187605 L 46.872648302632626,259.53695553097293 L 356.8514477694263,134.3445964742607 L 66.25841563496309,260.83108315208653 L 319.51570778608425,257.4905277448382 L 53.399888195883335,135.60811420803103 L 343.27414712449945,255.6301809864366 L 49.00454821967364,258.3196566202197 L 360.14634028512216,134.54520882678986 L 33.47555298843008,264.6108790870819 L 339.76566142900197,259.8333798149383 L 61.72685199982746,141.90242838891055 L 372.24479930218183,268.73933865667266 L 19.533557095188655,269.9498822630308 L 334.07424840228373,133.4131360417195 L 48.133193732836446,259.31054001303676 L 345.18979673335514,267.0906529341722 L 33.3385510385624,130.81167042454052 L 358.70984451567045,265.87143705110174 L 56.50852313765836,267.9062102896525 L 363.82699576223837,134.1214640387406 L 33.153090591834854,265.8394236534106 L 374.2695310300722,272.04734852905665 L 8.605066353310434,125.14696468999162 L 358.687014828776,269.3536734114825 L 15.359522627647522,272.80990550346377 L 351.4859160369852,128.55798322302013 L 43.958554410821876,268.6864187371741 L 383.25647307266064,276.8404631066304 L 46.769085435801,128.0449069041996 L 377.62461090726464,277.7267421476339 L 47.74681635184152,267.72856333515887 L 369.37554794643995,130.66670962602274 L 18.235438928870053,277.1134557922029 L 362.0058572081879,266.74928378347704 L 25.975628419457564,123.4522908719213 L 367.6409282527196,269.999554757082 L 21.784618394457254,271.05615997596703 L 377.38190147142575,130.93560313217574 L 23.746984726966247,267.98079197459435 L 356.54917054611235,267.62176237698503 L 24.580668326975427,120.28848040389826 L 353.93452343377913,271.2160665735762 L 32.96790921236064,270.3416909837494 L 367.38679850016354,116.63776276716568 L 15.443191124275728,281.02899196816594 L 391.9863186869269,283.39909915224075 L 44.14570165309868,126.97330616220351 L 347.1250992209094,273.30141549572687 L -16.477578903888258,285.37419811138403 L 358.76443226859556,124.8689564879466 L 29.945274820886652,273.2566567301487 L 379.82425082123837,278.95572080127295 L 1.6830223001545903,118.6314770228934 L 375.04141089843915,278.22551315132046 L 16.819683754455184,286.20915322008693 L 354.36917675815744,125.72023114662977 L 29.903295553518234,283.0688452350153 L 411.2241840274014,283.2159335068381 L 18.468036022544936,122.6791291857242 L 398.8180832077235,282.41738322229986 L -5.897430307192707,286.28370347810096 L 400.5261557531281,116.33735681367976 L -18.817565014590002,286.0058605942265 L 422.7075340353115,286.7199093111633 L -23.272199179262344,110.25936740197854 L 376.6295091373671,286.32768800827546 L 10.393267042643032,287.0970111935363 L 378.01333242232874,116.50444830012994 L 13.565188938622725,287.3472163722715 L 397.92023050388457,288.49206377812004 L 17.731726167090642,109.7969812063703 L 429.87583004543256,293.54202219725283 L 4.48122358154626,292.20064272339965 L 416.45137363794345,108.64767032399453 L -22.018615371532064,291.2143903937438 L 444.1717227352783,295.06158275811623 L 25.307473141390034,117.49156800968599 L 411.69195792007224,292.40363947822885 L 0.29612141001246073,291.7836321615383 L 406.74744575313514,107.79711661265102 L 15.744526167079272,287.1401240045257 L 398.12351810232644,294.9337460692733 L -6.58292626388797,113.76480512912404 L 380.08296673148584,287.4618423601735 L 13.293319282749621,289.22382630023463 L 451.9246499830487,102.17553214521348 L -37.11291448822763,295.0048167892799 L 413.46971633062253,293.8877297168039 L -11.885507828517774,103.0259595546361 L 430.1866549692918,295.74524730168423 L -11.924867729223763,299.4100169862022 L 402.9083218488041,100.94382163039045 L -38.719980571944404,296.2795199786728 L 394.39077050662564,291.3051162341307 L -34.054548140169544,107.35870637350264 L 401.5520748154572,288.2228325481804 L -29.835266290061696,294.92362825302143 L 423.83921616445184,101.7711357916511 L -48.04796792640218,300.8810826824796 L 423.1380800141137,298.2629870999972 L -5.974933847931027,101.8487102923064 L 444.86649795772485,299.96299481490985 L -53.31942856866863,302.86775415676266" fill="none" stroke="rgb(102,161,92)" stroke-width="2.8124984038823677" opacity="0.7266915118431436"/><path d="M 144.42402585851397,176.44917429650704 L 259.1214299194395,223.480033666929 L 159.21610938247014,219.4319472549973 L 247.57484181709438,181.13499719729393 L 160.1606597588625,217.39215216316066 L 254.1327333932237,226.71317612384885 L 172.7621703776811,187.6256224843831 L 258.61984258973064,227.50427438668223 L 155.06664703598238,218.0901150582976 L 238.14441877173812,182.14291471060736 L 164.0424553331904,213.86588199961858 L 237.6451981555996,218.79769197290543 L 134.0558118287898,174.45339999767313 L 257.66731565287404,224.25725694809069 L 129.943541728782,228.24756942008077 L 253.6183283262887,177.60001973628158 L 144.102228588039,221.51124698778887 L 263.5811216910837,229.15194151258743 L 160.03676035456655,182.8261561025793 L 251.66580057982736,220.27027287904443 L 122.05285585583343,231.66070433296719 L 247.74662520596974,181.59909744395247 L 154.4826411947036,221.33393924177793 L 275.55773349389335,229.14519003936203 L 134.50057097049233,173.55402068479037 L 265.3607888051099,226.2088550113416 L 151.2937099172047,221.14514889365213 L 255.56127442953732,173.1640452966376 L 126.25852372500594,231.03219525237876 L 278.48047786465526,234.44231550020217 L 145.27261408556905,175.29769315415518 L 279.1160875310398,231.95252276296833 L 143.95865289004846,223.9504256598332 L 282.18740394816575,163.3359320004693 L 110.75747371555262,236.5784342541116 L 266.82687728751375,227.63624654192284 L 109.02626693957352,162.3406549157925 L 259.40679795068417,227.64373362019242 L 124.61879058332731,231.00056847074268 L 271.79133916866044,165.98828670004124 L 140.896249659504,225.4321647766015 L 261.49140014058173,228.86632861707403 L 105.33053689607587,163.42408889583518 L 276.5227212906167,230.0587264734209 L 106.00472594986417,236.42345026393807 L 275.92550781545185,164.16957051213447 L 107.36982808634151,240.08848104547937 L 298.00186461962096,238.4891536891319 L 103.12993319717147,158.06280272751263 L 271.3798509301916,229.12610000917272 L 94.11487100378942,240.92421796307167 L 279.2795675734525,165.937452341683 L 124.69969536396589,230.32642030611206 L 287.75517267950084,238.85475690169073 L 114.69405494572717,159.53986639321764 L 296.2768505125085,244.8593669320088 L 87.24868292813812,243.69045803320432 L 283.56484808509117,166.38845643456332 L 118.60925207521768,231.8707495931018 L 289.23696369179027,237.0893569593221 L 114.06617236518282,161.750472544731 L 313.27524442076833,245.26679926580715 L 106.33101063737303,242.90174825903162 L 286.36803292738614,163.84052822125986 L 113.28635614033948,236.44734861749137 L 305.8181297215493,247.39463004169176 L 103.00501600202291,156.85127226420622 L 314.08688631629195,244.53002536673867 L 90.55442435115894,242.48789313815473 L 289.07971857349816,162.5597330756052 L 118.71181005659629,239.95878513536599 L 298.94864273781565,240.67111038308147 L 65.45564644647456,148.17770414857262 L 308.6402909723212,251.4234965682638 L 108.60571396585819,240.7604867165159 L 311.46272282481743,154.8984650167347 L 97.77062291666405,250.3539953465855 L 321.1986951171895,250.65866200862214 L 90.0281813298173,153.96855888701936 L 308.3550540852157,243.47031679703332 L 80.5125424892823,252.6898700337304 L 302.1001783118728,152.06447224361406 L 78.29177380137409,255.68491731729532 L 319.40486037950063,254.62320109910002 L 96.30238102692815,153.4799784465408 L 314.94935131190357,245.9535971625245 L 85.5084058727482,244.63439210342 L 310.9038089703949,152.28560342761935 L 103.8415567471896,247.38703054786845 L 308.81174820664523,253.09024967988566 L 104.53531154224608,156.03503937548282 L 318.7394500751512,253.54261469788318 L 85.9040556886922,247.4680982420557 L 302.8575568238473,150.89649048886244 L 85.42772055866605,249.32605510666838 L 305.98801247190715,248.28186016841448 L 65.78129730023369,143.65805027813812 L 338.4587482989714,255.58737967772896 L 61.65839545111845,257.8169773404121 L 320.97989707396704,152.82681965390464 L 68.2183127609081,255.50110666427878 L 338.20707131783956,257.8668785802038 L 79.24269817824373,146.4545743932024 L 343.2407774664895,260.0904313551417 L 84.86132304146903,251.06820689457405 L 325.8572729536542,140.51343902501574 L 72.57976701911144,250.28111416438685 L 354.46652859447227,261.2818510421574 L 41.19833664183841,135.08403269622625 L 320.1036772709847,258.61509723338673 L 58.56188573051648,256.66223943196735 L 329.3599244649214,137.52173918169862 L 72.2802195135658,263.48884598944534 L 325.5196552097608,260.3628965591701 L 87.47919201913457,146.930595006632 L 314.2805531822954,253.9453326490526 L 58.07584239509046,268.00628138593424 L 327.20519166083477,140.1159202162557 L 55.82484976187527,260.29684027478885 L 371.3341766682531,266.98946087777387 L 62.74978626834596,142.71735058261373 L 362.84616608970236,262.93031763076687 L 23.185086628072696,269.3294613396228 L 345.4904747984348,130.36811784338056 L 49.592176794524306,268.2778151600074 L 356.93526592720616,265.3189087041064 L 42.03736497796848,129.86784230056278 L 323.59143146852944,259.3540505769933 L 58.7833377269647,264.7217386014156 L 366.33005378509654,131.22293704981132 L 27.529793449952024,266.9646551778167 L 367.13965275984503,268.0697162012443 L 38.40019131795958,133.3588015486212 L 345.3032773429305,272.2014400067078 L 51.54997592682349,272.1892819186733 L 334.8053740718591,133.1378820931463 L 35.43711502365261,266.4552211257452 L 395.10299967468893,275.08518743277546 L 59.18138431101781,133.5979863552613 L 340.9713447322059,262.79369877298757 L 53.45226810862698,271.3980416154536 L 338.8157710545961,135.85492636950153 L 53.601993047834384,266.54080162236926 L 356.1031116423767,264.32404561635417 L 2.119060523824089,121.73281916539105 L 352.6490479876617,272.32050528710334 L 20.076497230764232,274.0939713140179 L 366.8314694115159,129.44571618857236 L 52.39163938797685,265.7198307855558 L 351.1617706758572,273.03740709516256 L 32.98563828673812,126.25453697677165 L 364.9898423489269,279.30779575936697 L 40.170423336722735,275.35031425584776 L 383.9512680752861,124.31276597625889 L 39.10775924194235,280.0563593046687 L 351.56902883217793,270.18991606880684 L 53.77509678706778,130.74643207552327 L 405.504578565491,282.0058283759687 L 29.121512092633907,274.6895429172149 L 359.1320127150857,124.40528874842794 L 24.648354897019857,271.7619414904895 L 389.6401222190991,283.9866460204516 L 32.8122965240309,126.04776491629447 L 375.6947203381211,281.06974840272494 L 4.11676190207902,280.8707415111527 L 397.78762115097436,116.30295238286666 L 19.324296128128935,273.61028476674574 L 354.59876054211236,276.85653748564533 L 20.217039024062927,119.32838956348459 L 388.7169769306696,274.7690909381021 L 10.726624387302166,275.02158373104646 L 395.303174821644,111.12636696509666 L -2.876782622436508,281.0675261909675 L 379.80245075949904,283.1254010606019 L 28.470889525278153,123.08594067024204 L 369.5256678824758,281.8500465583993 L 28.252189270286777,285.18090843270073 L 422.5593422030588,111.06145077785689 L 26.26434246076741,278.0290090178839 L 383.45888096479905,284.23089926810223 L 5.303479154444858,109.92044093399132 L 386.50640512786697,290.3633971699059 L 19.370063424208865,278.8102405990904 L 379.43697552336374,112.07410848358607 L -22.834417865051876,290.3752024074644 L 387.0006865508549,291.86203166374924 L 21.89689755428904,112.84093107424984 L 407.4717743859625,283.588484185504 L -1.3563541013113536,284.88571478527064 L 394.4970268378712,110.2677701316099 L -7.282242713495748,282.98061938363867 L 412.2740449737599,285.19343708252967 L 6.956646938556844,104.30666153425068 L 419.12008526480395,289.1774510979932 L -38.003163606627425,294.03322844954806 L 395.5122330084939,103.98401349028234 L 9.109512886386256,288.90183672693195 L 443.4311043248811,296.1648364399291 L -11.548525553089775,109.7722233813398 L 397.28604725593823,294.15430008663805 L -28.262477253097387,294.8449456652419 L 412.7612955148079,110.8861125036361 L -5.891919409096403,295.56181247089273 L 440.43816954727674,295.3710710447934 L -43.12455552205364,102.02684872086444 L 411.2184520016356,295.0162453511405 L -61.31351629723605,301.6493288845526 L 457.44560958560726,98.91658570430633 L -11.29649498105016,301.97463773633586 L 399.23430596370974,293.4941998714463 L -6.6031081822665385,96.84100567608525 L 430.14651559024463,301.3442302999463 L -24.43788752523355,294.7330810615422 L 407.2182882925871,101.45391061855773 L -7.413790447144464,292.0862000921519 L 460.46412999875406,300.5728563878288 L -50.29472440012964,100.74053001534017 L 442.1038485100084,299.46393944016495 L -48.739780655038345,300.8437708126671 L 437.1833180545023,96.14256195979982 L -7.613496512103666,302.3948487381324 L 404.23317539455905,298.02488153202273 L -5.108859329878811,102.3874222703644 L 397.0333505868484,296.6307061314683 L -19.27313067056008,296.94939908629925 L 453.45378042697257,91.12143455340927 L -15.795908049659573,296.80540359495785 L 421.8003439209574,300.6213151011081 L -54.53960506500752,89.95241058213004 L 411.5185285547606,305.70901197176715 L -45.57976506427016,299.81084890956674 L 447.6416013887842,102.26819742134997 L -24.901136206521244,305.4058781340649 L 471.7245977388129,308.2506538326033 L -58.27065384714757,93.26880078854464 L 450.2582319081296,305.38938792766174 L -18.285259822207536,303.5454199081384 L 417.58222227270176,96.77295887152233 L -13.444653964776734,303.2601724086614 L 443.93930480826725,304.4986537821347 L -44.851500012530295,99.2191556904135 L 471.9658173105234,313.4671830546663 L -39.779658021508396,313.25372578141963 L 447.0541458241021,92.09228448229433 L -40.79389005479899,306.8184133128403 L 410.3659440298859,302.5327929072885 L -56.01412201075124,95.76750590223783 L 429.740574272228,309.707694919726 L -75.38300767585736,310.79908632839556 L 478.8255001618343,84.81014986574412 L -73.86402019908405,318.5633457211416 L 507.8961194489858,318.9339222618486 L -94.78295811050072,84.07548268095954 L 454.7514069009285,311.29990655876395 L -78.26900262684671,309.1012231284716 L 460.2851487989618,81.48199354061643 L -101.26057235141968,320.88369999134795 L 476.0204171027796,313.6191133744598 L -70.75838637693704,85.8062100772339 L 441.97072719140317,318.4564931604481 L -96.00635089366631,318.59058244784006 L 471.0207245461818,85.4125647190752 L -104.59705594575416,317.41273552764636 L 482.63176705155706,319.27908448214725 L -73.60380163351425,78.65890781029805 L 486.430766430965,310.98832356355814 L -56.833857518377556,316.79087192551475 L 492.3742800890747,75.03285477797787 L -49.18415042924377,312.067810657684 L 434.49868398425565,312.0210804164708 L -66.5880449439926,76.70058966129932 L 448.80979852377413,322.7354039297782 L -125.50329556613718,325.8225318822974 L 458.83929259059215,78.55927182992333 L -115.88791994805041,327.6126412511493 L 476.93363644835637,318.3266251162396 L -95.12671756078583,72.90973854124556 L 474.2098274993408,321.79184904984567 L -107.060127105822,319.87621597200894 L 482.2486940960566,72.0557484257526 L -80.74913167260439,322.9574511305032 L 522.2933694595617,326.7841323080163 L -58.234060765874744,73.14956745610365 L 499.52181223482876,320.32261915022116 L -65.97056893030083,328.49081527315536 L 452.1233148526568,77.15956573708813 L -101.56959730224844,326.9407147866456 L 491.48628061520475,324.49593226396024 L -106.3110688819728,72.732231684179 L 522.0456615931412,332.74980641081254 L -94.32099987046661,330.8371185734761 L 499.6755490506422,75.39607994439534 L -105.57828102380694,321.8951192760319 L 498.88832259803354,328.7029433178043 L -101.53251383579999,69.96191448666042 L 496.82975204776255,332.69165003975036 L -47.974182144242974,321.5941075428344 L 533.2023508457933,66.14073877863478 L -101.3731873119217,334.6204555724148 L 463.7546244435691,323.92712018476516 L -124.52728291066342,74.59732398058313 L 520.0225234101724,335.01741797815475 L -85.30094408664212,324.0246163549415 L 493.2149400688547,75.63088648492938 L -98.57218227277053,335.6165423091676 L 457.0253434654287,324.4583612015823 L -85.22527690098644,63.277934803055444 L 489.9529421182508,329.33574661734156 L -119.71973473592567,334.9688111466296 L 513.7232790750327,67.38866442144968 L -73.17182520267266,327.52303571189736 L 509.5642622609682,329.0998281029814 L -148.68232003054646,63.06427187892183 L 488.8276593639075,334.0656799171539 L -101.83530599681222,329.1843325409724 L 497.81265078579776,62.694143882353075 L -116.17848591577388,336.0521549120001 L 512.1517903644714,333.57974514440923 L -125.42408436546617,67.67788292731183 L 501.51639304134903,332.4005197207147 L -127.84486500226245,337.82551003937385 L 490.63990305408174,56.72416638879568 L -83.80750529753573,339.72557500022845 L 490.93071056226125,333.9048477612906 L -155.25883979549553,58.95146718354127 L 507.80687484808686,345.53161456477187 L -118.91194845892772,347.06846904741036 L 562.1123499015994,60.18696561440731 L -111.88834559088588,335.2662523246329 L 514.076362981697,338.2964511565427 L -105.0709720633904,64.06755167173097 L 530.2557861105737,336.13672455308904 L -107.02877708675231,338.67201587669274 L 534.6122144821452,51.611096883127715 L -110.69397262601501,348.25682304087843 L 554.1532491485343,337.2801741282434 L -141.647863419751,57.719090534221635 L 573.1456234571162,345.01026454391535 L -88.70911297239519,338.9835740026183 L 565.8912716636538,57.555901738945806 L -127.2745681722293,351.24936765432176 L 526.2930468230765,338.0066237718445 L -98.92040433097242,51.51884088957806 L 491.7087711898201,342.07990593662635 L -133.9770172248073,353.10384411480265 L 535.1621346300782,55.32078721418742 L -144.65351187739287,351.78093085811906 L 542.5130528250664,340.5133110221846 L -148.78909329644574,57.49708142050983 L 516.4121590106987,347.37256263135464 L -135.49864487981898,343.2897712415984 L 557.3314178138114,51.29180509031727 L -153.54604887595906,344.1335928224112 L 523.9043683725927,348.40390890538936 L -182.21557466296122,52.29223361842921 L 515.649917836591,353.0669594502073 L -169.0872783365515,355.56324530550967 L 548.0019190618734,47.828663366132844 L -170.43574601820757,354.57246889383987 L 566.0775586560026,347.76378237765414" fill="none" stroke="rgb(102,161,92)" stroke-width="1.285251937931705" opacity="0.6403219708019525"/>
  </g>
</svg>