<?xml version="1.0" encoding="UTF-8"?>
<svg xmlns="http://www.w3.org/2000/svg" viewBox="0 0 400 400" width="400" height="400">
  <rect width="100%" height="100%" fill="rgb(218,67,191)"/>
  <g transform="translate(-15.407860945945014,2.829683487435581)">
    <path d="M 0,44.44444444444444 L 0,-0.25182305670674765 L 15,6.897208378182832 L 30,11.805935959415905 L 45,-8.549452169579265 L 60,54.63300917174264 L 75,101.96596858138862 L 90,52.89607141653394 L 105,-8.001399461993056 L 120,3.1572033032401237 L 135,40.73716860867664 L 150,58.34836448757267 L 165,104.80191919118316 L 180,59.28018855248948 L 195,96.3050608524241 L 210,2.6113016324884626 L 225,-47.56536818309454 L 240,-12.006433361590329 L 255,98.99589739730224 L 270,38.25755611460692 L 285,85.021658196398 L 300,41.7216676922865 L 315,4.05184165455799 L 330,62.777060844883295 L 345,39.21976243103852 L 360,72.29808768163682 L 375,68.11003414862424 L 390,100.93402053935638 L 400,44.44444444444444" fill="none" stroke="rgb(124,20,197)" stroke-width="1.652049806742862" opacity="0.896238365297161"/><path d="M 0,88.88888888888889 L 0,57.76638080378787 L 15,115.04639967932778 L 30,120.47256107842742 L 45,78.74050619160423 L 60,124.59663962216443 L 75,93.00048760140291 L 90,151.69899120073492 L 105,24.491372071821104 L 120,26.648945965857145 L 135,59.5465917836177 L 150,120.7638208987817 L 165,118.85717579430207 L 180,127.37437598594107 L 195,120.87670184222998 L 210,44.90185147624854 L 225,76.31266776193048 L 240,30.600426889064877 L 255,136.80590962803717 L 270,135.7266699437377 L 285,137.7782417738415 L 300,94.93467486047143 L 315,42.221935841861225 L 330,64.1263000846682 L 345,41.27539427966697 L 360,139.33538412259065 L 375,149.362699753013 L 390,96.65156245566592 L 400,88.88888888888889" fill="none" stroke="rgb(124,20,197)" stroke-width="0.6704443069980801" opacity="0.3627815556360115"/><path d="M 0,120.0 L 0,56.59146758676172 L 15,106.44814200120462 L 30,94.51327907474486 L 45,88.71149940540097 L 60,143.14582546788995 L 75,134.18800416877474 L 90,150.77591681232798 L 105,122.33873703690222 L 120,81.9012145394654 L 135,99.8311451764533 L 150,138.1081179305565 L 165,126.9020261626589 L 180,138.29026720719241 L 195,144.69680485902077 L 210,123.14230128457658 L 225,134.85680598045195 L 240,91.67149439113655 L 255,130.89247410409038 L 270,147.31004517363326 L 285,166.2512855411047 L 300,77.96120448636847 L 315,87.74291167341046 L 330,54.78979009326662 L 345,54.36485037227439 L 360,159.2452151958944 L 375,142.99779726638215 L 390,135.49042237333302 L 400,120.0" fill="none" stroke="rgb(124,20,197)" stroke-width="2.5485581277862677" opacity="0.5948889584080757"/><path d="M 0,200.0 L 0,149.16307914090314 L 15,148.75689950232402 L 30,150.7530972127277 L 45,190.31150096170492 L 60,242.47144218825653 L 75,225.17374153712038 L 90,255.04820928115316 L 105,173.4346513788906 L 120,213.1965394379935 L 135,171.17032213632243 L 150,199.9786784743357 L 165,272.7163536404307 L 180,222.99976892004565 L 195,192.28600356800234 L 210,188.38599081709071 L 225,112.24978745703635 L 240,146.50241419168498 L 255,269.01120358423105 L 270,251.6132097570288 L 285,232.22271798822123 L 300,85.75127073597689 L 315,205.33323581152587 L 330,227.16100495455134 L 345,221.83975820118005 L 360,240.2436706404576 L 375,298.9226444368324 L 390,217.96450196755708 L 400,200.0" fill="none" stroke="rgb(124,20,197)" stroke-width="2.7022155297218924" opacity="0.4852306931144112"/><path d="M 0,200.0 L 0,183.62716399751434 L 15,150.74576342521053 L 30,187.98764833692914 L 45,151.0843729473442 L 60,223.0861800020752 L 75,254.30974347028857 L 90,242.02037602291782 L 105,200.03291574108948 L 120,175.96128382562844 L 135,168.7025360048147 L 150,233.36047519808773 L 165,255.5898720845227 L 180,264.55163419953243 L 195,248.58088657813275 L 210,176.60795955985438 L 225,131.3036771781847 L 240,186.9254185239545 L 255,215.89258554798545 L 270,249.52034102896016 L 285,286.13441394794114 L 300,192.71192847949962 L 315,182.96337876701938 L 330,163.09709705995556 L 345,173.06828164154584 L 360,201.9751246763521 L 375,230.85986109894915 L 390,228.63208971777533 L 400,200.0" fill="none" stroke="rgb(124,20,197)" stroke-width="2.5406368005934707" opacity="0.8428450864193879"/><path d="M 0,200.0 L 0,196.34716077647766 L 15,210.62845284778535 L 30,200.99366728385877 L 45,177.57017336104744 L 60,213.30002729021342 L 75,264.44538073962576 L 90,223.40618692563248 L 105,157.82787327464771 L 120,188.24330705648174 L 135,127.88806959086745 L 150,245.52016824852396 L 165,207.24244885483375 L 180,250.65108906221462 L 195,203.60600639007285 L 210,145.9599850222422 L 225,178.1987959166085 L 240,152.75705921051477 L 255,250.4936955494458 L 270,218.55037581261016 L 285,280.1117690710028 L 300,167.82667131610665 L 315,207.74730959813553 L 330,141.92673899690612 L 345,163.26813745352175 L 360,222.30822176505615 L 375,242.42761733930195 L 390,230.5689474494992 L 400,200.0" fill="none" stroke="rgb(124,20,197)" stroke-width="0.9268586495824572" opacity="0.554248252686261"/><path d="M 0,400.0 L 0,354.6983722469524 L 15,329.7496696696684 L 30,355.59949240468154 L 45,353.9446642007432 L 60,467.1185875717627 L 75,417.7263228727915 L 90,464.3981283600923 L 105,362.22415438180656 L 120,355.2284174818006 L 135,369.22880144992354 L 150,449.72183783537014 L 165,426.77910112120526 L 180,435.93642096611796 L 195,436.782351293709 L 210,394.8714567674121 L 225,371.2139197167728 L 240,373.1607442741597 L 255,433.2794761776886 L 270,427.97198222498014 L 285,443.7155622784447 L 300,377.52455034060614 L 315,365.51672187732413 L 330,331.39251035564524 L 345,300.0695841477002 L 360,420.97812656807776 L 375,407.6277649303429 L 390,409.29147062069177 L 400,400.0" fill="none" stroke="rgb(124,20,197)" stroke-width="0.7782756820971966" opacity="0.8459072226824855"/><path d="M 0,355.55555555555554 L 0,294.2559225797057 L 15,331.1469237261558 L 30,312.5215334936183 L 45,292.8727407577616 L 60,360.88014920240244 L 75,342.50947259353666 L 90,394.3842165887173 L 105,305.51523407347145 L 120,325.4864652801912 L 135,350.4883672591334 L 150,392.23655191613307 L 165,392.6400062155649 L 180,369.20854989117527 L 195,376.14177988388025 L 210,359.0327078799491 L 225,392.9073504153877 L 240,317.3339235664442 L 255,328.37390714057506 L 270,387.02839311236994 L 285,388.16514085355055 L 300,320.91223586211316 L 315,384.0920798352013 L 330,328.89717767633834 L 345,273.37070825450485 L 360,426.12860965556393 L 375,343.809148834582 L 390,368.52269511037275 L 400,355.55555555555554" fill="none" stroke="rgb(124,20,197)" stroke-width="0.7236550896548237" opacity="0.6746697553655967"/><path d="M 0,300.0 L 0,269.244574227863 L 15,244.50586026730173 L 30,261.7212977354049 L 45,325.97408706147854 L 60,318.9176783313063 L 75,335.353072967404 L 90,337.9732813093598 L 105,306.2238791189605 L 120,266.94266682886945 L 135,257.62066783918283 L 150,322.1580426478787 L 165,339.19563824907976 L 180,311.2827326920303 L 195,350.1384972636114 L 210,280.014780515302 L 225,269.92311819338124 L 240,264.0739583177106 L 255,328.0609569234988 L 270,300.08564061901285 L 285,271.8309360550023 L 300,282.9326064496159 L 315,208.01731916350457 L 330,293.85067499580185 L 345,300.1168024898175 L 360,329.5002576689556 L 375,335.6084811185801 L 390,353.58487861865655 L 400,300.0" fill="none" stroke="rgb(124,20,197)" stroke-width="0.7797113556003256" opacity="0.6748445613886702"/>
  </g>
</svg>