<?xml version="1.0" encoding="UTF-8"?>
<svg xmlns="http://www.w3.org/2000/svg" viewBox="0 0 400 400" width="400" height="400">
  <rect width="100%" height="100%" fill="rgb(109,166,190)"/>
  <g transform="translate(5.649614331272019,15.174554813365802)">
    <path d="M 200.0,200.0 L 132.07864232970286,218.1027963626501 L 127.67580589037667,144.12204667312258 L 129.32528145505975,189.0810014238912 Z" fill="none" stroke="rgb(98,170,137)" stroke-width="1.3102644570926398" opacity="0.5026700417922032"/><path d="M 200.0,200.0 L 90.4483643983954,159.9676978230948 L 195.4318287461827,145.64521103469846 L 89.55308385116157,108.5170159454317 L 38.197948172992014,210.21106805298805 Z" fill="none" stroke="rgb(98,170,137)" stroke-width="1.0986592588569533" opacity="0.7633138816838276"/><path d="M 200.0,200.0 L 218.46368482899226,158.30835552956557 L 126.22681880343622,227.06330044062776 L 152.57378563874255,159.92698750127167 L 112.25539731324278,224.48083674403284 L 151.0105595403031,302.91214947311244 L 252.56548777000265,178.81841346197353 Z" fill="none" stroke="rgb(98,170,137)" stroke-width="2.10728866104049" opacity="0.7844492871045046"/><path d="M 200.0,200.0 L 59.876321900087845,244.27144623419235 L 61.57867236518,165.54009548107894 L 71.9685147677975,215.8888610860722 L 91.3912683881706,201.41592151937857 L 85.17274073718971,177.35336774790886 Z" fill="none" stroke="rgb(98,170,137)" stroke-width="1.9747098671764154" opacity="0.5063968673572706"/><path d="M 200.0,200.0 L 212.4834171839614,205.87077325710214 L 103.30659302126276,232.77771013152076 L 127.18721816581348,232.6260196912201 L 197.7169448690418,258.0783829009599 L 112.67203973420013,244.78988026823433 L 198.04630935492767,263.11103531579244 Z" fill="none" stroke="rgb(98,170,137)" stroke-width="2.2399577726611763" opacity="0.5522584340374663"/><path d="M 200.0,200.0 L 121.35858241867047,148.3591703638323 L 109.93165666287167,167.15046473880864 L 235.93315888841963,134.6752123771071 L 210.32257557316763,70.1504826280475 L 93.18667444824995,60.7176220288725 L 197.60522849624374,156.1088800860374 Z" fill="none" stroke="rgb(98,170,137)" stroke-width="1.4064405331867342" opacity="0.7815703434338379"/><path d="M 200.0,200.0 L 99.58750427552037,202.7988819261854 L 158.39675207678943,198.99536464317367 L 179.2662925618522,227.2078420567244 L 97.95125234883274,174.2670858029547 L 159.8159474437574,190.03732241550776 Z" fill="none" stroke="rgb(98,170,137)" stroke-width="1.9651910585633654" opacity="0.4397455173908964"/><path d="M 200.0,200.0 L 161.7667777376095,231.55124581670498 L 143.50187058881525,231.065711566351 L 251.1392625236555,245.31179114286783 Z" fill="none" stroke="rgb(98,170,137)" stroke-width="1.135773185812657" opacity="0.5534914657772582"/><path d="M 200.0,200.0 L 102.30874107879298,206.50716833374463 L 137.58273040538253,149.74810121802594 L 200.6296508877362,83.27467597042678 L 125.34160842276766,199.59072962294397 L 137.04082972014996,183.9454562700459 Z" fill="none" stroke="rgb(98,170,137)" stroke-width="2.1281714079245044" opacity="0.7095006892344272"/><path d="M 200.0,200.0 L 215.9160382444027,216.70197824889877 L 198.39597480728742,196.78224698537653 L 233.34423281471132,150.6074148443949 L 338.01199778057594,165.31817936174397 L 299.8631004879258,161.35891863091524 L 218.56332769468963,170.4722731165782 Z" fill="none" stroke="rgb(98,170,137)" stroke-width="2.851533113563084" opacity="0.5615933796395678"/><path d="M 200.0,200.0 L 282.715578107255,132.57840318001945 L 191.13740653837291,125.21394442023302 L 277.8385817434804,131.58118351695379 Z" fill="none" stroke="rgb(98,170,137)" stroke-width="1.7791466550403598" opacity="0.5406300071497592"/>
  </g>
</svg>