<?xml version="1.0" encoding="UTF-8"?>
<svg xmlns="http://www.w3.org/2000/svg" viewBox="0 0 400 400" width="400" height="400">
  <rect width="100%" height="100%" fill="rgb(177,95,210)"/>
  <g transform="translate(1.7241914721226266,3.1893528718567445)">
    <path d="M 309.17645892129826,157.55356344100755 L 344.5609588650023,97.38966511074867" fill="none" stroke="rgb(37,200,198)" stroke-width="0.8996924690893916" opacity="0.4634604929690883"/><path d="M 309.17645892129826,157.55356344100755 L 324.23085754400006,164.07352447379563" fill="none" stroke="rgb(37,200,198)" stroke-width="1.1612183631791075" opacity="0.7937385353654589"/><path d="M 202.21130804825808,200.68924421644937 L 150.59968743229362,150.7960489544901" fill="none" stroke="rgb(37,200,198)" stroke-width="2.4057863471214764" opacity="0.6443229475026986"/><path d="M 202.21130804825808,200.68924421644937 L 237.02665386722228,159.97791275653256" fill="none" stroke="rgb(37,200,198)" stroke-width="1.052729832109922" opacity="0.38803835970225486"/><path d="M 202.21130804825808,200.68924421644937 L 130.5511395493263,235.73085904135462" fill="none" stroke="rgb(37,200,198)" stroke-width="0.6307336425628236" opacity="0.3063966274533211"/><path d="M 187.39018087145146,35.18524699205677 L 144.5672937592568,33.33507094553008" fill="none" stroke="rgb(37,200,198)" stroke-width="1.7007075886306782" opacity="0.33434992691669246"/><path d="M 187.39018087145146,35.18524699205677 L 155.28578134997971,74.07238617436865" fill="none" stroke="rgb(37,200,198)" stroke-width="1.3088661112567133" opacity="0.6971419479509213"/><path d="M 187.39018087145146,35.18524699205677 L 201.8958497717207,27.071463508698184" fill="none" stroke="rgb(37,200,198)" stroke-width="2.650896902620493" opacity="0.6238784036083567"/><path d="M 330.4893481284812,41.10826652446393 L 347.33208698682085,41.70539907122997" fill="none" stroke="rgb(37,200,198)" stroke-width="2.293952422908472" opacity="0.48915048579319687"/><path d="M 344.5609588650023,97.38966511074867 L 324.23085754400006,164.07352447379563" fill="none" stroke="rgb(37,200,198)" stroke-width="0.6652554626959202" opacity="0.857700913606533"/><path d="M 246.8371286035014,230.94116804870262 L 294.71773763490734,259.45815020680783" fill="none" stroke="rgb(37,200,198)" stroke-width="2.477060287705224" opacity="0.7972018924369639"/><path d="M 144.5672937592568,33.33507094553008 L 62.53467451807107,56.69104011704141" fill="none" stroke="rgb(37,200,198)" stroke-width="2.6627417899956187" opacity="0.4781644928492934"/><path d="M 144.5672937592568,33.33507094553008 L 71.79809727939784,52.77872119302609" fill="none" stroke="rgb(37,200,198)" stroke-width="1.9334365087192253" opacity="0.5404016356814864"/><path d="M 144.5672937592568,33.33507094553008 L 201.8958497717207,27.071463508698184" fill="none" stroke="rgb(37,200,198)" stroke-width="2.5251012626047626" opacity="0.6549764558817429"/><path d="M 144.5672937592568,33.33507094553008 L 83.73251166077756,84.63222545904907" fill="none" stroke="rgb(37,200,198)" stroke-width="1.9203629606502222" opacity="0.4977763749035905"/><path d="M 239.56761331221927,336.1196750975237 L 258.69166986069547,355.75562241404685" fill="none" stroke="rgb(37,200,198)" stroke-width="2.0322226226653366" opacity="0.39813359825171624"/><path d="M 239.56761331221927,336.1196750975237 L 257.91566961310616,357.4489417952556" fill="none" stroke="rgb(37,200,198)" stroke-width="2.285529525887648" opacity="0.34021025694024826"/><path d="M 239.56761331221927,336.1196750975237 L 188.07715393497767,334.89083708735325" fill="none" stroke="rgb(37,200,198)" stroke-width="2.676872804167422" opacity="0.6774622317020331"/><path d="M 62.53467451807107,56.69104011704141 L 83.73251166077756,84.63222545904907" fill="none" stroke="rgb(37,200,198)" stroke-width="1.8373853797357387" opacity="0.5890443770278576"/><path d="M 150.59968743229362,150.7960489544901 L 155.28578134997971,74.07238617436865" fill="none" stroke="rgb(37,200,198)" stroke-width="2.938764646307394" opacity="0.8115927749787983"/><path d="M 150.59968743229362,150.7960489544901 L 86.68629163622691,148.7319665191942" fill="none" stroke="rgb(37,200,198)" stroke-width="2.1321835200511265" opacity="0.43644419361712405"/><path d="M 150.59968743229362,150.7960489544901 L 83.73251166077756,84.63222545904907" fill="none" stroke="rgb(37,200,198)" stroke-width="1.8551383965532562" opacity="0.5186664646074534"/><path d="M 150.59968743229362,150.7960489544901 L 130.5511395493263,235.73085904135462" fill="none" stroke="rgb(37,200,198)" stroke-width="0.673906406704434" opacity="0.44313840184106335"/><path d="M 258.69166986069547,355.75562241404685 L 188.07715393497767,334.89083708735325" fill="none" stroke="rgb(37,200,198)" stroke-width="2.1503937840355154" opacity="0.7526067535965273"/><path d="M 71.79809727939784,52.77872119302609 L 155.28578134997971,74.07238617436865" fill="none" stroke="rgb(37,200,198)" stroke-width="1.2703657391020218" opacity="0.3051034272308776"/><path d="M 71.79809727939784,52.77872119302609 L 83.73251166077756,84.63222545904907" fill="none" stroke="rgb(37,200,198)" stroke-width="2.8362574747008003" opacity="0.8490891739940825"/><path d="M 237.02665386722228,159.97791275653256 L 324.23085754400006,164.07352447379563" fill="none" stroke="rgb(37,200,198)" stroke-width="1.4103342308385785" opacity="0.5030966096943855"/><path d="M 188.07715393497767,334.89083708735325 L 122.4429141943171,319.2903588966719" fill="none" stroke="rgb(37,200,198)" stroke-width="2.430328693157433" opacity="0.3088558605009233"/><path d="M 122.4429141943171,319.2903588966719 L 130.5511395493263,235.73085904135462" fill="none" stroke="rgb(37,200,198)" stroke-width="0.9977372643598263" opacity="0.36713970054011014"/><path d="M 86.68629163622691,148.7319665191942 L 83.73251166077756,84.63222545904907" fill="none" stroke="rgb(37,200,198)" stroke-width="0.8086516309757017" opacity="0.5934319587763237"/><path d="M 362.7937456483279,240.01348082052857 m -1.4310346468031647,0 a 1.4310346468031647,1.4310346468031647 0 1,1 2.8620692936063294,0 a 1.4310346468031647,1.4310346468031647 0 1,1 -2.8620692936063294,0" fill="none" stroke="rgb(37,200,198)" stroke-width="2.333351065287568" opacity="0.7620137071412597"/><path d="M 310.48463069030595,157.55356344100755 m -1.3081717690077015,0 a 1.3081717690077015,1.3081717690077015 0 1,1 2.616343538015403,0 a 1.3081717690077015,1.3081717690077015 0 1,1 -2.616343538015403,0" fill="none" stroke="rgb(37,200,198)" stroke-width="2.499102102201939" opacity="0.8352599738114526"/><path d="M 206.1372300502543,200.68924421644937 m -3.925922001996221,0 a 3.925922001996221,3.925922001996221 0 1,1 7.851844003992442,0 a 3.925922001996221,3.925922001996221 0 1,1 -7.851844003992442,0" fill="none" stroke="rgb(37,200,198)" stroke-width="2.9440217563136573" opacity="0.5558523665728892"/><path d="M 188.81667986494745,35.18524699205677 m -1.4264989934959815,0 a 1.4264989934959815,1.4264989934959815 0 1,1 2.852997986991963,0 a 1.4264989934959815,1.4264989934959815 0 1,1 -2.852997986991963,0" fill="none" stroke="rgb(37,200,198)" stroke-width="2.487282786904731" opacity="0.6585716011960809"/><path d="M 333.5697704327945,41.10826652446393 m -3.0804223043132635,0 a 3.0804223043132635,3.0804223043132635 0 1,1 6.160844608626527,0 a 3.0804223043132635,3.0804223043132635 0 1,1 -6.160844608626527,0" fill="none" stroke="rgb(37,200,198)" stroke-width="0.6140789405705667" opacity="0.40145756318819825"/><path d="M 345.5997723016272,97.38966511074867 m -1.0388134366248811,0 a 1.0388134366248811,1.0388134366248811 0 1,1 2.0776268732497623,0 a 1.0388134366248811,1.0388134366248811 0 1,1 -2.0776268732497623,0" fill="none" stroke="rgb(37,200,198)" stroke-width="2.128985598604774" opacity="0.44311083877259894"/><path d="M 249.5333313537359,230.94116804870262 m -2.6962027502344648,0 a 2.6962027502344648,2.6962027502344648 0 1,1 5.3924055004689295,0 a 2.6962027502344648,2.6962027502344648 0 1,1 -5.3924055004689295,0" fill="none" stroke="rgb(37,200,198)" stroke-width="2.94249068937633" opacity="0.3821671151379268"/><path d="M 147.68534305835644,33.33507094553008 m -3.1180492990996287,0 a 3.1180492990996287,3.1180492990996287 0 1,1 6.236098598199257,0 a 3.1180492990996287,3.1180492990996287 0 1,1 -6.236098598199257,0" fill="none" stroke="rgb(37,200,198)" stroke-width="2.294705364982243" opacity="0.7140315848347802"/><path d="M 242.5907372385477,336.1196750975237 m -3.02312392632841,0 a 3.02312392632841,3.02312392632841 0 1,1 6.04624785265682,0 a 3.02312392632841,3.02312392632841 0 1,1 -6.04624785265682,0" fill="none" stroke="rgb(37,200,198)" stroke-width="1.4152123395264464" opacity="0.7449908155725935"/><path d="M 65.81523179988065,56.69104011704141 m -3.2805572818095716,0 a 3.2805572818095716,3.2805572818095716 0 1,1 6.561114563619143,0 a 3.2805572818095716,3.2805572818095716 0 1,1 -6.561114563619143,0" fill="none" stroke="rgb(37,200,198)" stroke-width="0.8274750125215187" opacity="0.42379928807236356"/><path d="M 152.82687656195912,150.7960489544901 m -2.227189129665497,0 a 2.227189129665497,2.227189129665497 0 1,1 4.454378259330994,0 a 2.227189129665497,2.227189129665497 0 1,1 -4.454378259330994,0" fill="none" stroke="rgb(37,200,198)" stroke-width="0.7091058623596356" opacity="0.8171797864040502"/><path d="M 261.42341577455244,355.75562241404685 m -2.7317459138569586,0 a 2.7317459138569586,2.7317459138569586 0 1,1 5.463491827713917,0 a 2.7317459138569586,2.7317459138569586 0 1,1 -5.463491827713917,0" fill="none" stroke="rgb(37,200,198)" stroke-width="0.7940302119157225" opacity="0.5594447354799055"/><path d="M 73.97342375219841,52.77872119302609 m -2.1753264728005846,0 a 2.1753264728005846,2.1753264728005846 0 1,1 4.350652945601169,0 a 2.1753264728005846,2.1753264728005846 0 1,1 -4.350652945601169,0" fill="none" stroke="rgb(37,200,198)" stroke-width="0.8725240952778477" opacity="0.46284256473152496"/><path d="M 260.58787662314904,357.4489417952556 m -2.672207010042901,0 a 2.672207010042901,2.672207010042901 0 1,1 5.344414020085802,0 a 2.672207010042901,2.672207010042901 0 1,1 -5.344414020085802,0" fill="none" stroke="rgb(37,200,198)" stroke-width="2.4481603191311314" opacity="0.7432034262828516"/><path d="M 238.60068578510436,159.97791275653256 m -1.574031917882068,0 a 1.574031917882068,1.574031917882068 0 1,1 3.148063835764136,0 a 1.574031917882068,1.574031917882068 0 1,1 -3.148063835764136,0" fill="none" stroke="rgb(37,200,198)" stroke-width="1.2917797887390308" opacity="0.43923481629163674"/><path d="M 191.6353609333392,334.89083708735325 m -3.558206998361517,0 a 3.558206998361517,3.558206998361517 0 1,1 7.116413996723034,0 a 3.558206998361517,3.558206998361517 0 1,1 -7.116413996723034,0" fill="none" stroke="rgb(37,200,198)" stroke-width="1.2832665342858727" opacity="0.39798675516371396"/><path d="M 296.5920631853356,259.45815020680783 m -1.8743255504282461,0 a 1.8743255504282461,1.8743255504282461 0 1,1 3.7486511008564922,0 a 1.8743255504282461,1.8743255504282461 0 1,1 -3.7486511008564922,0" fill="none" stroke="rgb(37,200,198)" stroke-width="2.9213961912942925" opacity="0.3634398941464546"/><path d="M 159.2240337112533,74.07238617436865 m -3.938252361273575,0 a 3.938252361273575,3.938252361273575 0 1,1 7.87650472254715,0 a 3.938252361273575,3.938252361273575 0 1,1 -7.87650472254715,0" fill="none" stroke="rgb(37,200,198)" stroke-width="2.3761714869696946" opacity="0.5153079888684514"/><path d="M 205.36282746784275,27.071463508698184 m -3.4669776961220657,0 a 3.4669776961220657,3.4669776961220657 0 1,1 6.9339553922441315,0 a 3.4669776961220657,3.4669776961220657 0 1,1 -6.9339553922441315,0" fill="none" stroke="rgb(37,200,198)" stroke-width="2.7324323332368654" opacity="0.8242118889325234"/><path d="M 124.85975613162081,319.2903588966719 m -2.416841937303719,0 a 2.416841937303719,2.416841937303719 0 1,1 4.833683874607438,0 a 2.416841937303719,2.416841937303719 0 1,1 -4.833683874607438,0" fill="none" stroke="rgb(37,200,198)" stroke-width="2.5621022451128996" opacity="0.4283499928955753"/><path d="M 88.56715781987228,148.7319665191942 m -1.880866183645368,0 a 1.880866183645368,1.880866183645368 0 1,1 3.761732367290736,0 a 1.880866183645368,1.880866183645368 0 1,1 -3.761732367290736,0" fill="none" stroke="rgb(37,200,198)" stroke-width="1.3188156869310828" opacity="0.735123040168435"/><path d="M 326.25638453137805,164.07352447379563 m -2.025526987377971,0 a 2.025526987377971,2.025526987377971 0 1,1 4.051053974755942,0 a 2.025526987377971,2.025526987377971 0 1,1 -4.051053974755942,0" fill="none" stroke="rgb(37,200,198)" stroke-width="2.1026772612425173" opacity="0.35803359431644777"/><path d="M 87.38306170905065,84.63222545904907 m -3.650550048273095,0 a 3.650550048273095,3.650550048273095 0 1,1 7.30110009654619,0 a 3.650550048273095,3.650550048273095 0 1,1 -7.30110009654619,0" fill="none" stroke="rgb(37,200,198)" stroke-width="2.8828331989221634" opacity="0.7303566517239952"/><path d="M 348.97249670112797,41.70539907122997 m -1.6404097143071126,0 a 1.6404097143071126,1.6404097143071126 0 1,1 3.280819428614225,0 a 1.6404097143071126,1.6404097143071126 0 1,1 -3.280819428614225,0" fill="none" stroke="rgb(37,200,198)" stroke-width="2.50864208487135" opacity="0.8861734567319477"/><path d="M 131.99739149326365,235.73085904135462 m -1.446251943937329,0 a 1.446251943937329,1.446251943937329 0 1,1 2.892503887874658,0 a 1.446251943937329,1.446251943937329 0 1,1 -2.892503887874658,0" fill="none" stroke="rgb(37,200,198)" stroke-width="0.8082431502658539" opacity="0.5142725929954837"/>
  </g>
</svg>