<?xml version="1.0" encoding="UTF-8"?>
<svg xmlns="http://www.w3.org/2000/svg" viewBox="0 0 400 400" width="400" height="400">
  <rect width="100%" height="100%" fill="rgb(33,212,192)"/>
  <g transform="translate(-13.534045709130766,-7.430658372731603)">
    <path d="M 0,33.333333333333336 L 0,10.270622360325149 L 15,-1.7953873841844015 L 30,34.5648320436629 L 45,5.86642258107878 L 60,28.184379579039458 L 75,40.62927720233509 L 90,93.8607288093653 L 105,26.08980234606034 L 120,-28.198946945122835 L 135,51.19966480381625 L 150,111.71370353726013 L 165,92.93736903783254 L 180,97.17399996920001 L 195,60.14595305815829 L 210,11.770266281063599 L 225,-9.792447370281891 L 240,2.2503188408576733 L 255,1.544305797058783 L 270,82.43155470606382 L 285,79.27146963359147 L 300,-45.810264277679764 L 315,24.81476867207573 L 330,14.514461314274207 L 345,17.12899194984483 L 360,67.77638161089014 L 375,15.803816241387416 L 390,80.33296567171597 L 400,33.333333333333336" fill="none" stroke="rgb(102,161,92)" stroke-width="1.8412011751596515" opacity="0.7538904576818068"/><path d="M 0,66.66666666666667 L 0,33.12180457173477 L 15,22.64645719792702 L 30,53.9744265114455 L 45,65.06815917867789 L 60,92.7501260862001 L 75,114.29589922646542 L 90,85.50232938534299 L 105,79.97474793019792 L 120,45.92172796953696 L 135,72.36394630446617 L 150,111.80293080419493 L 165,109.99992236453919 L 180,79.69638087018963 L 195,121.8501030372967 L 210,24.39735664712562 L 225,33.68968616656691 L 240,35.82060743910435 L 255,103.3637554225798 L 270,111.04795710690325 L 285,112.21864584327353 L 300,29.589314850068668 L 315,17.099435153721288 L 330,49.87932875670562 L 345,-6.327531504423149 L 360,94.31485358034354 L 375,133.140773764318 L 390,86.70859445896002 L 400,66.66666666666667" fill="none" stroke="rgb(102,161,92)" stroke-width="1.929238939714791" opacity="0.40046576170283466"/><path d="M 0,109.0909090909091 L 0,63.00038435478193 L 15,108.45118319644172 L 30,110.74799904501597 L 45,69.37433574918306 L 60,133.25345953903474 L 75,147.566106849584 L 90,196.48458273896767 L 105,51.517449632996204 L 120,135.37651630116943 L 135,90.54009431486901 L 150,197.8932663276113 L 165,136.54816687378786 L 180,150.6410506768267 L 195,126.22294613053543 L 210,54.329856068316474 L 225,57.97971728222714 L 240,138.31560453468308 L 255,125.25130279084104 L 270,188.22746185171837 L 285,156.09408788812596 L 300,74.87481324763242 L 315,76.12670079475245 L 330,50.401499499783526 L 345,48.55391430816357 L 360,78.61010720974133 L 375,140.77122906393748 L 390,130.98583178825874 L 400,109.0909090909091" fill="none" stroke="rgb(102,161,92)" stroke-width="0.612110656258114" opacity="0.38585921393476225"/><path d="M 0,200.0 L 0,163.0039957603344 L 15,117.27436055392366 L 30,178.7410114128693 L 45,126.43777003805181 L 60,291.52195196201825 L 75,201.00735611988907 L 90,250.8390655979635 L 105,146.6911313283624 L 120,163.61741322991492 L 135,128.6006793144295 L 150,254.5879512797792 L 165,250.14485335861792 L 180,200.6606881505896 L 195,236.23304208053904 L 210,180.65576829544963 L 225,167.33614471052402 L 240,128.5097692551737 L 255,242.3523027567746 L 270,227.36317467175374 L 285,268.0345004612319 L 300,217.1298972285112 L 315,213.33966729908272 L 330,195.24785562112964 L 345,189.01455815257088 L 360,198.75419598592276 L 375,251.34604823128697 L 390,237.1167368793788 L 400,200.0" fill="none" stroke="rgb(102,161,92)" stroke-width="2.4666170593392147" opacity="0.656388399082623"/><path d="M 0,333.3333333333333 L 0,298.2349466952752 L 15,297.0886458004255 L 30,298.6688993438461 L 45,342.33011381025017 L 60,373.51385273457095 L 75,380.20362534011986 L 90,361.5285243608457 L 105,304.81895895336544 L 120,316.9210138461052 L 135,305.8357071215996 L 150,350.8668616456846 L 165,371.7587339817916 L 180,349.40661966009003 L 195,366.8824861978061 L 210,280.0681236176317 L 225,291.60440640682 L 240,314.8111352940184 L 255,406.3092700161528 L 270,372.83051096906803 L 285,361.36728138984324 L 300,325.8240020866065 L 315,310.79769549430455 L 330,268.79262141116345 L 345,299.7550392859967 L 360,319.035069183498 L 375,383.18479019320074 L 390,336.1258824024123 L 400,333.3333333333333" fill="none" stroke="rgb(102,161,92)" stroke-width="2.9612154329268856" opacity="0.49374250084584936"/><path d="M 0,240.0 L 0,201.82743679109535 L 15,180.8484789517905 L 30,178.26343708223283 L 45,230.68472646912755 L 60,285.55724175319233 L 75,229.4556450096287 L 90,254.69117252161715 L 105,222.52060470407616 L 120,158.8860883992758 L 135,229.85892203771363 L 150,276.43775521376017 L 165,259.3112134374815 L 180,266.98099526320664 L 195,286.6196799960658 L 210,222.0038308773786 L 225,210.67754764639062 L 240,198.45593662491385 L 255,293.26356595575004 L 270,230.82041532482998 L 285,255.43153209652968 L 300,187.58810598387717 L 315,230.19268276774375 L 330,195.59962500639068 L 345,221.3997317776866 L 360,300.6523992138659 L 375,241.8285402927921 L 390,292.5610247888351 L 400,240.0" fill="none" stroke="rgb(102,161,92)" stroke-width="2.2322424404959564" opacity="0.3844193420998863"/><path d="M 0,466.6666666666667 L 0,448.26369045425207 L 15,454.999036939344 L 30,415.88533769607227 L 45,430.7669128866918 L 60,495.85697458341446 L 75,513.9815296309112 L 90,500.55621779864754 L 105,425.59939118721354 L 120,380.74494760563726 L 135,445.77230244482456 L 150,474.8607302619641 L 165,461.63582570093314 L 180,531.0353672097614 L 195,470.9957463912714 L 210,464.12723797793427 L 225,435.2322441650437 L 240,473.86144839680816 L 255,485.3827640498071 L 270,470.99162051988964 L 285,481.0912686497469 L 300,420.8022325136744 L 315,466.44976006480175 L 330,434.5986270966537 L 345,399.14135542020574 L 360,468.72779455787264 L 375,462.9034630389022 L 390,504.8373335314411 L 400,466.6666666666667" fill="none" stroke="rgb(102,161,92)" stroke-width="1.407215105215913" opacity="0.7169952112205"/><path d="M 0,400.0 L 0,422.32969286184164 L 15,365.9830391852193 L 30,387.6174610075823 L 45,345.47674992963965 L 60,430.19945305860426 L 75,473.2991034550916 L 90,443.7421903811405 L 105,357.51877925172255 L 120,339.12529721113094 L 135,344.86428999766287 L 150,472.48368624040353 L 165,446.94825370412013 L 180,398.84275887317983 L 195,412.01719805862 L 210,379.6404223048648 L 225,347.8798902759771 L 240,362.02944192571914 L 255,457.6435086529291 L 270,434.45202563523117 L 285,427.49135664687566 L 300,378.4731833669935 L 315,376.9821143626124 L 330,348.98306186348435 L 345,378.31584162502634 L 360,450.08557266862124 L 375,437.6368393368448 L 390,467.81032127552913 L 400,400.0" fill="none" stroke="rgb(102,161,92)" stroke-width="1.7932877587525995" opacity="0.3655720119146998"/><path d="M 0,514.2857142857143 L 0,522.9349963628023 L 15,503.6928360371263 L 30,470.9826405432506 L 45,457.5848443170715 L 60,548.2069910987705 L 75,515.2887675711606 L 90,529.2543599447837 L 105,498.0060383227244 L 120,498.70075327478673 L 135,468.9831874148214 L 150,504.12936646502726 L 165,541.0971389527328 L 180,539.0683911343124 L 195,550.1044828098819 L 210,548.1560285568078 L 225,482.4024208436148 L 240,452.09650867339985 L 255,533.360782269652 L 270,513.083959567992 L 285,587.4961061819686 L 300,496.8958620796934 L 315,475.1006307781394 L 330,479.9739168196757 L 345,456.74247934536305 L 360,604.1137901889263 L 375,525.7932361907174 L 390,539.598091854881 L 400,514.2857142857143" fill="none" stroke="rgb(102,161,92)" stroke-width="1.4479796484237146" opacity="0.5342619374664543"/>
  </g>
</svg>