<?xml version="1.0" encoding="UTF-8"?>
<svg xmlns="http://www.w3.org/2000/svg" viewBox="0 0 400 400" width="400" height="400">
  <rect width="100%" height="100%" fill="rgb(47,181,22)"/>
  <g transform="translate(14.13033092696881,1.8344888606767427)">
    <path d="M 51.24288986401459,309.5000825621956 L 33.46261006324782,344.24328847184887" fill="none" stroke="rgb(168,52,72)" stroke-width="0.7950753761065503" opacity="0.30594076264476855"/><path d="M 173.2730692553847,276.1725572806318 L 186.33417332329967,217.3026843266647" fill="none" stroke="rgb(168,52,72)" stroke-width="2.492237161483162" opacity="0.6177795436637765"/><path d="M 60.5273484423803,127.30192625711449 L 49.24894547474598,143.5328547340828" fill="none" stroke="rgb(168,52,72)" stroke-width="0.7956468158126049" opacity="0.3774754343316744"/><path d="M 377.3402443065372,108.67986577897237 L 371.12670926923073,172.0942903640002" fill="none" stroke="rgb(168,52,72)" stroke-width="1.112191167804923" opacity="0.39697431429484653"/><path d="M 377.3402443065372,108.67986577897237 L 379.99493597414676,87.74069270546472" fill="none" stroke="rgb(168,52,72)" stroke-width="1.787222444764672" opacity="0.7266185196995134"/><path d="M 283.5168990405057,78.93468188489314 L 214.90016905669702,93.05325568269306" fill="none" stroke="rgb(168,52,72)" stroke-width="2.78065314317022" opacity="0.5151032837087681"/><path d="M 283.5168990405057,78.93468188489314 L 266.0096365302454,119.10587151801577" fill="none" stroke="rgb(168,52,72)" stroke-width="1.486472801769346" opacity="0.8339439339657366"/><path d="M 283.5168990405057,78.93468188489314 L 250.78305396965095,76.170859740434" fill="none" stroke="rgb(168,52,72)" stroke-width="1.756748286123785" opacity="0.5377166714388306"/><path d="M 216.70338778704118,98.01782925580741 L 214.90016905669702,93.05325568269306" fill="none" stroke="rgb(168,52,72)" stroke-width="2.618309397755103" opacity="0.6027149432649772"/><path d="M 216.70338778704118,98.01782925580741 L 266.0096365302454,119.10587151801577" fill="none" stroke="rgb(168,52,72)" stroke-width="2.874465579866136" opacity="0.67864913934363"/><path d="M 371.12670926923073,172.0942903640002 L 361.2071388731476,205.8319423089778" fill="none" stroke="rgb(168,52,72)" stroke-width="1.4539720037129769" opacity="0.7929337686732383"/><path d="M 288.0387825245106,161.32811884274477 L 266.0096365302454,119.10587151801577" fill="none" stroke="rgb(168,52,72)" stroke-width="1.520571940040427" opacity="0.6256728870083624"/><path d="M 214.90016905669702,93.05325568269306 L 266.0096365302454,119.10587151801577" fill="none" stroke="rgb(168,52,72)" stroke-width="1.3779255638059744" opacity="0.4640609333634147"/><path d="M 214.90016905669702,93.05325568269306 L 250.78305396965095,76.170859740434" fill="none" stroke="rgb(168,52,72)" stroke-width="1.2620258097853947" opacity="0.5601184183643623"/><path d="M 266.0096365302454,119.10587151801577 L 250.78305396965095,76.170859740434" fill="none" stroke="rgb(168,52,72)" stroke-width="1.1043730551474171" opacity="0.4187913233333123"/><path d="M 52.89367464071459,309.5000825621956 m -1.6507847767000032,0 a 1.6507847767000032,1.6507847767000032 0 1,1 3.3015695534000065,0 a 1.6507847767000032,1.6507847767000032 0 1,1 -3.3015695534000065,0" fill="none" stroke="rgb(168,52,72)" stroke-width="2.065174320924916" opacity="0.8956930362209956"/><path d="M 175.14046830933597,276.1725572806318 m -1.8673990539512513,0 a 1.8673990539512513,1.8673990539512513 0 1,1 3.7347981079025026,0 a 1.8673990539512513,1.8673990539512513 0 1,1 -3.7347981079025026,0" fill="none" stroke="rgb(168,52,72)" stroke-width="2.13224946130934" opacity="0.8942291977015588"/><path d="M 62.19360309010396,127.30192625711449 m -1.6662546477236642,0 a 1.6662546477236642,1.6662546477236642 0 1,1 3.3325092954473283,0 a 1.6662546477236642,1.6662546477236642 0 1,1 -3.3325092954473283,0" fill="none" stroke="rgb(168,52,72)" stroke-width="1.5981462082959539" opacity="0.6713950000369011"/><path d="M 379.188774185367,108.67986577897237 m -1.8485298788297888,0 a 1.8485298788297888,1.8485298788297888 0 1,1 3.6970597576595776,0 a 1.8485298788297888,1.8485298788297888 0 1,1 -3.6970597576595776,0" fill="none" stroke="rgb(168,52,72)" stroke-width="1.8909976353454199" opacity="0.8768252263884637"/><path d="M 155.78979995815413,347.03194416948105 m -3.209674043760886,0 a 3.209674043760886,3.209674043760886 0 1,1 6.419348087521772,0 a 3.209674043760886,3.209674043760886 0 1,1 -6.419348087521772,0" fill="none" stroke="rgb(168,52,72)" stroke-width="1.593766414088272" opacity="0.633083180704472"/><path d="M 118.12858403859633,244.2317552694993 m -1.8252804348580158,0 a 1.8252804348580158,1.8252804348580158 0 1,1 3.6505608697160317,0 a 1.8252804348580158,1.8252804348580158 0 1,1 -3.6505608697160317,0" fill="none" stroke="rgb(168,52,72)" stroke-width="1.721370154110652" opacity="0.7710063974898272"/><path d="M 374.7132135668605,369.5377964456978 m -2.400145928874407,0 a 2.400145928874407,2.400145928874407 0 1,1 4.800291857748814,0 a 2.400145928874407,2.400145928874407 0 1,1 -4.800291857748814,0" fill="none" stroke="rgb(168,52,72)" stroke-width="2.585880878415543" opacity="0.3136930259610442"/><path d="M 232.98102555097458,324.03195802894703 m -3.6170771347111357,0 a 3.6170771347111357,3.6170771347111357 0 1,1 7.234154269422271,0 a 3.6170771347111357,3.6170771347111357 0 1,1 -7.234154269422271,0" fill="none" stroke="rgb(168,52,72)" stroke-width="1.405242711499568" opacity="0.785612070903372"/><path d="M 284.93867962702404,78.93468188489314 m -1.4217805865183426,0 a 1.4217805865183426,1.4217805865183426 0 1,1 2.843561173036685,0 a 1.4217805865183426,1.4217805865183426 0 1,1 -2.843561173036685,0" fill="none" stroke="rgb(168,52,72)" stroke-width="1.4739408494579527" opacity="0.626300745839744"/><path d="M 219.58349378740274,98.01782925580741 m -2.8801060003615646,0 a 2.8801060003615646,2.8801060003615646 0 1,1 5.760212000723129,0 a 2.8801060003615646,2.8801060003615646 0 1,1 -5.760212000723129,0" fill="none" stroke="rgb(168,52,72)" stroke-width="1.8904134777101134" opacity="0.34734426805524155"/><path d="M 374.08136497488545,172.0942903640002 m -2.954655705654702,0 a 2.954655705654702,2.954655705654702 0 1,1 5.909311411309404,0 a 2.954655705654702,2.954655705654702 0 1,1 -5.909311411309404,0" fill="none" stroke="rgb(168,52,72)" stroke-width="1.3684981237694178" opacity="0.43320416946780305"/><path d="M 51.02647308291884,143.5328547340828 m -1.7775276081728622,0 a 1.7775276081728622,1.7775276081728622 0 1,1 3.5550552163457243,0 a 1.7775276081728622,1.7775276081728622 0 1,1 -3.5550552163457243,0" fill="none" stroke="rgb(168,52,72)" stroke-width="1.6857869622409114" opacity="0.6627749107722705"/><path d="M 190.04092968172458,217.3026843266647 m -3.7067563584249195,0 a 3.7067563584249195,3.7067563584249195 0 1,1 7.413512716849839,0 a 3.7067563584249195,3.7067563584249195 0 1,1 -7.413512716849839,0" fill="none" stroke="rgb(168,52,72)" stroke-width="2.0040436151336203" opacity="0.6606466332225238"/><path d="M 383.3886515655732,87.74069270546472 m -3.393715591426411,0 a 3.393715591426411,3.393715591426411 0 1,1 6.787431182852822,0 a 3.393715591426411,3.393715591426411 0 1,1 -6.787431182852822,0" fill="none" stroke="rgb(168,52,72)" stroke-width="2.062978283993457" opacity="0.35289925597960004"/><path d="M 291.7607836159355,161.32811884274477 m -3.7220010914249064,0 a 3.7220010914249064,3.7220010914249064 0 1,1 7.444002182849813,0 a 3.7220010914249064,3.7220010914249064 0 1,1 -7.444002182849813,0" fill="none" stroke="rgb(168,52,72)" stroke-width="1.4962660534297507" opacity="0.397153567111726"/><path d="M 35.826177039041255,344.24328847184887 m -2.3635669757934306,0 a 2.3635669757934306,2.3635669757934306 0 1,1 4.727133951586861,0 a 2.3635669757934306,2.3635669757934306 0 1,1 -4.727133951586861,0" fill="none" stroke="rgb(168,52,72)" stroke-width="0.9577388559779594" opacity="0.555373869106401"/><path d="M 218.86504632452147,93.05325568269306 m -3.964877267824451,0 a 3.964877267824451,3.964877267824451 0 1,1 7.929754535648902,0 a 3.964877267824451,3.964877267824451 0 1,1 -7.929754535648902,0" fill="none" stroke="rgb(168,52,72)" stroke-width="0.8733139176958644" opacity="0.6932015672601701"/><path d="M 365.6277515902818,28.03167026857146 m -3.9253973643379085,0 a 3.9253973643379085,3.9253973643379085 0 1,1 7.850794728675817,0 a 3.9253973643379085,3.9253973643379085 0 1,1 -7.850794728675817,0" fill="none" stroke="rgb(168,52,72)" stroke-width="1.8500950338008464" opacity="0.5480877513347462"/><path d="M 267.9814752607269,119.10587151801577 m -1.9718387304814635,0 a 1.9718387304814635,1.9718387304814635 0 1,1 3.943677460962927,0 a 1.9718387304814635,1.9718387304814635 0 1,1 -3.943677460962927,0" fill="none" stroke="rgb(168,52,72)" stroke-width="0.6298727396515659" opacity="0.7719254216769875"/><path d="M 368.9337916623063,282.6387150798516 m -2.2877913881012555,0 a 2.2877913881012555,2.2877913881012555 0 1,1 4.575582776202511,0 a 2.2877913881012555,2.2877913881012555 0 1,1 -4.575582776202511,0" fill="none" stroke="rgb(168,52,72)" stroke-width="2.5170642530222116" opacity="0.6265867641316638"/><path d="M 253.7948630805783,76.170859740434 m -3.0118091109273526,0 a 3.0118091109273526,3.0118091109273526 0 1,1 6.023618221854705,0 a 3.0118091109273526,3.0118091109273526 0 1,1 -6.023618221854705,0" fill="none" stroke="rgb(168,52,72)" stroke-width="0.7656925052286535" opacity="0.8162716687184968"/><path d="M 362.6207984556287,205.8319423089778 m -1.4136595824811033,0 a 1.4136595824811033,1.4136595824811033 0 1,1 2.8273191649622067,0 a 1.4136595824811033,1.4136595824811033 0 1,1 -2.8273191649622067,0" fill="none" stroke="rgb(168,52,72)" stroke-width="0.783305741523337" opacity="0.3589751103204791"/><path d="M 42.617893584740465,22.79912729619262 m -3.859695743845013,0 a 3.859695743845013,3.859695743845013 0 1,1 7.719391487690026,0 a 3.859695743845013,3.859695743845013 0 1,1 -7.719391487690026,0" fill="none" stroke="rgb(168,52,72)" stroke-width="2.7885859966031417" opacity="0.7469459390323008"/>
  </g>
</svg>