<?xml version="1.0" encoding="UTF-8"?>
<svg xmlns="http://www.w3.org/2000/svg" viewBox="0 0 400 400" width="400" height="400">
  <rect width="100%" height="100%" fill="rgb(183,71,52)"/>
  <g transform="translate(-13.550184641219989,18.75237236386814)">
    <path d="M 200.0,200.0 L 260.8071476872501,239.55075436591528 L 295.20828806504164,130.07438703240757 L 165.9575912495823,239.55075436591528 L 109.87899657887878,269.92561296759243 L 235.11329923915673,239.55075436591528 Z" fill="none" stroke="rgb(104,203,126)" stroke-width="2.3986305361958253" opacity="0.4847263466888398"/><path d="M 200.0,200.0 L 264.511853094198,249.11818794544882 L 332.0695355158891,281.89728388534706 L 131.9064861838874,249.11818794544882 L 285.6216278533503,118.10271611465294 L 267.77204404425345,150.88181205455118 Z" fill="none" stroke="rgb(104,203,126)" stroke-width="1.1811370037755136" opacity="0.5823281445619819"/><path d="M 200.0,200.0 L 280.12919450224695,146.65033049862052 L 310.37186468503296,270.23378741453337 L 258.46445869162335,253.34966950137948 L 316.6612743188013,270.23378741453337 L 147.43079940525166,146.65033049862052 Z" fill="none" stroke="rgb(104,203,126)" stroke-width="1.174977083600158" opacity="0.3110566915414218"/><path d="M 200.0,200.0 L 271.71322948544804,152.95771871470447 L 285.8308013524129,124.90940763324336 L 263.48665950704566,247.04228128529553 L 324.7274782188481,275.09059236675665 L 260.5823049917673,152.95771871470447 Z" fill="none" stroke="rgb(104,203,126)" stroke-width="2.649457079028476" opacity="0.7108785834048215"/><path d="M 200.0,200.0 L 263.19099573468503,150.58363626771927 L 271.02868909954134,265.1950980167844 L 125.68894555097464,249.41636373228073 L 260.9977851048732,265.1950980167844 L 260.5873688562153,150.58363626771927 Z" fill="none" stroke="rgb(104,203,126)" stroke-width="2.74220362025545" opacity="0.6647070590817445"/><path d="M 200.0,200.0 L 279.8063107786945,254.75935359042097 L 254.24234996594143,262.1857847646119 L 144.45697979395516,145.24064640957903 L 266.55019427903096,137.81421523538808 L 252.5196226885842,145.24064640957903 Z" fill="none" stroke="rgb(104,203,126)" stroke-width="2.720711930769039" opacity="0.3635494456004409"/><path d="M 200.0,200.0 L 287.90656260921105,146.8391057686252 L 369.9248473142206,306.5503191365355 L 280.983568695461,146.8391057686252 L 46.927241080750974,93.4496808634645 L 270.8483434667607,253.1608942313748 Z" fill="none" stroke="rgb(104,203,126)" stroke-width="1.8618726230307" opacity="0.30448521938804524"/><path d="M 200.0,200.0 L 277.39030623062354,249.75437886336044 L 337.440425252413,107.915295015397 L 151.30789562172507,150.24562113663956 L 326.4144061741513,107.915295015397 L 276.8744917017695,249.75437886336044 Z" fill="none" stroke="rgb(104,203,126)" stroke-width="2.24275624302173" opacity="0.8809445659112083"/><path d="M 200.0,200.0 L 292.00839439764314,142.78976403465373 L 329.57876348623324,96.79246964161125 L 151.54862579100146,257.21023596534627 L 326.9837269548624,303.20753035838874 L 263.95910111576586,257.21023596534627 Z" fill="none" stroke="rgb(104,203,126)" stroke-width="0.5951496562481019" opacity="0.5712944740174433"/><path d="M 200.0,200.0 L 253.17247796014618,156.3238545261395 L 66.59869505940031,106.1125866094569 L 271.2169774585008,156.3238545261395 L 297.56345707823414,106.1125866094569 L 145.11793827537613,156.3238545261395 Z" fill="none" stroke="rgb(104,203,126)" stroke-width="0.9938991630852338" opacity="0.7776485645756286"/><path d="M 200.0,200.0 L 164.95549039255621,166.47227649710058 L 332.91892285282637,100.4261305532671 L 164.18276369162405,233.52772350289942 L 354.85386787349614,299.5738694467329 L 166.72696242089683,233.52772350289942 Z" fill="none" stroke="rgb(104,203,126)" stroke-width="2.206752849223818" opacity="0.3841376028352919"/><path d="M 200.0,200.0 L 250.00919282755413,156.3493774309315 L 326.98485930787825,100.00505813307801 L 241.9899421528972,243.6506225690685 L 347.2227958113451,299.994941866922 L 254.85013694015964,156.3493774309315 Z" fill="none" stroke="rgb(104,203,126)" stroke-width="2.6957113215684636" opacity="0.37261990060879785"/>
  </g>
</svg>