<?xml version="1.0" encoding="UTF-8"?>
<svg xmlns="http://www.w3.org/2000/svg" viewBox="0 0 400 400" width="400" height="400">
  <rect width="100%" height="100%" fill="rgb(187,219,113)"/>
  <g transform="translate(18.346462370152395,1.2059340662805873)">
    <path d="M 193.8195816471922,108.42425864700294 L 249.73394949337606,119.72307370082746 L 281.9092390077189,132.10344142268752 L 231.32714468278812,142.70923702295244 L 255.0600022510274,153.2924914056709 L 227.6270317179442,164.73411316842345 L 208.2160281752041,182.15420488879738 L 112.53963445613417,198.70751076454167 L 236.19881672921554,211.24414749775949 L 215.5980247329783,227.84964842593203 L 240.17386795754174,237.65053218445254 L 186.93160137023892,249.02728041824082 L 250.2792226563077,257.4240475917607 L 188.9353189122205,270.0487448171113 L 106.34558525160296,278.3749619846319 L 140.7778810365703,288.989816460066 L 84.59031640595069,306.81890312760083 L 62.38400400150701,316.35888840329113 L -16.123935880156353,333.813030811686 L 10.69223579071555,350.4614217050157 L 91.19375535247721,360.30558697250905 L 94.55130702964416,373.63110458718984 L 109.7446045737731,384.7768120347727 L 128.3602472254273,397.60006414572126 L 152.21097756490815,407.79760321111263 L 187.64922545877977,415.9582289375157 L 127.66702455778051,425.9076508242569 L 158.99378053291778,438.5077528627608 L 222.3787703335757,448.5049805549987 L 132.52717515646748,459.8246706401082 L 96.73060220273766,474.49230953848064 L 164.42706487965722,488.8718383757368 L 168.35012762533313,501.5828856296344 L 172.36296297425656,510.25869122884257 L 110.5305478429768,526.9323458163946 L 180.90913912097432,544.3338892697617 L 233.73683385631873,559.2257348630326 L 193.72246214172338,575.3850308099004 L 167.77600663265218,589.7886205839957 L 228.49564879144913,601.9284877363762 L 257.92103022745425,611.8228041672521 L 226.25373445841777,420" fill="none" stroke="rgb(96,223,204)" stroke-width="2.9152963598656636" opacity="0.4395468755227001"/><path d="M 318.58127603090963,81.30105435413881 L 234.9121558918631,92.88143589228801 L 253.63151873752764,102.69201835871482 L 250.68578762444923,111.7689316420748 L 300.1480126412162,125.42625161477609 L 291.45810328496094,142.2916979113387 L 265.6459768832426,155.15956016584002 L 208.88657292735175,166.5570502366172 L 262.542368452777,184.00570392536702 L 209.42832462694966,195.90819089858817 L 274.8832315276742,213.47283165273893 L 225.58259412901114,227.37417655471523 L 259.8830940527017,236.54618631588377 L 166.86989790320376,252.21193446953694 L 186.68529583246956,270.0572598484549 L 207.58888754241144,283.3211075379813 L 284.54252097690227,291.925790262173 L 305.1567318952377,302.59318095294583 L 278.02064721282744,320.044129989201 L 291.8779118318108,336.01468224424394 L 282.301709273127,351.47919644039166 L 253.8524756239979,367.0860596572327 L 309.9604693913663,380.8331865836495 L 250.02047598100066,389.6649841326598 L 271.6916909044343,405.400969612185 L 264.7172670976327,420.3954351280784 L 282.8600844117786,433.02713756431143 L 349.1465208520245,450.98198295840064 L 361.326794302868,464.65504822768816 L 316.3357591611259,482.4841165942975 L 345.99047744262555,495.6638049888415 L 372.97776824203424,512.1494563303328 L 427.8253212401495,523.9422513400642 L 383.89081658594455,420" fill="none" stroke="rgb(96,223,204)" stroke-width="2.235876273575112" opacity="0.4710616899029938"/><path d="M 37.82308133167041,123.7502766542311 L 34.64655021788355,139.39964614400392 L 73.12382547234155,150.94959938268246 L -33.485578087935366,167.5523672561698 L 31.807961002037203,177.62260877578473 L 149.57128017194134,186.73162769018137 L 157.62854853418477,201.31042100913749 L 109.05892673581954,211.05086646578175 L 269.49976404182564,223.02447855686134 L 234.6002648281843,231.86419075986703 L 196.29599580543928,242.951629966446 L 246.8051890593078,257.75058890649296 L 145.2755305910576,273.9625137684933 L 136.6124548100124,285.60562570427066 L 288.5838773054168,296.280943049248 L 286.73243073290143,310.20237109827457 L 276.927003325436,323.74942343729896 L 220.46869833192997,338.9067888572545 L 185.51850207128473,355.42580828780575 L 111.85233273224523,366.02464617668846 L 162.17099038622052,377.53504833677175 L 222.88557286470734,390.72600272910154 L 282.6917752874085,407.91524924188417 L 255.50090127799615,425.7832421605412 L 257.87890941324423,440.30469838230744 L 367.34180967737643,451.30597751251753 L 409.58647762205436,461.11089261931596 L 293.147632470019,477.01786388258006 L 334.1023483589833,488.4076042921574 L 208.70120138475227,500.70423068869417 L 376.43667996054216,515.6311614605236 L 397.71300496489414,533.5325765557684 L 307.18829402913997,550.6443912148524 L 355.87132109815434,560.676850759085 L 299.12877833399796,576.189124872188 L 303.2885079265543,586.4470813007466 L 274.0628190219377,420" fill="none" stroke="rgb(96,223,204)" stroke-width="1.3733747597414052" opacity="0.8629674777340555"/><path d="M 44.41442245342087,58.44941204961623 L 59.023539387794074,67.27172074468223 L 47.037555346372145,82.3184710573039 L 63.53427138826843,97.42706973694843 L 157.05879624530257,114.50884278434728 L 40.292001527296044,125.81974271993063 L 61.292524335602636,136.8952103809152 L 104.79051653070016,154.07395601096022 L 14.832973429447065,169.51344134638663 L 85.90240778766301,178.00569264968212 L -9.58377536476652,187.6153249030299 L 51.66231199143715,200.80555683070207 L 42.91323292502932,211.23484781829768 L -32.45710134890972,223.27817024318452 L 101.40528025673335,236.5400903418458 L 16.750901576785097,249.68652325971112 L 114.30159302194201,259.0243074820838 L 130.25989258329318,275.6785182287323 L -24.640639892865597,289.5158242748181 L -14.123844998731656,304.063307191975 L -18.92985154335553,321.907957103385 L 78.98489676440865,334.99840662714513 L -14.261107029220746,349.30812492777886 L -7.4676894358005015,357.8099424199195 L 33.404541689248944,372.0654442421758 L -32.89628379724937,386.1477907639046 L 44.63814706763943,400.46152009529 L -16.496188146275898,416.37839165248124 L 80.82811661570724,432.49799978088845 L 65.02490394006547,441.1382794426995 L 92.18030823002564,457.7383094777279 L 182.8444162111456,471.8592883071211 L 242.72393708896007,487.29671882408377 L 245.13588957303972,502.2189892307223 L 369.17807130178977,519.7645865703937 L 342.1056505752267,533.4411973114384 L 388.8324829819734,541.5749955688032 L 347.8170495479488,556.1394599977352 L 319.0185834499209,570.0249409624 L 421.51822780830474,580.4588223937297 L 399.355064919954,597.525138382388 L 401.6628413358784,613.9966165733567 L 391.0924002249514,626.4331789003799 L 395.2421407187459,642.1493915934001 L 445.7086020838098,655.4259631361759 L 400,420" fill="none" stroke="rgb(96,223,204)" stroke-width="1.891820962469878" opacity="0.8817825702613691"/><path d="M 379.5616279557118,105.96299904031405 L 342.1384912188656,121.9383042270034 L 269.120651307451,134.32191717791795 L 358.5348419005075,147.35560377397866 L 396.01720783133885,157.48348736378614 L 360.844335685678,169.69835569948887 L 374.0103376982673,182.81785735151357 L 273.8218878577306,196.9073431969011 L 264.4276065369737,207.7495258474061 L 254.4571103105638,221.1648040099422 L 293.69406265755697,232.93340826810243 L 208.0248929228185,250.0737147247743 L 276.04567135833383,264.24306710044505 L 174.60622138961043,275.03666408648763 L 207.46707707883127,285.4126036399928 L 204.0411290529856,294.3312941655355 L 269.85082622177237,305.8608650387526 L 150.90657856446862,316.07195018355145 L 150.154025054319,329.2924075921761 L 111.82761995243348,345.4603568803019 L 132.87522864245983,362.40242778134996 L 94.76938616545395,372.9117748332656 L 18.97567994245898,389.68762884475814 L 98.52829861637152,400.308130483985 L 31.693459761151523,410.1234127805501 L -25.701685743048067,420.4938831293328 L -25.93741279543605,429.6232653463166 L 29.140303004079506,446.4403378858431 L -19.4217040803915,462.26386114022563 L 37.52653655123049,473.2828917970026 L 33.18885693734863,489.02300126730734 L 59.24483384554081,505.456887337141 L -27.253245506975897,517.555648689851 L 2.8301182889215823,528.9442968064781 L 44.68386885794092,546.4100218528918 L 52.27694091572987,563.427231487311 L -23.625188242544425,575.586754875409 L 25.651134808307024,588.0222852896893 L -37.82955060378672,602.3240823630399 L 28.4620745269108,612.8282982021932 L 56.54203596046695,630.3215367544118 L 111.27562191835668,640.6142720041044 L 67.55039189261132,420" fill="none" stroke="rgb(96,223,204)" stroke-width="2.556842144118503" opacity="0.4081140505499471"/><path d="M 339.6660158221005,86.893449933051 L 337.08362555193435,97.4778588629579 L 303.7509080512613,113.3316949247225 L 274.6854249135662,129.62385341194255 L 259.3356950890168,137.79488928516759 L 338.04138671672445,153.0514402005811 L 279.4071063659799,165.50841233824664 L 275.5145553787431,173.61334517196684 L 216.37526580556607,190.8179556569471 L 216.841035874569,207.12951977068988 L 175.82498454549554,217.89074035553068 L 172.31286177994153,227.9534192000299 L 117.55833744109185,240.05907424989869 L 212.78392818954003,253.03221676590127 L 153.31261547496314,262.80866346230124 L 99.91475620876913,280.79595458020816 L 169.79072740789485,292.57989294536264 L 179.96844439460048,303.3881911021153 L 143.1006706818352,315.5260992545803 L 239.99401125637362,324.070074962589 L 157.88999590921736,332.27581593445115 L 234.32927477321806,348.8568529780611 L 121.97182836225699,364.8263441780395 L 80.0788825652431,376.0844407591124 L 71.77594808160558,392.2164532585613 L 141.72126983553687,404.66237722943094 L 35.62519409703526,417.97016165726825 L 84.31337201956471,435.4171195810076 L 101.54941425050816,445.3120029581852 L -47.41182372135756,457.71618078705046 L 34.76004979001813,474.3728911819622 L 50.01702856136927,490.89807835932174 L 25.406967892110387,508.4202441203576 L 56.43269169289684,526.2173853297753 L 39.846168482979074,536.2674767100721 L -48.217932488671934,549.8138944514798 L -35.15179257326937,561.1591618466522 L 38.34686876698257,569.5823216836417 L -48.96209828306239,577.6281121668345 L 16.464272196133543,592.8422404988684 L -40.32495186850803,602.5537667105509 L 37.363633971822,611.6511395379067 L 0,420" fill="none" stroke="rgb(96,223,204)" stroke-width="2.374469879383806" opacity="0.3150614266973111"/><path d="M 326.2449362580754,149.90231152686744 L 317.51853065856045,166.72044826474803 L 237.54519159373092,180.4715139195944 L 241.70741999327242,197.9137458492683 L 294.5232439803384,207.58285790225878 L 255.73330662634413,219.76884322255415 L 307.7582204035965,231.18732939186535 L 379.8766493728604,241.99916148944774 L 303.1732457492179,257.8393307746212 L 403.0901769777336,268.50654028435304 L 275.8205418745349,277.38736069888165 L 352.62636130878417,289.3303828833622 L 353.08068787946377,298.78718675271404 L 246.08803879836722,310.18494600982336 L 324.25466422159326,325.8993196381115 L 294.3672043152996,342.9028002785599 L 344.74904175653194,357.4008486498593 L 385.732040083685,367.7937752826133 L 358.38123556652283,385.07039632564147 L 308.82148894821046,396.70710524838574 L 353.39093398814555,409.1499760215578 L 305.93080347546356,419.79717297864414 L 305.7643723214205,435.5600318200672 L 331.84334001134965,453.1751238689653 L 417.2414100169495,461.92117274095256 L 410.2866367718788,478.2954013489115 L 380.0800025402685,420" fill="none" stroke="rgb(96,223,204)" stroke-width="0.8497630565184797" opacity="0.3526148769489257"/><path d="M 139.83072915922708,79.62708682351666 L 69.6940351823798,88.36422856408487 L 129.5475855114243,106.03915229531847 L 10.700824332218858,121.19555596470751 L 40.83615240504926,129.44090590723678 L 84.41505448046681,144.488098542952 L 152.3495701850957,160.86193793079832 L 79.22190626342267,174.20206247378465 L 133.4246854525341,183.39592583665808 L 153.32444184795648,196.0847452647102 L 275.55256229805525,211.36589236179768 L 208.34854558118872,226.83097906189656 L 217.12825496180062,235.17405459758163 L 134.9673698709477,247.81599100887587 L 123.44446116077137,263.3710112248327 L 32.10966858310078,272.18605961059995 L 12.847799629773498,283.9332916836694 L 52.78782297901793,293.77547274390145 L 88.28889741721659,308.32619757712837 L 80.11129393932052,321.61697773219646 L -30.6818161810128,330.9874083728493 L -36.872530182032406,344.75938902353727 L 40.907715948052356,352.9207634914315 L -41.76395025139321,361.01279104707373 L 49.143934175022174,374.32117881696945 L 23.279301592803726,383.6724646867794 L 133.1443642771856,400.00222794021624 L 63.45863577349049,413.47079293009875 L 88.01027893784408,425.4916249272013 L -35.32560129367005,440.96017475969103 L -32.62046406113541,454.6528531537102 L -26.464794263283878,462.8608790800586 L -47.328372403278394,473.9994688842688 L -47.60800139476854,488.9501818438965 L 31.4975681606565,498.053541286019 L -35.02610616165811,512.505370041139 L 49.66267428102371,525.4573935496101 L -19.947477975226445,541.1065311408578 L -19.50298071678784,551.1626888524531 L 38.712561443484425,561.9148273796853 L 42.645072333529974,578.5768308994278 L 95.37292684565455,593.7110474287026 L 66.19809961760777,607.5769128973533 L 32.6307965467196,621.2050541576375 L 87.86855241066155,631.6739000562824 L 127.99741831002004,642.8533185286793 L 91.7408937195558,420" fill="none" stroke="rgb(96,223,204)" stroke-width="2.0549047580249873" opacity="0.49382757417760703"/>
  </g>
</svg>