<?xml version="1.0" encoding="UTF-8"?>
<svg xmlns="http://www.w3.org/2000/svg" viewBox="0 0 400 400" width="400" height="400">
  <rect width="100%" height="100%" fill="rgb(217,156,24)"/>
  <g transform="translate(-8.519684602187304,14.371360362065325)">
    <path d="M 138.9890437889549,11.117026019395063 L 121.30343228888287,53.46246655295221 L 131.0836942164919,11.664349363620648 L 135.15938148565775,59.685712581864465 L 60.7075186624401,7.065726973837098 L 136.70654117106645,62.25554496068463 Z" fill="none" stroke="rgb(198,114,162)" stroke-width="1.6434150619354864" opacity="0.4243518547400559"/><path d="M 312.5501684716155,354.76906970418423 L 324.03080593332453,339.3713076860195 L 378.8959522873842,367.66240491454886 L 325.57799373557316,339.9976511646105 L 342.6455995446695,340.39738492894236 L 315.3012184071582,316.98552184369623 L 337.2546366067137,337.3582065820261 L 335.39575562985215,335.21443024201943 Z" fill="none" stroke="rgb(198,114,162)" stroke-width="0.8059303438256145" opacity="0.4492241644363705"/><path d="M 97.78245327023681,163.62001485660636 L 95.64255194535716,157.77420790555277 L 101.4054008864576,113.89194495540784 L 50.553003150677526,119.44425399980537 L 41.123344315285934,113.50902986766275 Z" fill="none" stroke="rgb(198,114,162)" stroke-width="0.9961884454873516" opacity="0.5848269059790223"/><path d="M 97.40097435939549,353.4791520529858 L 36.82139498665171,351.837694955794 L 43.62943915259753,342.6787881000757 L 36.89686003265975,344.1998885564559 L 94.14664076269025,295.5669045320183 L 118.54019507646373,282.8693148131812 L 54.00330611358157,309.4840454844589 L 41.06158094093901,343.64089663497543 L 40.30555981911879,294.4728948214979 Z" fill="none" stroke="rgb(198,114,162)" stroke-width="1.2134036264150097" opacity="0.7977375809462018"/><path d="M 142.51336638922368,145.45268946302974 L 144.52531649981154,181.80670509791943 L 151.96414684227966,155.29546235895472 L 194.96049141847234,132.45454055363587 L 140.42184286284342,178.48712525293803 L 179.34364441406106,182.6946967318313 L 176.50143124288337,149.196310922649 L 172.2684949109235,171.55108978888788 L 176.09261498789348,151.00608499980922 Z" fill="none" stroke="rgb(198,114,162)" stroke-width="0.8020697880389003" opacity="0.5750073120617398"/><path d="M 256.1562709352371,343.327243930998 L 315.03055846216427,321.33744983530767 L 292.7745377167571,342.9704460529882 L 254.1498825904102,341.42737126813694 L 286.0650440065856,372.9524768231165 L 312.3872555034124,391.37607624017664 Z" fill="none" stroke="rgb(198,114,162)" stroke-width="2.6521854620603293" opacity="0.5603978145858122"/><path d="M 230.01856658746027,105.7254616196198 L 185.79563007008318,88.38686322896147 L 226.5996776364402,53.169957036517204 L 235.66526553536218,103.11355827651889 L 224.06940037756482,101.99047058497797 L 240.67523783332845,107.77775739188215 L 195.87010663177875,77.4429817499347 L 215.66201799208517,90.44971056687976 L 171.96848076872797,97.76401509825493 L 205.0481770771482,69.09880146918255 L 174.98586541524833,94.55599694809175 Z" fill="none" stroke="rgb(198,114,162)" stroke-width="0.8195948993401478" opacity="0.37622381453124115"/><path d="M 96.1457483059782,113.50187922205492 L 85.91235157594726,98.0578919306975 L 38.834759191243094,100.471347732365 L 79.75738916413238,56.851618186258406 L 52.62793155270826,68.51483684317098 L 88.08946754533929,55.40574475880597 L 90.6703104169285,98.93630996024248 L 96.2421515619672,101.3133894594126 L 87.85775517234396,95.99092074924043 Z" fill="none" stroke="rgb(198,114,162)" stroke-width="1.8709197754781364" opacity="0.8237690288003152"/>
  </g>
</svg>