<?xml version="1.0" encoding="UTF-8"?>
<svg xmlns="http://www.w3.org/2000/svg" viewBox="0 0 400 400" width="400" height="400">
  <rect width="100%" height="100%" fill="rgb(187,219,113)"/>
  <g transform="translate(11.028991835611087,-16.436891348344172)">
    <path d="M 231.42792216545277,210.71336032324336 A 26.716513600494235,26.716513600494235 0 0,0 254.58285504547774,168.67920746441328" fill="none" stroke="rgb(96,223,204)" stroke-width="2.8591178753142628" opacity="0.43548032135083725"/><path d="M 289.3926463768068,172.2703310533258 A 42.85270473844708,42.85270473844708 0 1,1 213.05528158778438,210.0983326174445" fill="none" stroke="rgb(96,223,204)" stroke-width="1.0495006844070143" opacity="0.333551270369664"/><path d="M 282.8809621546532,146.1649983495476 A 57.41001435912401,57.41001435912401 0 1,1 196.53742233033591,203.9920887927453" fill="none" stroke="rgb(96,223,204)" stroke-width="1.1132335631499992" opacity="0.33036501475196905"/><path d="M 153.84555343234427,224.8439353356684 A 40.54923089641605,40.54923089641605 0 0,0 199.94917613315397,164.24775113128916" fill="none" stroke="rgb(96,223,204)" stroke-width="1.3969530205222171" opacity="0.7761912398136291"/><path d="M 250.4151275078504,227.95860116788813 A 67.21413783586009,67.21413783586009 0 0,0 122.34421483497235,188.6423385542591" fill="none" stroke="rgb(96,223,204)" stroke-width="2.850385863341787" opacity="0.756643456929319"/><path d="M 255.87742631096498,258.1353560749715 A 87.44378654710977,87.44378654710977 0 1,1 257.26814672852913,149.61936043302106" fill="none" stroke="rgb(96,223,204)" stroke-width="2.123150962385596" opacity="0.838192521381447"/><path d="M 159.73315647216162,303.9476477682092 A 104.83381446216475,104.83381446216475 0 1,1 289.80525035135526,177.95267322898317" fill="none" stroke="rgb(96,223,204)" stroke-width="2.222961398317736" opacity="0.8445490245051543"/><path d="M 86.91218202431843,125.5891179778739 A 127.32812184849473,127.32812184849473 0 0,0 307.859200824303,245.98660766133264" fill="none" stroke="rgb(96,223,204)" stroke-width="2.7102817886971913" opacity="0.31227347329210897"/><path d="M 217.419984187698,238.9653845503179 A 44.05907782396573,44.05907782396573 0 0,0 173.36910479636273,164.62341030693682" fill="none" stroke="rgb(96,223,204)" stroke-width="2.0656727338755427" opacity="0.8140802108128014"/><path d="M 230.00384612400887,255.25955658514698 A 63.93167565008453,63.93167565008453 0 1,1 259.9444426592714,226.0941599366005" fill="none" stroke="rgb(96,223,204)" stroke-width="2.971723869224112" opacity="0.860628637214347"/><path d="M 279.3025674602625,158.5239199623403 A 85.79896282828457,85.79896282828457 0 1,0 158.3430317075904,124.02371243287573" fill="none" stroke="rgb(96,223,204)" stroke-width="2.539823986716967" opacity="0.3246038676297797"/><path d="M 302.67737590265926,160.84644042659866 A 106.34107785842171,106.34107785842171 0 1,0 245.98225683331228,100.2118014782368" fill="none" stroke="rgb(96,223,204)" stroke-width="1.3000335083490995" opacity="0.42929651427429455"/><path d="M 277.8174689761627,134.30989403561873 A 30.026885721483634,30.026885721483634 0 1,1 337.26203485237386,127.5806974372332" fill="none" stroke="rgb(96,223,204)" stroke-width="0.6307742433739043" opacity="0.5298826548986657"/><path d="M 321.0505894769803,166.088844861097 A 40.19507750429502,40.19507750429502 0 1,0 340.20963545414617,105.33999791126442" fill="none" stroke="rgb(96,223,204)" stroke-width="2.7476264332830618" opacity="0.3567126821351288"/><path d="M 183.22636229823215,235.8608294511861 A 49.03844285864021,49.03844285864021 0 0,0 268.99665756731224,204.98638138982184" fill="none" stroke="rgb(96,223,204)" stroke-width="0.6227096811380884" opacity="0.7579740891452913"/><path d="M 188.85846080994955,192.0290686697658 A 62.80623524279221,62.80623524279221 0 0,1 293.39661236485193,223.14995038200996" fill="none" stroke="rgb(96,223,204)" stroke-width="0.7162952798229961" opacity="0.5048605516449323"/><path d="M 319.2558720312447,238.20756331578096 A 87.02003687150928,87.02003687150928 0 1,1 152.83269234883883,201.85010631693117" fill="none" stroke="rgb(96,223,204)" stroke-width="1.0609067489058805" opacity="0.7818476940853347"/><path d="M 183.66027284455367,328.6954813960013 A 103.37454159903861,103.37454159903861 0 1,1 294.9128704137452,155.23754733268674" fill="none" stroke="rgb(96,223,204)" stroke-width="1.404469381821" opacity="0.7479141232372455"/><path d="M 74.40872562095387,117.42517734390859 A 23.27594451297537,23.27594451297537 0 0,0 118.1620332590623,105.67641879023245" fill="none" stroke="rgb(96,223,204)" stroke-width="2.002409272605291" opacity="0.42366115678011584"/><path d="M 68.39847318721453,115.51748432396029 A 29.300366018672904,29.300366018672904 0 0,1 106.17681443017645,88.68282317578291" fill="none" stroke="rgb(96,223,204)" stroke-width="1.740890953623749" opacity="0.6783143306871859"/><path d="M 60.58444679350849,109.0288712990076 A 37.87913160826808,37.87913160826808 0 0,1 134.801714490322,124.23004442746601" fill="none" stroke="rgb(96,223,204)" stroke-width="1.4300799244607862" opacity="0.49724836187412086"/><path d="M 77.5354235582511,163.6065025898862 A 51.02635739162303,51.02635739162303 0 0,1 53.44892809988821,91.26989150279688" fill="none" stroke="rgb(96,223,204)" stroke-width="2.598497175540534" opacity="0.5148228922889515"/><path d="M 40.53275569464857,121.15318013717243 A 57.312830822581674,57.312830822581674 0 1,0 89.38947273523752,173.43324153214454" fill="none" stroke="rgb(96,223,204)" stroke-width="2.698758979475487" opacity="0.3623434884980693"/><path d="M 161.23391233231803,270.6670815852303 A 33.854701393995065,33.854701393995065 0 1,1 210.75679305950163,286.5131447583024" fill="none" stroke="rgb(96,223,204)" stroke-width="1.0111112479317605" opacity="0.6000265066219364"/><path d="M 222.8575776428339,218.8836255369882 A 49.4006547632845,49.4006547632845 0 1,1 176.9909470221611,211.06814703287887" fill="none" stroke="rgb(96,223,204)" stroke-width="2.2439524148212415" opacity="0.48888905732347543"/><path d="M 42.726522564767784,101.38674907247025 A 39.51163894848299,39.51163894848299 0 1,1 53.40112561466012,178.48873069358152" fill="none" stroke="rgb(96,223,204)" stroke-width="1.5301352302791615" opacity="0.7927378803605699"/><path d="M 111.32847418477357,111.71293891573944 A 62.75403056492939,62.75403056492939 0 1,0 72.80259254497228,78.88056804309304" fill="none" stroke="rgb(96,223,204)" stroke-width="0.7692283208399976" opacity="0.45621894002570607"/><path d="M -23.08088667542941,129.58886629045298 A 78.46638700990775,78.46638700990775 0 0,0 85.93644792716793,66.97014948738118" fill="none" stroke="rgb(96,223,204)" stroke-width="0.844181719883814" opacity="0.33996794327675695"/><path d="M 60.950751810422865,43.639573771294664 A 95.55990252374377,95.55990252374377 0 1,1 -0.4972758353460449,216.92447907821924" fill="none" stroke="rgb(96,223,204)" stroke-width="1.3262470491035079" opacity="0.689707441443546"/><path d="M 299.2873879890564,241.3641400645289 A 26.29902003220947,26.29902003220947 0 1,1 327.44584813145616,216.73724767943722" fill="none" stroke="rgb(96,223,204)" stroke-width="0.8580386233996069" opacity="0.6999081479051776"/><path d="M 315.94621770705186,185.5164496989851 A 33.08780978453465,33.08780978453465 0 1,1 289.17016215311247,184.30930841166423" fill="none" stroke="rgb(96,223,204)" stroke-width="2.479082223616545" opacity="0.34948566058223524"/><path d="M 271.1443648710249,179.7454184144333 A 46.4270079319698,46.4270079319698 0 0,1 347.59071946234155,213.41089681675058" fill="none" stroke="rgb(96,223,204)" stroke-width="2.9076623608018437" opacity="0.43413090953187294"/><path d="M 343.99939777783646,180.56665794270475 A 55.01897282568075,55.01897282568075 0 1,0 254.122373040649,186.65308845391957" fill="none" stroke="rgb(96,223,204)" stroke-width="2.502420602522164" opacity="0.5855786717837432"/><path d="M 370.56197174295664,218.3088867332366 A 69.43885534600972,69.43885534600972 0 0,1 279.23822564978025,281.0102652636066" fill="none" stroke="rgb(96,223,204)" stroke-width="1.004030831458643" opacity="0.7551939651813888"/>
  </g>
</svg>