<?xml version="1.0" encoding="UTF-8"?>
<svg xmlns="http://www.w3.org/2000/svg" viewBox="0 0 400 400" width="400" height="400">
  <rect width="100%" height="100%" fill="rgb(176,108,76)"/>
  <g transform="translate(17.684542506276074,17.010381786287404)">
    <path d="M 343.3648584124014,232.85882360356675 L 363.02451622591724,317.0592579540599" fill="none" stroke="rgb(189,100,183)" stroke-width="1.63111810998358" opacity="0.7549813153248905"/><path d="M 343.3648584124014,232.85882360356675 L 379.6545247011656,237.400258613057" fill="none" stroke="rgb(189,100,183)" stroke-width="1.953095647033581" opacity="0.35953011416209546"/><path d="M 343.3648584124014,232.85882360356675 L 332.0918383266148,270.45437222012447" fill="none" stroke="rgb(189,100,183)" stroke-width="2.958317783030447" opacity="0.8384118236876223"/><path d="M 343.3648584124014,232.85882360356675 L 368.55271643322664,283.42540330864506" fill="none" stroke="rgb(189,100,183)" stroke-width="2.8810946018332744" opacity="0.30644162101492356"/><path d="M 343.3648584124014,232.85882360356675 L 321.1858021024219,262.6982854603107" fill="none" stroke="rgb(189,100,183)" stroke-width="2.175064330336265" opacity="0.5873564849799748"/><path d="M 343.3648584124014,232.85882360356675 L 318.0477237766255,229.1190305510777" fill="none" stroke="rgb(189,100,183)" stroke-width="2.8836628282528083" opacity="0.6681605012112459"/><path d="M 173.22510636916653,290.8376444012897 L 188.79525394706963,248.6245542094975" fill="none" stroke="rgb(189,100,183)" stroke-width="1.6861085867954109" opacity="0.34601083116457454"/><path d="M 173.22510636916653,290.8376444012897 L 157.85004154472594,283.14689248963566" fill="none" stroke="rgb(189,100,183)" stroke-width="1.6124396375312382" opacity="0.7708373210335426"/><path d="M 165.07071236410374,114.44142051624642 L 199.1215218013775,87.7257708109425" fill="none" stroke="rgb(189,100,183)" stroke-width="2.888200688970445" opacity="0.7920615945088498"/><path d="M 165.07071236410374,114.44142051624642 L 99.24795522851467,63.40432129508563" fill="none" stroke="rgb(189,100,183)" stroke-width="0.6997470060844342" opacity="0.5627871618600868"/><path d="M 270.80015756649686,193.81006995741222 L 321.1858021024219,262.6982854603107" fill="none" stroke="rgb(189,100,183)" stroke-width="1.2457066018604959" opacity="0.6231594112919763"/><path d="M 270.80015756649686,193.81006995741222 L 318.0477237766255,229.1190305510777" fill="none" stroke="rgb(189,100,183)" stroke-width="1.4983811639085802" opacity="0.4663722415793883"/><path d="M 188.79525394706963,248.6245542094975 L 157.85004154472594,283.14689248963566" fill="none" stroke="rgb(189,100,183)" stroke-width="2.1889875669345327" opacity="0.6269406542765585"/><path d="M 363.02451622591724,317.0592579540599 L 332.0918383266148,270.45437222012447" fill="none" stroke="rgb(189,100,183)" stroke-width="2.8075037432759506" opacity="0.8185737112349085"/><path d="M 363.02451622591724,317.0592579540599 L 355.4042795682847,328.8690471551739" fill="none" stroke="rgb(189,100,183)" stroke-width="1.964395383910616" opacity="0.38056859555338796"/><path d="M 363.02451622591724,317.0592579540599 L 368.55271643322664,283.42540330864506" fill="none" stroke="rgb(189,100,183)" stroke-width="2.081008551252755" opacity="0.646232698639247"/><path d="M 379.6545247011656,237.400258613057 L 308.3018209866696,235.67699188660424" fill="none" stroke="rgb(189,100,183)" stroke-width="2.9349893063008246" opacity="0.6750634036391512"/><path d="M 379.6545247011656,237.400258613057 L 368.55271643322664,283.42540330864506" fill="none" stroke="rgb(189,100,183)" stroke-width="1.3458834953031247" opacity="0.6246711529154589"/><path d="M 379.6545247011656,237.400258613057 L 321.1858021024219,262.6982854603107" fill="none" stroke="rgb(189,100,183)" stroke-width="1.2029855400274476" opacity="0.6531726506038593"/><path d="M 379.6545247011656,237.400258613057 L 318.0477237766255,229.1190305510777" fill="none" stroke="rgb(189,100,183)" stroke-width="2.4218077079557503" opacity="0.5670787939776876"/><path d="M 332.0918383266148,270.45437222012447 L 355.4042795682847,328.8690471551739" fill="none" stroke="rgb(189,100,183)" stroke-width="1.1763229812964664" opacity="0.8944491034010185"/><path d="M 332.0918383266148,270.45437222012447 L 308.3018209866696,235.67699188660424" fill="none" stroke="rgb(189,100,183)" stroke-width="1.9519674687761255" opacity="0.520802528459775"/><path d="M 332.0918383266148,270.45437222012447 L 321.1858021024219,262.6982854603107" fill="none" stroke="rgb(189,100,183)" stroke-width="1.4206270905336043" opacity="0.7749290583368404"/><path d="M 332.0918383266148,270.45437222012447 L 289.09306058544877,330.3014185676894" fill="none" stroke="rgb(189,100,183)" stroke-width="1.0742805671657498" opacity="0.6574039686259128"/><path d="M 332.0918383266148,270.45437222012447 L 318.0477237766255,229.1190305510777" fill="none" stroke="rgb(189,100,183)" stroke-width="1.666161329810174" opacity="0.5622227738439266"/><path d="M 355.4042795682847,328.8690471551739 L 321.1858021024219,262.6982854603107" fill="none" stroke="rgb(189,100,183)" stroke-width="1.675706804539466" opacity="0.36269597255605956"/><path d="M 355.4042795682847,328.8690471551739 L 289.09306058544877,330.3014185676894" fill="none" stroke="rgb(189,100,183)" stroke-width="0.548385750203338" opacity="0.7608664004193368"/><path d="M 308.3018209866696,235.67699188660424 L 321.1858021024219,262.6982854603107" fill="none" stroke="rgb(189,100,183)" stroke-width="2.876190247445146" opacity="0.7308800658503662"/><path d="M 308.3018209866696,235.67699188660424 L 318.0477237766255,229.1190305510777" fill="none" stroke="rgb(189,100,183)" stroke-width="2.3627872328912316" opacity="0.8880426922892943"/><path d="M 368.55271643322664,283.42540330864506 L 321.1858021024219,262.6982854603107" fill="none" stroke="rgb(189,100,183)" stroke-width="1.6219537352187872" opacity="0.796399986262199"/><path d="M 321.1858021024219,262.6982854603107 L 318.0477237766255,229.1190305510777" fill="none" stroke="rgb(189,100,183)" stroke-width="1.9169136555796236" opacity="0.8340471784492591"/><path d="M 157.85004154472594,283.14689248963566 L 91.313943072568,231.36193124901317" fill="none" stroke="rgb(189,100,183)" stroke-width="2.9077794048612495" opacity="0.5529445470018529"/><path d="M 289.09306058544877,330.3014185676894 L 261.339397206856,333.99235701854633" fill="none" stroke="rgb(189,100,183)" stroke-width="1.8892951641923792" opacity="0.5274134161662933"/><path d="M 99.24795522851467,63.40432129508563 L 62.38166521088133,27.617189788267122" fill="none" stroke="rgb(189,100,183)" stroke-width="0.8180146468193734" opacity="0.5806588921862743"/><path d="M 344.67342420740806,232.85882360356675 m -1.308565795006655,0 a 1.308565795006655,1.308565795006655 0 1,1 2.61713159001331,0 a 1.308565795006655,1.308565795006655 0 1,1 -2.61713159001331,0" fill="none" stroke="rgb(189,100,183)" stroke-width="2.734007372109173" opacity="0.7147960011252383"/><path d="M 176.03916965097133,290.8376444012897 m -2.814063281804814,0 a 2.814063281804814,2.814063281804814 0 1,1 5.628126563609628,0 a 2.814063281804814,2.814063281804814 0 1,1 -5.628126563609628,0" fill="none" stroke="rgb(189,100,183)" stroke-width="1.8698444542762305" opacity="0.4523564737359176"/><path d="M 167.35411931227551,114.44142051624642 m -2.283406948171774,0 a 2.283406948171774,2.283406948171774 0 1,1 4.566813896343548,0 a 2.283406948171774,2.283406948171774 0 1,1 -4.566813896343548,0" fill="none" stroke="rgb(189,100,183)" stroke-width="0.7818227946239813" opacity="0.8438157262148935"/><path d="M 272.569644315335,193.81006995741222 m -1.7694867488381014,0 a 1.7694867488381014,1.7694867488381014 0 1,1 3.538973497676203,0 a 1.7694867488381014,1.7694867488381014 0 1,1 -3.538973497676203,0" fill="none" stroke="rgb(189,100,183)" stroke-width="0.647622103484176" opacity="0.35535932327625513"/><path d="M 192.40745646344237,248.6245542094975 m -3.6122025163727596,0 a 3.6122025163727596,3.6122025163727596 0 1,1 7.224405032745519,0 a 3.6122025163727596,3.6122025163727596 0 1,1 -7.224405032745519,0" fill="none" stroke="rgb(189,100,183)" stroke-width="2.0247955834266103" opacity="0.4609894759526555"/><path d="M 366.5600710492767,317.0592579540599 m -3.5355548233594685,0 a 3.5355548233594685,3.5355548233594685 0 1,1 7.071109646718937,0 a 3.5355548233594685,3.5355548233594685 0 1,1 -7.071109646718937,0" fill="none" stroke="rgb(189,100,183)" stroke-width="2.5500869825391583" opacity="0.44726712797842716"/><path d="M 383.13178515924244,237.400258613057 m -3.4772604580768585,0 a 3.4772604580768585,3.4772604580768585 0 1,1 6.954520916153717,0 a 3.4772604580768585,3.4772604580768585 0 1,1 -6.954520916153717,0" fill="none" stroke="rgb(189,100,183)" stroke-width="1.2139095908393853" opacity="0.6098442759300842"/><path d="M 336.0209888160248,270.45437222012447 m -3.9291504894100244,0 a 3.9291504894100244,3.9291504894100244 0 1,1 7.858300978820049,0 a 3.9291504894100244,3.9291504894100244 0 1,1 -7.858300978820049,0" fill="none" stroke="rgb(189,100,183)" stroke-width="1.7012691876818287" opacity="0.6666548925919058"/><path d="M 28.606362941817146,348.4782585523035 m -2.823738708719663,0 a 2.823738708719663,2.823738708719663 0 1,1 5.647477417439326,0 a 2.823738708719663,2.823738708719663 0 1,1 -5.647477417439326,0" fill="none" stroke="rgb(189,100,183)" stroke-width="0.5550829233220909" opacity="0.3873286711806913"/><path d="M 358.7950273628121,328.8690471551739 m -3.3907477945273614,0 a 3.3907477945273614,3.3907477945273614 0 1,1 6.781495589054723,0 a 3.3907477945273614,3.3907477945273614 0 1,1 -6.781495589054723,0" fill="none" stroke="rgb(189,100,183)" stroke-width="2.6217655273670424" opacity="0.42338966569373493"/><path d="M 202.61632996441426,87.7257708109425 m -3.4948081630367733,0 a 3.4948081630367733,3.4948081630367733 0 1,1 6.989616326073547,0 a 3.4948081630367733,3.4948081630367733 0 1,1 -6.989616326073547,0" fill="none" stroke="rgb(189,100,183)" stroke-width="1.2293915793823529" opacity="0.4350868584989688"/><path d="M 312.12720446476806,235.67699188660424 m -3.8253834780984373,0 a 3.8253834780984373,3.8253834780984373 0 1,1 7.6507669561968745,0 a 3.8253834780984373,3.8253834780984373 0 1,1 -7.6507669561968745,0" fill="none" stroke="rgb(189,100,183)" stroke-width="1.0966549845761784" opacity="0.697213289290542"/><path d="M 369.7964615194679,283.42540330864506 m -1.243745086241315,0 a 1.243745086241315,1.243745086241315 0 1,1 2.48749017248263,0 a 1.243745086241315,1.243745086241315 0 1,1 -2.48749017248263,0" fill="none" stroke="rgb(189,100,183)" stroke-width="2.9271332478153775" opacity="0.8919651132879802"/><path d="M 332.10250263458926,128.1151167357594 m -2.9553024106935375,0 a 2.9553024106935375,2.9553024106935375 0 1,1 5.910604821387075,0 a 2.9553024106935375,2.9553024106935375 0 1,1 -5.910604821387075,0" fill="none" stroke="rgb(189,100,183)" stroke-width="2.032427174826161" opacity="0.4658296869113443"/><path d="M 325.03793133755096,262.6982854603107 m -3.8521292351290617,0 a 3.8521292351290617,3.8521292351290617 0 1,1 7.704258470258123,0 a 3.8521292351290617,3.8521292351290617 0 1,1 -7.704258470258123,0" fill="none" stroke="rgb(189,100,183)" stroke-width="0.7765602462811743" opacity="0.8952259282040158"/><path d="M 159.78052643671296,283.14689248963566 m -1.9304848919870339,0 a 1.9304848919870339,1.9304848919870339 0 1,1 3.8609697839740678,0 a 1.9304848919870339,1.9304848919870339 0 1,1 -3.8609697839740678,0" fill="none" stroke="rgb(189,100,183)" stroke-width="0.5976975319706088" opacity="0.4176903040999405"/><path d="M 291.1077386868944,330.3014185676894 m -2.0146781014456248,0 a 2.0146781014456248,2.0146781014456248 0 1,1 4.0293562028912495,0 a 2.0146781014456248,2.0146781014456248 0 1,1 -4.0293562028912495,0" fill="none" stroke="rgb(189,100,183)" stroke-width="2.4944801945260777" opacity="0.3585270530193934"/><path d="M 94.2323846638185,231.36193124901317 m -2.9184415912504917,0 a 2.9184415912504917,2.9184415912504917 0 1,1 5.8368831825009835,0 a 2.9184415912504917,2.9184415912504917 0 1,1 -5.8368831825009835,0" fill="none" stroke="rgb(189,100,183)" stroke-width="2.9899244157902696" opacity="0.6449106889937861"/><path d="M 319.2738488310448,229.1190305510777 m -1.2261250544192723,0 a 1.2261250544192723,1.2261250544192723 0 1,1 2.4522501088385447,0 a 1.2261250544192723,1.2261250544192723 0 1,1 -2.4522501088385447,0" fill="none" stroke="rgb(189,100,183)" stroke-width="2.0922967079380923" opacity="0.7090454610175134"/><path d="M 103.05819341783375,63.40432129508563 m -3.8102381893190778,0 a 3.8102381893190778,3.8102381893190778 0 1,1 7.6204763786381555,0 a 3.8102381893190778,3.8102381893190778 0 1,1 -7.6204763786381555,0" fill="none" stroke="rgb(189,100,183)" stroke-width="0.9062906928269366" opacity="0.591020327171909"/><path d="M 262.96927076117925,333.99235701854633 m -1.6298735543232248,0 a 1.6298735543232248,1.6298735543232248 0 1,1 3.2597471086464496,0 a 1.6298735543232248,1.6298735543232248 0 1,1 -3.2597471086464496,0" fill="none" stroke="rgb(189,100,183)" stroke-width="2.187725488206352" opacity="0.6585187870480737"/><path d="M 63.86901767975174,27.617189788267122 m -1.4873524688704147,0 a 1.4873524688704147,1.4873524688704147 0 1,1 2.9747049377408294,0 a 1.4873524688704147,1.4873524688704147 0 1,1 -2.9747049377408294,0" fill="none" stroke="rgb(189,100,183)" stroke-width="1.529839614739462" opacity="0.4191647623214868"/>
  </g>
</svg>