<?xml version="1.0" encoding="UTF-8"?>
<svg xmlns="http://www.w3.org/2000/svg" viewBox="0 0 400 400" width="400" height="400">
  <rect width="100%" height="100%" fill="rgb(217,156,24)"/>
  <g transform="translate(12.023026186812125,-19.923358170140993)">
    <path d="M 282.44238581212267,163.7998640227644 L 261.6830424129123,217.3799014888675 L 306.71674427679636,188.18308524617217 L 45.47850473801037,241.3106419879341 L 232.48445004289863,180.52444873577934 L 297.82347559030995,158.5908154982393 L 199.42029522579514,200.09819797816695 L 97.41499554704997,193.63486102480775 L 302.58500445295005,193.63486102480775 L 200.57970477420486,200.09819797816695 L 102.17652440969005,158.5908154982393 L 167.51554995710137,180.52444873577934 L 354.5214952619896,241.3106419879341 L 93.28325572320364,188.18308524617217 L 138.3169575870877,217.3799014888675 L 117.55761418787733,163.7998640227644 Z" fill="none" stroke="rgb(198,114,162)" stroke-width="2.206174474220011" opacity="0.32802965583753885"/><path d="M 315.7652911080109,217.79756446934383 L 176.88578486242528,192.58639872211901 L 331.8124377223306,128.15032753066592 L 209.87930956851793,203.76672093922053 L 265.7929494077399,175.74639911958081 L 289.7075708285472,188.12922945345954 L 57.87605473733811,260.7827491454785 L 261.1348709531008,199.9394731757632 L 187.1705931036302,195.56737600331715 L 72.57751420061967,231.83971573852625 L 338.7171153188366,155.03338181065038 L 162.40811268242243,187.0730149690757 L 134.21361579930846,197.6063724476983 L 277.43056183353906,220.28499438566234 L 122.56943816646094,220.28499438566234 L 265.78638420069154,197.6063724476983 L 237.59188731757757,187.0730149690757 L 61.28288468116341,155.03338181065038 L 327.4224857993803,231.83971573852625 L 212.8294068963698,195.56737600331715 L 138.8651290468992,199.9394731757632 L 342.1239452626619,260.7827491454785 L 110.2924291714528,188.12922945345954 L 134.2070505922601,175.74639911958081 L 190.12069043148207,203.76672093922053 L 68.18756227766937,128.15032753066592 L 223.11421513757472,192.58639872211901 L 84.2347088919891,217.79756446934383 Z" fill="none" stroke="rgb(198,114,162)" stroke-width="2.9373369504065496" opacity="0.5911224311977425"/><path d="M 301.11856211206367,229.43128624423446 L 81.67247713575576,187.14598616270482 L 306.68660832120577,146.77080728084013 L 167.88817171191397,198.8388613287804 L 129.81755536956166,207.7232831004161 L 274.4844650705843,169.8822787523958 L 177.1263401170262,198.81058342834723 L 381.7117191108888,177.9473765453487 L 61.31035268857403,207.47863433452196 L 115.33406986029196,186.38071712053213 L 160.69077251226102,190.73679950734248 L 352.5175405016751,216.93403934079845 L 141.686037602948,223.6943869033612 L 377.7205990848113,207.0770048141922 L 181.96979513682015,200.9186811994577 L 317.6671225868882,221.7582599191347 L 82.33287741311182,221.7582599191347 L 218.03020486317985,200.9186811994577 L 22.279400915188717,207.0770048141922 L 258.313962397052,223.6943869033612 L 47.482459498324886,216.93403934079845 L 239.30922748773898,190.73679950734248 L 284.66593013970805,186.38071712053213 L 338.689647311426,207.47863433452196 L 18.288280889111206,177.9473765453487 L 222.8736598829738,198.81058342834723 L 125.51553492941571,169.8822787523958 L 270.18244463043834,207.7232831004161 L 232.11182828808603,198.8388613287804 L 93.31339167879423,146.77080728084013 L 318.32752286424426,187.14598616270482 L 98.88143788793633,229.43128624423446 Z" fill="none" stroke="rgb(198,114,162)" stroke-width="0.6863720659808216" opacity="0.7780911190407847"/>
  </g>
</svg>