<?xml version="1.0" encoding="UTF-8"?>
<svg xmlns="http://www.w3.org/2000/svg" viewBox="0 0 400 400" width="400" height="400">
  <rect width="100%" height="100%" fill="rgb(42,71,156)"/>
  <g transform="translate(-15.342668193904556,5.146725372812497)">
    <path d="M 394.04044351660826,94.04573522122462 m -2.3837920072192604,0 a 2.3837920072192604,2.3837920072192604 0 1,1 4.767584014438521,0 a 2.3837920072192604,2.3837920072192604 0 1,1 -4.767584014438521,0" fill="rgb(138,157,62)" fill-opacity="0.8249962451187385" stroke="none"/><path d="M 341.9848814562936,52.741801370203 m -1.1273123878260287,0 a 1.1273123878260287,1.1273123878260287 0 1,1 2.2546247756520574,0 a 1.1273123878260287,1.1273123878260287 0 1,1 -2.2546247756520574,0" fill="rgb(138,157,62)" fill-opacity="0.7259788575295512" stroke="none"/><path d="M 354.0134538342708,90.1480270339963 m -1.5472790280764612,0 a 1.5472790280764612,1.5472790280764612 0 1,1 3.0945580561529225,0 a 1.5472790280764612,1.5472790280764612 0 1,1 -3.0945580561529225,0" fill="rgb(138,157,62)" fill-opacity="0.8171761398095294" stroke="none"/><path d="M 360.94995375305996,92.36637373445085 m -1.546729846357914,0 a 1.546729846357914,1.546729846357914 0 1,1 3.093459692715828,0 a 1.546729846357914,1.546729846357914 0 1,1 -3.093459692715828,0" fill="rgb(138,157,62)" fill-opacity="0.7570345703307864" stroke="none"/><path d="M 286.90660063480385,79.98372818497374 m -2.1870887119648197,0 a 2.1870887119648197,2.1870887119648197 0 1,1 4.374177423929639,0 a 2.1870887119648197,2.1870887119648197 0 1,1 -4.374177423929639,0" fill="rgb(138,157,62)" fill-opacity="0.4901297558622474" stroke="none"/><path d="M 299.2140638377313,92.2153939307246 m -1.4523102249709403,0 a 1.4523102249709403,1.4523102249709403 0 1,1 2.9046204499418806,0 a 1.4523102249709403,1.4523102249709403 0 1,1 -2.9046204499418806,0" fill="rgb(138,157,62)" fill-opacity="0.8170586303831778" stroke="none"/><path d="M 374.0928705903387,128.19297082669826 m -1.85092969145562,0 a 1.85092969145562,1.85092969145562 0 1,1 3.70185938291124,0 a 1.85092969145562,1.85092969145562 0 1,1 -3.70185938291124,0" fill="rgb(138,157,62)" fill-opacity="0.8005253177422136" stroke="none"/><path d="M 357.5880374707743,109.58869129390962 m -0.8752120854490094,0 a 0.8752120854490094,0.8752120854490094 0 1,1 1.7504241708980188,0 a 0.8752120854490094,0.8752120854490094 0 1,1 -1.7504241708980188,0" fill="rgb(138,157,62)" fill-opacity="0.4367176037689767" stroke="none"/><path d="M 364.2439966442675,93.03599640360511 m -1.7149758532947548,0 a 1.7149758532947548,1.7149758532947548 0 1,1 3.4299517065895095,0 a 1.7149758532947548,1.7149758532947548 0 1,1 -3.4299517065895095,0" fill="rgb(138,157,62)" fill-opacity="0.6314437638721433" stroke="none"/><path d="M 328.50352801625115,85.5527786614143 m -1.8174276173868367,0 a 1.8174276173868367,1.8174276173868367 0 1,1 3.6348552347736733,0 a 1.8174276173868367,1.8174276173868367 0 1,1 -3.6348552347736733,0" fill="rgb(138,157,62)" fill-opacity="0.6723850902132744" stroke="none"/><path d="M 390.27280400764585,76.85704582193205 m -0.8875573960885156,0 a 0.8875573960885156,0.8875573960885156 0 1,1 1.7751147921770312,0 a 0.8875573960885156,0.8875573960885156 0 1,1 -1.7751147921770312,0" fill="rgb(138,157,62)" fill-opacity="0.8541272667668975" stroke="none"/><path d="M 317.70302285328086,102.71985341583125 m -2.0248077073835185,0 a 2.0248077073835185,2.0248077073835185 0 1,1 4.049615414767037,0 a 2.0248077073835185,2.0248077073835185 0 1,1 -4.049615414767037,0" fill="rgb(138,157,62)" fill-opacity="0.43506090170947803" stroke="none"/><path d="M 306.8792286779093,89.70430384528336 m -1.364679010341772,0 a 1.364679010341772,1.364679010341772 0 1,1 2.729358020683544,0 a 1.364679010341772,1.364679010341772 0 1,1 -2.729358020683544,0" fill="rgb(138,157,62)" fill-opacity="0.5334360921629677" stroke="none"/><path d="M 353.3147409455032,111.02281799254824 m -1.9657175641962463,0 a 1.9657175641962463,1.9657175641962463 0 1,1 3.9314351283924927,0 a 1.9657175641962463,1.9657175641962463 0 1,1 -3.9314351283924927,0" fill="rgb(138,157,62)" fill-opacity="0.732828008357987" stroke="none"/><path d="M 344.00636229262,111.9702115843395 m -1.0531242929973061,0 a 1.0531242929973061,1.0531242929973061 0 1,1 2.1062485859946123,0 a 1.0531242929973061,1.0531242929973061 0 1,1 -2.1062485859946123,0" fill="rgb(138,157,62)" fill-opacity="0.5135856229389495" stroke="none"/><path d="M 356.2684187665772,99.4458158896163 m -1.4079934507967904,0 a 1.4079934507967904,1.4079934507967904 0 1,1 2.815986901593581,0 a 1.4079934507967904,1.4079934507967904 0 1,1 -2.815986901593581,0" fill="rgb(138,157,62)" fill-opacity="0.7753124724858391" stroke="none"/><path d="M 350.13060402126564,61.72666115438169 m -3.3952325722926417,0 a 3.3952325722926417,3.3952325722926417 0 1,1 6.7904651445852835,0 a 3.3952325722926417,3.3952325722926417 0 1,1 -6.7904651445852835,0" fill="rgb(138,157,62)" fill-opacity="0.41680031151961927" stroke="none"/><path d="M 325.84623547015957,67.00785216565176 m -2.6180349054774124,0 a 2.6180349054774124,2.6180349054774124 0 1,1 5.236069810954825,0 a 2.6180349054774124,2.6180349054774124 0 1,1 -5.236069810954825,0" fill="rgb(138,157,62)" fill-opacity="0.6474647465027874" stroke="none"/><path d="M 278.184644664145,106.11730207988204 m -0.8384872489730548,0 a 0.8384872489730548,0.8384872489730548 0 1,1 1.6769744979461096,0 a 0.8384872489730548,0.8384872489730548 0 1,1 -1.6769744979461096,0" fill="rgb(138,157,62)" fill-opacity="0.4058076599482174" stroke="none"/><path d="M 102.3830794926777,103.06334128761429 m -3.1538417789992588,0 a 3.1538417789992588,3.1538417789992588 0 1,1 6.3076835579985175,0 a 3.1538417789992588,3.1538417789992588 0 1,1 -6.3076835579985175,0" fill="rgb(138,157,62)" fill-opacity="0.5194506110082989" stroke="none"/><path d="M 63.15202661388406,141.91460839913324 m -1.3078365769283216,0 a 1.3078365769283216,1.3078365769283216 0 1,1 2.615673153856643,0 a 1.3078365769283216,1.3078365769283216 0 1,1 -2.615673153856643,0" fill="rgb(138,157,62)" fill-opacity="0.42953817662182203" stroke="none"/><path d="M 92.02944213717251,100.18676756555602 m -2.567714123355122,0 a 2.567714123355122,2.567714123355122 0 1,1 5.135428246710244,0 a 2.567714123355122,2.567714123355122 0 1,1 -5.135428246710244,0" fill="rgb(138,157,62)" fill-opacity="0.6644802806277212" stroke="none"/><path d="M 105.15016546590623,136.98460945233123 m -2.9423489130791625,0 a 2.9423489130791625,2.9423489130791625 0 1,1 5.884697826158325,0 a 2.9423489130791625,2.9423489130791625 0 1,1 -5.884697826158325,0" fill="rgb(138,157,62)" fill-opacity="0.8548549553069023" stroke="none"/><path d="M 72.70277058670196,144.2007371789429 m -1.5383914267171028,0 a 1.5383914267171028,1.5383914267171028 0 1,1 3.0767828534342057,0 a 1.5383914267171028,1.5383914267171028 0 1,1 -3.0767828534342057,0" fill="rgb(138,157,62)" fill-opacity="0.5609308239495788" stroke="none"/><path d="M 66.93262497870936,122.06560882377299 m -2.1065042053473,0 a 2.1065042053473,2.1065042053473 0 1,1 4.2130084106946,0 a 2.1065042053473,2.1065042053473 0 1,1 -4.2130084106946,0" fill="rgb(138,157,62)" fill-opacity="0.7842015880752177" stroke="none"/><path d="M 66.50765040093027,115.11072661738629 m -1.9013961770010483,0 a 1.9013961770010483,1.9013961770010483 0 1,1 3.8027923540020967,0 a 1.9013961770010483,1.9013961770010483 0 1,1 -3.8027923540020967,0" fill="rgb(138,157,62)" fill-opacity="0.5505517698482707" stroke="none"/><path d="M 101.34987026735834,148.05206730481262 m -3.4045113217690117,0 a 3.4045113217690117,3.4045113217690117 0 1,1 6.8090226435380234,0 a 3.4045113217690117,3.4045113217690117 0 1,1 -6.8090226435380234,0" fill="rgb(138,157,62)" fill-opacity="0.6049629816575753" stroke="none"/><path d="M 82.53926652221669,107.43628638079893 m -2.6255261785685367,0 a 2.6255261785685367,2.6255261785685367 0 1,1 5.251052357137073,0 a 2.6255261785685367,2.6255261785685367 0 1,1 -5.251052357137073,0" fill="rgb(138,157,62)" fill-opacity="0.8984703845520945" stroke="none"/><path d="M 87.46446340537344,136.34966792450507 m -1.99141402696825,0 a 1.99141402696825,1.99141402696825 0 1,1 3.9828280539365,0 a 1.99141402696825,1.99141402696825 0 1,1 -3.9828280539365,0" fill="rgb(138,157,62)" fill-opacity="0.8451520906670917" stroke="none"/><path d="M 68.85060318234834,124.6448785521117 m -1.2860676943265834,0 a 1.2860676943265834,1.2860676943265834 0 1,1 2.572135388653167,0 a 1.2860676943265834,1.2860676943265834 0 1,1 -2.572135388653167,0" fill="rgb(138,157,62)" fill-opacity="0.58012919420626" stroke="none"/><path d="M 60.37138545108697,122.84049291538341 m -1.8797479605766838,0 a 1.8797479605766838,1.8797479605766838 0 1,1 3.7594959211533676,0 a 1.8797479605766838,1.8797479605766838 0 1,1 -3.7594959211533676,0" fill="rgb(138,157,62)" fill-opacity="0.8844645866328813" stroke="none"/><path d="M 103.84264201593301,123.81785483456578 m -0.8849644548827774,0 a 0.8849644548827774,0.8849644548827774 0 1,1 1.7699289097655548,0 a 0.8849644548827774,0.8849644548827774 0 1,1 -1.7699289097655548,0" fill="rgb(138,157,62)" fill-opacity="0.4322465544958306" stroke="none"/><path d="M 74.19518577006995,155.51722635805015 m -2.7834839935473346,0 a 2.7834839935473346,2.7834839935473346 0 1,1 5.566967987094669,0 a 2.7834839935473346,2.7834839935473346 0 1,1 -5.566967987094669,0" fill="rgb(138,157,62)" fill-opacity="0.620222166011748" stroke="none"/><path d="M 79.19668899593746,144.43669803415045 m -1.5832892733035053,0 a 1.5832892733035053,1.5832892733035053 0 1,1 3.1665785466070107,0 a 1.5832892733035053,1.5832892733035053 0 1,1 -3.1665785466070107,0" fill="rgb(138,157,62)" fill-opacity="0.46863322897368614" stroke="none"/><path d="M 51.84739490706309,146.26027968020114 m -1.5923375635941999,0 a 1.5923375635941999,1.5923375635941999 0 1,1 3.1846751271883997,0 a 1.5923375635941999,1.5923375635941999 0 1,1 -3.1846751271883997,0" fill="rgb(138,157,62)" fill-opacity="0.7136966083647764" stroke="none"/><path d="M 107.13162898980495,114.72355609176118 m -1.7980488248273592,0 a 1.7980488248273592,1.7980488248273592 0 1,1 3.5960976496547183,0 a 1.7980488248273592,1.7980488248273592 0 1,1 -3.5960976496547183,0" fill="rgb(138,157,62)" fill-opacity="0.49182026357474556" stroke="none"/><path d="M 37.799127542716384,75.93564547133403 m -3.425957905593025,0 a 3.425957905593025,3.425957905593025 0 1,1 6.85191581118605,0 a 3.425957905593025,3.425957905593025 0 1,1 -6.85191581118605,0" fill="rgb(138,157,62)" fill-opacity="0.44868056483898766" stroke="none"/><path d="M 60.17032803130775,132.4103549339339 m -1.779323186160036,0 a 1.779323186160036,1.779323186160036 0 1,1 3.558646372320072,0 a 1.779323186160036,1.779323186160036 0 1,1 -3.558646372320072,0" fill="rgb(138,157,62)" fill-opacity="0.40527382221181163" stroke="none"/><path d="M 51.125079418703756,76.31635790601355 m -1.2054246965812803,0 a 1.2054246965812803,1.2054246965812803 0 1,1 2.4108493931625605,0 a 1.2054246965812803,1.2054246965812803 0 1,1 -2.4108493931625605,0" fill="rgb(138,157,62)" fill-opacity="0.45873809069382493" stroke="none"/><path d="M 40.49123811929912,64.11418633959916 m -1.959939044347178,0 a 1.959939044347178,1.959939044347178 0 1,1 3.919878088694356,0 a 1.959939044347178,1.959939044347178 0 1,1 -3.919878088694356,0" fill="rgb(138,157,62)" fill-opacity="0.6759318728908252" stroke="none"/><path d="M 24.273113842404676,86.79243723361661 m -2.9662641684343836,0 a 2.9662641684343836,2.9662641684343836 0 1,1 5.932528336868767,0 a 2.9662641684343836,2.9662641684343836 0 1,1 -5.932528336868767,0" fill="rgb(138,157,62)" fill-opacity="0.497994614549121" stroke="none"/><path d="M 47.38624675955742,31.528535433336977 m -2.0302768172458903,0 a 2.0302768172458903,2.0302768172458903 0 1,1 4.0605536344917805,0 a 2.0302768172458903,2.0302768172458903 0 1,1 -4.0605536344917805,0" fill="rgb(138,157,62)" fill-opacity="0.8355689226263274" stroke="none"/><path d="M 97.68629211283306,114.86416631034788 m -1.42934346843833,0 a 1.42934346843833,1.42934346843833 0 1,1 2.85868693687666,0 a 1.42934346843833,1.42934346843833 0 1,1 -2.85868693687666,0" fill="rgb(138,157,62)" fill-opacity="0.5268764911824242" stroke="none"/><path d="M 19.382480209716178,90.42980751623224 m -3.1999897222345437,0 a 3.1999897222345437,3.1999897222345437 0 1,1 6.399979444469087,0 a 3.1999897222345437,3.1999897222345437 0 1,1 -6.399979444469087,0" fill="rgb(138,157,62)" fill-opacity="0.5180867279788655" stroke="none"/><path d="M 14.521941362407173,88.99203419655423 m -2.9651039289604713,0 a 2.9651039289604713,2.9651039289604713 0 1,1 5.9302078579209425,0 a 2.9651039289604713,2.9651039289604713 0 1,1 -5.9302078579209425,0" fill="rgb(138,157,62)" fill-opacity="0.48227042365377165" stroke="none"/><path d="M 96.91084944067926,337.2225325221876 m -1.0189603077389138,0 a 1.0189603077389138,1.0189603077389138 0 1,1 2.0379206154778275,0 a 1.0189603077389138,1.0189603077389138 0 1,1 -2.0379206154778275,0" fill="rgb(138,157,62)" fill-opacity="0.46185849377430027" stroke="none"/><path d="M 81.73030311438984,335.46151460209234 m -0.9775444414370378,0 a 0.9775444414370378,0.9775444414370378 0 1,1 1.9550888828740756,0 a 0.9775444414370378,0.9775444414370378 0 1,1 -1.9550888828740756,0" fill="rgb(138,157,62)" fill-opacity="0.5686375211736523" stroke="none"/><path d="M 80.47193916264811,305.61101797390546 m -2.1354946176823004,0 a 2.1354946176823004,2.1354946176823004 0 1,1 4.270989235364601,0 a 2.1354946176823004,2.1354946176823004 0 1,1 -4.270989235364601,0" fill="rgb(138,157,62)" fill-opacity="0.5633835779923567" stroke="none"/><path d="M 54.28148245620529,327.36182423353085 m -0.9261426645868966,0 a 0.9261426645868966,0.9261426645868966 0 1,1 1.8522853291737933,0 a 0.9261426645868966,0.9261426645868966 0 1,1 -1.8522853291737933,0" fill="rgb(138,157,62)" fill-opacity="0.5155568808076365" stroke="none"/><path d="M 74.6825274532145,375.4336424955767 m -3.1637513095649945,0 a 3.1637513095649945,3.1637513095649945 0 1,1 6.327502619129989,0 a 3.1637513095649945,3.1637513095649945 0 1,1 -6.327502619129989,0" fill="rgb(138,157,62)" fill-opacity="0.8254563205791798" stroke="none"/><path d="M 46.93385462907198,350.4530597344127 m -1.2835350753157604,0 a 1.2835350753157604,1.2835350753157604 0 1,1 2.5670701506315208,0 a 1.2835350753157604,1.2835350753157604 0 1,1 -2.5670701506315208,0" fill="rgb(138,157,62)" fill-opacity="0.48445778769790854" stroke="none"/><path d="M 38.41053037586114,362.53489459082704 m -2.0331290771270027,0 a 2.0331290771270027,2.0331290771270027 0 1,1 4.0662581542540055,0 a 2.0331290771270027,2.0331290771270027 0 1,1 -4.0662581542540055,0" fill="rgb(138,157,62)" fill-opacity="0.6536536771316581" stroke="none"/><path d="M 82.07578383525222,324.9012552395297 m -1.3907700409533796,0 a 1.3907700409533796,1.3907700409533796 0 1,1 2.7815400819067593,0 a 1.3907700409533796,1.3907700409533796 0 1,1 -2.7815400819067593,0" fill="rgb(138,157,62)" fill-opacity="0.7185561051853476" stroke="none"/><path d="M 91.9312854269107,332.5690885665788 m -1.7558808601006914,0 a 1.7558808601006914,1.7558808601006914 0 1,1 3.511761720201383,0 a 1.7558808601006914,1.7558808601006914 0 1,1 -3.511761720201383,0" fill="rgb(138,157,62)" fill-opacity="0.8198706481531806" stroke="none"/><path d="M 41.19200619078272,334.76277639302776 m -0.8570559336167562,0 a 0.8570559336167562,0.8570559336167562 0 1,1 1.7141118672335125,0 a 0.8570559336167562,0.8570559336167562 0 1,1 -1.7141118672335125,0" fill="rgb(138,157,62)" fill-opacity="0.637324118252492" stroke="none"/><path d="M 45.762956993433306,346.00163197848053 m -2.7317010098271175,0 a 2.7317010098271175,2.7317010098271175 0 1,1 5.463402019654235,0 a 2.7317010098271175,2.7317010098271175 0 1,1 -5.463402019654235,0" fill="rgb(138,157,62)" fill-opacity="0.5105158084439969" stroke="none"/><path d="M 78.56961928719933,309.6045326826567 m -1.6944813315225247,0 a 1.6944813315225247,1.6944813315225247 0 1,1 3.3889626630450493,0 a 1.6944813315225247,1.6944813315225247 0 1,1 -3.3889626630450493,0" fill="rgb(138,157,62)" fill-opacity="0.7546087760609269" stroke="none"/><path d="M 83.35745280544248,337.26014865593845 m -2.782847950734105,0 a 2.782847950734105,2.782847950734105 0 1,1 5.56569590146821,0 a 2.782847950734105,2.782847950734105 0 1,1 -5.56569590146821,0" fill="rgb(138,157,62)" fill-opacity="0.6676798492473222" stroke="none"/><path d="M 60.084707510142664,322.690564766888 m -1.5496465742145071,0 a 1.5496465742145071,1.5496465742145071 0 1,1 3.0992931484290143,0 a 1.5496465742145071,1.5496465742145071 0 1,1 -3.0992931484290143,0" fill="rgb(138,157,62)" fill-opacity="0.5435080414947668" stroke="none"/><path d="M 55.09069076670417,302.8586476045832 m -3.2966658056986686,0 a 3.2966658056986686,3.2966658056986686 0 1,1 6.593331611397337,0 a 3.2966658056986686,3.2966658056986686 0 1,1 -6.593331611397337,0" fill="rgb(138,157,62)" fill-opacity="0.455984026234886" stroke="none"/><path d="M 15.981996378674303,328.5204682778753 m -2.8430205353184457,0 a 2.8430205353184457,2.8430205353184457 0 1,1 5.686041070636891,0 a 2.8430205353184457,2.8430205353184457 0 1,1 -5.686041070636891,0" fill="rgb(138,157,62)" fill-opacity="0.5952998577142272" stroke="none"/><path d="M 167.3438784165856,283.65299674711775 m -2.7212407519573567,0 a 2.7212407519573567,2.7212407519573567 0 1,1 5.442481503914713,0 a 2.7212407519573567,2.7212407519573567 0 1,1 -5.442481503914713,0" fill="rgb(138,157,62)" fill-opacity="0.4703191265570722" stroke="none"/><path d="M 178.92025712755446,282.6573965925521 m -0.8228621122644592,0 a 0.8228621122644592,0.8228621122644592 0 1,1 1.6457242245289183,0 a 0.8228621122644592,0.8228621122644592 0 1,1 -1.6457242245289183,0" fill="rgb(138,157,62)" fill-opacity="0.5284925260720517" stroke="none"/><path d="M 195.69201687320427,283.5406615835226 m -1.3130809261997545,0 a 1.3130809261997545,1.3130809261997545 0 1,1 2.626161852399509,0 a 1.3130809261997545,1.3130809261997545 0 1,1 -2.626161852399509,0" fill="rgb(138,157,62)" fill-opacity="0.7080086374560193" stroke="none"/><path d="M 244.10063764193336,325.94158326024643 m -3.2857563407592867,0 a 3.2857563407592867,3.2857563407592867 0 1,1 6.571512681518573,0 a 3.2857563407592867,3.2857563407592867 0 1,1 -6.571512681518573,0" fill="rgb(138,157,62)" fill-opacity="0.5414767340346911" stroke="none"/><path d="M 130.34210256739485,326.56695648610287 m -2.873535499382334,0 a 2.873535499382334,2.873535499382334 0 1,1 5.747070998764668,0 a 2.873535499382334,2.873535499382334 0 1,1 -5.747070998764668,0" fill="rgb(138,157,62)" fill-opacity="0.7935220239562777" stroke="none"/><path d="M 172.9796708482163,352.8276128183024 m -2.459038677034539,0 a 2.459038677034539,2.459038677034539 0 1,1 4.918077354069078,0 a 2.459038677034539,2.459038677034539 0 1,1 -4.918077354069078,0" fill="rgb(138,157,62)" fill-opacity="0.4362013097640492" stroke="none"/><path d="M 208.13131370674188,259.7477134106125 m -1.5141416633606877,0 a 1.5141416633606877,1.5141416633606877 0 1,1 3.0282833267213753,0 a 1.5141416633606877,1.5141416633606877 0 1,1 -3.0282833267213753,0" fill="rgb(138,157,62)" fill-opacity="0.7657266353380503" stroke="none"/><path d="M 224.0786517865398,325.79828653832004 m -1.4734069205999263,0 a 1.4734069205999263,1.4734069205999263 0 1,1 2.9468138411998526,0 a 1.4734069205999263,1.4734069205999263 0 1,1 -2.9468138411998526,0" fill="rgb(138,157,62)" fill-opacity="0.8643950342558626" stroke="none"/><path d="M 314.67049772624625,261.2961174880717 m -0.8030908055194818,0 a 0.8030908055194818,0.8030908055194818 0 1,1 1.6061816110389635,0 a 0.8030908055194818,0.8030908055194818 0 1,1 -1.6061816110389635,0" fill="rgb(138,157,62)" fill-opacity="0.6967826265495907" stroke="none"/><path d="M 363.4276953512105,264.9650655803305 m -2.4284439823246453,0 a 2.4284439823246453,2.4284439823246453 0 1,1 4.856887964649291,0 a 2.4284439823246453,2.4284439823246453 0 1,1 -4.856887964649291,0" fill="rgb(138,157,62)" fill-opacity="0.7483450150389149" stroke="none"/><path d="M 304.6822350123638,266.26146510694997 m -1.2034281172538064,0 a 1.2034281172538064,1.2034281172538064 0 1,1 2.4068562345076128,0 a 1.2034281172538064,1.2034281172538064 0 1,1 -2.4068562345076128,0" fill="rgb(138,157,62)" fill-opacity="0.45754460463715585" stroke="none"/><path d="M 321.90759593770815,292.3373736632829 m -3.466900619543586,0 a 3.466900619543586,3.466900619543586 0 1,1 6.933801239087172,0 a 3.466900619543586,3.466900619543586 0 1,1 -6.933801239087172,0" fill="rgb(138,157,62)" fill-opacity="0.4132808277356333" stroke="none"/><path d="M 348.28140455448977,286.8464682138521 m -1.4168455902103836,0 a 1.4168455902103836,1.4168455902103836 0 1,1 2.833691180420767,0 a 1.4168455902103836,1.4168455902103836 0 1,1 -2.833691180420767,0" fill="rgb(138,157,62)" fill-opacity="0.6923489176092685" stroke="none"/><path d="M 298.8097526830175,227.87410039374322 m -1.3580274113592403,0 a 1.3580274113592403,1.3580274113592403 0 1,1 2.7160548227184806,0 a 1.3580274113592403,1.3580274113592403 0 1,1 -2.7160548227184806,0" fill="rgb(138,157,62)" fill-opacity="0.7984988923912073" stroke="none"/><path d="M 293.0377776917446,260.8247341850769 m -2.6322318261285504,0 a 2.6322318261285504,2.6322318261285504 0 1,1 5.264463652257101,0 a 2.6322318261285504,2.6322318261285504 0 1,1 -5.264463652257101,0" fill="rgb(138,157,62)" fill-opacity="0.7131670907091145" stroke="none"/><path d="M 341.25023707602793,243.78465070649887 m -3.268932037742685,0 a 3.268932037742685,3.268932037742685 0 1,1 6.53786407548537,0 a 3.268932037742685,3.268932037742685 0 1,1 -6.53786407548537,0" fill="rgb(138,157,62)" fill-opacity="0.4762104625740073" stroke="none"/><path d="M 271.547661589467,251.90022139716166 m -3.3039702904392465,0 a 3.3039702904392465,3.3039702904392465 0 1,1 6.607940580878493,0 a 3.3039702904392465,3.3039702904392465 0 1,1 -6.607940580878493,0" fill="rgb(138,157,62)" fill-opacity="0.756755006426324" stroke="none"/><path d="M 353.4951549194603,312.71459888851535 m -2.7539936863070533,0 a 2.7539936863070533,2.7539936863070533 0 1,1 5.507987372614107,0 a 2.7539936863070533,2.7539936863070533 0 1,1 -5.507987372614107,0" fill="rgb(138,157,62)" fill-opacity="0.44005521905661216" stroke="none"/><path d="M 366.8120274404544,267.455392393516 m -2.9435550387593175,0 a 2.9435550387593175,2.9435550387593175 0 1,1 5.887110077518635,0 a 2.9435550387593175,2.9435550387593175 0 1,1 -5.887110077518635,0" fill="rgb(138,157,62)" fill-opacity="0.7683189505657038" stroke="none"/><path d="M 324.67624621334363,244.46055817995915 m -2.752107851061699,0 a 2.752107851061699,2.752107851061699 0 1,1 5.504215702123398,0 a 2.752107851061699,2.752107851061699 0 1,1 -5.504215702123398,0" fill="rgb(138,157,62)" fill-opacity="0.6071758434662171" stroke="none"/><path d="M 294.86344636053826,270.94216038215586 m -1.9773679106381814,0 a 1.9773679106381814,1.9773679106381814 0 1,1 3.954735821276363,0 a 1.9773679106381814,1.9773679106381814 0 1,1 -3.954735821276363,0" fill="rgb(138,157,62)" fill-opacity="0.4519746978021155" stroke="none"/><path d="M 341.59215904141445,245.9966856713132 m -2.2369747522294183,0 a 2.2369747522294183,2.2369747522294183 0 1,1 4.473949504458837,0 a 2.2369747522294183,2.2369747522294183 0 1,1 -4.473949504458837,0" fill="rgb(138,157,62)" fill-opacity="0.5181581381191056" stroke="none"/><path d="M 347.76780722938213,301.8381372991996 m -2.4467743191224427,0 a 2.4467743191224427,2.4467743191224427 0 1,1 4.893548638244885,0 a 2.4467743191224427,2.4467743191224427 0 1,1 -4.893548638244885,0" fill="rgb(138,157,62)" fill-opacity="0.7124241416552117" stroke="none"/><path d="M 296.2838332714325,258.96351538758 m -2.758675748167733,0 a 2.758675748167733,2.758675748167733 0 1,1 5.517351496335466,0 a 2.758675748167733,2.758675748167733 0 1,1 -5.517351496335466,0" fill="rgb(138,157,62)" fill-opacity="0.8975732213394945" stroke="none"/><path d="M 271.34603982289633,242.42958169060648 m -0.9578513190469193,0 a 0.9578513190469193,0.9578513190469193 0 1,1 1.9157026380938387,0 a 0.9578513190469193,0.9578513190469193 0 1,1 -1.9157026380938387,0" fill="rgb(138,157,62)" fill-opacity="0.7090534308208176" stroke="none"/><path d="M 311.40062856809396,231.0902854227133 m -2.5985145546167896,0 a 2.5985145546167896,2.5985145546167896 0 1,1 5.197029109233579,0 a 2.5985145546167896,2.5985145546167896 0 1,1 -5.197029109233579,0" fill="rgb(138,157,62)" fill-opacity="0.5783774247425482" stroke="none"/><path d="M 376.9015643075393,281.5826138126147 m -0.9379586171988443,0 a 0.9379586171988443,0.9379586171988443 0 1,1 1.8759172343976886,0 a 0.9379586171988443,0.9379586171988443 0 1,1 -1.8759172343976886,0" fill="rgb(138,157,62)" fill-opacity="0.5243647247446839" stroke="none"/><path d="M 369.1763775753892,245.6472968129984 m -1.7063568360750598,0 a 1.7063568360750598,1.7063568360750598 0 1,1 3.4127136721501197,0 a 1.7063568360750598,1.7063568360750598 0 1,1 -3.4127136721501197,0" fill="rgb(138,157,62)" fill-opacity="0.40978516988350977" stroke="none"/><path d="M 337.0246414070724,278.97853624431855 m -2.735624827629665,0 a 2.735624827629665,2.735624827629665 0 1,1 5.47124965525933,0 a 2.735624827629665,2.735624827629665 0 1,1 -5.47124965525933,0" fill="rgb(138,157,62)" fill-opacity="0.46341852732080996" stroke="none"/><path d="M 316.63588725142154,235.36063387970185 m -1.9820839110498538,0 a 1.9820839110498538,1.9820839110498538 0 1,1 3.9641678220997076,0 a 1.9820839110498538,1.9820839110498538 0 1,1 -3.9641678220997076,0" fill="rgb(138,157,62)" fill-opacity="0.6662264188706506" stroke="none"/><path d="M 363.4277937825892,296.6511322215358 m -2.0561767076127033,0 a 2.0561767076127033,2.0561767076127033 0 1,1 4.112353415225407,0 a 2.0561767076127033,2.0561767076127033 0 1,1 -4.112353415225407,0" fill="rgb(138,157,62)" fill-opacity="0.7849759598253069" stroke="none"/><path d="M 261.1278200488905,260.56697506035596 m -1.4971365146287665,0 a 1.4971365146287665,1.4971365146287665 0 1,1 2.994273029257533,0 a 1.4971365146287665,1.4971365146287665 0 1,1 -2.994273029257533,0" fill="rgb(138,157,62)" fill-opacity="0.8174547260624941" stroke="none"/><path d="M 260.94378697371104,254.9548704857469 m -1.9464134562961954,0 a 1.9464134562961954,1.9464134562961954 0 1,1 3.892826912592391,0 a 1.9464134562961954,1.9464134562961954 0 1,1 -3.892826912592391,0" fill="rgb(138,157,62)" fill-opacity="0.8205681370678138" stroke="none"/><path d="M 190.23503202396736,290.8991245359627 m -1.2948330167744777,0 a 1.2948330167744777,1.2948330167744777 0 1,1 2.5896660335489554,0 a 1.2948330167744777,1.2948330167744777 0 1,1 -2.5896660335489554,0" fill="rgb(138,157,62)" fill-opacity="0.7169689855460826" stroke="none"/><path d="M 280.9957631917699,335.935633047477 m -1.001967798592333,0 a 1.001967798592333,1.001967798592333 0 1,1 2.003935597184666,0 a 1.001967798592333,1.001967798592333 0 1,1 -2.003935597184666,0" fill="rgb(138,157,62)" fill-opacity="0.5983460124623601" stroke="none"/><path d="M 181.4563743635486,289.1591127992765 m -1.8493310707737662,0 a 1.8493310707737662,1.8493310707737662 0 1,1 3.6986621415475325,0 a 1.8493310707737662,1.8493310707737662 0 1,1 -3.6986621415475325,0" fill="rgb(138,157,62)" fill-opacity="0.6595897061776587" stroke="none"/><path d="M 175.90520949808354,323.58616596719355 m -2.2738451002395146,0 a 2.2738451002395146,2.2738451002395146 0 1,1 4.547690200479029,0 a 2.2738451002395146,2.2738451002395146 0 1,1 -4.547690200479029,0" fill="rgb(138,157,62)" fill-opacity="0.6114588605993192" stroke="none"/><path d="M 209.02122633743525,302.08715283647336 m -3.3400006059621887,0 a 3.3400006059621887,3.3400006059621887 0 1,1 6.6800012119243775,0 a 3.3400006059621887,3.3400006059621887 0 1,1 -6.6800012119243775,0" fill="rgb(138,157,62)" fill-opacity="0.6076969652888433" stroke="none"/><path d="M 191.65941173376166,305.1937939853151 m -1.5604633896918443,0 a 1.5604633896918443,1.5604633896918443 0 1,1 3.1209267793836886,0 a 1.5604633896918443,1.5604633896918443 0 1,1 -3.1209267793836886,0" fill="rgb(138,157,62)" fill-opacity="0.5805844005310533" stroke="none"/><path d="M 220.72601640263477,276.0438952739903 m -3.3549434820545034,0 a 3.3549434820545034,3.3549434820545034 0 1,1 6.709886964109007,0 a 3.3549434820545034,3.3549434820545034 0 1,1 -6.709886964109007,0" fill="rgb(138,157,62)" fill-opacity="0.756402360967058" stroke="none"/><path d="M 207.99476219616548,309.7874255878282 m -0.9539121024678217,0 a 0.9539121024678217,0.9539121024678217 0 1,1 1.9078242049356433,0 a 0.9539121024678217,0.9539121024678217 0 1,1 -1.9078242049356433,0" fill="rgb(138,157,62)" fill-opacity="0.6134151386343285" stroke="none"/><path d="M 280.9098275029672,257.5075600744167 m -2.447106420752172,0 a 2.447106420752172,2.447106420752172 0 1,1 4.894212841504344,0 a 2.447106420752172,2.447106420752172 0 1,1 -4.894212841504344,0" fill="rgb(138,157,62)" fill-opacity="0.53801394264306" stroke="none"/><path d="M 272.14317468138455,299.4426285694339 m -2.553059117555763,0 a 2.553059117555763,2.553059117555763 0 1,1 5.106118235111526,0 a 2.553059117555763,2.553059117555763 0 1,1 -5.106118235111526,0" fill="rgb(138,157,62)" fill-opacity="0.7105938422532313" stroke="none"/><path d="M 235.99956488603203,280.27396042191697 m -2.4319481982226616,0 a 2.4319481982226616,2.4319481982226616 0 1,1 4.863896396445323,0 a 2.4319481982226616,2.4319481982226616 0 1,1 -4.863896396445323,0" fill="rgb(138,157,62)" fill-opacity="0.5309250146793305" stroke="none"/><path d="M 230.93978600344948,327.5829394255551 m -2.4257528000800663,0 a 2.4257528000800663,2.4257528000800663 0 1,1 4.851505600160133,0 a 2.4257528000800663,2.4257528000800663 0 1,1 -4.851505600160133,0" fill="rgb(138,157,62)" fill-opacity="0.45512758218984506" stroke="none"/><path d="M 276.6333001060208,280.89696481374807 m -2.838622098004974,0 a 2.838622098004974,2.838622098004974 0 1,1 5.677244196009948,0 a 2.838622098004974,2.838622098004974 0 1,1 -5.677244196009948,0" fill="rgb(138,157,62)" fill-opacity="0.44762719482545293" stroke="none"/><path d="M 177.42618069995626,351.3534571398573 m -3.339112979913576,0 a 3.339112979913576,3.339112979913576 0 1,1 6.678225959827152,0 a 3.339112979913576,3.339112979913576 0 1,1 -6.678225959827152,0" fill="rgb(138,157,62)" fill-opacity="0.8688261724616622" stroke="none"/><path d="M 272.5145807162046,261.87107503885534 m -1.3869296693861974,0 a 1.3869296693861974,1.3869296693861974 0 1,1 2.773859338772395,0 a 1.3869296693861974,1.3869296693861974 0 1,1 -2.773859338772395,0" fill="rgb(138,157,62)" fill-opacity="0.8636968576037749" stroke="none"/><path d="M 232.90823629752893,343.0484843247026 m -2.452533757611656,0 a 2.452533757611656,2.452533757611656 0 1,1 4.905067515223312,0 a 2.452533757611656,2.452533757611656 0 1,1 -4.905067515223312,0" fill="rgb(138,157,62)" fill-opacity="0.7708061800930006" stroke="none"/><path d="M 318.35073837983856,299.2608471215152 m -2.02418052860416,0 a 2.02418052860416,2.02418052860416 0 1,1 4.04836105720832,0 a 2.02418052860416,2.02418052860416 0 1,1 -4.04836105720832,0" fill="rgb(138,157,62)" fill-opacity="0.45466534251070645" stroke="none"/>
  </g>
</svg>