<?xml version="1.0" encoding="UTF-8"?>
<svg xmlns="http://www.w3.org/2000/svg" viewBox="0 0 400 400" width="400" height="400">
  <rect width="100%" height="100%" fill="rgb(21,39,165)"/>
  <g transform="translate(2.7671140714852456,-2.5348941422972793)">
    <path d="M 0,66.66666666666667 L 0,9.20075885724097 L 15,19.6221781688689 L 30,66.30509898216238 L 45,31.588004134389173 L 60,72.98402477811258 L 75,68.15734237283121 L 90,103.14355150653091 L 105,27.483217738990078 L 120,28.538847120971823 L 135,53.989962719812056 L 150,107.6963603644981 L 165,72.17498755295041 L 180,99.57971884486156 L 195,78.32159520014875 L 210,29.190411575157036 L 225,44.43388439757311 L 240,5.100244035303703 L 255,80.6877111760678 L 270,86.34765666051493 L 285,108.85440877931474 L 300,52.94907893660353 L 315,51.34753732565322 L 330,-33.92003972680534 L 345,14.55865054995644 L 360,85.41525022351907 L 375,49.11750046487183 L 390,45.41031902949317 L 400,66.66666666666667" fill="none" stroke="rgb(183,209,84)" stroke-width="1.8416272136810719" opacity="0.4341616992657539"/><path d="M 0,80.0 L 0,32.9324674715582 L 15,39.918606220133555 L 30,63.745895311811154 L 45,20.42905395821421 L 60,102.49099556142856 L 75,84.8019509985925 L 90,144.80475615464215 L 105,87.84408848567885 L 120,99.50899972166911 L 135,55.01356437172872 L 150,112.41842911801794 L 165,146.6891916509212 L 180,99.53250858521412 L 195,146.82145400391676 L 210,88.31518495433149 L 225,52.96974094131295 L 240,47.02768733675798 L 255,142.92525446178317 L 270,117.30986918349384 L 285,107.09090236071665 L 300,64.1271376575473 L 315,80.08273656940662 L 330,53.73019323185642 L 345,50.7827078424106 L 360,94.61381017574138 L 375,70.25513192606024 L 390,77.08423897376936 L 400,80.0" fill="none" stroke="rgb(183,209,84)" stroke-width="1.0882345229522734" opacity="0.630431839586137"/><path d="M 0,133.33333333333334 L 0,60.795652053658515 L 15,92.8705789199957 L 30,79.94144762453067 L 45,109.001594205647 L 60,160.40476608150524 L 75,180.43974926902237 L 90,202.3919407175272 L 105,107.92032761043907 L 120,108.83610514043207 L 135,108.5584392701764 L 150,148.65595921625692 L 165,167.32713201520536 L 180,128.1327863741369 L 195,155.56651862247674 L 210,106.71128393244928 L 225,99.94508940825193 L 240,111.08113780583369 L 255,174.1538901166692 L 270,147.5783753817734 L 285,164.57004616396372 L 300,99.14050525345829 L 315,99.1884523163406 L 330,77.0127683567711 L 345,28.59370745880709 L 360,169.01917026577962 L 375,153.7436119671587 L 390,142.41898444754187 L 400,133.33333333333334" fill="none" stroke="rgb(183,209,84)" stroke-width="1.048460875836041" opacity="0.6560651475642663"/><path d="M 0,177.77777777777777 L 0,143.02277899927628 L 15,143.6114908810406 L 30,116.30517120199335 L 45,149.17239318024883 L 60,188.56358000763592 L 75,196.5622263771789 L 90,197.96581890395814 L 105,153.85831933678585 L 120,142.30401011574875 L 135,134.3815769161116 L 150,212.86281828973853 L 165,243.0972666576574 L 180,213.3635034576739 L 195,176.23198126040654 L 210,178.81842994865696 L 225,147.72519746929893 L 240,150.6079240141993 L 255,220.6112135513597 L 270,227.16845166492044 L 285,208.07238251199178 L 300,187.12901986536585 L 315,153.0398719623244 L 330,113.01856983477714 L 345,109.08723060337772 L 360,195.44326467963373 L 375,207.3099108873085 L 390,209.13623893641275 L 400,177.77777777777777" fill="none" stroke="rgb(183,209,84)" stroke-width="1.3549800120941273" opacity="0.4022676020049647"/><path d="M 0,200.0 L 0,162.82261741995833 L 15,133.2528517629749 L 30,183.1445806252722 L 45,191.6442743638332 L 60,208.79298552234843 L 75,254.9464031466137 L 90,299.84803755001667 L 105,195.1923838163202 L 120,184.77758903176036 L 135,163.6112762157171 L 150,215.64959781112407 L 165,218.0104012930267 L 180,269.2227746954053 L 195,259.7282950698633 L 210,122.95883361312752 L 225,166.32558310732605 L 240,206.1579876385082 L 255,214.78171377478054 L 270,231.50439659359944 L 285,261.1307753924373 L 300,180.41350716136873 L 315,111.5796399022696 L 330,157.8182211202712 L 345,161.0707438919269 L 360,241.35475722374855 L 375,233.36210985888926 L 390,216.8808492403792 L 400,200.0" fill="none" stroke="rgb(183,209,84)" stroke-width="1.2214546748319106" opacity="0.6779365902702141"/>
  </g>
</svg>