<?xml version="1.0" encoding="UTF-8"?>
<svg xmlns="http://www.w3.org/2000/svg" viewBox="0 0 400 400" width="400" height="400">
  <rect width="100%" height="100%" fill="rgb(42,71,156)"/>
  <g transform="translate(3.67401784700386,7.263828393245046)">
    <path d="M 0,0 L 24,0 L 24,24 L 0,24 Z" fill="none" stroke="rgb(138,157,62)" stroke-width="0.8999156235133063" opacity="0.3746296146332736"/><path d="M 12.0,60.0 m -6.0,0 a 6.0,6.0 0 1,1 12.0,0 a 6.0,6.0 0 1,1 -12.0,0" fill="none" stroke="rgb(138,157,62)" stroke-width="0.6050938269335375" opacity="0.5187761496920271"/><path d="M 0,72 L 24,72 L 24,96 L 0,96 Z" fill="none" stroke="rgb(138,157,62)" stroke-width="2.4155850677969575" opacity="0.7035328172052242"/><path d="M 0,96 L 24,120" fill="none" stroke="rgb(138,157,62)" stroke-width="2.2220334359205696" opacity="0.8902664706287162"/><path d="M 0,120 L 24,144" fill="none" stroke="rgb(138,157,62)" stroke-width="2.7373974942931376" opacity="0.4567739064892251"/><path d="M 0,168 L 24,168 L 24,192 L 0,192 Z" fill="none" stroke="rgb(138,157,62)" stroke-width="2.9838389428502436" opacity="0.5536526046793859"/><path d="M 0,216 L 24,216 L 24,240 L 0,240 Z" fill="none" stroke="rgb(138,157,62)" stroke-width="2.383598184349152" opacity="0.5921480505337366"/><path d="M 12.0,300.0 m -6.0,0 a 6.0,6.0 0 1,1 12.0,0 a 6.0,6.0 0 1,1 -12.0,0" fill="none" stroke="rgb(138,157,62)" stroke-width="1.3925319060635062" opacity="0.838808751737989"/><path d="M 0,312 L 24,336" fill="none" stroke="rgb(138,157,62)" stroke-width="2.7572640370769728" opacity="0.560923780691106"/><path d="M 0,336 L 24,336 L 24,360 L 0,360 Z" fill="none" stroke="rgb(138,157,62)" stroke-width="1.7587920117258968" opacity="0.5368297053293113"/><path d="M 0,384 L 24,384 L 24,408 L 0,408 Z" fill="none" stroke="rgb(138,157,62)" stroke-width="1.8957866860920198" opacity="0.6666465523418772"/><path d="M 36.0,108.0 m -6.0,0 a 6.0,6.0 0 1,1 12.0,0 a 6.0,6.0 0 1,1 -12.0,0" fill="none" stroke="rgb(138,157,62)" stroke-width="1.405634279188481" opacity="0.7817216288610624"/><path d="M 36.0,132.0 m -6.0,0 a 6.0,6.0 0 1,1 12.0,0 a 6.0,6.0 0 1,1 -12.0,0" fill="none" stroke="rgb(138,157,62)" stroke-width="2.5718577432635663" opacity="0.32846712149509844"/><path d="M 24,144 L 48,144 L 48,168 L 24,168 Z" fill="none" stroke="rgb(138,157,62)" stroke-width="2.0349825431973496" opacity="0.8680477875727532"/><path d="M 36.0,228.0 m -6.0,0 a 6.0,6.0 0 1,1 12.0,0 a 6.0,6.0 0 1,1 -12.0,0" fill="none" stroke="rgb(138,157,62)" stroke-width="0.735774493430802" opacity="0.376989161649898"/><path d="M 36.0,276.0 m -6.0,0 a 6.0,6.0 0 1,1 12.0,0 a 6.0,6.0 0 1,1 -12.0,0" fill="none" stroke="rgb(138,157,62)" stroke-width="2.46152023214037" opacity="0.7144302369506212"/><path d="M 36.0,300.0 m -6.0,0 a 6.0,6.0 0 1,1 12.0,0 a 6.0,6.0 0 1,1 -12.0,0" fill="none" stroke="rgb(138,157,62)" stroke-width="2.893244954107128" opacity="0.4116687835450246"/><path d="M 36.0,324.0 m -6.0,0 a 6.0,6.0 0 1,1 12.0,0 a 6.0,6.0 0 1,1 -12.0,0" fill="none" stroke="rgb(138,157,62)" stroke-width="0.6231804226468844" opacity="0.305730248080184"/><path d="M 24,336 L 48,336 L 48,360 L 24,360 Z" fill="none" stroke="rgb(138,157,62)" stroke-width="2.736321710540618" opacity="0.7792167178649646"/><path d="M 24,360 L 48,360 L 48,384 L 24,384 Z" fill="none" stroke="rgb(138,157,62)" stroke-width="1.1825614480955529" opacity="0.7981999132638147"/><path d="M 24,384 L 48,384 L 48,408 L 24,408 Z" fill="none" stroke="rgb(138,157,62)" stroke-width="2.9816039528071485" opacity="0.5691276866839157"/><path d="M 48,0 L 72,0 L 72,24 L 48,24 Z" fill="none" stroke="rgb(138,157,62)" stroke-width="0.5325965341916192" opacity="0.7229838441445662"/><path d="M 48,24 L 72,24 L 72,48 L 48,48 Z" fill="none" stroke="rgb(138,157,62)" stroke-width="2.21528279082567" opacity="0.8583752140185823"/><path d="M 48,48 L 72,48 L 72,72 L 48,72 Z" fill="none" stroke="rgb(138,157,62)" stroke-width="1.909140315244102" opacity="0.6784503729198345"/><path d="M 48,72 L 72,96" fill="none" stroke="rgb(138,157,62)" stroke-width="1.3771790051596136" opacity="0.6582922295610771"/><path d="M 48,120 L 72,144" fill="none" stroke="rgb(138,157,62)" stroke-width="1.849293517448698" opacity="0.48012605100476524"/><path d="M 48,144 L 72,168" fill="none" stroke="rgb(138,157,62)" stroke-width="0.871975205278991" opacity="0.49484635964740564"/><path d="M 48,168 L 72,192" fill="none" stroke="rgb(138,157,62)" stroke-width="2.374851749113505" opacity="0.6917214705077022"/><path d="M 48,216 L 72,216 L 72,240 L 48,240 Z" fill="none" stroke="rgb(138,157,62)" stroke-width="0.9323001838604366" opacity="0.4806691893302474"/><path d="M 48,312 L 72,312 L 72,336 L 48,336 Z" fill="none" stroke="rgb(138,157,62)" stroke-width="0.8767645437813869" opacity="0.7021312210651961"/><path d="M 48,336 L 72,360" fill="none" stroke="rgb(138,157,62)" stroke-width="1.9678170971790103" opacity="0.8418239670074197"/><path d="M 48,384 L 72,408" fill="none" stroke="rgb(138,157,62)" stroke-width="1.2141720583071984" opacity="0.3339655113638693"/><path d="M 72,0 L 96,0 L 96,24 L 72,24 Z" fill="none" stroke="rgb(138,157,62)" stroke-width="2.069369148857662" opacity="0.705622924544737"/><path d="M 72,24 L 96,48" fill="none" stroke="rgb(138,157,62)" stroke-width="0.5431319160434446" opacity="0.6979851235237169"/><path d="M 72,48 L 96,72" fill="none" stroke="rgb(138,157,62)" stroke-width="2.402428268224976" opacity="0.5336885598036365"/><path d="M 72,96 L 96,96 L 96,120 L 72,120 Z" fill="none" stroke="rgb(138,157,62)" stroke-width="1.5415909391196885" opacity="0.3245296423554302"/><path d="M 84.0,156.0 m -6.0,0 a 6.0,6.0 0 1,1 12.0,0 a 6.0,6.0 0 1,1 -12.0,0" fill="none" stroke="rgb(138,157,62)" stroke-width="0.8606441638699415" opacity="0.5033440126270121"/><path d="M 72,168 L 96,192" fill="none" stroke="rgb(138,157,62)" stroke-width="2.136177926102931" opacity="0.8173178762452196"/><path d="M 72,216 L 96,240" fill="none" stroke="rgb(138,157,62)" stroke-width="2.0403435441831883" opacity="0.6375948617218403"/><path d="M 84.0,252.0 m -6.0,0 a 6.0,6.0 0 1,1 12.0,0 a 6.0,6.0 0 1,1 -12.0,0" fill="none" stroke="rgb(138,157,62)" stroke-width="1.6423198723840655" opacity="0.8862821036761916"/><path d="M 72,264 L 96,264 L 96,288 L 72,288 Z" fill="none" stroke="rgb(138,157,62)" stroke-width="2.7872107037868097" opacity="0.6310553733580762"/><path d="M 72,288 L 96,288 L 96,312 L 72,312 Z" fill="none" stroke="rgb(138,157,62)" stroke-width="1.7980596933671484" opacity="0.4823606241380567"/><path d="M 84.0,324.0 m -6.0,0 a 6.0,6.0 0 1,1 12.0,0 a 6.0,6.0 0 1,1 -12.0,0" fill="none" stroke="rgb(138,157,62)" stroke-width="2.485353176573608" opacity="0.5336997019986612"/><path d="M 72,336 L 96,360" fill="none" stroke="rgb(138,157,62)" stroke-width="1.4656549180224445" opacity="0.4112496871679284"/><path d="M 108.0,12.0 m -6.0,0 a 6.0,6.0 0 1,1 12.0,0 a 6.0,6.0 0 1,1 -12.0,0" fill="none" stroke="rgb(138,157,62)" stroke-width="1.2251051730771427" opacity="0.7281867699639621"/><path d="M 96,48 L 120,48 L 120,72 L 96,72 Z" fill="none" stroke="rgb(138,157,62)" stroke-width="1.9807065655279064" opacity="0.42333999568682584"/><path d="M 108.0,84.0 m -6.0,0 a 6.0,6.0 0 1,1 12.0,0 a 6.0,6.0 0 1,1 -12.0,0" fill="none" stroke="rgb(138,157,62)" stroke-width="0.9768876824760624" opacity="0.7643671783614392"/><path d="M 108.0,108.0 m -6.0,0 a 6.0,6.0 0 1,1 12.0,0 a 6.0,6.0 0 1,1 -12.0,0" fill="none" stroke="rgb(138,157,62)" stroke-width="0.5508697987432061" opacity="0.7359603412526385"/><path d="M 96,216 L 120,240" fill="none" stroke="rgb(138,157,62)" stroke-width="2.993750357079642" opacity="0.5285326003079162"/><path d="M 96,264 L 120,288" fill="none" stroke="rgb(138,157,62)" stroke-width="0.5774554873152864" opacity="0.4804167979663889"/><path d="M 108.0,348.0 m -6.0,0 a 6.0,6.0 0 1,1 12.0,0 a 6.0,6.0 0 1,1 -12.0,0" fill="none" stroke="rgb(138,157,62)" stroke-width="2.481342748749908" opacity="0.6098686568142715"/><path d="M 96,360 L 120,360 L 120,384 L 96,384 Z" fill="none" stroke="rgb(138,157,62)" stroke-width="1.3228499259800928" opacity="0.5916562877398438"/><path d="M 108.0,396.0 m -6.0,0 a 6.0,6.0 0 1,1 12.0,0 a 6.0,6.0 0 1,1 -12.0,0" fill="none" stroke="rgb(138,157,62)" stroke-width="1.453548310142278" opacity="0.6144056401916426"/><path d="M 120,24 L 144,48" fill="none" stroke="rgb(138,157,62)" stroke-width="2.990927079256055" opacity="0.34201417218608476"/><path d="M 132.0,60.0 m -6.0,0 a 6.0,6.0 0 1,1 12.0,0 a 6.0,6.0 0 1,1 -12.0,0" fill="none" stroke="rgb(138,157,62)" stroke-width="2.771475836356969" opacity="0.7857417655912136"/><path d="M 120,96 L 144,96 L 144,120 L 120,120 Z" fill="none" stroke="rgb(138,157,62)" stroke-width="1.3877977505878876" opacity="0.4072418607724376"/><path d="M 120,120 L 144,120 L 144,144 L 120,144 Z" fill="none" stroke="rgb(138,157,62)" stroke-width="1.902833295337639" opacity="0.5722489891992946"/><path d="M 120,144 L 144,168" fill="none" stroke="rgb(138,157,62)" stroke-width="1.3075193424967895" opacity="0.4220717820024781"/><path d="M 120,192 L 144,192 L 144,216 L 120,216 Z" fill="none" stroke="rgb(138,157,62)" stroke-width="2.65091771187846" opacity="0.4823737771733535"/><path d="M 120,216 L 144,216 L 144,240 L 120,240 Z" fill="none" stroke="rgb(138,157,62)" stroke-width="2.292906945553802" opacity="0.7605048787691269"/><path d="M 132.0,252.0 m -6.0,0 a 6.0,6.0 0 1,1 12.0,0 a 6.0,6.0 0 1,1 -12.0,0" fill="none" stroke="rgb(138,157,62)" stroke-width="2.0666811160161735" opacity="0.5081354434038958"/><path d="M 132.0,276.0 m -6.0,0 a 6.0,6.0 0 1,1 12.0,0 a 6.0,6.0 0 1,1 -12.0,0" fill="none" stroke="rgb(138,157,62)" stroke-width="0.9685293236905702" opacity="0.5151126924808938"/><path d="M 120,312 L 144,312 L 144,336 L 120,336 Z" fill="none" stroke="rgb(138,157,62)" stroke-width="0.8988224675414093" opacity="0.7686792217243821"/><path d="M 132.0,348.0 m -6.0,0 a 6.0,6.0 0 1,1 12.0,0 a 6.0,6.0 0 1,1 -12.0,0" fill="none" stroke="rgb(138,157,62)" stroke-width="2.2923008393436706" opacity="0.5473000787042096"/><path d="M 144,24 L 168,24 L 168,48 L 144,48 Z" fill="none" stroke="rgb(138,157,62)" stroke-width="2.5374317992819884" opacity="0.8385881768408383"/><path d="M 156.0,84.0 m -6.0,0 a 6.0,6.0 0 1,1 12.0,0 a 6.0,6.0 0 1,1 -12.0,0" fill="none" stroke="rgb(138,157,62)" stroke-width="1.2921033908143695" opacity="0.49850081214332964"/><path d="M 144,96 L 168,120" fill="none" stroke="rgb(138,157,62)" stroke-width="1.681046761420049" opacity="0.5509880225442468"/><path d="M 144,120 L 168,120 L 168,144 L 144,144 Z" fill="none" stroke="rgb(138,157,62)" stroke-width="1.8303005357064506" opacity="0.422072992385188"/><path d="M 144,144 L 168,168" fill="none" stroke="rgb(138,157,62)" stroke-width="0.8085864534030534" opacity="0.8492683750090784"/><path d="M 144,192 L 168,216" fill="none" stroke="rgb(138,157,62)" stroke-width="2.3402973557999083" opacity="0.32360856966352564"/><path d="M 144,216 L 168,216 L 168,240 L 144,240 Z" fill="none" stroke="rgb(138,157,62)" stroke-width="1.3751927022048438" opacity="0.5458011172667406"/><path d="M 156.0,252.0 m -6.0,0 a 6.0,6.0 0 1,1 12.0,0 a 6.0,6.0 0 1,1 -12.0,0" fill="none" stroke="rgb(138,157,62)" stroke-width="0.8695984706683066" opacity="0.5225413867342192"/><path d="M 144,264 L 168,264 L 168,288 L 144,288 Z" fill="none" stroke="rgb(138,157,62)" stroke-width="1.1496362042941746" opacity="0.30570686610628994"/><path d="M 144,288 L 168,312" fill="none" stroke="rgb(138,157,62)" stroke-width="1.101614681339958" opacity="0.6529932702849404"/><path d="M 144,312 L 168,336" fill="none" stroke="rgb(138,157,62)" stroke-width="0.7654014328571372" opacity="0.6059758784847256"/><path d="M 144,336 L 168,336 L 168,360 L 144,360 Z" fill="none" stroke="rgb(138,157,62)" stroke-width="2.453682847256415" opacity="0.5119048715616907"/><path d="M 156.0,396.0 m -6.0,0 a 6.0,6.0 0 1,1 12.0,0 a 6.0,6.0 0 1,1 -12.0,0" fill="none" stroke="rgb(138,157,62)" stroke-width="1.250075349899759" opacity="0.8661762597253686"/><path d="M 180.0,12.0 m -6.0,0 a 6.0,6.0 0 1,1 12.0,0 a 6.0,6.0 0 1,1 -12.0,0" fill="none" stroke="rgb(138,157,62)" stroke-width="1.7325449102148889" opacity="0.6787071903630111"/><path d="M 168,24 L 192,48" fill="none" stroke="rgb(138,157,62)" stroke-width="1.1644593695933247" opacity="0.3318783501174982"/><path d="M 180.0,108.0 m -6.0,0 a 6.0,6.0 0 1,1 12.0,0 a 6.0,6.0 0 1,1 -12.0,0" fill="none" stroke="rgb(138,157,62)" stroke-width="2.855774139259496" opacity="0.34729831495312236"/><path d="M 180.0,132.0 m -6.0,0 a 6.0,6.0 0 1,1 12.0,0 a 6.0,6.0 0 1,1 -12.0,0" fill="none" stroke="rgb(138,157,62)" stroke-width="2.6985514351671136" opacity="0.8295655161712385"/><path d="M 168,192 L 192,192 L 192,216 L 168,216 Z" fill="none" stroke="rgb(138,157,62)" stroke-width="1.787412289943598" opacity="0.49093928177318175"/><path d="M 180.0,252.0 m -6.0,0 a 6.0,6.0 0 1,1 12.0,0 a 6.0,6.0 0 1,1 -12.0,0" fill="none" stroke="rgb(138,157,62)" stroke-width="1.737033355392362" opacity="0.7411651041790875"/><path d="M 180.0,324.0 m -6.0,0 a 6.0,6.0 0 1,1 12.0,0 a 6.0,6.0 0 1,1 -12.0,0" fill="none" stroke="rgb(138,157,62)" stroke-width="2.802082671424065" opacity="0.7172271106519631"/><path d="M 168,336 L 192,360" fill="none" stroke="rgb(138,157,62)" stroke-width="2.188556015620737" opacity="0.8262517344507194"/><path d="M 192,192 L 216,192 L 216,216 L 192,216 Z" fill="none" stroke="rgb(138,157,62)" stroke-width="0.7415637026813642" opacity="0.47555379866436426"/><path d="M 192,216 L 216,240" fill="none" stroke="rgb(138,157,62)" stroke-width="2.7427688681442355" opacity="0.521590984120495"/><path d="M 204.0,252.0 m -6.0,0 a 6.0,6.0 0 1,1 12.0,0 a 6.0,6.0 0 1,1 -12.0,0" fill="none" stroke="rgb(138,157,62)" stroke-width="2.9252110818876513" opacity="0.3625393659466296"/><path d="M 204.0,276.0 m -6.0,0 a 6.0,6.0 0 1,1 12.0,0 a 6.0,6.0 0 1,1 -12.0,0" fill="none" stroke="rgb(138,157,62)" stroke-width="2.6764206320585524" opacity="0.6062804332384162"/><path d="M 204.0,300.0 m -6.0,0 a 6.0,6.0 0 1,1 12.0,0 a 6.0,6.0 0 1,1 -12.0,0" fill="none" stroke="rgb(138,157,62)" stroke-width="2.814693536847546" opacity="0.41508029827997983"/><path d="M 192,312 L 216,336" fill="none" stroke="rgb(138,157,62)" stroke-width="1.0895703228625142" opacity="0.5296961407903293"/><path d="M 204.0,372.0 m -6.0,0 a 6.0,6.0 0 1,1 12.0,0 a 6.0,6.0 0 1,1 -12.0,0" fill="none" stroke="rgb(138,157,62)" stroke-width="1.255439657823484" opacity="0.8440700322207317"/><path d="M 192,384 L 216,408" fill="none" stroke="rgb(138,157,62)" stroke-width="2.0895678372319924" opacity="0.8514500187041905"/><path d="M 216,0 L 240,0 L 240,24 L 216,24 Z" fill="none" stroke="rgb(138,157,62)" stroke-width="2.711329319543122" opacity="0.3879235325591621"/><path d="M 216,24 L 240,48" fill="none" stroke="rgb(138,157,62)" stroke-width="2.297449586181044" opacity="0.4796168153656224"/><path d="M 228.0,132.0 m -6.0,0 a 6.0,6.0 0 1,1 12.0,0 a 6.0,6.0 0 1,1 -12.0,0" fill="none" stroke="rgb(138,157,62)" stroke-width="2.450040540289416" opacity="0.5923466179304453"/><path d="M 216,144 L 240,144 L 240,168 L 216,168 Z" fill="none" stroke="rgb(138,157,62)" stroke-width="2.1064199575852234" opacity="0.612950519134162"/><path d="M 228.0,180.0 m -6.0,0 a 6.0,6.0 0 1,1 12.0,0 a 6.0,6.0 0 1,1 -12.0,0" fill="none" stroke="rgb(138,157,62)" stroke-width="2.27759143993761" opacity="0.675483160342768"/><path d="M 228.0,204.0 m -6.0,0 a 6.0,6.0 0 1,1 12.0,0 a 6.0,6.0 0 1,1 -12.0,0" fill="none" stroke="rgb(138,157,62)" stroke-width="1.6101735889335285" opacity="0.8859358716207961"/><path d="M 228.0,228.0 m -6.0,0 a 6.0,6.0 0 1,1 12.0,0 a 6.0,6.0 0 1,1 -12.0,0" fill="none" stroke="rgb(138,157,62)" stroke-width="1.5670647339250743" opacity="0.36826789152569533"/><path d="M 228.0,252.0 m -6.0,0 a 6.0,6.0 0 1,1 12.0,0 a 6.0,6.0 0 1,1 -12.0,0" fill="none" stroke="rgb(138,157,62)" stroke-width="2.7415216132421696" opacity="0.385743372409074"/><path d="M 216,264 L 240,288" fill="none" stroke="rgb(138,157,62)" stroke-width="2.2348733826652816" opacity="0.39086650141597384"/><path d="M 216,288 L 240,288 L 240,312 L 216,312 Z" fill="none" stroke="rgb(138,157,62)" stroke-width="2.4768416355517298" opacity="0.4529754412062189"/><path d="M 216,312 L 240,336" fill="none" stroke="rgb(138,157,62)" stroke-width="1.7951709702347802" opacity="0.80918710232176"/><path d="M 228.0,348.0 m -6.0,0 a 6.0,6.0 0 1,1 12.0,0 a 6.0,6.0 0 1,1 -12.0,0" fill="none" stroke="rgb(138,157,62)" stroke-width="2.2389927436806785" opacity="0.7294370189866488"/><path d="M 216,360 L 240,384" fill="none" stroke="rgb(138,157,62)" stroke-width="1.2201832397899772" opacity="0.8050077716777588"/><path d="M 228.0,396.0 m -6.0,0 a 6.0,6.0 0 1,1 12.0,0 a 6.0,6.0 0 1,1 -12.0,0" fill="none" stroke="rgb(138,157,62)" stroke-width="2.2372985242529513" opacity="0.7799957466973879"/><path d="M 252.0,36.0 m -6.0,0 a 6.0,6.0 0 1,1 12.0,0 a 6.0,6.0 0 1,1 -12.0,0" fill="none" stroke="rgb(138,157,62)" stroke-width="0.6808247136967156" opacity="0.5610660142389239"/><path d="M 252.0,60.0 m -6.0,0 a 6.0,6.0 0 1,1 12.0,0 a 6.0,6.0 0 1,1 -12.0,0" fill="none" stroke="rgb(138,157,62)" stroke-width="2.565701744373774" opacity="0.6572853448706656"/><path d="M 240,72 L 264,72 L 264,96 L 240,96 Z" fill="none" stroke="rgb(138,157,62)" stroke-width="2.3981818644278983" opacity="0.5431913626261955"/><path d="M 240,120 L 264,120 L 264,144 L 240,144 Z" fill="none" stroke="rgb(138,157,62)" stroke-width="2.755270604456787" opacity="0.3578147472569491"/><path d="M 240,168 L 264,168 L 264,192 L 240,192 Z" fill="none" stroke="rgb(138,157,62)" stroke-width="2.929691275024875" opacity="0.463241765432142"/><path d="M 252.0,252.0 m -6.0,0 a 6.0,6.0 0 1,1 12.0,0 a 6.0,6.0 0 1,1 -12.0,0" fill="none" stroke="rgb(138,157,62)" stroke-width="0.98490949544016" opacity="0.6202488636889703"/><path d="M 240,264 L 264,264 L 264,288 L 240,288 Z" fill="none" stroke="rgb(138,157,62)" stroke-width="1.9994744898788" opacity="0.880149389471431"/><path d="M 240,312 L 264,336" fill="none" stroke="rgb(138,157,62)" stroke-width="1.0140586906262912" opacity="0.5582000820179144"/><path d="M 252.0,348.0 m -6.0,0 a 6.0,6.0 0 1,1 12.0,0 a 6.0,6.0 0 1,1 -12.0,0" fill="none" stroke="rgb(138,157,62)" stroke-width="1.630440100558716" opacity="0.714820783524478"/><path d="M 252.0,372.0 m -6.0,0 a 6.0,6.0 0 1,1 12.0,0 a 6.0,6.0 0 1,1 -12.0,0" fill="none" stroke="rgb(138,157,62)" stroke-width="1.7436283770154588" opacity="0.8183839157317279"/><path d="M 240,384 L 264,408" fill="none" stroke="rgb(138,157,62)" stroke-width="0.8548283939081034" opacity="0.47619491481512943"/><path d="M 276.0,12.0 m -6.0,0 a 6.0,6.0 0 1,1 12.0,0 a 6.0,6.0 0 1,1 -12.0,0" fill="none" stroke="rgb(138,157,62)" stroke-width="1.2726381163743656" opacity="0.4016258207207465"/><path d="M 264,48 L 288,72" fill="none" stroke="rgb(138,157,62)" stroke-width="0.740136637446029" opacity="0.3209707656635877"/><path d="M 264,96 L 288,120" fill="none" stroke="rgb(138,157,62)" stroke-width="0.9398809000062001" opacity="0.6704230565403169"/><path d="M 264,120 L 288,144" fill="none" stroke="rgb(138,157,62)" stroke-width="2.9104707569189694" opacity="0.8226888151538367"/><path d="M 276.0,156.0 m -6.0,0 a 6.0,6.0 0 1,1 12.0,0 a 6.0,6.0 0 1,1 -12.0,0" fill="none" stroke="rgb(138,157,62)" stroke-width="2.3232806048455528" opacity="0.32121476540222754"/><path d="M 264,192 L 288,216" fill="none" stroke="rgb(138,157,62)" stroke-width="2.806994851047492" opacity="0.3019271103748227"/><path d="M 264,240 L 288,240 L 288,264 L 264,264 Z" fill="none" stroke="rgb(138,157,62)" stroke-width="1.930320162349192" opacity="0.8133774646530565"/><path d="M 264,264 L 288,288" fill="none" stroke="rgb(138,157,62)" stroke-width="1.6093870317646524" opacity="0.7986732574228372"/><path d="M 276.0,300.0 m -6.0,0 a 6.0,6.0 0 1,1 12.0,0 a 6.0,6.0 0 1,1 -12.0,0" fill="none" stroke="rgb(138,157,62)" stroke-width="2.968225897050254" opacity="0.7437240191761137"/><path d="M 264,336 L 288,360" fill="none" stroke="rgb(138,157,62)" stroke-width="2.6434811140449046" opacity="0.5601180716165705"/><path d="M 264,360 L 288,360 L 288,384 L 264,384 Z" fill="none" stroke="rgb(138,157,62)" stroke-width="2.1455230340606235" opacity="0.4103942629348782"/><path d="M 288,0 L 312,24" fill="none" stroke="rgb(138,157,62)" stroke-width="1.7597757810576173" opacity="0.8697783940507096"/><path d="M 300.0,36.0 m -6.0,0 a 6.0,6.0 0 1,1 12.0,0 a 6.0,6.0 0 1,1 -12.0,0" fill="none" stroke="rgb(138,157,62)" stroke-width="1.362710935365487" opacity="0.6693768609286268"/><path d="M 288,72 L 312,72 L 312,96 L 288,96 Z" fill="none" stroke="rgb(138,157,62)" stroke-width="1.8508759125670642" opacity="0.6922922238012554"/><path d="M 288,144 L 312,168" fill="none" stroke="rgb(138,157,62)" stroke-width="2.660773302405368" opacity="0.7640845722822489"/><path d="M 288,216 L 312,240" fill="none" stroke="rgb(138,157,62)" stroke-width="2.3816383347883425" opacity="0.4683228560361933"/><path d="M 288,264 L 312,264 L 312,288 L 288,288 Z" fill="none" stroke="rgb(138,157,62)" stroke-width="1.6193404624063121" opacity="0.8479886252836155"/><path d="M 300.0,348.0 m -6.0,0 a 6.0,6.0 0 1,1 12.0,0 a 6.0,6.0 0 1,1 -12.0,0" fill="none" stroke="rgb(138,157,62)" stroke-width="1.0354896574157335" opacity="0.6670811061492223"/><path d="M 300.0,372.0 m -6.0,0 a 6.0,6.0 0 1,1 12.0,0 a 6.0,6.0 0 1,1 -12.0,0" fill="none" stroke="rgb(138,157,62)" stroke-width="1.855809744977836" opacity="0.6938392300540841"/><path d="M 288,384 L 312,408" fill="none" stroke="rgb(138,157,62)" stroke-width="2.2835961471283834" opacity="0.5589577942306896"/><path d="M 312,120 L 336,144" fill="none" stroke="rgb(138,157,62)" stroke-width="2.3992322817802627" opacity="0.6391110728371217"/><path d="M 312,192 L 336,192 L 336,216 L 312,216 Z" fill="none" stroke="rgb(138,157,62)" stroke-width="2.9651438004166555" opacity="0.46694315919113943"/><path d="M 312,216 L 336,240" fill="none" stroke="rgb(138,157,62)" stroke-width="1.4996884887990818" opacity="0.625831578740782"/><path d="M 312,264 L 336,264 L 336,288 L 312,288 Z" fill="none" stroke="rgb(138,157,62)" stroke-width="2.786584702978637" opacity="0.6624649544127651"/><path d="M 324.0,300.0 m -6.0,0 a 6.0,6.0 0 1,1 12.0,0 a 6.0,6.0 0 1,1 -12.0,0" fill="none" stroke="rgb(138,157,62)" stroke-width="0.9757536863758699" opacity="0.6412843105397636"/><path d="M 312,312 L 336,336" fill="none" stroke="rgb(138,157,62)" stroke-width="1.4330263590047898" opacity="0.7451515960553479"/><path d="M 324.0,348.0 m -6.0,0 a 6.0,6.0 0 1,1 12.0,0 a 6.0,6.0 0 1,1 -12.0,0" fill="none" stroke="rgb(138,157,62)" stroke-width="0.7598481248797163" opacity="0.7331440012331113"/><path d="M 312,360 L 336,384" fill="none" stroke="rgb(138,157,62)" stroke-width="2.1816703705196847" opacity="0.610826533526279"/><path d="M 336,0 L 360,0 L 360,24 L 336,24 Z" fill="none" stroke="rgb(138,157,62)" stroke-width="0.7212004977577942" opacity="0.33853038905218896"/><path d="M 336,72 L 360,96" fill="none" stroke="rgb(138,157,62)" stroke-width="1.7100663749406277" opacity="0.8967131803822532"/><path d="M 336,120 L 360,144" fill="none" stroke="rgb(138,157,62)" stroke-width="1.925063623256698" opacity="0.4779533465117235"/><path d="M 348.0,180.0 m -6.0,0 a 6.0,6.0 0 1,1 12.0,0 a 6.0,6.0 0 1,1 -12.0,0" fill="none" stroke="rgb(138,157,62)" stroke-width="2.0421111128932816" opacity="0.7183795802475554"/><path d="M 348.0,204.0 m -6.0,0 a 6.0,6.0 0 1,1 12.0,0 a 6.0,6.0 0 1,1 -12.0,0" fill="none" stroke="rgb(138,157,62)" stroke-width="1.0771448770327736" opacity="0.8051791965309625"/><path d="M 348.0,252.0 m -6.0,0 a 6.0,6.0 0 1,1 12.0,0 a 6.0,6.0 0 1,1 -12.0,0" fill="none" stroke="rgb(138,157,62)" stroke-width="1.5627901781357354" opacity="0.41400828084657354"/><path d="M 336,336 L 360,336 L 360,360 L 336,360 Z" fill="none" stroke="rgb(138,157,62)" stroke-width="1.1236410602923623" opacity="0.6939497596486341"/><path d="M 348.0,372.0 m -6.0,0 a 6.0,6.0 0 1,1 12.0,0 a 6.0,6.0 0 1,1 -12.0,0" fill="none" stroke="rgb(138,157,62)" stroke-width="2.493564626360743" opacity="0.34635759750522344"/><path d="M 348.0,396.0 m -6.0,0 a 6.0,6.0 0 1,1 12.0,0 a 6.0,6.0 0 1,1 -12.0,0" fill="none" stroke="rgb(138,157,62)" stroke-width="1.0057556032370005" opacity="0.6660117796707549"/><path d="M 360,0 L 384,24" fill="none" stroke="rgb(138,157,62)" stroke-width="2.874672387461872" opacity="0.6342482467769093"/><path d="M 360,24 L 384,24 L 384,48 L 360,48 Z" fill="none" stroke="rgb(138,157,62)" stroke-width="2.5729700041237415" opacity="0.8996600698229964"/><path d="M 360,72 L 384,96" fill="none" stroke="rgb(138,157,62)" stroke-width="0.501131856227776" opacity="0.4565506603092617"/><path d="M 360,96 L 384,96 L 384,120 L 360,120 Z" fill="none" stroke="rgb(138,157,62)" stroke-width="1.5003506817502217" opacity="0.7233757771634004"/><path d="M 372.0,132.0 m -6.0,0 a 6.0,6.0 0 1,1 12.0,0 a 6.0,6.0 0 1,1 -12.0,0" fill="none" stroke="rgb(138,157,62)" stroke-width="0.687539206079794" opacity="0.6431105861948216"/><path d="M 372.0,180.0 m -6.0,0 a 6.0,6.0 0 1,1 12.0,0 a 6.0,6.0 0 1,1 -12.0,0" fill="none" stroke="rgb(138,157,62)" stroke-width="1.9487970458859496" opacity="0.6553327989287981"/><path d="M 360,192 L 384,216" fill="none" stroke="rgb(138,157,62)" stroke-width="1.697239346018728" opacity="0.40560855133564155"/><path d="M 360,216 L 384,216 L 384,240 L 360,240 Z" fill="none" stroke="rgb(138,157,62)" stroke-width="0.8924606681253501" opacity="0.32564587286322455"/><path d="M 372.0,252.0 m -6.0,0 a 6.0,6.0 0 1,1 12.0,0 a 6.0,6.0 0 1,1 -12.0,0" fill="none" stroke="rgb(138,157,62)" stroke-width="0.8729194084812735" opacity="0.7371798676391543"/><path d="M 360,288 L 384,312" fill="none" stroke="rgb(138,157,62)" stroke-width="2.053061582540225" opacity="0.43801633082506053"/><path d="M 360,312 L 384,312 L 384,336 L 360,336 Z" fill="none" stroke="rgb(138,157,62)" stroke-width="2.8552925808036957" opacity="0.5914641251149417"/><path d="M 384,0 L 408,24" fill="none" stroke="rgb(138,157,62)" stroke-width="2.570662919424993" opacity="0.4545524194259341"/><path d="M 384,48 L 408,48 L 408,72 L 384,72 Z" fill="none" stroke="rgb(138,157,62)" stroke-width="2.518989689278057" opacity="0.6560681942566079"/><path d="M 384,72 L 408,72 L 408,96 L 384,96 Z" fill="none" stroke="rgb(138,157,62)" stroke-width="1.2743192696010444" opacity="0.6666895755695372"/><path d="M 396.0,132.0 m -6.0,0 a 6.0,6.0 0 1,1 12.0,0 a 6.0,6.0 0 1,1 -12.0,0" fill="none" stroke="rgb(138,157,62)" stroke-width="2.275629767986187" opacity="0.5528502908244961"/><path d="M 396.0,180.0 m -6.0,0 a 6.0,6.0 0 1,1 12.0,0 a 6.0,6.0 0 1,1 -12.0,0" fill="none" stroke="rgb(138,157,62)" stroke-width="0.8582920362399877" opacity="0.791515610651067"/><path d="M 396.0,204.0 m -6.0,0 a 6.0,6.0 0 1,1 12.0,0 a 6.0,6.0 0 1,1 -12.0,0" fill="none" stroke="rgb(138,157,62)" stroke-width="2.521413782057499" opacity="0.46379155255820426"/><path d="M 396.0,228.0 m -6.0,0 a 6.0,6.0 0 1,1 12.0,0 a 6.0,6.0 0 1,1 -12.0,0" fill="none" stroke="rgb(138,157,62)" stroke-width="1.1306760551870505" opacity="0.606455057224747"/><path d="M 384,264 L 408,264 L 408,288 L 384,288 Z" fill="none" stroke="rgb(138,157,62)" stroke-width="2.7095702017468914" opacity="0.635603632863236"/><path d="M 384,288 L 408,312" fill="none" stroke="rgb(138,157,62)" stroke-width="1.6385085631437" opacity="0.6327221921361483"/><path d="M 384,336 L 408,336 L 408,360 L 384,360 Z" fill="none" stroke="rgb(138,157,62)" stroke-width="1.5777816075808802" opacity="0.8055946958838136"/><path d="M 384,384 L 408,384 L 408,408 L 384,408 Z" fill="none" stroke="rgb(138,157,62)" stroke-width="0.6176887768252841" opacity="0.8204048583748067"/>
  </g>
</svg>