<?xml version="1.0" encoding="UTF-8"?>
<svg xmlns="http://www.w3.org/2000/svg" viewBox="0 0 400 400" width="400" height="400">
  <rect width="100%" height="100%" fill="rgb(156,126,53)"/>
  <g transform="translate(-17.75026783195116,16.285237013296097)">
    <path d="M 200.0,200.0 L 71.93893447424901,100.05523564690492 L 190.74570777480747,203.75573115536184 L 65.33135168523867,163.10294456155643 Z" fill="none" stroke="rgb(69,137,208)" stroke-width="0.5968452741523909" opacity="0.8769281110297475"/><path d="M 200.0,200.0 L 192.0061300295277,272.24696214383107 L 202.83459350301027,210.10080865207806 L 315.8126219697057,236.08938330345077 Z" fill="none" stroke="rgb(69,137,208)" stroke-width="2.9021988178223213" opacity="0.5653725764160684"/><path d="M 200.0,200.0 L 243.13894633940626,97.81299594153639 L 291.41359728559286,187.7128776111818 L 182.92532448246095,272.0569365649057 L 187.3006104883366,174.06184554820607 L 296.3683241930914,183.6202852798899 Z" fill="none" stroke="rgb(69,137,208)" stroke-width="1.1611162955721706" opacity="0.40038213003084155"/><path d="M 200.0,200.0 L 131.18443428248665,173.24796622721095 L 103.07597107676796,173.4114930292942 L 107.92066385018936,245.9251865102511 L 219.28295459757607,157.73265559437263 Z" fill="none" stroke="rgb(69,137,208)" stroke-width="1.0853864332406484" opacity="0.7949165555606887"/><path d="M 200.0,200.0 L 217.5026818929802,222.357511975555 L 218.67449153024754,180.66606335890364 L 128.01421302612488,159.44093350051196 L 137.27400596430664,172.87892827959703 Z" fill="none" stroke="rgb(69,137,208)" stroke-width="1.417916688375612" opacity="0.8993982564566767"/><path d="M 200.0,200.0 L 172.93431689901792,171.3352944930716 L 171.6378185055842,191.34304170692005 L 289.9654520229634,270.7705477568574 L 165.29757834832947,251.26318049228968 L 164.13169095645114,221.52500287265104 Z" fill="none" stroke="rgb(69,137,208)" stroke-width="2.76267466173789" opacity="0.3830932764603189"/><path d="M 200.0,200.0 L 293.38103699640266,143.3022289679797 L 195.42896061289667,206.37240651189018 L 334.01826868401764,134.93168189425853 Z" fill="none" stroke="rgb(69,137,208)" stroke-width="1.944129759897498" opacity="0.8489575681815691"/><path d="M 200.0,200.0 L 189.43242519790414,204.58203771967928 L 281.68909902339936,176.7595501855772 L 285.26612518955994,194.44705751772668 Z" fill="none" stroke="rgb(69,137,208)" stroke-width="2.7674584815263046" opacity="0.6844161317434353"/>
  </g>
</svg>