<?xml version="1.0" encoding="UTF-8"?>
<svg xmlns="http://www.w3.org/2000/svg" viewBox="0 0 400 400" width="400" height="400">
  <rect width="100%" height="100%" fill="rgb(169,24,86)"/>
  <g transform="translate(-13.528015900544297,16.28488505070431)">
    <path d="M 200.0,200.0 L 81.8451833792229,213.00658811723162 L 74.02252967969378,231.30363122527206 L 115.48897035826221,227.84194526908067 L 73.2668084174888,155.84820031161237 L 191.85480203974544,156.2664267940002 Z" fill="none" stroke="rgb(170,68,64)" stroke-width="1.3698181702253558" opacity="0.5360904313328295"/><path d="M 200.0,200.0 L 308.2024464925139,217.60725834491774 L 263.13711120753504,197.31344259192264 L 193.41445579736484,192.04943140139568 L 301.6809546549925,231.41247663409106 Z" fill="none" stroke="rgb(170,68,64)" stroke-width="2.913665907678321" opacity="0.43115611908719387"/><path d="M 200.0,200.0 L 333.05699632788344,195.82554436691555 L 330.18713927497026,209.7759230819126 L 249.06937362945206,156.42475828521637 L 255.45571405991203,172.4639644809134 L 357.838417402891,113.89902866391677 L 319.3064759722679,227.3810901004894 Z" fill="none" stroke="rgb(170,68,64)" stroke-width="1.1517546664077811" opacity="0.6749622479652396"/><path d="M 200.0,200.0 L 89.19680080982391,222.1380910605385 L 79.40322622630202,157.5915633629091 L 123.77011938811674,260.99017882729896 L 192.38671227177147,185.05944958953467 L 131.0073990125673,217.33795129829937 Z" fill="none" stroke="rgb(170,68,64)" stroke-width="2.4451276606472696" opacity="0.4480925869446187"/><path d="M 200.0,200.0 L 99.47732140043965,181.63629507582377 L 186.89808213442396,116.18565871289007 L 90.95732246565706,191.9660962692181 L 197.87163835277187,237.9255956806087 L 99.78937736660173,198.44277857081863 L 219.1345116962429,180.90675381111598 Z" fill="none" stroke="rgb(170,68,64)" stroke-width="2.9251846583487553" opacity="0.48036920192679855"/><path d="M 200.0,200.0 L 297.36901371296244,280.3334002763015 L 292.7628594237327,227.77007594194944 L 317.75781028524733,177.69138825502694 L 167.01209151873272,193.32231338008341 Z" fill="none" stroke="rgb(170,68,64)" stroke-width="2.744589199582246" opacity="0.3769491150266051"/><path d="M 200.0,200.0 L 105.93692252590223,178.61310764744704 L 248.09635797022077,234.55315175758005 L 105.63808552745411,197.34408951828527 L 105.97671654379907,225.8901960772211 Z" fill="none" stroke="rgb(170,68,64)" stroke-width="1.598490931307499" opacity="0.7366174837699428"/><path d="M 200.0,200.0 L 348.8743788741702,244.01525777970403 L 317.37333972793306,227.02359751865316 L 324.3351479732192,338.63877579182497 L 229.74149820620033,210.32651076497282 L 196.18627834470874,241.34010405407244 L 218.34789143643323,224.72476785150158 Z" fill="none" stroke="rgb(170,68,64)" stroke-width="2.2976734352988615" opacity="0.7993807439319873"/><path d="M 200.0,200.0 L 289.0961711980169,228.37154967640555 L 222.73270664255216,285.4476781015742 L 224.3326391101607,258.66378309170966 L 310.12442913825896,233.94574320237535 L 332.6616060564272,196.67536006690725 L 213.47495565685045,152.23179940192074 Z" fill="none" stroke="rgb(170,68,64)" stroke-width="2.3938181455333365" opacity="0.7086543183143483"/><path d="M 200.0,200.0 L 205.52371051818625,137.42035476226724 L 218.57792375289947,220.22262447378614 L 207.78473798610074,209.92976791064896 L 200.52696260037564,118.78175762600809 Z" fill="none" stroke="rgb(170,68,64)" stroke-width="2.7346722289252208" opacity="0.8008547782278272"/>
  </g>
</svg>