<?xml version="1.0" encoding="UTF-8"?>
<svg xmlns="http://www.w3.org/2000/svg" viewBox="0 0 400 400" width="400" height="400">
  <rect width="100%" height="100%" fill="rgb(229,192,135)"/>
  <g transform="translate(-11.112431316001764,14.373377283648324)">
    <path d="M 312.9442557598035,169.4297804895295 L 344.31709046586604,167.0358635821153 L 319.1835676956149,239.88894818460574 L 47.507749018327246,278.07250902142516 L 343.33174291602927,145.939658578853 L 39.94168295859268,284.9130013602945 L 72.95494857392475,222.6794803455497 L 215.63751772018497,198.91646609885493 L 292.35800471593177,227.70233413175546 L 98.95255981897351,236.03951323509207 L 241.72441185136864,186.36497896596106 L 114.85248534571326,246.7080901410763 L 289.7560402958835,169.0516114192617 L 323.41542016506924,152.73855526647685 L 295.71271835311256,169.59100095523752 L 104.28728164688744,169.59100095523752 L 76.58457983493076,152.73855526647685 L 110.24395970411649,169.0516114192617 L 285.14751465428674,246.7080901410763 L 158.27558814863136,186.36497896596106 L 301.0474401810265,236.03951323509207 L 107.64199528406823,227.70233413175546 L 184.36248227981503,198.91646609885493 L 327.04505142607525,222.6794803455497 L 360.05831704140735,284.9130013602945 L 56.66825708397073,145.939658578853 L 352.4922509816728,278.07250902142516 L 80.8164323043851,239.88894818460574 L 55.682909534133955,167.0358635821153 L 87.05574424019647,169.4297804895295 Z" fill="none" stroke="rgb(96,155,193)" stroke-width="2.038874975004915" opacity="0.7570337682796047"/><path d="M 327.2282098079136,241.96585032489577 L 259.4915129239268,196.70417554605555 L 264.295815873794,195.41005571715877 L 382.0267147463616,205.94392524282543 L 147.81209976010916,195.36012804252215 L 165.28113622908592,188.86613721280142 L 105.867688405023,146.15469823915322 L 96.37884878234381,160.98362828947387 L 284.87960612017014,225.5001537197575 L 177.28444149915452,199.24022591650464 L 124.44013697469968,200.4893687394857 L 243.25993780158373,214.14245077422834 L 246.78707185457068,176.56373187018428 L 145.87382452815888,207.02421850044544 L 270.6454330584485,173.42487571135055 L 72.39868769209338,195.09504925190976 L 221.39114669407223,200.63939575989878 L 124.7291713105742,199.92292482853944 L 275.2708286894258,199.92292482853944 L 178.60885330592777,200.63939575989878 L 327.6013123079066,195.09504925190976 L 129.35456694155152,173.42487571135055 L 254.12617547184112,207.02421850044544 L 153.21292814542932,176.56373187018428 L 156.74006219841627,214.14245077422834 L 275.55986302530033,200.4893687394857 L 222.71555850084548,199.24022591650464 L 115.12039387982986,225.5001537197575 L 303.6211512176562,160.98362828947387 L 294.132311594977,146.15469823915322 L 234.71886377091408,188.86613721280142 L 252.18790023989084,195.36012804252215 L 17.97328525363838,205.94392524282543 L 135.70418412620597,195.41005571715877 L 140.5084870760732,196.70417554605555 L 72.77179019208643,241.96585032489577 Z" fill="none" stroke="rgb(96,155,193)" stroke-width="0.890627424647515" opacity="0.8454701422870834"/><path d="M 77.78419888431932,188.5843226360193 L 258.02564210401835,200.19382820557098 L 135.91191758594667,173.94591165076636 L 127.17032708160716,203.76157235045673 L 309.0786407802279,240.89784799695792 L 257.23095584934623,182.36254577542556 L 174.62322393949393,200.0582051540081 L 176.46526181437403,196.79101249944537 L 223.53473818562597,196.79101249944537 L 225.37677606050607,200.0582051540081 L 142.76904415065377,182.36254577542556 L 90.92135921977211,240.89784799695792 L 272.8296729183928,203.76157235045673 L 264.08808241405336,173.94591165076636 L 141.97435789598165,200.19382820557098 L 322.2158011156807,188.5843226360193 Z" fill="none" stroke="rgb(96,155,193)" stroke-width="0.8286725610600089" opacity="0.7707274547661342"/><path d="M 52.00524432293713,213.45191253071516 L 295.2490262849891,215.9844210264995 L 247.32127638705916,195.31665939653283 L 164.88933150361436,179.5971954858753 L 185.5348521772959,208.09286346269695 L 190.1786961159074,204.82360823039215 L 37.88061635284788,156.85760717461264 L 320.6567530405571,264.1844577683221 L 170.6612397595282,186.94802927485608 L 260.49668032150913,163.91707020045885 L 340.1797286764328,138.914312635104 L 127.14630700287816,204.68506669574248 L 339.76802373466944,276.63125630114035 L 293.8532013778405,149.10690058231978 L 329.69626854074795,166.64541661527318 L 71.45179949761422,197.40920530423438 L 328.5482005023858,197.40920530423438 L 70.30373145925205,166.64541661527318 L 106.14679862215951,149.10690058231978 L 60.23197626533056,276.63125630114035 L 272.8536929971218,204.68506669574248 L 59.820271323567226,138.914312635104 L 139.50331967849087,163.91707020045885 L 229.3387602404718,186.94802927485608 L 79.34324695944292,264.1844577683221 L 362.1193836471521,156.85760717461264 L 209.8213038840926,204.82360823039215 L 214.4651478227041,208.09286346269695 L 235.11066849638564,179.5971954858753 L 152.67872361294084,195.31665939653283 L 104.7509737150109,215.9844210264995 L 347.99475567706287,213.45191253071516 Z" fill="none" stroke="rgb(96,155,193)" stroke-width="2.4976810623353973" opacity="0.6808285865266803"/><path d="M 159.3774363771402,211.90132402831674 L 178.49690650554476,201.7941660101256 L 232.72487860008582,196.90201955619057 L 229.48599717504723,216.1114996051377 L 39.216030847130185,258.180377379476 L 235.6175850018192,187.81456346544624 L 136.29107640806708,198.47599603105877 L 320.23309670034564,173.25137719236923 L 99.41610094872641,195.48261651069956 L 300.5838990512736,195.48261651069956 L 79.76690329965436,173.25137719236923 L 263.70892359193294,198.47599603105877 L 164.3824149981808,187.81456346544624 L 360.7839691528698,258.180377379476 L 170.51400282495277,216.1114996051377 L 167.27512139991418,196.90201955619057 L 221.50309349445524,201.7941660101256 L 240.6225636228598,211.90132402831674 Z" fill="none" stroke="rgb(96,155,193)" stroke-width="0.5410667645814169" opacity="0.37499720949804055"/><path d="M 264.44562435538745,196.43740716609287 L 68.75898825949923,246.7011175557085 L 120.37816783572593,230.53955058845236 L 241.86221945809473,176.75822185947248 L 131.67253677330152,217.7160208745533 L 333.74214232690883,138.69619427806117 L 110.00330403408212,234.5275297730965 L 268.21461209450104,167.54101342219218 L 131.4310057990986,216.7757722127067 L 66.46948762981384,142.39728478100716 L 77.95403640301924,172.27144537306629 L 162.300648189897,209.73398728521528 L 237.699351810103,209.73398728521528 L 322.04596359698076,172.27144537306629 L 333.53051237018616,142.39728478100716 L 268.5689942009014,216.7757722127067 L 131.78538790549896,167.54101342219218 L 289.99669596591787,234.5275297730965 L 66.25785767309117,138.69619427806117 L 268.32746322669846,217.7160208745533 L 158.13778054190527,176.75822185947248 L 279.62183216427405,230.53955058845236 L 331.24101174050077,246.7011175557085 L 135.55437564461255,196.43740716609287 Z" fill="none" stroke="rgb(96,155,193)" stroke-width="2.674483062069056" opacity="0.6915765107919296"/><path d="M 312.8207053399831,141.52937249853676 L 105.95816028809438,183.26101946753056 L 226.3933289590583,190.45598559130167 L 152.12675883585828,219.52921895624723 L 347.67331769137627,125.56465536621756 L 92.66889687553086,154.78418624922728 L 301.7613879751003,204.46009476626045 L 244.31455072612403,199.47711264046305 L 275.10958195362167,167.36834569799802 L 127.4938720673378,165.81327302407118 L 272.5061279326622,165.81327302407118 L 124.89041804637833,167.36834569799802 L 155.68544927387597,199.47711264046305 L 98.23861202489968,204.46009476626045 L 307.3311031244691,154.78418624922728 L 52.32668230862373,125.56465536621756 L 247.87324116414172,219.52921895624723 L 173.6066710409417,190.45598559130167 L 294.0418397119056,183.26101946753056 L 87.17929466001692,141.52937249853676 Z" fill="none" stroke="rgb(96,155,193)" stroke-width="0.8638628888349621" opacity="0.4961449277523068"/>
  </g>
</svg>