<?xml version="1.0" encoding="UTF-8"?>
<svg xmlns="http://www.w3.org/2000/svg" viewBox="0 0 400 400" width="400" height="400">
  <rect width="100%" height="100%" fill="rgb(65,135,155)"/>
  <g transform="translate(-10.166332977240282,5.531483156195435)">
    <path d="M 200.0,200.0 L 155.7960477688351,152.91591313243072 L 280.47818820977045,121.10116530761705 L 239.24217068444025,247.08408686756928 L 304.91494575400907,278.89883469238293 L 263.3396315348249,247.08408686756928 Z" fill="none" stroke="rgb(195,84,43)" stroke-width="1.298355855617848" opacity="0.8392002630336448"/><path d="M 200.0,200.0 L 253.94747873329524,258.1549070698639 L 129.5048793319132,275.9179930789823 L 270.08637560059447,141.8450929301361 L 292.68394210668043,275.9179930789823 L 273.69134162078353,141.8450929301361 Z" fill="none" stroke="rgb(195,84,43)" stroke-width="1.7000485412304027" opacity="0.8005797158034846"/><path d="M 200.0,200.0 L 258.148518233546,235.18636949453975 L 305.5194789653444,129.00565498734883 L 238.0874561727214,235.18636949453975 L 119.01029422160046,129.00565498734883 L 231.74701027396316,164.81363050546025 Z" fill="none" stroke="rgb(195,84,43)" stroke-width="0.5990786222427709" opacity="0.7208893528828134"/><path d="M 200.0,200.0 L 247.721728558064,250.62839295904325 L 342.0377523745283,110.82841893600225 L 265.81368545489977,149.37160704095675 L 329.7897211499906,110.82841893600225 L 117.327641163791,250.62839295904325 Z" fill="none" stroke="rgb(195,84,43)" stroke-width="1.777762084786723" opacity="0.7621476619711451"/><path d="M 200.0,200.0 L 177.5449641888115,224.19230492241758 L 113.61202059564079,131.00547555581306 L 223.29993776072644,175.80769507758242 L 295.42498478800053,268.99452444418694 L 167.07592913436645,224.19230492241758 Z" fill="none" stroke="rgb(195,84,43)" stroke-width="0.7650858442208468" opacity="0.7860320051712999"/><path d="M 200.0,200.0 L 224.06055000185543,172.99784497912145 L 308.46167213265045,283.1598945080853 L 237.37089800643483,227.00215502087855 L 317.6930357110308,283.1598945080853 L 239.1768153744717,172.99784497912145 Z" fill="none" stroke="rgb(195,84,43)" stroke-width="1.307721137754166" opacity="0.3347560361410055"/>
  </g>
</svg>